G04 EAGLE Gerber RS-274X export*
G75*
%MOMM*%
%FSLAX34Y34*%
%LPD*%
%INTop Copper*%
%IPPOS*%
%AMOC8*
5,1,8,0,0,1.08239X$1,22.5*%
G01*
%ADD10C,0.130000*%
%ADD11C,0.152400*%
%ADD12C,1.879600*%
%ADD13R,1.879600X1.879600*%
%ADD14C,0.203200*%
%ADD15C,0.808000*%


D10*
X0Y812800D02*
X0Y908500D01*
X812800Y908500D02*
X812800Y812800D01*
X812150Y889000D02*
X650Y889000D01*
X26000Y892192D01*
X26000Y885808D01*
X650Y889000D01*
X26000Y890300D01*
X26000Y887700D02*
X650Y889000D01*
X26000Y891600D01*
X26000Y886400D02*
X650Y889000D01*
X786800Y892192D02*
X812150Y889000D01*
X786800Y892192D02*
X786800Y885808D01*
X812150Y889000D01*
X786800Y890300D01*
X786800Y887700D02*
X812150Y889000D01*
X786800Y891600D01*
X786800Y886400D02*
X812150Y889000D01*
D11*
X384284Y900023D02*
X384282Y900156D01*
X384276Y900288D01*
X384266Y900420D01*
X384253Y900552D01*
X384235Y900684D01*
X384214Y900814D01*
X384189Y900945D01*
X384160Y901074D01*
X384127Y901202D01*
X384091Y901330D01*
X384051Y901456D01*
X384007Y901581D01*
X383959Y901705D01*
X383908Y901827D01*
X383853Y901948D01*
X383795Y902067D01*
X383733Y902185D01*
X383668Y902300D01*
X383599Y902414D01*
X383528Y902525D01*
X383452Y902634D01*
X383374Y902741D01*
X383293Y902846D01*
X383208Y902948D01*
X383121Y903048D01*
X383031Y903145D01*
X382938Y903240D01*
X382842Y903331D01*
X382744Y903420D01*
X382643Y903506D01*
X382539Y903589D01*
X382433Y903669D01*
X382325Y903745D01*
X382215Y903819D01*
X382102Y903889D01*
X381988Y903956D01*
X381871Y904019D01*
X381753Y904079D01*
X381633Y904136D01*
X381511Y904189D01*
X381388Y904238D01*
X381264Y904284D01*
X381138Y904326D01*
X381011Y904364D01*
X380883Y904399D01*
X380754Y904430D01*
X380625Y904457D01*
X380494Y904480D01*
X380363Y904500D01*
X380231Y904515D01*
X380099Y904527D01*
X379967Y904535D01*
X379834Y904539D01*
X379702Y904539D01*
X379569Y904535D01*
X379437Y904527D01*
X379305Y904515D01*
X379173Y904500D01*
X379042Y904480D01*
X378911Y904457D01*
X378782Y904430D01*
X378653Y904399D01*
X378525Y904364D01*
X378398Y904326D01*
X378272Y904284D01*
X378148Y904238D01*
X378025Y904189D01*
X377903Y904136D01*
X377783Y904079D01*
X377665Y904019D01*
X377548Y903956D01*
X377434Y903889D01*
X377321Y903819D01*
X377211Y903745D01*
X377103Y903669D01*
X376997Y903589D01*
X376893Y903506D01*
X376792Y903420D01*
X376694Y903331D01*
X376598Y903240D01*
X376505Y903145D01*
X376415Y903048D01*
X376328Y902948D01*
X376243Y902846D01*
X376162Y902741D01*
X376084Y902634D01*
X376008Y902525D01*
X375937Y902414D01*
X375868Y902300D01*
X375803Y902185D01*
X375741Y902067D01*
X375683Y901948D01*
X375628Y901827D01*
X375577Y901705D01*
X375529Y901581D01*
X375485Y901456D01*
X375445Y901330D01*
X375409Y901202D01*
X375376Y901074D01*
X375347Y900945D01*
X375322Y900814D01*
X375301Y900684D01*
X375283Y900552D01*
X375270Y900420D01*
X375260Y900288D01*
X375254Y900156D01*
X375252Y900023D01*
X375254Y899890D01*
X375260Y899758D01*
X375270Y899626D01*
X375283Y899494D01*
X375301Y899362D01*
X375322Y899232D01*
X375347Y899101D01*
X375376Y898972D01*
X375409Y898844D01*
X375445Y898716D01*
X375485Y898590D01*
X375529Y898465D01*
X375577Y898341D01*
X375628Y898219D01*
X375683Y898098D01*
X375741Y897979D01*
X375803Y897861D01*
X375868Y897746D01*
X375937Y897632D01*
X376008Y897521D01*
X376084Y897412D01*
X376162Y897305D01*
X376243Y897200D01*
X376328Y897098D01*
X376415Y896998D01*
X376505Y896901D01*
X376598Y896806D01*
X376694Y896715D01*
X376792Y896626D01*
X376893Y896540D01*
X376997Y896457D01*
X377103Y896377D01*
X377211Y896301D01*
X377321Y896227D01*
X377434Y896157D01*
X377548Y896090D01*
X377665Y896027D01*
X377783Y895967D01*
X377903Y895910D01*
X378025Y895857D01*
X378148Y895808D01*
X378272Y895762D01*
X378398Y895720D01*
X378525Y895682D01*
X378653Y895647D01*
X378782Y895616D01*
X378911Y895589D01*
X379042Y895566D01*
X379173Y895546D01*
X379305Y895531D01*
X379437Y895519D01*
X379569Y895511D01*
X379702Y895507D01*
X379834Y895507D01*
X379967Y895511D01*
X380099Y895519D01*
X380231Y895531D01*
X380363Y895546D01*
X380494Y895566D01*
X380625Y895589D01*
X380754Y895616D01*
X380883Y895647D01*
X381011Y895682D01*
X381138Y895720D01*
X381264Y895762D01*
X381388Y895808D01*
X381511Y895857D01*
X381633Y895910D01*
X381753Y895967D01*
X381871Y896027D01*
X381988Y896090D01*
X382102Y896157D01*
X382215Y896227D01*
X382325Y896301D01*
X382433Y896377D01*
X382539Y896457D01*
X382643Y896540D01*
X382744Y896626D01*
X382842Y896715D01*
X382938Y896806D01*
X383031Y896901D01*
X383121Y896998D01*
X383208Y897098D01*
X383293Y897200D01*
X383374Y897305D01*
X383452Y897412D01*
X383528Y897521D01*
X383599Y897632D01*
X383668Y897746D01*
X383733Y897861D01*
X383795Y897979D01*
X383853Y898098D01*
X383908Y898219D01*
X383959Y898341D01*
X384007Y898465D01*
X384051Y898590D01*
X384091Y898716D01*
X384127Y898844D01*
X384160Y898972D01*
X384189Y899101D01*
X384214Y899232D01*
X384235Y899362D01*
X384253Y899494D01*
X384266Y899626D01*
X384276Y899758D01*
X384282Y899890D01*
X384284Y900023D01*
X383380Y908151D02*
X383378Y908270D01*
X383372Y908390D01*
X383362Y908509D01*
X383348Y908627D01*
X383331Y908746D01*
X383309Y908863D01*
X383284Y908980D01*
X383254Y909095D01*
X383221Y909210D01*
X383184Y909324D01*
X383144Y909436D01*
X383099Y909547D01*
X383051Y909656D01*
X383000Y909764D01*
X382945Y909870D01*
X382886Y909974D01*
X382824Y910076D01*
X382759Y910176D01*
X382690Y910274D01*
X382618Y910370D01*
X382543Y910463D01*
X382466Y910553D01*
X382385Y910641D01*
X382301Y910726D01*
X382214Y910808D01*
X382125Y910888D01*
X382033Y910964D01*
X381939Y911038D01*
X381842Y911108D01*
X381744Y911175D01*
X381643Y911239D01*
X381539Y911299D01*
X381434Y911356D01*
X381327Y911409D01*
X381219Y911459D01*
X381109Y911505D01*
X380997Y911547D01*
X380884Y911586D01*
X380770Y911621D01*
X380655Y911652D01*
X380538Y911680D01*
X380421Y911703D01*
X380304Y911723D01*
X380185Y911739D01*
X380066Y911751D01*
X379947Y911759D01*
X379828Y911763D01*
X379708Y911763D01*
X379589Y911759D01*
X379470Y911751D01*
X379351Y911739D01*
X379232Y911723D01*
X379115Y911703D01*
X378998Y911680D01*
X378881Y911652D01*
X378766Y911621D01*
X378652Y911586D01*
X378539Y911547D01*
X378427Y911505D01*
X378317Y911459D01*
X378209Y911409D01*
X378102Y911356D01*
X377997Y911299D01*
X377893Y911239D01*
X377792Y911175D01*
X377694Y911108D01*
X377597Y911038D01*
X377503Y910964D01*
X377411Y910888D01*
X377322Y910808D01*
X377235Y910726D01*
X377151Y910641D01*
X377070Y910553D01*
X376993Y910463D01*
X376918Y910370D01*
X376846Y910274D01*
X376777Y910176D01*
X376712Y910076D01*
X376650Y909974D01*
X376591Y909870D01*
X376536Y909764D01*
X376485Y909656D01*
X376437Y909547D01*
X376392Y909436D01*
X376352Y909324D01*
X376315Y909210D01*
X376282Y909095D01*
X376252Y908980D01*
X376227Y908863D01*
X376205Y908746D01*
X376188Y908627D01*
X376174Y908509D01*
X376164Y908390D01*
X376158Y908270D01*
X376156Y908151D01*
X376158Y908032D01*
X376164Y907912D01*
X376174Y907793D01*
X376188Y907675D01*
X376205Y907556D01*
X376227Y907439D01*
X376252Y907322D01*
X376282Y907207D01*
X376315Y907092D01*
X376352Y906978D01*
X376392Y906866D01*
X376437Y906755D01*
X376485Y906646D01*
X376536Y906538D01*
X376591Y906432D01*
X376650Y906328D01*
X376712Y906226D01*
X376777Y906126D01*
X376846Y906028D01*
X376918Y905932D01*
X376993Y905839D01*
X377070Y905749D01*
X377151Y905661D01*
X377235Y905576D01*
X377322Y905494D01*
X377411Y905414D01*
X377503Y905338D01*
X377597Y905264D01*
X377694Y905194D01*
X377792Y905127D01*
X377893Y905063D01*
X377997Y905003D01*
X378102Y904946D01*
X378209Y904893D01*
X378317Y904843D01*
X378427Y904797D01*
X378539Y904755D01*
X378652Y904716D01*
X378766Y904681D01*
X378881Y904650D01*
X378998Y904622D01*
X379115Y904599D01*
X379232Y904579D01*
X379351Y904563D01*
X379470Y904551D01*
X379589Y904543D01*
X379708Y904539D01*
X379828Y904539D01*
X379947Y904543D01*
X380066Y904551D01*
X380185Y904563D01*
X380304Y904579D01*
X380421Y904599D01*
X380538Y904622D01*
X380655Y904650D01*
X380770Y904681D01*
X380884Y904716D01*
X380997Y904755D01*
X381109Y904797D01*
X381219Y904843D01*
X381327Y904893D01*
X381434Y904946D01*
X381539Y905003D01*
X381643Y905063D01*
X381744Y905127D01*
X381842Y905194D01*
X381939Y905264D01*
X382033Y905338D01*
X382125Y905414D01*
X382214Y905494D01*
X382301Y905576D01*
X382385Y905661D01*
X382466Y905749D01*
X382543Y905839D01*
X382618Y905932D01*
X382690Y906028D01*
X382759Y906126D01*
X382824Y906226D01*
X382886Y906328D01*
X382945Y906432D01*
X383000Y906538D01*
X383051Y906646D01*
X383099Y906755D01*
X383144Y906866D01*
X383184Y906978D01*
X383221Y907092D01*
X383254Y907207D01*
X383284Y907322D01*
X383309Y907439D01*
X383331Y907556D01*
X383348Y907675D01*
X383362Y907793D01*
X383372Y907912D01*
X383378Y908032D01*
X383380Y908151D01*
X390883Y908151D02*
X395399Y911763D01*
X395399Y895507D01*
X399914Y895507D02*
X390883Y895507D01*
X405889Y895507D02*
X405889Y896410D01*
X406792Y896410D01*
X406792Y895507D01*
X405889Y895507D01*
X421798Y907699D02*
X421796Y907824D01*
X421790Y907949D01*
X421781Y908074D01*
X421767Y908198D01*
X421750Y908322D01*
X421729Y908446D01*
X421704Y908568D01*
X421675Y908690D01*
X421643Y908811D01*
X421607Y908931D01*
X421567Y909050D01*
X421524Y909167D01*
X421477Y909283D01*
X421426Y909398D01*
X421372Y909510D01*
X421314Y909622D01*
X421254Y909731D01*
X421189Y909838D01*
X421122Y909944D01*
X421051Y910047D01*
X420977Y910148D01*
X420900Y910247D01*
X420820Y910343D01*
X420737Y910437D01*
X420652Y910528D01*
X420563Y910617D01*
X420472Y910702D01*
X420378Y910785D01*
X420282Y910865D01*
X420183Y910942D01*
X420082Y911016D01*
X419979Y911087D01*
X419873Y911154D01*
X419766Y911219D01*
X419657Y911279D01*
X419545Y911337D01*
X419433Y911391D01*
X419318Y911442D01*
X419202Y911489D01*
X419085Y911532D01*
X418966Y911572D01*
X418846Y911608D01*
X418725Y911640D01*
X418603Y911669D01*
X418481Y911694D01*
X418357Y911715D01*
X418233Y911732D01*
X418109Y911746D01*
X417984Y911755D01*
X417859Y911761D01*
X417734Y911763D01*
X417591Y911761D01*
X417449Y911755D01*
X417306Y911745D01*
X417164Y911732D01*
X417023Y911714D01*
X416881Y911693D01*
X416741Y911668D01*
X416601Y911639D01*
X416462Y911606D01*
X416324Y911569D01*
X416187Y911529D01*
X416052Y911485D01*
X415917Y911437D01*
X415784Y911385D01*
X415652Y911330D01*
X415522Y911271D01*
X415394Y911209D01*
X415267Y911143D01*
X415142Y911074D01*
X415019Y911002D01*
X414899Y910926D01*
X414780Y910847D01*
X414663Y910764D01*
X414549Y910679D01*
X414437Y910590D01*
X414328Y910499D01*
X414221Y910404D01*
X414116Y910307D01*
X414015Y910206D01*
X413916Y910103D01*
X413820Y909998D01*
X413727Y909889D01*
X413637Y909778D01*
X413550Y909665D01*
X413466Y909550D01*
X413386Y909432D01*
X413308Y909312D01*
X413234Y909190D01*
X413164Y909066D01*
X413096Y908940D01*
X413033Y908812D01*
X412972Y908683D01*
X412915Y908552D01*
X412862Y908420D01*
X412813Y908286D01*
X412767Y908151D01*
X420443Y904538D02*
X420537Y904630D01*
X420627Y904724D01*
X420715Y904821D01*
X420800Y904921D01*
X420882Y905023D01*
X420961Y905128D01*
X421036Y905235D01*
X421108Y905344D01*
X421177Y905455D01*
X421243Y905569D01*
X421305Y905684D01*
X421364Y905801D01*
X421419Y905920D01*
X421470Y906040D01*
X421518Y906162D01*
X421563Y906285D01*
X421603Y906409D01*
X421640Y906535D01*
X421673Y906662D01*
X421702Y906789D01*
X421728Y906918D01*
X421749Y907047D01*
X421767Y907177D01*
X421780Y907307D01*
X421790Y907437D01*
X421796Y907568D01*
X421798Y907699D01*
X420443Y904538D02*
X412767Y895507D01*
X421798Y895507D01*
X428398Y900023D02*
X428400Y900156D01*
X428406Y900288D01*
X428416Y900420D01*
X428429Y900552D01*
X428447Y900684D01*
X428468Y900814D01*
X428493Y900945D01*
X428522Y901074D01*
X428555Y901202D01*
X428591Y901330D01*
X428631Y901456D01*
X428675Y901581D01*
X428723Y901705D01*
X428774Y901827D01*
X428829Y901948D01*
X428887Y902067D01*
X428949Y902185D01*
X429014Y902300D01*
X429083Y902414D01*
X429154Y902525D01*
X429230Y902634D01*
X429308Y902741D01*
X429389Y902846D01*
X429474Y902948D01*
X429561Y903048D01*
X429651Y903145D01*
X429744Y903240D01*
X429840Y903331D01*
X429938Y903420D01*
X430039Y903506D01*
X430143Y903589D01*
X430249Y903669D01*
X430357Y903745D01*
X430467Y903819D01*
X430580Y903889D01*
X430694Y903956D01*
X430811Y904019D01*
X430929Y904079D01*
X431049Y904136D01*
X431171Y904189D01*
X431294Y904238D01*
X431418Y904284D01*
X431544Y904326D01*
X431671Y904364D01*
X431799Y904399D01*
X431928Y904430D01*
X432057Y904457D01*
X432188Y904480D01*
X432319Y904500D01*
X432451Y904515D01*
X432583Y904527D01*
X432715Y904535D01*
X432848Y904539D01*
X432980Y904539D01*
X433113Y904535D01*
X433245Y904527D01*
X433377Y904515D01*
X433509Y904500D01*
X433640Y904480D01*
X433771Y904457D01*
X433900Y904430D01*
X434029Y904399D01*
X434157Y904364D01*
X434284Y904326D01*
X434410Y904284D01*
X434534Y904238D01*
X434657Y904189D01*
X434779Y904136D01*
X434899Y904079D01*
X435017Y904019D01*
X435134Y903956D01*
X435248Y903889D01*
X435361Y903819D01*
X435471Y903745D01*
X435579Y903669D01*
X435685Y903589D01*
X435789Y903506D01*
X435890Y903420D01*
X435988Y903331D01*
X436084Y903240D01*
X436177Y903145D01*
X436267Y903048D01*
X436354Y902948D01*
X436439Y902846D01*
X436520Y902741D01*
X436598Y902634D01*
X436674Y902525D01*
X436745Y902414D01*
X436814Y902300D01*
X436879Y902185D01*
X436941Y902067D01*
X436999Y901948D01*
X437054Y901827D01*
X437105Y901705D01*
X437153Y901581D01*
X437197Y901456D01*
X437237Y901330D01*
X437273Y901202D01*
X437306Y901074D01*
X437335Y900945D01*
X437360Y900814D01*
X437381Y900684D01*
X437399Y900552D01*
X437412Y900420D01*
X437422Y900288D01*
X437428Y900156D01*
X437430Y900023D01*
X437428Y899890D01*
X437422Y899758D01*
X437412Y899626D01*
X437399Y899494D01*
X437381Y899362D01*
X437360Y899232D01*
X437335Y899101D01*
X437306Y898972D01*
X437273Y898844D01*
X437237Y898716D01*
X437197Y898590D01*
X437153Y898465D01*
X437105Y898341D01*
X437054Y898219D01*
X436999Y898098D01*
X436941Y897979D01*
X436879Y897861D01*
X436814Y897746D01*
X436745Y897632D01*
X436674Y897521D01*
X436598Y897412D01*
X436520Y897305D01*
X436439Y897200D01*
X436354Y897098D01*
X436267Y896998D01*
X436177Y896901D01*
X436084Y896806D01*
X435988Y896715D01*
X435890Y896626D01*
X435789Y896540D01*
X435685Y896457D01*
X435579Y896377D01*
X435471Y896301D01*
X435361Y896227D01*
X435248Y896157D01*
X435134Y896090D01*
X435017Y896027D01*
X434899Y895967D01*
X434779Y895910D01*
X434657Y895857D01*
X434534Y895808D01*
X434410Y895762D01*
X434284Y895720D01*
X434157Y895682D01*
X434029Y895647D01*
X433900Y895616D01*
X433771Y895589D01*
X433640Y895566D01*
X433509Y895546D01*
X433377Y895531D01*
X433245Y895519D01*
X433113Y895511D01*
X432980Y895507D01*
X432848Y895507D01*
X432715Y895511D01*
X432583Y895519D01*
X432451Y895531D01*
X432319Y895546D01*
X432188Y895566D01*
X432057Y895589D01*
X431928Y895616D01*
X431799Y895647D01*
X431671Y895682D01*
X431544Y895720D01*
X431418Y895762D01*
X431294Y895808D01*
X431171Y895857D01*
X431049Y895910D01*
X430929Y895967D01*
X430811Y896027D01*
X430694Y896090D01*
X430580Y896157D01*
X430467Y896227D01*
X430357Y896301D01*
X430249Y896377D01*
X430143Y896457D01*
X430039Y896540D01*
X429938Y896626D01*
X429840Y896715D01*
X429744Y896806D01*
X429651Y896901D01*
X429561Y896998D01*
X429474Y897098D01*
X429389Y897200D01*
X429308Y897305D01*
X429230Y897412D01*
X429154Y897521D01*
X429083Y897632D01*
X429014Y897746D01*
X428949Y897861D01*
X428887Y897979D01*
X428829Y898098D01*
X428774Y898219D01*
X428723Y898341D01*
X428675Y898465D01*
X428631Y898590D01*
X428591Y898716D01*
X428555Y898844D01*
X428522Y898972D01*
X428493Y899101D01*
X428468Y899232D01*
X428447Y899362D01*
X428429Y899494D01*
X428416Y899626D01*
X428406Y899758D01*
X428400Y899890D01*
X428398Y900023D01*
X429302Y908151D02*
X429304Y908270D01*
X429310Y908390D01*
X429320Y908509D01*
X429334Y908627D01*
X429351Y908746D01*
X429373Y908863D01*
X429398Y908980D01*
X429428Y909095D01*
X429461Y909210D01*
X429498Y909324D01*
X429538Y909436D01*
X429583Y909547D01*
X429631Y909656D01*
X429682Y909764D01*
X429737Y909870D01*
X429796Y909974D01*
X429858Y910076D01*
X429923Y910176D01*
X429992Y910274D01*
X430064Y910370D01*
X430139Y910463D01*
X430216Y910553D01*
X430297Y910641D01*
X430381Y910726D01*
X430468Y910808D01*
X430557Y910888D01*
X430649Y910964D01*
X430743Y911038D01*
X430840Y911108D01*
X430938Y911175D01*
X431039Y911239D01*
X431143Y911299D01*
X431248Y911356D01*
X431355Y911409D01*
X431463Y911459D01*
X431573Y911505D01*
X431685Y911547D01*
X431798Y911586D01*
X431912Y911621D01*
X432027Y911652D01*
X432144Y911680D01*
X432261Y911703D01*
X432378Y911723D01*
X432497Y911739D01*
X432616Y911751D01*
X432735Y911759D01*
X432854Y911763D01*
X432974Y911763D01*
X433093Y911759D01*
X433212Y911751D01*
X433331Y911739D01*
X433450Y911723D01*
X433567Y911703D01*
X433684Y911680D01*
X433801Y911652D01*
X433916Y911621D01*
X434030Y911586D01*
X434143Y911547D01*
X434255Y911505D01*
X434365Y911459D01*
X434473Y911409D01*
X434580Y911356D01*
X434685Y911299D01*
X434789Y911239D01*
X434890Y911175D01*
X434988Y911108D01*
X435085Y911038D01*
X435179Y910964D01*
X435271Y910888D01*
X435360Y910808D01*
X435447Y910726D01*
X435531Y910641D01*
X435612Y910553D01*
X435689Y910463D01*
X435764Y910370D01*
X435836Y910274D01*
X435905Y910176D01*
X435970Y910076D01*
X436032Y909974D01*
X436091Y909870D01*
X436146Y909764D01*
X436197Y909656D01*
X436245Y909547D01*
X436290Y909436D01*
X436330Y909324D01*
X436367Y909210D01*
X436400Y909095D01*
X436430Y908980D01*
X436455Y908863D01*
X436477Y908746D01*
X436494Y908627D01*
X436508Y908509D01*
X436518Y908390D01*
X436524Y908270D01*
X436526Y908151D01*
X436524Y908032D01*
X436518Y907912D01*
X436508Y907793D01*
X436494Y907675D01*
X436477Y907556D01*
X436455Y907439D01*
X436430Y907322D01*
X436400Y907207D01*
X436367Y907092D01*
X436330Y906978D01*
X436290Y906866D01*
X436245Y906755D01*
X436197Y906646D01*
X436146Y906538D01*
X436091Y906432D01*
X436032Y906328D01*
X435970Y906226D01*
X435905Y906126D01*
X435836Y906028D01*
X435764Y905932D01*
X435689Y905839D01*
X435612Y905749D01*
X435531Y905661D01*
X435447Y905576D01*
X435360Y905494D01*
X435271Y905414D01*
X435179Y905338D01*
X435085Y905264D01*
X434988Y905194D01*
X434890Y905127D01*
X434789Y905063D01*
X434685Y905003D01*
X434580Y904946D01*
X434473Y904893D01*
X434365Y904843D01*
X434255Y904797D01*
X434143Y904755D01*
X434030Y904716D01*
X433916Y904681D01*
X433801Y904650D01*
X433684Y904622D01*
X433567Y904599D01*
X433450Y904579D01*
X433331Y904563D01*
X433212Y904551D01*
X433093Y904543D01*
X432974Y904539D01*
X432854Y904539D01*
X432735Y904543D01*
X432616Y904551D01*
X432497Y904563D01*
X432378Y904579D01*
X432261Y904599D01*
X432144Y904622D01*
X432027Y904650D01*
X431912Y904681D01*
X431798Y904716D01*
X431685Y904755D01*
X431573Y904797D01*
X431463Y904843D01*
X431355Y904893D01*
X431248Y904946D01*
X431143Y905003D01*
X431039Y905063D01*
X430938Y905127D01*
X430840Y905194D01*
X430743Y905264D01*
X430649Y905338D01*
X430557Y905414D01*
X430468Y905494D01*
X430381Y905576D01*
X430297Y905661D01*
X430216Y905749D01*
X430139Y905839D01*
X430064Y905932D01*
X429992Y906028D01*
X429923Y906126D01*
X429858Y906226D01*
X429796Y906328D01*
X429737Y906432D01*
X429682Y906538D01*
X429631Y906646D01*
X429583Y906755D01*
X429538Y906866D01*
X429498Y906978D01*
X429461Y907092D01*
X429428Y907207D01*
X429398Y907322D01*
X429373Y907439D01*
X429351Y907556D01*
X429334Y907675D01*
X429320Y907793D01*
X429310Y907912D01*
X429304Y908032D01*
X429302Y908151D01*
D10*
X0Y0D02*
X-146500Y0D01*
X-146500Y812800D02*
X0Y812800D01*
X-127000Y812150D02*
X-127000Y650D01*
X-130192Y26000D01*
X-123808Y26000D01*
X-127000Y650D01*
X-128300Y26000D01*
X-125700Y26000D02*
X-127000Y650D01*
X-129600Y26000D01*
X-124400Y26000D02*
X-127000Y650D01*
X-130192Y786800D02*
X-127000Y812150D01*
X-130192Y786800D02*
X-123808Y786800D01*
X-127000Y812150D01*
X-128300Y786800D01*
X-125700Y786800D02*
X-127000Y812150D01*
X-129600Y786800D01*
X-124400Y786800D02*
X-127000Y812150D01*
D11*
X-138023Y384284D02*
X-138156Y384282D01*
X-138288Y384276D01*
X-138420Y384266D01*
X-138552Y384253D01*
X-138684Y384235D01*
X-138814Y384214D01*
X-138945Y384189D01*
X-139074Y384160D01*
X-139202Y384127D01*
X-139330Y384091D01*
X-139456Y384051D01*
X-139581Y384007D01*
X-139705Y383959D01*
X-139827Y383908D01*
X-139948Y383853D01*
X-140067Y383795D01*
X-140185Y383733D01*
X-140300Y383668D01*
X-140414Y383599D01*
X-140525Y383528D01*
X-140634Y383452D01*
X-140741Y383374D01*
X-140846Y383293D01*
X-140948Y383208D01*
X-141048Y383121D01*
X-141145Y383031D01*
X-141240Y382938D01*
X-141331Y382842D01*
X-141420Y382744D01*
X-141506Y382643D01*
X-141589Y382539D01*
X-141669Y382433D01*
X-141745Y382325D01*
X-141819Y382215D01*
X-141889Y382102D01*
X-141956Y381988D01*
X-142019Y381871D01*
X-142079Y381753D01*
X-142136Y381633D01*
X-142189Y381511D01*
X-142238Y381388D01*
X-142284Y381264D01*
X-142326Y381138D01*
X-142364Y381011D01*
X-142399Y380883D01*
X-142430Y380754D01*
X-142457Y380625D01*
X-142480Y380494D01*
X-142500Y380363D01*
X-142515Y380231D01*
X-142527Y380099D01*
X-142535Y379967D01*
X-142539Y379834D01*
X-142539Y379702D01*
X-142535Y379569D01*
X-142527Y379437D01*
X-142515Y379305D01*
X-142500Y379173D01*
X-142480Y379042D01*
X-142457Y378911D01*
X-142430Y378782D01*
X-142399Y378653D01*
X-142364Y378525D01*
X-142326Y378398D01*
X-142284Y378272D01*
X-142238Y378148D01*
X-142189Y378025D01*
X-142136Y377903D01*
X-142079Y377783D01*
X-142019Y377665D01*
X-141956Y377548D01*
X-141889Y377434D01*
X-141819Y377321D01*
X-141745Y377211D01*
X-141669Y377103D01*
X-141589Y376997D01*
X-141506Y376893D01*
X-141420Y376792D01*
X-141331Y376694D01*
X-141240Y376598D01*
X-141145Y376505D01*
X-141048Y376415D01*
X-140948Y376328D01*
X-140846Y376243D01*
X-140741Y376162D01*
X-140634Y376084D01*
X-140525Y376008D01*
X-140414Y375937D01*
X-140300Y375868D01*
X-140185Y375803D01*
X-140067Y375741D01*
X-139948Y375683D01*
X-139827Y375628D01*
X-139705Y375577D01*
X-139581Y375529D01*
X-139456Y375485D01*
X-139330Y375445D01*
X-139202Y375409D01*
X-139074Y375376D01*
X-138945Y375347D01*
X-138814Y375322D01*
X-138684Y375301D01*
X-138552Y375283D01*
X-138420Y375270D01*
X-138288Y375260D01*
X-138156Y375254D01*
X-138023Y375252D01*
X-137890Y375254D01*
X-137758Y375260D01*
X-137626Y375270D01*
X-137494Y375283D01*
X-137362Y375301D01*
X-137232Y375322D01*
X-137101Y375347D01*
X-136972Y375376D01*
X-136844Y375409D01*
X-136716Y375445D01*
X-136590Y375485D01*
X-136465Y375529D01*
X-136341Y375577D01*
X-136219Y375628D01*
X-136098Y375683D01*
X-135979Y375741D01*
X-135861Y375803D01*
X-135746Y375868D01*
X-135632Y375937D01*
X-135521Y376008D01*
X-135412Y376084D01*
X-135305Y376162D01*
X-135200Y376243D01*
X-135098Y376328D01*
X-134998Y376415D01*
X-134901Y376505D01*
X-134806Y376598D01*
X-134715Y376694D01*
X-134626Y376792D01*
X-134540Y376893D01*
X-134457Y376997D01*
X-134377Y377103D01*
X-134301Y377211D01*
X-134227Y377321D01*
X-134157Y377434D01*
X-134090Y377548D01*
X-134027Y377665D01*
X-133967Y377783D01*
X-133910Y377903D01*
X-133857Y378025D01*
X-133808Y378148D01*
X-133762Y378272D01*
X-133720Y378398D01*
X-133682Y378525D01*
X-133647Y378653D01*
X-133616Y378782D01*
X-133589Y378911D01*
X-133566Y379042D01*
X-133546Y379173D01*
X-133531Y379305D01*
X-133519Y379437D01*
X-133511Y379569D01*
X-133507Y379702D01*
X-133507Y379834D01*
X-133511Y379967D01*
X-133519Y380099D01*
X-133531Y380231D01*
X-133546Y380363D01*
X-133566Y380494D01*
X-133589Y380625D01*
X-133616Y380754D01*
X-133647Y380883D01*
X-133682Y381011D01*
X-133720Y381138D01*
X-133762Y381264D01*
X-133808Y381388D01*
X-133857Y381511D01*
X-133910Y381633D01*
X-133967Y381753D01*
X-134027Y381871D01*
X-134090Y381988D01*
X-134157Y382102D01*
X-134227Y382215D01*
X-134301Y382325D01*
X-134377Y382433D01*
X-134457Y382539D01*
X-134540Y382643D01*
X-134626Y382744D01*
X-134715Y382842D01*
X-134806Y382938D01*
X-134901Y383031D01*
X-134998Y383121D01*
X-135098Y383208D01*
X-135200Y383293D01*
X-135305Y383374D01*
X-135412Y383452D01*
X-135521Y383528D01*
X-135632Y383599D01*
X-135746Y383668D01*
X-135861Y383733D01*
X-135979Y383795D01*
X-136098Y383853D01*
X-136219Y383908D01*
X-136341Y383959D01*
X-136465Y384007D01*
X-136590Y384051D01*
X-136716Y384091D01*
X-136844Y384127D01*
X-136972Y384160D01*
X-137101Y384189D01*
X-137232Y384214D01*
X-137362Y384235D01*
X-137494Y384253D01*
X-137626Y384266D01*
X-137758Y384276D01*
X-137890Y384282D01*
X-138023Y384284D01*
X-146151Y383380D02*
X-146270Y383378D01*
X-146390Y383372D01*
X-146509Y383362D01*
X-146627Y383348D01*
X-146746Y383331D01*
X-146863Y383309D01*
X-146980Y383284D01*
X-147095Y383254D01*
X-147210Y383221D01*
X-147324Y383184D01*
X-147436Y383144D01*
X-147547Y383099D01*
X-147656Y383051D01*
X-147764Y383000D01*
X-147870Y382945D01*
X-147974Y382886D01*
X-148076Y382824D01*
X-148176Y382759D01*
X-148274Y382690D01*
X-148370Y382618D01*
X-148463Y382543D01*
X-148553Y382466D01*
X-148641Y382385D01*
X-148726Y382301D01*
X-148808Y382214D01*
X-148888Y382125D01*
X-148964Y382033D01*
X-149038Y381939D01*
X-149108Y381842D01*
X-149175Y381744D01*
X-149239Y381643D01*
X-149299Y381539D01*
X-149356Y381434D01*
X-149409Y381327D01*
X-149459Y381219D01*
X-149505Y381109D01*
X-149547Y380997D01*
X-149586Y380884D01*
X-149621Y380770D01*
X-149652Y380655D01*
X-149680Y380538D01*
X-149703Y380421D01*
X-149723Y380304D01*
X-149739Y380185D01*
X-149751Y380066D01*
X-149759Y379947D01*
X-149763Y379828D01*
X-149763Y379708D01*
X-149759Y379589D01*
X-149751Y379470D01*
X-149739Y379351D01*
X-149723Y379232D01*
X-149703Y379115D01*
X-149680Y378998D01*
X-149652Y378881D01*
X-149621Y378766D01*
X-149586Y378652D01*
X-149547Y378539D01*
X-149505Y378427D01*
X-149459Y378317D01*
X-149409Y378209D01*
X-149356Y378102D01*
X-149299Y377997D01*
X-149239Y377893D01*
X-149175Y377792D01*
X-149108Y377694D01*
X-149038Y377597D01*
X-148964Y377503D01*
X-148888Y377411D01*
X-148808Y377322D01*
X-148726Y377235D01*
X-148641Y377151D01*
X-148553Y377070D01*
X-148463Y376993D01*
X-148370Y376918D01*
X-148274Y376846D01*
X-148176Y376777D01*
X-148076Y376712D01*
X-147974Y376650D01*
X-147870Y376591D01*
X-147764Y376536D01*
X-147656Y376485D01*
X-147547Y376437D01*
X-147436Y376392D01*
X-147324Y376352D01*
X-147210Y376315D01*
X-147095Y376282D01*
X-146980Y376252D01*
X-146863Y376227D01*
X-146746Y376205D01*
X-146627Y376188D01*
X-146509Y376174D01*
X-146390Y376164D01*
X-146270Y376158D01*
X-146151Y376156D01*
X-146032Y376158D01*
X-145912Y376164D01*
X-145793Y376174D01*
X-145675Y376188D01*
X-145556Y376205D01*
X-145439Y376227D01*
X-145322Y376252D01*
X-145207Y376282D01*
X-145092Y376315D01*
X-144978Y376352D01*
X-144866Y376392D01*
X-144755Y376437D01*
X-144646Y376485D01*
X-144538Y376536D01*
X-144432Y376591D01*
X-144328Y376650D01*
X-144226Y376712D01*
X-144126Y376777D01*
X-144028Y376846D01*
X-143932Y376918D01*
X-143839Y376993D01*
X-143749Y377070D01*
X-143661Y377151D01*
X-143576Y377235D01*
X-143494Y377322D01*
X-143414Y377411D01*
X-143338Y377503D01*
X-143264Y377597D01*
X-143194Y377694D01*
X-143127Y377792D01*
X-143063Y377893D01*
X-143003Y377997D01*
X-142946Y378102D01*
X-142893Y378209D01*
X-142843Y378317D01*
X-142797Y378427D01*
X-142755Y378539D01*
X-142716Y378652D01*
X-142681Y378766D01*
X-142650Y378881D01*
X-142622Y378998D01*
X-142599Y379115D01*
X-142579Y379232D01*
X-142563Y379351D01*
X-142551Y379470D01*
X-142543Y379589D01*
X-142539Y379708D01*
X-142539Y379828D01*
X-142543Y379947D01*
X-142551Y380066D01*
X-142563Y380185D01*
X-142579Y380304D01*
X-142599Y380421D01*
X-142622Y380538D01*
X-142650Y380655D01*
X-142681Y380770D01*
X-142716Y380884D01*
X-142755Y380997D01*
X-142797Y381109D01*
X-142843Y381219D01*
X-142893Y381327D01*
X-142946Y381434D01*
X-143003Y381539D01*
X-143063Y381643D01*
X-143127Y381744D01*
X-143194Y381842D01*
X-143264Y381939D01*
X-143338Y382033D01*
X-143414Y382125D01*
X-143494Y382214D01*
X-143576Y382301D01*
X-143661Y382385D01*
X-143749Y382466D01*
X-143839Y382543D01*
X-143932Y382618D01*
X-144028Y382690D01*
X-144126Y382759D01*
X-144226Y382824D01*
X-144328Y382886D01*
X-144432Y382945D01*
X-144538Y383000D01*
X-144646Y383051D01*
X-144755Y383099D01*
X-144866Y383144D01*
X-144978Y383184D01*
X-145092Y383221D01*
X-145207Y383254D01*
X-145322Y383284D01*
X-145439Y383309D01*
X-145556Y383331D01*
X-145675Y383348D01*
X-145793Y383362D01*
X-145912Y383372D01*
X-146032Y383378D01*
X-146151Y383380D01*
X-146151Y390883D02*
X-149763Y395399D01*
X-133507Y395399D01*
X-133507Y399914D02*
X-133507Y390883D01*
X-133507Y405889D02*
X-134410Y405889D01*
X-134410Y406792D01*
X-133507Y406792D01*
X-133507Y405889D01*
X-145699Y421798D02*
X-145824Y421796D01*
X-145949Y421790D01*
X-146074Y421781D01*
X-146198Y421767D01*
X-146322Y421750D01*
X-146446Y421729D01*
X-146568Y421704D01*
X-146690Y421675D01*
X-146811Y421643D01*
X-146931Y421607D01*
X-147050Y421567D01*
X-147167Y421524D01*
X-147283Y421477D01*
X-147398Y421426D01*
X-147510Y421372D01*
X-147622Y421314D01*
X-147731Y421254D01*
X-147838Y421189D01*
X-147944Y421122D01*
X-148047Y421051D01*
X-148148Y420977D01*
X-148247Y420900D01*
X-148343Y420820D01*
X-148437Y420737D01*
X-148528Y420652D01*
X-148617Y420563D01*
X-148702Y420472D01*
X-148785Y420378D01*
X-148865Y420282D01*
X-148942Y420183D01*
X-149016Y420082D01*
X-149087Y419979D01*
X-149154Y419873D01*
X-149219Y419766D01*
X-149279Y419657D01*
X-149337Y419545D01*
X-149391Y419433D01*
X-149442Y419318D01*
X-149489Y419202D01*
X-149532Y419085D01*
X-149572Y418966D01*
X-149608Y418846D01*
X-149640Y418725D01*
X-149669Y418603D01*
X-149694Y418481D01*
X-149715Y418357D01*
X-149732Y418233D01*
X-149746Y418109D01*
X-149755Y417984D01*
X-149761Y417859D01*
X-149763Y417734D01*
X-149761Y417591D01*
X-149755Y417449D01*
X-149745Y417306D01*
X-149732Y417164D01*
X-149714Y417023D01*
X-149693Y416881D01*
X-149668Y416741D01*
X-149639Y416601D01*
X-149606Y416462D01*
X-149569Y416324D01*
X-149529Y416187D01*
X-149485Y416052D01*
X-149437Y415917D01*
X-149385Y415784D01*
X-149330Y415652D01*
X-149271Y415522D01*
X-149209Y415394D01*
X-149143Y415267D01*
X-149074Y415142D01*
X-149002Y415019D01*
X-148926Y414899D01*
X-148847Y414780D01*
X-148764Y414663D01*
X-148679Y414549D01*
X-148590Y414437D01*
X-148499Y414328D01*
X-148404Y414221D01*
X-148307Y414116D01*
X-148206Y414015D01*
X-148103Y413916D01*
X-147998Y413820D01*
X-147889Y413727D01*
X-147778Y413637D01*
X-147665Y413550D01*
X-147550Y413466D01*
X-147432Y413386D01*
X-147312Y413308D01*
X-147190Y413234D01*
X-147066Y413164D01*
X-146940Y413096D01*
X-146812Y413033D01*
X-146683Y412972D01*
X-146552Y412915D01*
X-146420Y412862D01*
X-146286Y412813D01*
X-146151Y412767D01*
X-142538Y420443D02*
X-142630Y420537D01*
X-142724Y420627D01*
X-142821Y420715D01*
X-142921Y420800D01*
X-143023Y420882D01*
X-143128Y420961D01*
X-143235Y421036D01*
X-143344Y421108D01*
X-143455Y421177D01*
X-143569Y421243D01*
X-143684Y421305D01*
X-143801Y421364D01*
X-143920Y421419D01*
X-144040Y421470D01*
X-144162Y421518D01*
X-144285Y421563D01*
X-144409Y421603D01*
X-144535Y421640D01*
X-144662Y421673D01*
X-144789Y421702D01*
X-144918Y421728D01*
X-145047Y421749D01*
X-145177Y421767D01*
X-145307Y421780D01*
X-145437Y421790D01*
X-145568Y421796D01*
X-145699Y421798D01*
X-142538Y420443D02*
X-133507Y412767D01*
X-133507Y421798D01*
X-138023Y428398D02*
X-138156Y428400D01*
X-138288Y428406D01*
X-138420Y428416D01*
X-138552Y428429D01*
X-138684Y428447D01*
X-138814Y428468D01*
X-138945Y428493D01*
X-139074Y428522D01*
X-139202Y428555D01*
X-139330Y428591D01*
X-139456Y428631D01*
X-139581Y428675D01*
X-139705Y428723D01*
X-139827Y428774D01*
X-139948Y428829D01*
X-140067Y428887D01*
X-140185Y428949D01*
X-140300Y429014D01*
X-140414Y429083D01*
X-140525Y429154D01*
X-140634Y429230D01*
X-140741Y429308D01*
X-140846Y429389D01*
X-140948Y429474D01*
X-141048Y429561D01*
X-141145Y429651D01*
X-141240Y429744D01*
X-141331Y429840D01*
X-141420Y429938D01*
X-141506Y430039D01*
X-141589Y430143D01*
X-141669Y430249D01*
X-141745Y430357D01*
X-141819Y430467D01*
X-141889Y430580D01*
X-141956Y430694D01*
X-142019Y430811D01*
X-142079Y430929D01*
X-142136Y431049D01*
X-142189Y431171D01*
X-142238Y431294D01*
X-142284Y431418D01*
X-142326Y431544D01*
X-142364Y431671D01*
X-142399Y431799D01*
X-142430Y431928D01*
X-142457Y432057D01*
X-142480Y432188D01*
X-142500Y432319D01*
X-142515Y432451D01*
X-142527Y432583D01*
X-142535Y432715D01*
X-142539Y432848D01*
X-142539Y432980D01*
X-142535Y433113D01*
X-142527Y433245D01*
X-142515Y433377D01*
X-142500Y433509D01*
X-142480Y433640D01*
X-142457Y433771D01*
X-142430Y433900D01*
X-142399Y434029D01*
X-142364Y434157D01*
X-142326Y434284D01*
X-142284Y434410D01*
X-142238Y434534D01*
X-142189Y434657D01*
X-142136Y434779D01*
X-142079Y434899D01*
X-142019Y435017D01*
X-141956Y435134D01*
X-141889Y435248D01*
X-141819Y435361D01*
X-141745Y435471D01*
X-141669Y435579D01*
X-141589Y435685D01*
X-141506Y435789D01*
X-141420Y435890D01*
X-141331Y435988D01*
X-141240Y436084D01*
X-141145Y436177D01*
X-141048Y436267D01*
X-140948Y436354D01*
X-140846Y436439D01*
X-140741Y436520D01*
X-140634Y436598D01*
X-140525Y436674D01*
X-140414Y436745D01*
X-140300Y436814D01*
X-140185Y436879D01*
X-140067Y436941D01*
X-139948Y436999D01*
X-139827Y437054D01*
X-139705Y437105D01*
X-139581Y437153D01*
X-139456Y437197D01*
X-139330Y437237D01*
X-139202Y437273D01*
X-139074Y437306D01*
X-138945Y437335D01*
X-138814Y437360D01*
X-138684Y437381D01*
X-138552Y437399D01*
X-138420Y437412D01*
X-138288Y437422D01*
X-138156Y437428D01*
X-138023Y437430D01*
X-137890Y437428D01*
X-137758Y437422D01*
X-137626Y437412D01*
X-137494Y437399D01*
X-137362Y437381D01*
X-137232Y437360D01*
X-137101Y437335D01*
X-136972Y437306D01*
X-136844Y437273D01*
X-136716Y437237D01*
X-136590Y437197D01*
X-136465Y437153D01*
X-136341Y437105D01*
X-136219Y437054D01*
X-136098Y436999D01*
X-135979Y436941D01*
X-135861Y436879D01*
X-135746Y436814D01*
X-135632Y436745D01*
X-135521Y436674D01*
X-135412Y436598D01*
X-135305Y436520D01*
X-135200Y436439D01*
X-135098Y436354D01*
X-134998Y436267D01*
X-134901Y436177D01*
X-134806Y436084D01*
X-134715Y435988D01*
X-134626Y435890D01*
X-134540Y435789D01*
X-134457Y435685D01*
X-134377Y435579D01*
X-134301Y435471D01*
X-134227Y435361D01*
X-134157Y435248D01*
X-134090Y435134D01*
X-134027Y435017D01*
X-133967Y434899D01*
X-133910Y434779D01*
X-133857Y434657D01*
X-133808Y434534D01*
X-133762Y434410D01*
X-133720Y434284D01*
X-133682Y434157D01*
X-133647Y434029D01*
X-133616Y433900D01*
X-133589Y433771D01*
X-133566Y433640D01*
X-133546Y433509D01*
X-133531Y433377D01*
X-133519Y433245D01*
X-133511Y433113D01*
X-133507Y432980D01*
X-133507Y432848D01*
X-133511Y432715D01*
X-133519Y432583D01*
X-133531Y432451D01*
X-133546Y432319D01*
X-133566Y432188D01*
X-133589Y432057D01*
X-133616Y431928D01*
X-133647Y431799D01*
X-133682Y431671D01*
X-133720Y431544D01*
X-133762Y431418D01*
X-133808Y431294D01*
X-133857Y431171D01*
X-133910Y431049D01*
X-133967Y430929D01*
X-134027Y430811D01*
X-134090Y430694D01*
X-134157Y430580D01*
X-134227Y430467D01*
X-134301Y430357D01*
X-134377Y430249D01*
X-134457Y430143D01*
X-134540Y430039D01*
X-134626Y429938D01*
X-134715Y429840D01*
X-134806Y429744D01*
X-134901Y429651D01*
X-134998Y429561D01*
X-135098Y429474D01*
X-135200Y429389D01*
X-135305Y429308D01*
X-135412Y429230D01*
X-135521Y429154D01*
X-135632Y429083D01*
X-135746Y429014D01*
X-135861Y428949D01*
X-135979Y428887D01*
X-136098Y428829D01*
X-136219Y428774D01*
X-136341Y428723D01*
X-136465Y428675D01*
X-136590Y428631D01*
X-136716Y428591D01*
X-136844Y428555D01*
X-136972Y428522D01*
X-137101Y428493D01*
X-137232Y428468D01*
X-137362Y428447D01*
X-137494Y428429D01*
X-137626Y428416D01*
X-137758Y428406D01*
X-137890Y428400D01*
X-138023Y428398D01*
X-146151Y429302D02*
X-146270Y429304D01*
X-146390Y429310D01*
X-146509Y429320D01*
X-146627Y429334D01*
X-146746Y429351D01*
X-146863Y429373D01*
X-146980Y429398D01*
X-147095Y429428D01*
X-147210Y429461D01*
X-147324Y429498D01*
X-147436Y429538D01*
X-147547Y429583D01*
X-147656Y429631D01*
X-147764Y429682D01*
X-147870Y429737D01*
X-147974Y429796D01*
X-148076Y429858D01*
X-148176Y429923D01*
X-148274Y429992D01*
X-148370Y430064D01*
X-148463Y430139D01*
X-148553Y430216D01*
X-148641Y430297D01*
X-148726Y430381D01*
X-148808Y430468D01*
X-148888Y430557D01*
X-148964Y430649D01*
X-149038Y430743D01*
X-149108Y430840D01*
X-149175Y430938D01*
X-149239Y431039D01*
X-149299Y431143D01*
X-149356Y431248D01*
X-149409Y431355D01*
X-149459Y431463D01*
X-149505Y431573D01*
X-149547Y431685D01*
X-149586Y431798D01*
X-149621Y431912D01*
X-149652Y432027D01*
X-149680Y432144D01*
X-149703Y432261D01*
X-149723Y432378D01*
X-149739Y432497D01*
X-149751Y432616D01*
X-149759Y432735D01*
X-149763Y432854D01*
X-149763Y432974D01*
X-149759Y433093D01*
X-149751Y433212D01*
X-149739Y433331D01*
X-149723Y433450D01*
X-149703Y433567D01*
X-149680Y433684D01*
X-149652Y433801D01*
X-149621Y433916D01*
X-149586Y434030D01*
X-149547Y434143D01*
X-149505Y434255D01*
X-149459Y434365D01*
X-149409Y434473D01*
X-149356Y434580D01*
X-149299Y434685D01*
X-149239Y434789D01*
X-149175Y434890D01*
X-149108Y434988D01*
X-149038Y435085D01*
X-148964Y435179D01*
X-148888Y435271D01*
X-148808Y435360D01*
X-148726Y435447D01*
X-148641Y435531D01*
X-148553Y435612D01*
X-148463Y435689D01*
X-148370Y435764D01*
X-148274Y435836D01*
X-148176Y435905D01*
X-148076Y435970D01*
X-147974Y436032D01*
X-147870Y436091D01*
X-147764Y436146D01*
X-147656Y436197D01*
X-147547Y436245D01*
X-147436Y436290D01*
X-147324Y436330D01*
X-147210Y436367D01*
X-147095Y436400D01*
X-146980Y436430D01*
X-146863Y436455D01*
X-146746Y436477D01*
X-146627Y436494D01*
X-146509Y436508D01*
X-146390Y436518D01*
X-146270Y436524D01*
X-146151Y436526D01*
X-146032Y436524D01*
X-145912Y436518D01*
X-145793Y436508D01*
X-145675Y436494D01*
X-145556Y436477D01*
X-145439Y436455D01*
X-145322Y436430D01*
X-145207Y436400D01*
X-145092Y436367D01*
X-144978Y436330D01*
X-144866Y436290D01*
X-144755Y436245D01*
X-144646Y436197D01*
X-144538Y436146D01*
X-144432Y436091D01*
X-144328Y436032D01*
X-144226Y435970D01*
X-144126Y435905D01*
X-144028Y435836D01*
X-143932Y435764D01*
X-143839Y435689D01*
X-143749Y435612D01*
X-143661Y435531D01*
X-143576Y435447D01*
X-143494Y435360D01*
X-143414Y435271D01*
X-143338Y435179D01*
X-143264Y435085D01*
X-143194Y434988D01*
X-143127Y434890D01*
X-143063Y434789D01*
X-143003Y434685D01*
X-142946Y434580D01*
X-142893Y434473D01*
X-142843Y434365D01*
X-142797Y434255D01*
X-142755Y434143D01*
X-142716Y434030D01*
X-142681Y433916D01*
X-142650Y433801D01*
X-142622Y433684D01*
X-142599Y433567D01*
X-142579Y433450D01*
X-142563Y433331D01*
X-142551Y433212D01*
X-142543Y433093D01*
X-142539Y432974D01*
X-142539Y432854D01*
X-142543Y432735D01*
X-142551Y432616D01*
X-142563Y432497D01*
X-142579Y432378D01*
X-142599Y432261D01*
X-142622Y432144D01*
X-142650Y432027D01*
X-142681Y431912D01*
X-142716Y431798D01*
X-142755Y431685D01*
X-142797Y431573D01*
X-142843Y431463D01*
X-142893Y431355D01*
X-142946Y431248D01*
X-143003Y431143D01*
X-143063Y431039D01*
X-143127Y430938D01*
X-143194Y430840D01*
X-143264Y430743D01*
X-143338Y430649D01*
X-143414Y430557D01*
X-143494Y430468D01*
X-143576Y430381D01*
X-143661Y430297D01*
X-143749Y430216D01*
X-143839Y430139D01*
X-143932Y430064D01*
X-144028Y429992D01*
X-144126Y429923D01*
X-144226Y429858D01*
X-144328Y429796D01*
X-144432Y429737D01*
X-144538Y429682D01*
X-144646Y429631D01*
X-144755Y429583D01*
X-144866Y429538D01*
X-144978Y429498D01*
X-145092Y429461D01*
X-145207Y429428D01*
X-145322Y429398D01*
X-145439Y429373D01*
X-145556Y429351D01*
X-145675Y429334D01*
X-145793Y429320D01*
X-145912Y429310D01*
X-146032Y429304D01*
X-146151Y429302D01*
D10*
X0Y800100D02*
X0Y857700D01*
X63500Y857700D02*
X63500Y800100D01*
X-650Y838200D02*
X-52000Y838200D01*
X64150Y838200D02*
X139128Y838200D01*
X-650Y838200D02*
X-26000Y841392D01*
X-26000Y835008D01*
X-650Y838200D01*
X-26000Y839500D01*
X-26000Y836900D02*
X-650Y838200D01*
X-26000Y840800D01*
X-26000Y835600D02*
X-650Y838200D01*
X64150Y838200D02*
X89500Y841392D01*
X89500Y835008D01*
X64150Y838200D01*
X89500Y839500D01*
X89500Y836900D02*
X64150Y838200D01*
X89500Y840800D01*
X89500Y835600D02*
X64150Y838200D01*
D11*
X90262Y853738D02*
X95681Y853738D01*
X95799Y853736D01*
X95917Y853730D01*
X96035Y853721D01*
X96152Y853707D01*
X96269Y853690D01*
X96386Y853669D01*
X96501Y853644D01*
X96616Y853615D01*
X96730Y853582D01*
X96842Y853546D01*
X96953Y853506D01*
X97063Y853463D01*
X97172Y853416D01*
X97279Y853366D01*
X97384Y853311D01*
X97487Y853254D01*
X97588Y853193D01*
X97688Y853129D01*
X97785Y853062D01*
X97880Y852992D01*
X97972Y852918D01*
X98063Y852842D01*
X98150Y852762D01*
X98235Y852680D01*
X98317Y852595D01*
X98397Y852508D01*
X98473Y852417D01*
X98547Y852325D01*
X98617Y852230D01*
X98684Y852133D01*
X98748Y852033D01*
X98809Y851932D01*
X98866Y851829D01*
X98921Y851724D01*
X98971Y851617D01*
X99018Y851508D01*
X99061Y851398D01*
X99101Y851287D01*
X99137Y851175D01*
X99170Y851061D01*
X99199Y850946D01*
X99224Y850831D01*
X99245Y850714D01*
X99262Y850597D01*
X99276Y850480D01*
X99285Y850362D01*
X99291Y850244D01*
X99293Y850126D01*
X99293Y849223D01*
X99294Y849223D02*
X99292Y849090D01*
X99286Y848958D01*
X99276Y848826D01*
X99263Y848694D01*
X99245Y848562D01*
X99224Y848432D01*
X99199Y848301D01*
X99170Y848172D01*
X99137Y848044D01*
X99101Y847916D01*
X99061Y847790D01*
X99017Y847665D01*
X98969Y847541D01*
X98918Y847419D01*
X98863Y847298D01*
X98805Y847179D01*
X98743Y847061D01*
X98678Y846946D01*
X98609Y846832D01*
X98538Y846721D01*
X98462Y846612D01*
X98384Y846505D01*
X98303Y846400D01*
X98218Y846298D01*
X98131Y846198D01*
X98041Y846101D01*
X97948Y846006D01*
X97852Y845915D01*
X97754Y845826D01*
X97653Y845740D01*
X97549Y845657D01*
X97443Y845577D01*
X97335Y845501D01*
X97225Y845427D01*
X97112Y845357D01*
X96998Y845290D01*
X96881Y845227D01*
X96763Y845167D01*
X96643Y845110D01*
X96521Y845057D01*
X96398Y845008D01*
X96274Y844962D01*
X96148Y844920D01*
X96021Y844882D01*
X95893Y844847D01*
X95764Y844816D01*
X95635Y844789D01*
X95504Y844766D01*
X95373Y844746D01*
X95241Y844731D01*
X95109Y844719D01*
X94977Y844711D01*
X94844Y844707D01*
X94712Y844707D01*
X94579Y844711D01*
X94447Y844719D01*
X94315Y844731D01*
X94183Y844746D01*
X94052Y844766D01*
X93921Y844789D01*
X93792Y844816D01*
X93663Y844847D01*
X93535Y844882D01*
X93408Y844920D01*
X93282Y844962D01*
X93158Y845008D01*
X93035Y845057D01*
X92913Y845110D01*
X92793Y845167D01*
X92675Y845227D01*
X92558Y845290D01*
X92444Y845357D01*
X92331Y845427D01*
X92221Y845501D01*
X92113Y845577D01*
X92007Y845657D01*
X91903Y845740D01*
X91802Y845826D01*
X91704Y845915D01*
X91608Y846006D01*
X91515Y846101D01*
X91425Y846198D01*
X91338Y846298D01*
X91253Y846400D01*
X91172Y846505D01*
X91094Y846612D01*
X91018Y846721D01*
X90947Y846832D01*
X90878Y846946D01*
X90813Y847061D01*
X90751Y847179D01*
X90693Y847298D01*
X90638Y847419D01*
X90587Y847541D01*
X90539Y847665D01*
X90495Y847790D01*
X90455Y847916D01*
X90419Y848044D01*
X90386Y848172D01*
X90357Y848301D01*
X90332Y848432D01*
X90311Y848562D01*
X90293Y848694D01*
X90280Y848826D01*
X90270Y848958D01*
X90264Y849090D01*
X90262Y849223D01*
X90262Y853738D01*
X90264Y853915D01*
X90271Y854093D01*
X90282Y854270D01*
X90297Y854446D01*
X90316Y854622D01*
X90340Y854798D01*
X90368Y854973D01*
X90401Y855148D01*
X90438Y855321D01*
X90479Y855494D01*
X90524Y855665D01*
X90573Y855835D01*
X90627Y856004D01*
X90684Y856172D01*
X90746Y856338D01*
X90812Y856503D01*
X90882Y856666D01*
X90956Y856827D01*
X91033Y856986D01*
X91115Y857144D01*
X91201Y857299D01*
X91290Y857452D01*
X91383Y857603D01*
X91480Y857752D01*
X91580Y857898D01*
X91684Y858042D01*
X91791Y858183D01*
X91902Y858321D01*
X92016Y858457D01*
X92134Y858590D01*
X92254Y858720D01*
X92378Y858847D01*
X92505Y858971D01*
X92635Y859091D01*
X92768Y859209D01*
X92903Y859323D01*
X93042Y859434D01*
X93183Y859541D01*
X93327Y859645D01*
X93473Y859745D01*
X93622Y859842D01*
X93773Y859935D01*
X93926Y860024D01*
X94081Y860110D01*
X94239Y860192D01*
X94398Y860269D01*
X94559Y860343D01*
X94722Y860413D01*
X94887Y860479D01*
X95053Y860541D01*
X95221Y860598D01*
X95390Y860652D01*
X95560Y860701D01*
X95731Y860746D01*
X95904Y860787D01*
X96077Y860824D01*
X96252Y860857D01*
X96427Y860885D01*
X96603Y860909D01*
X96779Y860928D01*
X96955Y860943D01*
X97132Y860954D01*
X97310Y860961D01*
X97487Y860963D01*
X105268Y845610D02*
X105268Y844707D01*
X105268Y845610D02*
X106171Y845610D01*
X106171Y844707D01*
X105268Y844707D01*
X112146Y844707D02*
X116661Y844707D01*
X116794Y844709D01*
X116926Y844715D01*
X117058Y844725D01*
X117190Y844738D01*
X117322Y844756D01*
X117452Y844777D01*
X117583Y844802D01*
X117712Y844831D01*
X117840Y844864D01*
X117968Y844900D01*
X118094Y844940D01*
X118219Y844984D01*
X118343Y845032D01*
X118465Y845083D01*
X118586Y845138D01*
X118705Y845196D01*
X118823Y845258D01*
X118938Y845323D01*
X119052Y845392D01*
X119163Y845463D01*
X119272Y845539D01*
X119379Y845617D01*
X119484Y845698D01*
X119586Y845783D01*
X119686Y845870D01*
X119783Y845960D01*
X119878Y846053D01*
X119969Y846149D01*
X120058Y846247D01*
X120144Y846348D01*
X120227Y846452D01*
X120307Y846558D01*
X120383Y846666D01*
X120457Y846776D01*
X120527Y846889D01*
X120594Y847003D01*
X120657Y847120D01*
X120717Y847238D01*
X120774Y847358D01*
X120827Y847480D01*
X120876Y847603D01*
X120922Y847727D01*
X120964Y847853D01*
X121002Y847980D01*
X121037Y848108D01*
X121068Y848237D01*
X121095Y848366D01*
X121118Y848497D01*
X121138Y848628D01*
X121153Y848760D01*
X121165Y848892D01*
X121173Y849024D01*
X121177Y849157D01*
X121177Y849289D01*
X121173Y849422D01*
X121165Y849554D01*
X121153Y849686D01*
X121138Y849818D01*
X121118Y849949D01*
X121095Y850080D01*
X121068Y850209D01*
X121037Y850338D01*
X121002Y850466D01*
X120964Y850593D01*
X120922Y850719D01*
X120876Y850843D01*
X120827Y850966D01*
X120774Y851088D01*
X120717Y851208D01*
X120657Y851326D01*
X120594Y851443D01*
X120527Y851557D01*
X120457Y851670D01*
X120383Y851780D01*
X120307Y851888D01*
X120227Y851994D01*
X120144Y852098D01*
X120058Y852199D01*
X119969Y852297D01*
X119878Y852393D01*
X119783Y852486D01*
X119686Y852576D01*
X119586Y852663D01*
X119484Y852748D01*
X119379Y852829D01*
X119272Y852907D01*
X119163Y852983D01*
X119052Y853054D01*
X118938Y853123D01*
X118823Y853188D01*
X118705Y853250D01*
X118586Y853308D01*
X118465Y853363D01*
X118343Y853414D01*
X118219Y853462D01*
X118094Y853506D01*
X117968Y853546D01*
X117840Y853582D01*
X117712Y853615D01*
X117583Y853644D01*
X117452Y853669D01*
X117322Y853690D01*
X117190Y853708D01*
X117058Y853721D01*
X116926Y853731D01*
X116794Y853737D01*
X116661Y853739D01*
X117564Y860963D02*
X112146Y860963D01*
X117564Y860963D02*
X117683Y860961D01*
X117803Y860955D01*
X117922Y860945D01*
X118040Y860931D01*
X118159Y860914D01*
X118276Y860892D01*
X118393Y860867D01*
X118508Y860837D01*
X118623Y860804D01*
X118737Y860767D01*
X118849Y860727D01*
X118960Y860682D01*
X119069Y860634D01*
X119177Y860583D01*
X119283Y860528D01*
X119387Y860469D01*
X119489Y860407D01*
X119589Y860342D01*
X119687Y860273D01*
X119783Y860201D01*
X119876Y860126D01*
X119966Y860049D01*
X120054Y859968D01*
X120139Y859884D01*
X120221Y859797D01*
X120301Y859708D01*
X120377Y859616D01*
X120451Y859522D01*
X120521Y859425D01*
X120588Y859327D01*
X120652Y859226D01*
X120712Y859122D01*
X120769Y859017D01*
X120822Y858910D01*
X120872Y858802D01*
X120918Y858692D01*
X120960Y858580D01*
X120999Y858467D01*
X121034Y858353D01*
X121065Y858238D01*
X121093Y858121D01*
X121116Y858004D01*
X121136Y857887D01*
X121152Y857768D01*
X121164Y857649D01*
X121172Y857530D01*
X121176Y857411D01*
X121176Y857291D01*
X121172Y857172D01*
X121164Y857053D01*
X121152Y856934D01*
X121136Y856815D01*
X121116Y856698D01*
X121093Y856581D01*
X121065Y856464D01*
X121034Y856349D01*
X120999Y856235D01*
X120960Y856122D01*
X120918Y856010D01*
X120872Y855900D01*
X120822Y855792D01*
X120769Y855685D01*
X120712Y855580D01*
X120652Y855476D01*
X120588Y855375D01*
X120521Y855277D01*
X120451Y855180D01*
X120377Y855086D01*
X120301Y854994D01*
X120221Y854905D01*
X120139Y854818D01*
X120054Y854734D01*
X119966Y854653D01*
X119876Y854576D01*
X119783Y854501D01*
X119687Y854429D01*
X119589Y854360D01*
X119489Y854295D01*
X119387Y854233D01*
X119283Y854174D01*
X119177Y854119D01*
X119069Y854068D01*
X118960Y854020D01*
X118849Y853975D01*
X118737Y853935D01*
X118623Y853898D01*
X118508Y853865D01*
X118393Y853835D01*
X118276Y853810D01*
X118159Y853788D01*
X118040Y853771D01*
X117922Y853757D01*
X117803Y853747D01*
X117683Y853741D01*
X117564Y853739D01*
X117564Y853738D02*
X113952Y853738D01*
X127777Y844707D02*
X133196Y844707D01*
X133314Y844709D01*
X133432Y844715D01*
X133550Y844724D01*
X133667Y844738D01*
X133784Y844755D01*
X133901Y844776D01*
X134016Y844801D01*
X134131Y844830D01*
X134245Y844863D01*
X134357Y844899D01*
X134468Y844939D01*
X134578Y844982D01*
X134687Y845029D01*
X134794Y845079D01*
X134899Y845134D01*
X135002Y845191D01*
X135103Y845252D01*
X135203Y845316D01*
X135300Y845383D01*
X135395Y845453D01*
X135487Y845527D01*
X135578Y845603D01*
X135665Y845683D01*
X135750Y845765D01*
X135832Y845850D01*
X135912Y845937D01*
X135988Y846028D01*
X136062Y846120D01*
X136132Y846215D01*
X136199Y846312D01*
X136263Y846412D01*
X136324Y846513D01*
X136381Y846616D01*
X136436Y846721D01*
X136486Y846828D01*
X136533Y846937D01*
X136576Y847047D01*
X136616Y847158D01*
X136652Y847270D01*
X136685Y847384D01*
X136714Y847499D01*
X136739Y847614D01*
X136760Y847731D01*
X136777Y847848D01*
X136791Y847965D01*
X136800Y848083D01*
X136806Y848201D01*
X136808Y848319D01*
X136808Y850126D01*
X136806Y850244D01*
X136800Y850362D01*
X136791Y850480D01*
X136777Y850597D01*
X136760Y850714D01*
X136739Y850831D01*
X136714Y850946D01*
X136685Y851061D01*
X136652Y851175D01*
X136616Y851287D01*
X136576Y851398D01*
X136533Y851508D01*
X136486Y851617D01*
X136436Y851724D01*
X136381Y851829D01*
X136324Y851932D01*
X136263Y852033D01*
X136199Y852133D01*
X136132Y852230D01*
X136062Y852325D01*
X135988Y852417D01*
X135912Y852508D01*
X135832Y852595D01*
X135750Y852680D01*
X135665Y852762D01*
X135578Y852842D01*
X135487Y852918D01*
X135395Y852992D01*
X135300Y853062D01*
X135203Y853129D01*
X135103Y853193D01*
X135002Y853254D01*
X134899Y853311D01*
X134794Y853366D01*
X134687Y853416D01*
X134578Y853463D01*
X134468Y853506D01*
X134357Y853546D01*
X134245Y853582D01*
X134131Y853615D01*
X134016Y853644D01*
X133901Y853669D01*
X133784Y853690D01*
X133667Y853707D01*
X133550Y853721D01*
X133432Y853730D01*
X133314Y853736D01*
X133196Y853738D01*
X127777Y853738D01*
X127777Y860963D01*
X136808Y860963D01*
D10*
X749300Y857700D02*
X749300Y800100D01*
X812800Y800100D02*
X812800Y857700D01*
X748650Y838200D02*
X697300Y838200D01*
X813450Y838200D02*
X888428Y838200D01*
X748650Y838200D02*
X723300Y841392D01*
X723300Y835008D01*
X748650Y838200D01*
X723300Y839500D01*
X723300Y836900D02*
X748650Y838200D01*
X723300Y840800D01*
X723300Y835600D02*
X748650Y838200D01*
X813450Y838200D02*
X838800Y841392D01*
X838800Y835008D01*
X813450Y838200D01*
X838800Y839500D01*
X838800Y836900D02*
X813450Y838200D01*
X838800Y840800D01*
X838800Y835600D02*
X813450Y838200D01*
D11*
X839562Y853738D02*
X844981Y853738D01*
X845099Y853736D01*
X845217Y853730D01*
X845335Y853721D01*
X845452Y853707D01*
X845569Y853690D01*
X845686Y853669D01*
X845801Y853644D01*
X845916Y853615D01*
X846030Y853582D01*
X846142Y853546D01*
X846253Y853506D01*
X846363Y853463D01*
X846472Y853416D01*
X846579Y853366D01*
X846684Y853311D01*
X846787Y853254D01*
X846888Y853193D01*
X846988Y853129D01*
X847085Y853062D01*
X847180Y852992D01*
X847272Y852918D01*
X847363Y852842D01*
X847450Y852762D01*
X847535Y852680D01*
X847617Y852595D01*
X847697Y852508D01*
X847773Y852417D01*
X847847Y852325D01*
X847917Y852230D01*
X847984Y852133D01*
X848048Y852033D01*
X848109Y851932D01*
X848166Y851829D01*
X848221Y851724D01*
X848271Y851617D01*
X848318Y851508D01*
X848361Y851398D01*
X848401Y851287D01*
X848437Y851175D01*
X848470Y851061D01*
X848499Y850946D01*
X848524Y850831D01*
X848545Y850714D01*
X848562Y850597D01*
X848576Y850480D01*
X848585Y850362D01*
X848591Y850244D01*
X848593Y850126D01*
X848593Y849223D01*
X848594Y849223D02*
X848592Y849090D01*
X848586Y848958D01*
X848576Y848826D01*
X848563Y848694D01*
X848545Y848562D01*
X848524Y848432D01*
X848499Y848301D01*
X848470Y848172D01*
X848437Y848044D01*
X848401Y847916D01*
X848361Y847790D01*
X848317Y847665D01*
X848269Y847541D01*
X848218Y847419D01*
X848163Y847298D01*
X848105Y847179D01*
X848043Y847061D01*
X847978Y846946D01*
X847909Y846832D01*
X847838Y846721D01*
X847762Y846612D01*
X847684Y846505D01*
X847603Y846400D01*
X847518Y846298D01*
X847431Y846198D01*
X847341Y846101D01*
X847248Y846006D01*
X847152Y845915D01*
X847054Y845826D01*
X846953Y845740D01*
X846849Y845657D01*
X846743Y845577D01*
X846635Y845501D01*
X846525Y845427D01*
X846412Y845357D01*
X846298Y845290D01*
X846181Y845227D01*
X846063Y845167D01*
X845943Y845110D01*
X845821Y845057D01*
X845698Y845008D01*
X845574Y844962D01*
X845448Y844920D01*
X845321Y844882D01*
X845193Y844847D01*
X845064Y844816D01*
X844935Y844789D01*
X844804Y844766D01*
X844673Y844746D01*
X844541Y844731D01*
X844409Y844719D01*
X844277Y844711D01*
X844144Y844707D01*
X844012Y844707D01*
X843879Y844711D01*
X843747Y844719D01*
X843615Y844731D01*
X843483Y844746D01*
X843352Y844766D01*
X843221Y844789D01*
X843092Y844816D01*
X842963Y844847D01*
X842835Y844882D01*
X842708Y844920D01*
X842582Y844962D01*
X842458Y845008D01*
X842335Y845057D01*
X842213Y845110D01*
X842093Y845167D01*
X841975Y845227D01*
X841858Y845290D01*
X841744Y845357D01*
X841631Y845427D01*
X841521Y845501D01*
X841413Y845577D01*
X841307Y845657D01*
X841203Y845740D01*
X841102Y845826D01*
X841004Y845915D01*
X840908Y846006D01*
X840815Y846101D01*
X840725Y846198D01*
X840638Y846298D01*
X840553Y846400D01*
X840472Y846505D01*
X840394Y846612D01*
X840318Y846721D01*
X840247Y846832D01*
X840178Y846946D01*
X840113Y847061D01*
X840051Y847179D01*
X839993Y847298D01*
X839938Y847419D01*
X839887Y847541D01*
X839839Y847665D01*
X839795Y847790D01*
X839755Y847916D01*
X839719Y848044D01*
X839686Y848172D01*
X839657Y848301D01*
X839632Y848432D01*
X839611Y848562D01*
X839593Y848694D01*
X839580Y848826D01*
X839570Y848958D01*
X839564Y849090D01*
X839562Y849223D01*
X839562Y853738D01*
X839564Y853915D01*
X839571Y854093D01*
X839582Y854270D01*
X839597Y854446D01*
X839616Y854622D01*
X839640Y854798D01*
X839668Y854973D01*
X839701Y855148D01*
X839738Y855321D01*
X839779Y855494D01*
X839824Y855665D01*
X839873Y855835D01*
X839927Y856004D01*
X839984Y856172D01*
X840046Y856338D01*
X840112Y856503D01*
X840182Y856666D01*
X840256Y856827D01*
X840333Y856986D01*
X840415Y857144D01*
X840501Y857299D01*
X840590Y857452D01*
X840683Y857603D01*
X840780Y857752D01*
X840880Y857898D01*
X840984Y858042D01*
X841091Y858183D01*
X841202Y858321D01*
X841316Y858457D01*
X841434Y858590D01*
X841554Y858720D01*
X841678Y858847D01*
X841805Y858971D01*
X841935Y859091D01*
X842068Y859209D01*
X842203Y859323D01*
X842342Y859434D01*
X842483Y859541D01*
X842627Y859645D01*
X842773Y859745D01*
X842922Y859842D01*
X843073Y859935D01*
X843226Y860024D01*
X843381Y860110D01*
X843539Y860192D01*
X843698Y860269D01*
X843859Y860343D01*
X844022Y860413D01*
X844187Y860479D01*
X844353Y860541D01*
X844521Y860598D01*
X844690Y860652D01*
X844860Y860701D01*
X845031Y860746D01*
X845204Y860787D01*
X845377Y860824D01*
X845552Y860857D01*
X845727Y860885D01*
X845903Y860909D01*
X846079Y860928D01*
X846255Y860943D01*
X846432Y860954D01*
X846610Y860961D01*
X846787Y860963D01*
X854568Y845610D02*
X854568Y844707D01*
X854568Y845610D02*
X855471Y845610D01*
X855471Y844707D01*
X854568Y844707D01*
X861446Y844707D02*
X865961Y844707D01*
X866094Y844709D01*
X866226Y844715D01*
X866358Y844725D01*
X866490Y844738D01*
X866622Y844756D01*
X866752Y844777D01*
X866883Y844802D01*
X867012Y844831D01*
X867140Y844864D01*
X867268Y844900D01*
X867394Y844940D01*
X867519Y844984D01*
X867643Y845032D01*
X867765Y845083D01*
X867886Y845138D01*
X868005Y845196D01*
X868123Y845258D01*
X868238Y845323D01*
X868352Y845392D01*
X868463Y845463D01*
X868572Y845539D01*
X868679Y845617D01*
X868784Y845698D01*
X868886Y845783D01*
X868986Y845870D01*
X869083Y845960D01*
X869178Y846053D01*
X869269Y846149D01*
X869358Y846247D01*
X869444Y846348D01*
X869527Y846452D01*
X869607Y846558D01*
X869683Y846666D01*
X869757Y846776D01*
X869827Y846889D01*
X869894Y847003D01*
X869957Y847120D01*
X870017Y847238D01*
X870074Y847358D01*
X870127Y847480D01*
X870176Y847603D01*
X870222Y847727D01*
X870264Y847853D01*
X870302Y847980D01*
X870337Y848108D01*
X870368Y848237D01*
X870395Y848366D01*
X870418Y848497D01*
X870438Y848628D01*
X870453Y848760D01*
X870465Y848892D01*
X870473Y849024D01*
X870477Y849157D01*
X870477Y849289D01*
X870473Y849422D01*
X870465Y849554D01*
X870453Y849686D01*
X870438Y849818D01*
X870418Y849949D01*
X870395Y850080D01*
X870368Y850209D01*
X870337Y850338D01*
X870302Y850466D01*
X870264Y850593D01*
X870222Y850719D01*
X870176Y850843D01*
X870127Y850966D01*
X870074Y851088D01*
X870017Y851208D01*
X869957Y851326D01*
X869894Y851443D01*
X869827Y851557D01*
X869757Y851670D01*
X869683Y851780D01*
X869607Y851888D01*
X869527Y851994D01*
X869444Y852098D01*
X869358Y852199D01*
X869269Y852297D01*
X869178Y852393D01*
X869083Y852486D01*
X868986Y852576D01*
X868886Y852663D01*
X868784Y852748D01*
X868679Y852829D01*
X868572Y852907D01*
X868463Y852983D01*
X868352Y853054D01*
X868238Y853123D01*
X868123Y853188D01*
X868005Y853250D01*
X867886Y853308D01*
X867765Y853363D01*
X867643Y853414D01*
X867519Y853462D01*
X867394Y853506D01*
X867268Y853546D01*
X867140Y853582D01*
X867012Y853615D01*
X866883Y853644D01*
X866752Y853669D01*
X866622Y853690D01*
X866490Y853708D01*
X866358Y853721D01*
X866226Y853731D01*
X866094Y853737D01*
X865961Y853739D01*
X866864Y860963D02*
X861446Y860963D01*
X866864Y860963D02*
X866983Y860961D01*
X867103Y860955D01*
X867222Y860945D01*
X867340Y860931D01*
X867459Y860914D01*
X867576Y860892D01*
X867693Y860867D01*
X867808Y860837D01*
X867923Y860804D01*
X868037Y860767D01*
X868149Y860727D01*
X868260Y860682D01*
X868369Y860634D01*
X868477Y860583D01*
X868583Y860528D01*
X868687Y860469D01*
X868789Y860407D01*
X868889Y860342D01*
X868987Y860273D01*
X869083Y860201D01*
X869176Y860126D01*
X869266Y860049D01*
X869354Y859968D01*
X869439Y859884D01*
X869521Y859797D01*
X869601Y859708D01*
X869677Y859616D01*
X869751Y859522D01*
X869821Y859425D01*
X869888Y859327D01*
X869952Y859226D01*
X870012Y859122D01*
X870069Y859017D01*
X870122Y858910D01*
X870172Y858802D01*
X870218Y858692D01*
X870260Y858580D01*
X870299Y858467D01*
X870334Y858353D01*
X870365Y858238D01*
X870393Y858121D01*
X870416Y858004D01*
X870436Y857887D01*
X870452Y857768D01*
X870464Y857649D01*
X870472Y857530D01*
X870476Y857411D01*
X870476Y857291D01*
X870472Y857172D01*
X870464Y857053D01*
X870452Y856934D01*
X870436Y856815D01*
X870416Y856698D01*
X870393Y856581D01*
X870365Y856464D01*
X870334Y856349D01*
X870299Y856235D01*
X870260Y856122D01*
X870218Y856010D01*
X870172Y855900D01*
X870122Y855792D01*
X870069Y855685D01*
X870012Y855580D01*
X869952Y855476D01*
X869888Y855375D01*
X869821Y855277D01*
X869751Y855180D01*
X869677Y855086D01*
X869601Y854994D01*
X869521Y854905D01*
X869439Y854818D01*
X869354Y854734D01*
X869266Y854653D01*
X869176Y854576D01*
X869083Y854501D01*
X868987Y854429D01*
X868889Y854360D01*
X868789Y854295D01*
X868687Y854233D01*
X868583Y854174D01*
X868477Y854119D01*
X868369Y854068D01*
X868260Y854020D01*
X868149Y853975D01*
X868037Y853935D01*
X867923Y853898D01*
X867808Y853865D01*
X867693Y853835D01*
X867576Y853810D01*
X867459Y853788D01*
X867340Y853771D01*
X867222Y853757D01*
X867103Y853747D01*
X866983Y853741D01*
X866864Y853739D01*
X866864Y853738D02*
X863252Y853738D01*
X877077Y844707D02*
X882496Y844707D01*
X882614Y844709D01*
X882732Y844715D01*
X882850Y844724D01*
X882967Y844738D01*
X883084Y844755D01*
X883201Y844776D01*
X883316Y844801D01*
X883431Y844830D01*
X883545Y844863D01*
X883657Y844899D01*
X883768Y844939D01*
X883878Y844982D01*
X883987Y845029D01*
X884094Y845079D01*
X884199Y845134D01*
X884302Y845191D01*
X884403Y845252D01*
X884503Y845316D01*
X884600Y845383D01*
X884695Y845453D01*
X884787Y845527D01*
X884878Y845603D01*
X884965Y845683D01*
X885050Y845765D01*
X885132Y845850D01*
X885212Y845937D01*
X885288Y846028D01*
X885362Y846120D01*
X885432Y846215D01*
X885499Y846312D01*
X885563Y846412D01*
X885624Y846513D01*
X885681Y846616D01*
X885736Y846721D01*
X885786Y846828D01*
X885833Y846937D01*
X885876Y847047D01*
X885916Y847158D01*
X885952Y847270D01*
X885985Y847384D01*
X886014Y847499D01*
X886039Y847614D01*
X886060Y847731D01*
X886077Y847848D01*
X886091Y847965D01*
X886100Y848083D01*
X886106Y848201D01*
X886108Y848319D01*
X886108Y850126D01*
X886106Y850244D01*
X886100Y850362D01*
X886091Y850480D01*
X886077Y850597D01*
X886060Y850714D01*
X886039Y850831D01*
X886014Y850946D01*
X885985Y851061D01*
X885952Y851175D01*
X885916Y851287D01*
X885876Y851398D01*
X885833Y851508D01*
X885786Y851617D01*
X885736Y851724D01*
X885681Y851829D01*
X885624Y851932D01*
X885563Y852033D01*
X885499Y852133D01*
X885432Y852230D01*
X885362Y852325D01*
X885288Y852417D01*
X885212Y852508D01*
X885132Y852595D01*
X885050Y852680D01*
X884965Y852762D01*
X884878Y852842D01*
X884787Y852918D01*
X884695Y852992D01*
X884600Y853062D01*
X884503Y853129D01*
X884403Y853193D01*
X884302Y853254D01*
X884199Y853311D01*
X884094Y853366D01*
X883987Y853416D01*
X883878Y853463D01*
X883768Y853506D01*
X883657Y853546D01*
X883545Y853582D01*
X883431Y853615D01*
X883316Y853644D01*
X883201Y853669D01*
X883084Y853690D01*
X882967Y853707D01*
X882850Y853721D01*
X882732Y853730D01*
X882614Y853736D01*
X882496Y853738D01*
X877077Y853738D01*
X877077Y860963D01*
X886108Y860963D01*
D10*
X266700Y946600D02*
X266700Y596900D01*
X0Y596900D02*
X0Y946600D01*
X650Y927100D02*
X266050Y927100D01*
X240700Y930292D01*
X240700Y923908D01*
X266050Y927100D01*
X240700Y928400D01*
X240700Y925800D02*
X266050Y927100D01*
X240700Y929700D01*
X240700Y924500D02*
X266050Y927100D01*
X26000Y930292D02*
X650Y927100D01*
X26000Y930292D02*
X26000Y923908D01*
X650Y927100D01*
X26000Y928400D01*
X26000Y925800D02*
X650Y927100D01*
X26000Y929700D01*
X26000Y924500D02*
X650Y927100D01*
D11*
X107169Y949863D02*
X107294Y949861D01*
X107419Y949855D01*
X107544Y949846D01*
X107668Y949832D01*
X107792Y949815D01*
X107916Y949794D01*
X108038Y949769D01*
X108160Y949740D01*
X108281Y949708D01*
X108401Y949672D01*
X108520Y949632D01*
X108637Y949589D01*
X108753Y949542D01*
X108868Y949491D01*
X108980Y949437D01*
X109092Y949379D01*
X109201Y949319D01*
X109308Y949254D01*
X109414Y949187D01*
X109517Y949116D01*
X109618Y949042D01*
X109717Y948965D01*
X109813Y948885D01*
X109907Y948802D01*
X109998Y948717D01*
X110087Y948628D01*
X110172Y948537D01*
X110255Y948443D01*
X110335Y948347D01*
X110412Y948248D01*
X110486Y948147D01*
X110557Y948044D01*
X110624Y947938D01*
X110689Y947831D01*
X110749Y947722D01*
X110807Y947610D01*
X110861Y947498D01*
X110912Y947383D01*
X110959Y947267D01*
X111002Y947150D01*
X111042Y947031D01*
X111078Y946911D01*
X111110Y946790D01*
X111139Y946668D01*
X111164Y946546D01*
X111185Y946422D01*
X111202Y946298D01*
X111216Y946174D01*
X111225Y946049D01*
X111231Y945924D01*
X111233Y945799D01*
X107169Y949863D02*
X107026Y949861D01*
X106884Y949855D01*
X106741Y949845D01*
X106599Y949832D01*
X106458Y949814D01*
X106316Y949793D01*
X106176Y949768D01*
X106036Y949739D01*
X105897Y949706D01*
X105759Y949669D01*
X105622Y949629D01*
X105487Y949585D01*
X105352Y949537D01*
X105219Y949485D01*
X105087Y949430D01*
X104957Y949371D01*
X104829Y949309D01*
X104702Y949243D01*
X104577Y949174D01*
X104454Y949102D01*
X104334Y949026D01*
X104215Y948947D01*
X104098Y948864D01*
X103984Y948779D01*
X103872Y948690D01*
X103763Y948599D01*
X103656Y948504D01*
X103551Y948407D01*
X103450Y948306D01*
X103351Y948203D01*
X103255Y948098D01*
X103162Y947989D01*
X103072Y947878D01*
X102985Y947765D01*
X102901Y947650D01*
X102821Y947532D01*
X102743Y947412D01*
X102669Y947290D01*
X102599Y947166D01*
X102531Y947040D01*
X102468Y946912D01*
X102407Y946783D01*
X102350Y946652D01*
X102297Y946520D01*
X102248Y946386D01*
X102202Y946251D01*
X109878Y942638D02*
X109972Y942730D01*
X110062Y942824D01*
X110150Y942921D01*
X110235Y943021D01*
X110317Y943123D01*
X110396Y943228D01*
X110471Y943335D01*
X110543Y943444D01*
X110612Y943555D01*
X110678Y943669D01*
X110740Y943784D01*
X110799Y943901D01*
X110854Y944020D01*
X110905Y944140D01*
X110953Y944262D01*
X110998Y944385D01*
X111038Y944509D01*
X111075Y944635D01*
X111108Y944762D01*
X111137Y944889D01*
X111163Y945018D01*
X111184Y945147D01*
X111202Y945277D01*
X111215Y945407D01*
X111225Y945537D01*
X111231Y945668D01*
X111233Y945799D01*
X109878Y942638D02*
X102202Y933607D01*
X111233Y933607D01*
X117833Y942638D02*
X123252Y942638D01*
X123370Y942636D01*
X123488Y942630D01*
X123606Y942621D01*
X123723Y942607D01*
X123840Y942590D01*
X123957Y942569D01*
X124072Y942544D01*
X124187Y942515D01*
X124301Y942482D01*
X124413Y942446D01*
X124524Y942406D01*
X124634Y942363D01*
X124743Y942316D01*
X124850Y942266D01*
X124955Y942211D01*
X125058Y942154D01*
X125159Y942093D01*
X125259Y942029D01*
X125356Y941962D01*
X125451Y941892D01*
X125543Y941818D01*
X125634Y941742D01*
X125721Y941662D01*
X125806Y941580D01*
X125888Y941495D01*
X125968Y941408D01*
X126044Y941317D01*
X126118Y941225D01*
X126188Y941130D01*
X126255Y941033D01*
X126319Y940933D01*
X126380Y940832D01*
X126437Y940729D01*
X126492Y940624D01*
X126542Y940517D01*
X126589Y940408D01*
X126632Y940298D01*
X126672Y940187D01*
X126708Y940075D01*
X126741Y939961D01*
X126770Y939846D01*
X126795Y939731D01*
X126816Y939614D01*
X126833Y939497D01*
X126847Y939380D01*
X126856Y939262D01*
X126862Y939144D01*
X126864Y939026D01*
X126864Y938123D01*
X126865Y938123D02*
X126863Y937990D01*
X126857Y937858D01*
X126847Y937726D01*
X126834Y937594D01*
X126816Y937462D01*
X126795Y937332D01*
X126770Y937201D01*
X126741Y937072D01*
X126708Y936944D01*
X126672Y936816D01*
X126632Y936690D01*
X126588Y936565D01*
X126540Y936441D01*
X126489Y936319D01*
X126434Y936198D01*
X126376Y936079D01*
X126314Y935961D01*
X126249Y935846D01*
X126180Y935732D01*
X126109Y935621D01*
X126033Y935512D01*
X125955Y935405D01*
X125874Y935300D01*
X125789Y935198D01*
X125702Y935098D01*
X125612Y935001D01*
X125519Y934906D01*
X125423Y934815D01*
X125325Y934726D01*
X125224Y934640D01*
X125120Y934557D01*
X125014Y934477D01*
X124906Y934401D01*
X124796Y934327D01*
X124683Y934257D01*
X124569Y934190D01*
X124452Y934127D01*
X124334Y934067D01*
X124214Y934010D01*
X124092Y933957D01*
X123969Y933908D01*
X123845Y933862D01*
X123719Y933820D01*
X123592Y933782D01*
X123464Y933747D01*
X123335Y933716D01*
X123206Y933689D01*
X123075Y933666D01*
X122944Y933646D01*
X122812Y933631D01*
X122680Y933619D01*
X122548Y933611D01*
X122415Y933607D01*
X122283Y933607D01*
X122150Y933611D01*
X122018Y933619D01*
X121886Y933631D01*
X121754Y933646D01*
X121623Y933666D01*
X121492Y933689D01*
X121363Y933716D01*
X121234Y933747D01*
X121106Y933782D01*
X120979Y933820D01*
X120853Y933862D01*
X120729Y933908D01*
X120606Y933957D01*
X120484Y934010D01*
X120364Y934067D01*
X120246Y934127D01*
X120129Y934190D01*
X120015Y934257D01*
X119902Y934327D01*
X119792Y934401D01*
X119684Y934477D01*
X119578Y934557D01*
X119474Y934640D01*
X119373Y934726D01*
X119275Y934815D01*
X119179Y934906D01*
X119086Y935001D01*
X118996Y935098D01*
X118909Y935198D01*
X118824Y935300D01*
X118743Y935405D01*
X118665Y935512D01*
X118589Y935621D01*
X118518Y935732D01*
X118449Y935846D01*
X118384Y935961D01*
X118322Y936079D01*
X118264Y936198D01*
X118209Y936319D01*
X118158Y936441D01*
X118110Y936565D01*
X118066Y936690D01*
X118026Y936816D01*
X117990Y936944D01*
X117957Y937072D01*
X117928Y937201D01*
X117903Y937332D01*
X117882Y937462D01*
X117864Y937594D01*
X117851Y937726D01*
X117841Y937858D01*
X117835Y937990D01*
X117833Y938123D01*
X117833Y942638D01*
X117835Y942815D01*
X117842Y942993D01*
X117853Y943170D01*
X117868Y943346D01*
X117887Y943522D01*
X117911Y943698D01*
X117939Y943873D01*
X117972Y944048D01*
X118009Y944221D01*
X118050Y944394D01*
X118095Y944565D01*
X118144Y944735D01*
X118198Y944904D01*
X118255Y945072D01*
X118317Y945238D01*
X118383Y945403D01*
X118453Y945566D01*
X118527Y945727D01*
X118604Y945886D01*
X118686Y946044D01*
X118772Y946199D01*
X118861Y946352D01*
X118954Y946503D01*
X119051Y946652D01*
X119151Y946798D01*
X119255Y946942D01*
X119362Y947083D01*
X119473Y947221D01*
X119587Y947357D01*
X119705Y947490D01*
X119825Y947620D01*
X119949Y947747D01*
X120076Y947871D01*
X120206Y947991D01*
X120339Y948109D01*
X120474Y948223D01*
X120613Y948334D01*
X120754Y948441D01*
X120898Y948545D01*
X121044Y948645D01*
X121193Y948742D01*
X121344Y948835D01*
X121497Y948924D01*
X121652Y949010D01*
X121810Y949092D01*
X121969Y949169D01*
X122130Y949243D01*
X122293Y949313D01*
X122458Y949379D01*
X122624Y949441D01*
X122792Y949498D01*
X122961Y949552D01*
X123131Y949601D01*
X123302Y949646D01*
X123475Y949687D01*
X123648Y949724D01*
X123823Y949757D01*
X123998Y949785D01*
X124174Y949809D01*
X124350Y949828D01*
X124526Y949843D01*
X124703Y949854D01*
X124881Y949861D01*
X125058Y949863D01*
X132839Y934510D02*
X132839Y933607D01*
X132839Y934510D02*
X133742Y934510D01*
X133742Y933607D01*
X132839Y933607D01*
X139717Y942638D02*
X145136Y942638D01*
X145254Y942636D01*
X145372Y942630D01*
X145490Y942621D01*
X145607Y942607D01*
X145724Y942590D01*
X145841Y942569D01*
X145956Y942544D01*
X146071Y942515D01*
X146185Y942482D01*
X146297Y942446D01*
X146408Y942406D01*
X146518Y942363D01*
X146627Y942316D01*
X146734Y942266D01*
X146839Y942211D01*
X146942Y942154D01*
X147043Y942093D01*
X147143Y942029D01*
X147240Y941962D01*
X147335Y941892D01*
X147427Y941818D01*
X147518Y941742D01*
X147605Y941662D01*
X147690Y941580D01*
X147772Y941495D01*
X147852Y941408D01*
X147928Y941317D01*
X148002Y941225D01*
X148072Y941130D01*
X148139Y941033D01*
X148203Y940933D01*
X148264Y940832D01*
X148321Y940729D01*
X148376Y940624D01*
X148426Y940517D01*
X148473Y940408D01*
X148516Y940298D01*
X148556Y940187D01*
X148592Y940075D01*
X148625Y939961D01*
X148654Y939846D01*
X148679Y939731D01*
X148700Y939614D01*
X148717Y939497D01*
X148731Y939380D01*
X148740Y939262D01*
X148746Y939144D01*
X148748Y939026D01*
X148748Y938123D01*
X148746Y937990D01*
X148740Y937858D01*
X148730Y937726D01*
X148717Y937594D01*
X148699Y937462D01*
X148678Y937332D01*
X148653Y937201D01*
X148624Y937072D01*
X148591Y936944D01*
X148555Y936816D01*
X148515Y936690D01*
X148471Y936565D01*
X148423Y936441D01*
X148372Y936319D01*
X148317Y936198D01*
X148259Y936079D01*
X148197Y935961D01*
X148132Y935846D01*
X148063Y935732D01*
X147992Y935621D01*
X147916Y935512D01*
X147838Y935405D01*
X147757Y935300D01*
X147672Y935198D01*
X147585Y935098D01*
X147495Y935001D01*
X147402Y934906D01*
X147306Y934815D01*
X147208Y934726D01*
X147107Y934640D01*
X147003Y934557D01*
X146897Y934477D01*
X146789Y934401D01*
X146679Y934327D01*
X146566Y934257D01*
X146452Y934190D01*
X146335Y934127D01*
X146217Y934067D01*
X146097Y934010D01*
X145975Y933957D01*
X145852Y933908D01*
X145728Y933862D01*
X145602Y933820D01*
X145475Y933782D01*
X145347Y933747D01*
X145218Y933716D01*
X145089Y933689D01*
X144958Y933666D01*
X144827Y933646D01*
X144695Y933631D01*
X144563Y933619D01*
X144431Y933611D01*
X144298Y933607D01*
X144166Y933607D01*
X144033Y933611D01*
X143901Y933619D01*
X143769Y933631D01*
X143637Y933646D01*
X143506Y933666D01*
X143375Y933689D01*
X143246Y933716D01*
X143117Y933747D01*
X142989Y933782D01*
X142862Y933820D01*
X142736Y933862D01*
X142612Y933908D01*
X142489Y933957D01*
X142367Y934010D01*
X142247Y934067D01*
X142129Y934127D01*
X142012Y934190D01*
X141898Y934257D01*
X141785Y934327D01*
X141675Y934401D01*
X141567Y934477D01*
X141461Y934557D01*
X141357Y934640D01*
X141256Y934726D01*
X141158Y934815D01*
X141062Y934906D01*
X140969Y935001D01*
X140879Y935098D01*
X140792Y935198D01*
X140707Y935300D01*
X140626Y935405D01*
X140548Y935512D01*
X140472Y935621D01*
X140401Y935732D01*
X140332Y935846D01*
X140267Y935961D01*
X140205Y936079D01*
X140147Y936198D01*
X140092Y936319D01*
X140041Y936441D01*
X139993Y936565D01*
X139949Y936690D01*
X139909Y936816D01*
X139873Y936944D01*
X139840Y937072D01*
X139811Y937201D01*
X139786Y937332D01*
X139765Y937462D01*
X139747Y937594D01*
X139734Y937726D01*
X139724Y937858D01*
X139718Y937990D01*
X139716Y938123D01*
X139717Y938123D02*
X139717Y942638D01*
X139719Y942815D01*
X139726Y942993D01*
X139737Y943170D01*
X139752Y943346D01*
X139771Y943522D01*
X139795Y943698D01*
X139823Y943873D01*
X139856Y944048D01*
X139893Y944221D01*
X139934Y944394D01*
X139979Y944565D01*
X140028Y944735D01*
X140082Y944904D01*
X140139Y945072D01*
X140201Y945238D01*
X140267Y945403D01*
X140337Y945566D01*
X140411Y945727D01*
X140488Y945886D01*
X140570Y946044D01*
X140656Y946199D01*
X140745Y946352D01*
X140838Y946503D01*
X140935Y946652D01*
X141035Y946798D01*
X141139Y946942D01*
X141246Y947083D01*
X141357Y947221D01*
X141471Y947357D01*
X141589Y947490D01*
X141709Y947620D01*
X141833Y947747D01*
X141960Y947871D01*
X142090Y947991D01*
X142223Y948109D01*
X142358Y948223D01*
X142497Y948334D01*
X142638Y948441D01*
X142782Y948545D01*
X142928Y948645D01*
X143077Y948742D01*
X143228Y948835D01*
X143381Y948924D01*
X143536Y949010D01*
X143694Y949092D01*
X143853Y949169D01*
X144014Y949243D01*
X144177Y949313D01*
X144342Y949379D01*
X144508Y949441D01*
X144676Y949498D01*
X144845Y949552D01*
X145015Y949601D01*
X145186Y949646D01*
X145359Y949687D01*
X145532Y949724D01*
X145707Y949757D01*
X145882Y949785D01*
X146058Y949809D01*
X146234Y949828D01*
X146410Y949843D01*
X146587Y949854D01*
X146765Y949861D01*
X146942Y949863D01*
X155348Y949863D02*
X155348Y948057D01*
X155348Y949863D02*
X164379Y949863D01*
X159864Y933607D01*
D10*
X546100Y946600D02*
X546100Y596900D01*
X812800Y596900D02*
X812800Y946600D01*
X812150Y927100D02*
X546750Y927100D01*
X572100Y930292D01*
X572100Y923908D01*
X546750Y927100D01*
X572100Y928400D01*
X572100Y925800D02*
X546750Y927100D01*
X572100Y929700D01*
X572100Y924500D02*
X546750Y927100D01*
X786800Y930292D02*
X812150Y927100D01*
X786800Y930292D02*
X786800Y923908D01*
X812150Y927100D01*
X786800Y928400D01*
X786800Y925800D02*
X812150Y927100D01*
X786800Y929700D01*
X786800Y924500D02*
X812150Y927100D01*
D11*
X657333Y945799D02*
X657331Y945924D01*
X657325Y946049D01*
X657316Y946174D01*
X657302Y946298D01*
X657285Y946422D01*
X657264Y946546D01*
X657239Y946668D01*
X657210Y946790D01*
X657178Y946911D01*
X657142Y947031D01*
X657102Y947150D01*
X657059Y947267D01*
X657012Y947383D01*
X656961Y947498D01*
X656907Y947610D01*
X656849Y947722D01*
X656789Y947831D01*
X656724Y947938D01*
X656657Y948044D01*
X656586Y948147D01*
X656512Y948248D01*
X656435Y948347D01*
X656355Y948443D01*
X656272Y948537D01*
X656187Y948628D01*
X656098Y948717D01*
X656007Y948802D01*
X655913Y948885D01*
X655817Y948965D01*
X655718Y949042D01*
X655617Y949116D01*
X655514Y949187D01*
X655408Y949254D01*
X655301Y949319D01*
X655192Y949379D01*
X655080Y949437D01*
X654968Y949491D01*
X654853Y949542D01*
X654737Y949589D01*
X654620Y949632D01*
X654501Y949672D01*
X654381Y949708D01*
X654260Y949740D01*
X654138Y949769D01*
X654016Y949794D01*
X653892Y949815D01*
X653768Y949832D01*
X653644Y949846D01*
X653519Y949855D01*
X653394Y949861D01*
X653269Y949863D01*
X653126Y949861D01*
X652984Y949855D01*
X652841Y949845D01*
X652699Y949832D01*
X652558Y949814D01*
X652416Y949793D01*
X652276Y949768D01*
X652136Y949739D01*
X651997Y949706D01*
X651859Y949669D01*
X651722Y949629D01*
X651587Y949585D01*
X651452Y949537D01*
X651319Y949485D01*
X651187Y949430D01*
X651057Y949371D01*
X650929Y949309D01*
X650802Y949243D01*
X650677Y949174D01*
X650554Y949102D01*
X650434Y949026D01*
X650315Y948947D01*
X650198Y948864D01*
X650084Y948779D01*
X649972Y948690D01*
X649863Y948599D01*
X649756Y948504D01*
X649651Y948407D01*
X649550Y948306D01*
X649451Y948203D01*
X649355Y948098D01*
X649262Y947989D01*
X649172Y947878D01*
X649085Y947765D01*
X649001Y947650D01*
X648921Y947532D01*
X648843Y947412D01*
X648769Y947290D01*
X648699Y947166D01*
X648631Y947040D01*
X648568Y946912D01*
X648507Y946783D01*
X648450Y946652D01*
X648397Y946520D01*
X648348Y946386D01*
X648302Y946251D01*
X655978Y942638D02*
X656072Y942730D01*
X656162Y942824D01*
X656250Y942921D01*
X656335Y943021D01*
X656417Y943123D01*
X656496Y943228D01*
X656571Y943335D01*
X656643Y943444D01*
X656712Y943555D01*
X656778Y943669D01*
X656840Y943784D01*
X656899Y943901D01*
X656954Y944020D01*
X657005Y944140D01*
X657053Y944262D01*
X657098Y944385D01*
X657138Y944509D01*
X657175Y944635D01*
X657208Y944762D01*
X657237Y944889D01*
X657263Y945018D01*
X657284Y945147D01*
X657302Y945277D01*
X657315Y945407D01*
X657325Y945537D01*
X657331Y945668D01*
X657333Y945799D01*
X655978Y942638D02*
X648302Y933607D01*
X657333Y933607D01*
X663933Y942638D02*
X669352Y942638D01*
X669470Y942636D01*
X669588Y942630D01*
X669706Y942621D01*
X669823Y942607D01*
X669940Y942590D01*
X670057Y942569D01*
X670172Y942544D01*
X670287Y942515D01*
X670401Y942482D01*
X670513Y942446D01*
X670624Y942406D01*
X670734Y942363D01*
X670843Y942316D01*
X670950Y942266D01*
X671055Y942211D01*
X671158Y942154D01*
X671259Y942093D01*
X671359Y942029D01*
X671456Y941962D01*
X671551Y941892D01*
X671643Y941818D01*
X671734Y941742D01*
X671821Y941662D01*
X671906Y941580D01*
X671988Y941495D01*
X672068Y941408D01*
X672144Y941317D01*
X672218Y941225D01*
X672288Y941130D01*
X672355Y941033D01*
X672419Y940933D01*
X672480Y940832D01*
X672537Y940729D01*
X672592Y940624D01*
X672642Y940517D01*
X672689Y940408D01*
X672732Y940298D01*
X672772Y940187D01*
X672808Y940075D01*
X672841Y939961D01*
X672870Y939846D01*
X672895Y939731D01*
X672916Y939614D01*
X672933Y939497D01*
X672947Y939380D01*
X672956Y939262D01*
X672962Y939144D01*
X672964Y939026D01*
X672964Y938123D01*
X672965Y938123D02*
X672963Y937990D01*
X672957Y937858D01*
X672947Y937726D01*
X672934Y937594D01*
X672916Y937462D01*
X672895Y937332D01*
X672870Y937201D01*
X672841Y937072D01*
X672808Y936944D01*
X672772Y936816D01*
X672732Y936690D01*
X672688Y936565D01*
X672640Y936441D01*
X672589Y936319D01*
X672534Y936198D01*
X672476Y936079D01*
X672414Y935961D01*
X672349Y935846D01*
X672280Y935732D01*
X672209Y935621D01*
X672133Y935512D01*
X672055Y935405D01*
X671974Y935300D01*
X671889Y935198D01*
X671802Y935098D01*
X671712Y935001D01*
X671619Y934906D01*
X671523Y934815D01*
X671425Y934726D01*
X671324Y934640D01*
X671220Y934557D01*
X671114Y934477D01*
X671006Y934401D01*
X670896Y934327D01*
X670783Y934257D01*
X670669Y934190D01*
X670552Y934127D01*
X670434Y934067D01*
X670314Y934010D01*
X670192Y933957D01*
X670069Y933908D01*
X669945Y933862D01*
X669819Y933820D01*
X669692Y933782D01*
X669564Y933747D01*
X669435Y933716D01*
X669306Y933689D01*
X669175Y933666D01*
X669044Y933646D01*
X668912Y933631D01*
X668780Y933619D01*
X668648Y933611D01*
X668515Y933607D01*
X668383Y933607D01*
X668250Y933611D01*
X668118Y933619D01*
X667986Y933631D01*
X667854Y933646D01*
X667723Y933666D01*
X667592Y933689D01*
X667463Y933716D01*
X667334Y933747D01*
X667206Y933782D01*
X667079Y933820D01*
X666953Y933862D01*
X666829Y933908D01*
X666706Y933957D01*
X666584Y934010D01*
X666464Y934067D01*
X666346Y934127D01*
X666229Y934190D01*
X666115Y934257D01*
X666002Y934327D01*
X665892Y934401D01*
X665784Y934477D01*
X665678Y934557D01*
X665574Y934640D01*
X665473Y934726D01*
X665375Y934815D01*
X665279Y934906D01*
X665186Y935001D01*
X665096Y935098D01*
X665009Y935198D01*
X664924Y935300D01*
X664843Y935405D01*
X664765Y935512D01*
X664689Y935621D01*
X664618Y935732D01*
X664549Y935846D01*
X664484Y935961D01*
X664422Y936079D01*
X664364Y936198D01*
X664309Y936319D01*
X664258Y936441D01*
X664210Y936565D01*
X664166Y936690D01*
X664126Y936816D01*
X664090Y936944D01*
X664057Y937072D01*
X664028Y937201D01*
X664003Y937332D01*
X663982Y937462D01*
X663964Y937594D01*
X663951Y937726D01*
X663941Y937858D01*
X663935Y937990D01*
X663933Y938123D01*
X663933Y942638D01*
X663935Y942815D01*
X663942Y942993D01*
X663953Y943170D01*
X663968Y943346D01*
X663987Y943522D01*
X664011Y943698D01*
X664039Y943873D01*
X664072Y944048D01*
X664109Y944221D01*
X664150Y944394D01*
X664195Y944565D01*
X664244Y944735D01*
X664298Y944904D01*
X664355Y945072D01*
X664417Y945238D01*
X664483Y945403D01*
X664553Y945566D01*
X664627Y945727D01*
X664704Y945886D01*
X664786Y946044D01*
X664872Y946199D01*
X664961Y946352D01*
X665054Y946503D01*
X665151Y946652D01*
X665251Y946798D01*
X665355Y946942D01*
X665462Y947083D01*
X665573Y947221D01*
X665687Y947357D01*
X665805Y947490D01*
X665925Y947620D01*
X666049Y947747D01*
X666176Y947871D01*
X666306Y947991D01*
X666439Y948109D01*
X666574Y948223D01*
X666713Y948334D01*
X666854Y948441D01*
X666998Y948545D01*
X667144Y948645D01*
X667293Y948742D01*
X667444Y948835D01*
X667597Y948924D01*
X667752Y949010D01*
X667910Y949092D01*
X668069Y949169D01*
X668230Y949243D01*
X668393Y949313D01*
X668558Y949379D01*
X668724Y949441D01*
X668892Y949498D01*
X669061Y949552D01*
X669231Y949601D01*
X669402Y949646D01*
X669575Y949687D01*
X669748Y949724D01*
X669923Y949757D01*
X670098Y949785D01*
X670274Y949809D01*
X670450Y949828D01*
X670626Y949843D01*
X670803Y949854D01*
X670981Y949861D01*
X671158Y949863D01*
X678939Y934510D02*
X678939Y933607D01*
X678939Y934510D02*
X679842Y934510D01*
X679842Y933607D01*
X678939Y933607D01*
X685817Y942638D02*
X691236Y942638D01*
X691354Y942636D01*
X691472Y942630D01*
X691590Y942621D01*
X691707Y942607D01*
X691824Y942590D01*
X691941Y942569D01*
X692056Y942544D01*
X692171Y942515D01*
X692285Y942482D01*
X692397Y942446D01*
X692508Y942406D01*
X692618Y942363D01*
X692727Y942316D01*
X692834Y942266D01*
X692939Y942211D01*
X693042Y942154D01*
X693143Y942093D01*
X693243Y942029D01*
X693340Y941962D01*
X693435Y941892D01*
X693527Y941818D01*
X693618Y941742D01*
X693705Y941662D01*
X693790Y941580D01*
X693872Y941495D01*
X693952Y941408D01*
X694028Y941317D01*
X694102Y941225D01*
X694172Y941130D01*
X694239Y941033D01*
X694303Y940933D01*
X694364Y940832D01*
X694421Y940729D01*
X694476Y940624D01*
X694526Y940517D01*
X694573Y940408D01*
X694616Y940298D01*
X694656Y940187D01*
X694692Y940075D01*
X694725Y939961D01*
X694754Y939846D01*
X694779Y939731D01*
X694800Y939614D01*
X694817Y939497D01*
X694831Y939380D01*
X694840Y939262D01*
X694846Y939144D01*
X694848Y939026D01*
X694848Y938123D01*
X694846Y937990D01*
X694840Y937858D01*
X694830Y937726D01*
X694817Y937594D01*
X694799Y937462D01*
X694778Y937332D01*
X694753Y937201D01*
X694724Y937072D01*
X694691Y936944D01*
X694655Y936816D01*
X694615Y936690D01*
X694571Y936565D01*
X694523Y936441D01*
X694472Y936319D01*
X694417Y936198D01*
X694359Y936079D01*
X694297Y935961D01*
X694232Y935846D01*
X694163Y935732D01*
X694092Y935621D01*
X694016Y935512D01*
X693938Y935405D01*
X693857Y935300D01*
X693772Y935198D01*
X693685Y935098D01*
X693595Y935001D01*
X693502Y934906D01*
X693406Y934815D01*
X693308Y934726D01*
X693207Y934640D01*
X693103Y934557D01*
X692997Y934477D01*
X692889Y934401D01*
X692779Y934327D01*
X692666Y934257D01*
X692552Y934190D01*
X692435Y934127D01*
X692317Y934067D01*
X692197Y934010D01*
X692075Y933957D01*
X691952Y933908D01*
X691828Y933862D01*
X691702Y933820D01*
X691575Y933782D01*
X691447Y933747D01*
X691318Y933716D01*
X691189Y933689D01*
X691058Y933666D01*
X690927Y933646D01*
X690795Y933631D01*
X690663Y933619D01*
X690531Y933611D01*
X690398Y933607D01*
X690266Y933607D01*
X690133Y933611D01*
X690001Y933619D01*
X689869Y933631D01*
X689737Y933646D01*
X689606Y933666D01*
X689475Y933689D01*
X689346Y933716D01*
X689217Y933747D01*
X689089Y933782D01*
X688962Y933820D01*
X688836Y933862D01*
X688712Y933908D01*
X688589Y933957D01*
X688467Y934010D01*
X688347Y934067D01*
X688229Y934127D01*
X688112Y934190D01*
X687998Y934257D01*
X687885Y934327D01*
X687775Y934401D01*
X687667Y934477D01*
X687561Y934557D01*
X687457Y934640D01*
X687356Y934726D01*
X687258Y934815D01*
X687162Y934906D01*
X687069Y935001D01*
X686979Y935098D01*
X686892Y935198D01*
X686807Y935300D01*
X686726Y935405D01*
X686648Y935512D01*
X686572Y935621D01*
X686501Y935732D01*
X686432Y935846D01*
X686367Y935961D01*
X686305Y936079D01*
X686247Y936198D01*
X686192Y936319D01*
X686141Y936441D01*
X686093Y936565D01*
X686049Y936690D01*
X686009Y936816D01*
X685973Y936944D01*
X685940Y937072D01*
X685911Y937201D01*
X685886Y937332D01*
X685865Y937462D01*
X685847Y937594D01*
X685834Y937726D01*
X685824Y937858D01*
X685818Y937990D01*
X685816Y938123D01*
X685817Y938123D02*
X685817Y942638D01*
X685819Y942815D01*
X685826Y942993D01*
X685837Y943170D01*
X685852Y943346D01*
X685871Y943522D01*
X685895Y943698D01*
X685923Y943873D01*
X685956Y944048D01*
X685993Y944221D01*
X686034Y944394D01*
X686079Y944565D01*
X686128Y944735D01*
X686182Y944904D01*
X686239Y945072D01*
X686301Y945238D01*
X686367Y945403D01*
X686437Y945566D01*
X686511Y945727D01*
X686588Y945886D01*
X686670Y946044D01*
X686756Y946199D01*
X686845Y946352D01*
X686938Y946503D01*
X687035Y946652D01*
X687135Y946798D01*
X687239Y946942D01*
X687346Y947083D01*
X687457Y947221D01*
X687571Y947357D01*
X687689Y947490D01*
X687809Y947620D01*
X687933Y947747D01*
X688060Y947871D01*
X688190Y947991D01*
X688323Y948109D01*
X688458Y948223D01*
X688597Y948334D01*
X688738Y948441D01*
X688882Y948545D01*
X689028Y948645D01*
X689177Y948742D01*
X689328Y948835D01*
X689481Y948924D01*
X689636Y949010D01*
X689794Y949092D01*
X689953Y949169D01*
X690114Y949243D01*
X690277Y949313D01*
X690442Y949379D01*
X690608Y949441D01*
X690776Y949498D01*
X690945Y949552D01*
X691115Y949601D01*
X691286Y949646D01*
X691459Y949687D01*
X691632Y949724D01*
X691807Y949757D01*
X691982Y949785D01*
X692158Y949809D01*
X692334Y949828D01*
X692510Y949843D01*
X692687Y949854D01*
X692865Y949861D01*
X693042Y949863D01*
X701448Y949863D02*
X701448Y948057D01*
X701448Y949863D02*
X710479Y949863D01*
X705964Y933607D01*
D10*
X266700Y596900D02*
X-70300Y596900D01*
X-70300Y812800D02*
X266700Y812800D01*
X-50800Y812150D02*
X-50800Y597550D01*
X-53992Y622900D01*
X-47608Y622900D01*
X-50800Y597550D01*
X-52100Y622900D01*
X-49500Y622900D02*
X-50800Y597550D01*
X-53400Y622900D01*
X-48200Y622900D02*
X-50800Y597550D01*
X-53992Y786800D02*
X-50800Y812150D01*
X-53992Y786800D02*
X-47608Y786800D01*
X-50800Y812150D01*
X-52100Y786800D01*
X-49500Y786800D02*
X-50800Y812150D01*
X-53400Y786800D01*
X-48200Y786800D02*
X-50800Y812150D01*
D11*
X-69499Y682733D02*
X-69624Y682731D01*
X-69749Y682725D01*
X-69874Y682716D01*
X-69998Y682702D01*
X-70122Y682685D01*
X-70246Y682664D01*
X-70368Y682639D01*
X-70490Y682610D01*
X-70611Y682578D01*
X-70731Y682542D01*
X-70850Y682502D01*
X-70967Y682459D01*
X-71083Y682412D01*
X-71198Y682361D01*
X-71310Y682307D01*
X-71422Y682249D01*
X-71531Y682189D01*
X-71638Y682124D01*
X-71744Y682057D01*
X-71847Y681986D01*
X-71948Y681912D01*
X-72047Y681835D01*
X-72143Y681755D01*
X-72237Y681672D01*
X-72328Y681587D01*
X-72417Y681498D01*
X-72502Y681407D01*
X-72585Y681313D01*
X-72665Y681217D01*
X-72742Y681118D01*
X-72816Y681017D01*
X-72887Y680914D01*
X-72954Y680808D01*
X-73019Y680701D01*
X-73079Y680592D01*
X-73137Y680480D01*
X-73191Y680368D01*
X-73242Y680253D01*
X-73289Y680137D01*
X-73332Y680020D01*
X-73372Y679901D01*
X-73408Y679781D01*
X-73440Y679660D01*
X-73469Y679538D01*
X-73494Y679416D01*
X-73515Y679292D01*
X-73532Y679168D01*
X-73546Y679044D01*
X-73555Y678919D01*
X-73561Y678794D01*
X-73563Y678669D01*
X-73561Y678526D01*
X-73555Y678384D01*
X-73545Y678241D01*
X-73532Y678099D01*
X-73514Y677958D01*
X-73493Y677816D01*
X-73468Y677676D01*
X-73439Y677536D01*
X-73406Y677397D01*
X-73369Y677259D01*
X-73329Y677122D01*
X-73285Y676987D01*
X-73237Y676852D01*
X-73185Y676719D01*
X-73130Y676587D01*
X-73071Y676457D01*
X-73009Y676329D01*
X-72943Y676202D01*
X-72874Y676077D01*
X-72802Y675954D01*
X-72726Y675834D01*
X-72647Y675715D01*
X-72564Y675598D01*
X-72479Y675484D01*
X-72390Y675372D01*
X-72299Y675263D01*
X-72204Y675156D01*
X-72107Y675051D01*
X-72006Y674950D01*
X-71903Y674851D01*
X-71798Y674755D01*
X-71689Y674662D01*
X-71578Y674572D01*
X-71465Y674485D01*
X-71350Y674401D01*
X-71232Y674321D01*
X-71112Y674243D01*
X-70990Y674169D01*
X-70866Y674099D01*
X-70740Y674031D01*
X-70612Y673968D01*
X-70483Y673907D01*
X-70352Y673850D01*
X-70220Y673797D01*
X-70086Y673748D01*
X-69951Y673702D01*
X-66338Y681378D02*
X-66430Y681472D01*
X-66524Y681562D01*
X-66621Y681650D01*
X-66721Y681735D01*
X-66823Y681817D01*
X-66928Y681896D01*
X-67035Y681971D01*
X-67144Y682043D01*
X-67255Y682112D01*
X-67369Y682178D01*
X-67484Y682240D01*
X-67601Y682299D01*
X-67720Y682354D01*
X-67840Y682405D01*
X-67962Y682453D01*
X-68085Y682498D01*
X-68209Y682538D01*
X-68335Y682575D01*
X-68462Y682608D01*
X-68589Y682637D01*
X-68718Y682663D01*
X-68847Y682684D01*
X-68977Y682702D01*
X-69107Y682715D01*
X-69237Y682725D01*
X-69368Y682731D01*
X-69499Y682733D01*
X-66338Y681378D02*
X-57307Y673702D01*
X-57307Y682733D01*
X-69951Y689333D02*
X-73563Y693849D01*
X-57307Y693849D01*
X-57307Y698364D02*
X-57307Y689333D01*
X-57307Y704339D02*
X-58210Y704339D01*
X-58210Y705242D01*
X-57307Y705242D01*
X-57307Y704339D01*
X-57307Y711217D02*
X-57307Y716636D01*
X-57309Y716754D01*
X-57315Y716872D01*
X-57324Y716990D01*
X-57338Y717107D01*
X-57355Y717224D01*
X-57376Y717341D01*
X-57401Y717456D01*
X-57430Y717571D01*
X-57463Y717685D01*
X-57499Y717797D01*
X-57539Y717908D01*
X-57582Y718018D01*
X-57629Y718127D01*
X-57679Y718234D01*
X-57734Y718339D01*
X-57791Y718442D01*
X-57852Y718543D01*
X-57916Y718643D01*
X-57983Y718740D01*
X-58053Y718835D01*
X-58127Y718927D01*
X-58203Y719018D01*
X-58283Y719105D01*
X-58365Y719190D01*
X-58450Y719272D01*
X-58537Y719352D01*
X-58628Y719428D01*
X-58720Y719502D01*
X-58815Y719572D01*
X-58912Y719639D01*
X-59012Y719703D01*
X-59113Y719764D01*
X-59216Y719821D01*
X-59321Y719876D01*
X-59428Y719926D01*
X-59537Y719973D01*
X-59647Y720016D01*
X-59758Y720056D01*
X-59870Y720092D01*
X-59984Y720125D01*
X-60099Y720154D01*
X-60214Y720179D01*
X-60331Y720200D01*
X-60448Y720217D01*
X-60565Y720231D01*
X-60683Y720240D01*
X-60801Y720246D01*
X-60919Y720248D01*
X-62726Y720248D01*
X-62844Y720246D01*
X-62962Y720240D01*
X-63080Y720231D01*
X-63197Y720217D01*
X-63314Y720200D01*
X-63431Y720179D01*
X-63546Y720154D01*
X-63661Y720125D01*
X-63775Y720092D01*
X-63887Y720056D01*
X-63998Y720016D01*
X-64108Y719973D01*
X-64217Y719926D01*
X-64324Y719876D01*
X-64429Y719821D01*
X-64532Y719764D01*
X-64633Y719703D01*
X-64733Y719639D01*
X-64830Y719572D01*
X-64925Y719502D01*
X-65017Y719428D01*
X-65108Y719352D01*
X-65195Y719272D01*
X-65280Y719190D01*
X-65362Y719105D01*
X-65442Y719018D01*
X-65518Y718927D01*
X-65592Y718835D01*
X-65662Y718740D01*
X-65729Y718643D01*
X-65793Y718543D01*
X-65854Y718442D01*
X-65911Y718339D01*
X-65966Y718234D01*
X-66016Y718127D01*
X-66063Y718018D01*
X-66106Y717908D01*
X-66146Y717797D01*
X-66182Y717685D01*
X-66215Y717571D01*
X-66244Y717456D01*
X-66269Y717341D01*
X-66290Y717224D01*
X-66307Y717107D01*
X-66321Y716990D01*
X-66330Y716872D01*
X-66336Y716754D01*
X-66338Y716636D01*
X-66338Y711217D01*
X-73563Y711217D01*
X-73563Y720248D01*
X-64532Y730461D02*
X-64532Y735879D01*
X-64532Y730461D02*
X-64534Y730343D01*
X-64540Y730225D01*
X-64549Y730107D01*
X-64563Y729990D01*
X-64580Y729873D01*
X-64601Y729756D01*
X-64626Y729641D01*
X-64655Y729526D01*
X-64688Y729412D01*
X-64724Y729300D01*
X-64764Y729189D01*
X-64807Y729079D01*
X-64854Y728970D01*
X-64904Y728863D01*
X-64959Y728758D01*
X-65016Y728655D01*
X-65077Y728554D01*
X-65141Y728454D01*
X-65208Y728357D01*
X-65278Y728262D01*
X-65352Y728170D01*
X-65428Y728079D01*
X-65508Y727992D01*
X-65590Y727907D01*
X-65675Y727825D01*
X-65762Y727745D01*
X-65853Y727669D01*
X-65945Y727595D01*
X-66040Y727525D01*
X-66137Y727458D01*
X-66237Y727394D01*
X-66338Y727333D01*
X-66441Y727276D01*
X-66546Y727221D01*
X-66653Y727171D01*
X-66762Y727124D01*
X-66872Y727081D01*
X-66983Y727041D01*
X-67095Y727005D01*
X-67209Y726972D01*
X-67324Y726943D01*
X-67439Y726918D01*
X-67556Y726897D01*
X-67673Y726880D01*
X-67790Y726866D01*
X-67908Y726857D01*
X-68026Y726851D01*
X-68144Y726849D01*
X-68144Y726848D02*
X-69047Y726848D01*
X-69180Y726850D01*
X-69312Y726856D01*
X-69444Y726866D01*
X-69576Y726879D01*
X-69708Y726897D01*
X-69838Y726918D01*
X-69969Y726943D01*
X-70098Y726972D01*
X-70226Y727005D01*
X-70354Y727041D01*
X-70480Y727081D01*
X-70605Y727125D01*
X-70729Y727173D01*
X-70851Y727224D01*
X-70972Y727279D01*
X-71091Y727337D01*
X-71209Y727399D01*
X-71324Y727464D01*
X-71438Y727533D01*
X-71549Y727604D01*
X-71658Y727680D01*
X-71765Y727758D01*
X-71870Y727839D01*
X-71972Y727924D01*
X-72072Y728011D01*
X-72169Y728101D01*
X-72264Y728194D01*
X-72355Y728290D01*
X-72444Y728388D01*
X-72530Y728489D01*
X-72613Y728593D01*
X-72693Y728699D01*
X-72769Y728807D01*
X-72843Y728917D01*
X-72913Y729030D01*
X-72980Y729144D01*
X-73043Y729261D01*
X-73103Y729379D01*
X-73160Y729499D01*
X-73213Y729621D01*
X-73262Y729744D01*
X-73308Y729868D01*
X-73350Y729994D01*
X-73388Y730121D01*
X-73423Y730249D01*
X-73454Y730378D01*
X-73481Y730507D01*
X-73504Y730638D01*
X-73524Y730769D01*
X-73539Y730901D01*
X-73551Y731033D01*
X-73559Y731165D01*
X-73563Y731298D01*
X-73563Y731430D01*
X-73559Y731563D01*
X-73551Y731695D01*
X-73539Y731827D01*
X-73524Y731959D01*
X-73504Y732090D01*
X-73481Y732221D01*
X-73454Y732350D01*
X-73423Y732479D01*
X-73388Y732607D01*
X-73350Y732734D01*
X-73308Y732860D01*
X-73262Y732984D01*
X-73213Y733107D01*
X-73160Y733229D01*
X-73103Y733349D01*
X-73043Y733467D01*
X-72980Y733584D01*
X-72913Y733698D01*
X-72843Y733811D01*
X-72769Y733921D01*
X-72693Y734029D01*
X-72613Y734135D01*
X-72530Y734239D01*
X-72444Y734340D01*
X-72355Y734438D01*
X-72264Y734534D01*
X-72169Y734627D01*
X-72072Y734717D01*
X-71972Y734804D01*
X-71870Y734889D01*
X-71765Y734970D01*
X-71658Y735048D01*
X-71549Y735124D01*
X-71438Y735195D01*
X-71324Y735264D01*
X-71209Y735329D01*
X-71091Y735391D01*
X-70972Y735449D01*
X-70851Y735504D01*
X-70729Y735555D01*
X-70605Y735603D01*
X-70480Y735647D01*
X-70354Y735687D01*
X-70226Y735723D01*
X-70098Y735756D01*
X-69969Y735785D01*
X-69838Y735810D01*
X-69708Y735831D01*
X-69576Y735849D01*
X-69444Y735862D01*
X-69312Y735872D01*
X-69180Y735878D01*
X-69047Y735880D01*
X-69047Y735879D02*
X-64532Y735879D01*
X-64357Y735877D01*
X-64183Y735871D01*
X-64009Y735860D01*
X-63835Y735845D01*
X-63661Y735826D01*
X-63488Y735803D01*
X-63316Y735776D01*
X-63144Y735744D01*
X-62973Y735709D01*
X-62803Y735669D01*
X-62634Y735625D01*
X-62466Y735577D01*
X-62299Y735525D01*
X-62134Y735469D01*
X-61970Y735409D01*
X-61807Y735346D01*
X-61647Y735278D01*
X-61487Y735206D01*
X-61330Y735131D01*
X-61174Y735051D01*
X-61021Y734968D01*
X-60869Y734882D01*
X-60720Y734791D01*
X-60573Y734697D01*
X-60428Y734600D01*
X-60285Y734499D01*
X-60145Y734395D01*
X-60008Y734287D01*
X-59873Y734176D01*
X-59741Y734062D01*
X-59612Y733945D01*
X-59485Y733824D01*
X-59362Y733701D01*
X-59241Y733574D01*
X-59124Y733445D01*
X-59010Y733313D01*
X-58899Y733178D01*
X-58791Y733041D01*
X-58687Y732901D01*
X-58586Y732758D01*
X-58489Y732613D01*
X-58395Y732466D01*
X-58304Y732317D01*
X-58218Y732165D01*
X-58135Y732012D01*
X-58055Y731856D01*
X-57980Y731699D01*
X-57908Y731539D01*
X-57840Y731379D01*
X-57777Y731216D01*
X-57717Y731052D01*
X-57661Y730887D01*
X-57609Y730720D01*
X-57561Y730552D01*
X-57517Y730383D01*
X-57477Y730213D01*
X-57442Y730042D01*
X-57410Y729870D01*
X-57383Y729698D01*
X-57360Y729525D01*
X-57341Y729351D01*
X-57326Y729177D01*
X-57315Y729003D01*
X-57309Y728829D01*
X-57307Y728654D01*
D12*
X63500Y800100D03*
X63500Y774700D03*
X63500Y749300D03*
X63500Y723900D03*
X63500Y698500D03*
X63500Y673100D03*
X63500Y647700D03*
X63500Y622300D03*
X266700Y596900D03*
X266700Y571500D03*
X266700Y546100D03*
X266700Y520700D03*
X266700Y495300D03*
X266700Y469900D03*
X266700Y444500D03*
X266700Y419100D03*
X266700Y393700D03*
X266700Y368300D03*
X266700Y342900D03*
X266700Y317500D03*
X266700Y292100D03*
X266700Y266700D03*
X266700Y241300D03*
X266700Y215900D03*
X749300Y800100D03*
X749300Y774700D03*
X749300Y749300D03*
X749300Y723900D03*
X749300Y698500D03*
X749300Y673100D03*
X749300Y647700D03*
X749300Y622300D03*
X546100Y596900D03*
X546100Y571500D03*
X546100Y546100D03*
X546100Y520700D03*
X546100Y495300D03*
X546100Y469900D03*
X546100Y444500D03*
X546100Y419100D03*
X546100Y393700D03*
X546100Y368300D03*
X546100Y342900D03*
X546100Y317500D03*
X546100Y292100D03*
X546100Y266700D03*
X546100Y241300D03*
X546100Y215900D03*
X749300Y190500D03*
X749300Y165100D03*
X749300Y139700D03*
X749300Y114300D03*
X749300Y88900D03*
X749300Y63500D03*
X749300Y38100D03*
X749300Y12700D03*
X63500Y190500D03*
X63500Y165100D03*
X63500Y139700D03*
X63500Y114300D03*
X63500Y88900D03*
X63500Y63500D03*
X63500Y38100D03*
X63500Y12700D03*
D13*
X25400Y800100D03*
D12*
X25400Y774700D03*
X25400Y749300D03*
X25400Y723900D03*
X25400Y698500D03*
X25400Y673100D03*
X25400Y647700D03*
X25400Y622300D03*
X177800Y622300D03*
X177800Y647700D03*
X177800Y673100D03*
X177800Y698500D03*
X177800Y723900D03*
X177800Y749300D03*
X177800Y774700D03*
X177800Y800100D03*
D13*
X228600Y800100D03*
D12*
X228600Y774700D03*
X228600Y749300D03*
X228600Y723900D03*
X228600Y698500D03*
X228600Y673100D03*
X228600Y647700D03*
X228600Y622300D03*
X381000Y622300D03*
X381000Y647700D03*
X381000Y673100D03*
X381000Y698500D03*
X381000Y723900D03*
X381000Y749300D03*
X381000Y774700D03*
X381000Y800100D03*
D13*
X431800Y800100D03*
D12*
X431800Y774700D03*
X431800Y749300D03*
X431800Y723900D03*
X431800Y698500D03*
X431800Y673100D03*
X431800Y647700D03*
X431800Y622300D03*
X584200Y622300D03*
X584200Y647700D03*
X584200Y673100D03*
X584200Y698500D03*
X584200Y723900D03*
X584200Y749300D03*
X584200Y774700D03*
X584200Y800100D03*
D13*
X635000Y800100D03*
D12*
X635000Y774700D03*
X635000Y749300D03*
X635000Y723900D03*
X635000Y698500D03*
X635000Y673100D03*
X635000Y647700D03*
X635000Y622300D03*
X787400Y622300D03*
X787400Y647700D03*
X787400Y673100D03*
X787400Y698500D03*
X787400Y723900D03*
X787400Y749300D03*
X787400Y774700D03*
X787400Y800100D03*
D13*
X25400Y596900D03*
D12*
X25400Y571500D03*
X25400Y546100D03*
X25400Y520700D03*
X25400Y495300D03*
X25400Y469900D03*
X25400Y444500D03*
X25400Y419100D03*
X177800Y419100D03*
X177800Y444500D03*
X177800Y469900D03*
X177800Y495300D03*
X177800Y520700D03*
X177800Y546100D03*
X177800Y571500D03*
X177800Y596900D03*
D13*
X228600Y596900D03*
D12*
X228600Y571500D03*
X228600Y546100D03*
X228600Y520700D03*
X228600Y495300D03*
X228600Y469900D03*
X228600Y444500D03*
X228600Y419100D03*
X381000Y419100D03*
X381000Y444500D03*
X381000Y469900D03*
X381000Y495300D03*
X381000Y520700D03*
X381000Y546100D03*
X381000Y571500D03*
X381000Y596900D03*
D13*
X431800Y596900D03*
D12*
X431800Y571500D03*
X431800Y546100D03*
X431800Y520700D03*
X431800Y495300D03*
X431800Y469900D03*
X431800Y444500D03*
X431800Y419100D03*
X584200Y419100D03*
X584200Y444500D03*
X584200Y469900D03*
X584200Y495300D03*
X584200Y520700D03*
X584200Y546100D03*
X584200Y571500D03*
X584200Y596900D03*
D13*
X635000Y596900D03*
D12*
X635000Y571500D03*
X635000Y546100D03*
X635000Y520700D03*
X635000Y495300D03*
X635000Y469900D03*
X635000Y444500D03*
X635000Y419100D03*
X787400Y419100D03*
X787400Y444500D03*
X787400Y469900D03*
X787400Y495300D03*
X787400Y520700D03*
X787400Y546100D03*
X787400Y571500D03*
X787400Y596900D03*
D13*
X25400Y393700D03*
D12*
X25400Y368300D03*
X25400Y342900D03*
X25400Y317500D03*
X25400Y292100D03*
X25400Y266700D03*
X25400Y241300D03*
X25400Y215900D03*
X177800Y215900D03*
X177800Y241300D03*
X177800Y266700D03*
X177800Y292100D03*
X177800Y317500D03*
X177800Y342900D03*
X177800Y368300D03*
X177800Y393700D03*
D13*
X228600Y393700D03*
D12*
X228600Y368300D03*
X228600Y342900D03*
X228600Y317500D03*
X228600Y292100D03*
X228600Y266700D03*
X228600Y241300D03*
X228600Y215900D03*
X381000Y215900D03*
X381000Y241300D03*
X381000Y266700D03*
X381000Y292100D03*
X381000Y317500D03*
X381000Y342900D03*
X381000Y368300D03*
X381000Y393700D03*
D13*
X431800Y393700D03*
D12*
X431800Y368300D03*
X431800Y342900D03*
X431800Y317500D03*
X431800Y292100D03*
X431800Y266700D03*
X431800Y241300D03*
X431800Y215900D03*
X584200Y215900D03*
X584200Y241300D03*
X584200Y266700D03*
X584200Y292100D03*
X584200Y317500D03*
X584200Y342900D03*
X584200Y368300D03*
X584200Y393700D03*
D13*
X635000Y393700D03*
D12*
X635000Y368300D03*
X635000Y342900D03*
X635000Y317500D03*
X635000Y292100D03*
X635000Y266700D03*
X635000Y241300D03*
X635000Y215900D03*
X787400Y215900D03*
X787400Y241300D03*
X787400Y266700D03*
X787400Y292100D03*
X787400Y317500D03*
X787400Y342900D03*
X787400Y368300D03*
X787400Y393700D03*
D13*
X25400Y190500D03*
D12*
X25400Y165100D03*
X25400Y139700D03*
X25400Y114300D03*
X25400Y88900D03*
X25400Y63500D03*
X25400Y38100D03*
X25400Y12700D03*
X177800Y12700D03*
X177800Y38100D03*
X177800Y63500D03*
X177800Y88900D03*
X177800Y114300D03*
X177800Y139700D03*
X177800Y165100D03*
X177800Y190500D03*
D13*
X228600Y190500D03*
D12*
X228600Y165100D03*
X228600Y139700D03*
X228600Y114300D03*
X228600Y88900D03*
X228600Y63500D03*
X228600Y38100D03*
X228600Y12700D03*
X381000Y12700D03*
X381000Y38100D03*
X381000Y63500D03*
X381000Y88900D03*
X381000Y114300D03*
X381000Y139700D03*
X381000Y165100D03*
X381000Y190500D03*
D13*
X431800Y190500D03*
D12*
X431800Y165100D03*
X431800Y139700D03*
X431800Y114300D03*
X431800Y88900D03*
X431800Y63500D03*
X431800Y38100D03*
X431800Y12700D03*
X584200Y12700D03*
X584200Y38100D03*
X584200Y63500D03*
X584200Y88900D03*
X584200Y114300D03*
X584200Y139700D03*
X584200Y165100D03*
X584200Y190500D03*
D13*
X635000Y190500D03*
D12*
X635000Y165100D03*
X635000Y139700D03*
X635000Y114300D03*
X635000Y88900D03*
X635000Y63500D03*
X635000Y38100D03*
X635000Y12700D03*
X787400Y12700D03*
X787400Y38100D03*
X787400Y63500D03*
X787400Y88900D03*
X787400Y114300D03*
X787400Y139700D03*
X787400Y165100D03*
X787400Y190500D03*
D14*
X611188Y723900D02*
X584200Y723900D01*
X611188Y723900D02*
X623888Y736600D01*
X774700Y736600D01*
X787400Y723900D01*
X193040Y736600D02*
X180340Y723900D01*
X177800Y723900D01*
X193040Y736600D02*
X239713Y736600D01*
X249873Y726440D01*
X378460Y726440D02*
X381000Y723900D01*
X378460Y726440D02*
X249873Y726440D01*
X177800Y723900D02*
X173990Y723900D01*
X161290Y736600D01*
X135890Y736600D01*
X135255Y735965D01*
X579438Y728663D02*
X584200Y723900D01*
X579438Y728663D02*
X444500Y728663D01*
X436563Y736600D01*
X422275Y736600D01*
X409575Y723900D01*
X381000Y723900D01*
D15*
X135255Y735965D03*
D14*
X431800Y749300D02*
X432118Y749618D01*
X559435Y749618D01*
X571818Y762000D01*
X595630Y762000D01*
X608330Y749300D01*
X635000Y749300D01*
X50800Y774700D02*
X38100Y762000D01*
X25400Y749300D01*
X50800Y774700D02*
X63500Y774700D01*
X199073Y749300D02*
X228600Y749300D01*
X199073Y749300D02*
X186373Y762000D01*
X38100Y762000D01*
X431483Y749618D02*
X431800Y749300D01*
X431483Y749618D02*
X400685Y749618D01*
X388303Y762000D01*
X368300Y762000D01*
X355600Y749300D01*
X228600Y749300D01*
X50800Y749300D02*
X34925Y733425D01*
X25400Y723900D01*
X50800Y749300D02*
X63500Y749300D01*
X228600Y723900D02*
X233363Y719138D01*
X360680Y719138D01*
X368618Y711200D01*
X404813Y711200D01*
X416243Y722630D01*
X430530Y722630D02*
X431800Y723900D01*
X430530Y722630D02*
X416243Y722630D01*
X630238Y719138D02*
X635000Y723900D01*
X630238Y719138D02*
X596900Y719138D01*
X588963Y711200D01*
X506413Y711200D01*
X494983Y722630D01*
X433070Y722630D01*
X431800Y723900D01*
X57150Y711200D02*
X34925Y733425D01*
X57150Y711200D02*
X182563Y711200D01*
X195263Y723900D01*
X228600Y723900D01*
X180658Y650558D02*
X177800Y647700D01*
X180658Y650558D02*
X206375Y650558D01*
X216218Y660400D01*
X240030Y660400D01*
X252730Y647700D01*
X381000Y647700D01*
X449263Y647700D02*
X584200Y647700D01*
X449263Y647700D02*
X436563Y660400D01*
X425450Y660400D01*
X414338Y649288D01*
X382588Y649288D01*
X381000Y647700D01*
X774700Y660400D02*
X787400Y647700D01*
X774700Y660400D02*
X628650Y660400D01*
X615950Y647700D01*
X584200Y647700D01*
X63818Y723583D02*
X63500Y723900D01*
X63818Y723583D02*
X159703Y723583D01*
D15*
X159703Y723583D03*
D14*
X50800Y698500D02*
X34925Y682625D01*
X25400Y673100D01*
X50800Y698500D02*
X63500Y698500D01*
X240030Y673100D02*
X252730Y660400D01*
X240030Y673100D02*
X228600Y673100D01*
X252730Y660400D02*
X414020Y660400D01*
X421958Y668338D01*
X609600Y660400D02*
X622300Y673100D01*
X635000Y673100D01*
X609600Y660400D02*
X501968Y660400D01*
X494030Y668338D01*
X421958Y668338D01*
X426720Y673100D02*
X431800Y673100D01*
X426720Y673100D02*
X421958Y668338D01*
X57150Y660400D02*
X34925Y682625D01*
X57150Y660400D02*
X201930Y660400D01*
X214630Y673100D02*
X228600Y673100D01*
X214630Y673100D02*
X201930Y660400D01*
X584200Y673100D02*
X596900Y685800D01*
X774700Y685800D01*
X787400Y673100D01*
X177800Y673100D02*
X63500Y673100D01*
X252413Y673100D02*
X381000Y673100D01*
X252413Y673100D02*
X239713Y685800D01*
X190500Y685800D01*
X177800Y673100D01*
X449263Y673100D02*
X584200Y673100D01*
X449263Y673100D02*
X436563Y685800D01*
X427038Y685800D01*
X414338Y673100D01*
X381000Y673100D01*
X65088Y649288D02*
X63500Y647700D01*
X65088Y649288D02*
X121285Y649288D01*
X353060Y762000D02*
X365760Y774700D01*
X381000Y774700D01*
X353060Y762000D02*
X199390Y762000D01*
X186690Y774700D01*
X177800Y774700D01*
X557530Y762000D02*
X570230Y774700D01*
X584200Y774700D01*
X557530Y762000D02*
X405130Y762000D01*
X392430Y774700D02*
X381000Y774700D01*
X392430Y774700D02*
X405130Y762000D01*
X774700Y762000D02*
X787400Y774700D01*
X774700Y762000D02*
X667068Y762000D01*
X659130Y769938D01*
X647700Y769938D01*
X639763Y762000D01*
X610870Y762000D01*
X598170Y774700D02*
X584200Y774700D01*
X598170Y774700D02*
X610870Y762000D01*
D15*
X121285Y649288D03*
D14*
X368300Y787400D02*
X381000Y800100D01*
X368300Y787400D02*
X190500Y787400D01*
X177800Y800100D01*
X571500Y787400D02*
X584200Y800100D01*
X571500Y787400D02*
X368300Y787400D01*
X774700Y787400D02*
X787400Y800100D01*
X774700Y787400D02*
X571500Y787400D01*
X658813Y115570D02*
X644843Y101600D01*
X622300Y101600D01*
X596900Y76200D01*
X577850Y76200D01*
X552450Y101600D01*
X420053Y101600D01*
X394653Y76200D01*
X290513Y76200D01*
X239713Y25400D02*
X57150Y25400D01*
X31750Y50800D01*
X16828Y50800D01*
X12700Y54928D01*
X22860Y88900D02*
X25400Y88900D01*
X22860Y88900D02*
X12700Y78740D01*
X12700Y54928D01*
D15*
X658813Y115570D03*
X290513Y76200D03*
X239713Y25400D03*
D14*
X50800Y186690D02*
X29210Y165100D01*
X25400Y165100D01*
X50800Y228600D02*
X50800Y258763D01*
X50800Y228600D02*
X50800Y186690D01*
X50800Y350838D02*
X50800Y354648D01*
X37148Y368300D01*
X25400Y368300D01*
X25718Y571818D02*
X50800Y571818D01*
X25718Y571818D02*
X25400Y571500D01*
X674688Y304800D02*
X692150Y322263D01*
X674688Y304800D02*
X620713Y304800D01*
X595313Y279400D01*
X406400Y279400D01*
X406400Y218758D02*
X390843Y203200D01*
X261938Y203200D01*
X236538Y228600D01*
X50800Y228600D01*
D15*
X50800Y258763D03*
X50800Y350838D03*
X50800Y571818D03*
X692150Y322263D03*
X406400Y279400D03*
X406400Y218758D03*
D14*
X642303Y25400D02*
X655003Y38100D01*
X642303Y25400D02*
X567690Y25400D01*
X554990Y38100D01*
X493713Y38100D01*
X486410Y660400D02*
X486728Y660718D01*
X486410Y660400D02*
X450850Y660400D01*
X415925Y685800D02*
X260350Y685800D01*
X260350Y684848D01*
X212725Y641350D02*
X206375Y635000D01*
X38100Y635000D01*
X25400Y647700D01*
D15*
X655003Y38100D03*
X493713Y38100D03*
X486728Y660718D03*
X450850Y660400D03*
X415925Y685800D03*
X260350Y684848D03*
X212725Y641350D03*
D14*
X7938Y207963D02*
X25400Y190500D01*
X7938Y388938D02*
X12700Y393700D01*
X7938Y388938D02*
X7938Y207963D01*
X12700Y393700D02*
X25400Y393700D01*
X12700Y584200D02*
X25400Y596900D01*
X12700Y584200D02*
X12700Y393700D01*
X744538Y558800D02*
X762000Y576263D01*
X744538Y558800D02*
X628650Y558800D01*
X611188Y576263D01*
X604838Y576263D01*
X604838Y625475D02*
X595313Y635000D01*
X455613Y635000D01*
X450850Y639763D01*
X415925Y641350D02*
X409575Y635000D01*
X219075Y635000D01*
X205740Y621665D01*
X198438Y621665D01*
X186373Y609600D01*
X38100Y609600D01*
X25400Y596900D01*
X12700Y787400D02*
X25400Y800100D01*
X12700Y787400D02*
X12700Y609600D01*
X38100Y609600D01*
D15*
X762000Y576263D03*
X604838Y576263D03*
X604838Y625475D03*
X450850Y639763D03*
X415925Y641350D03*
D14*
X717550Y635000D02*
X731838Y649288D01*
X717550Y635000D02*
X630238Y635000D01*
X609600Y614363D01*
X612775Y195263D02*
X595313Y177800D01*
X330200Y177800D01*
X254000Y101600D02*
X218440Y101600D01*
X205740Y88900D01*
X177800Y88900D01*
D15*
X731838Y649288D03*
X609600Y614363D03*
X612775Y195263D03*
X330200Y177800D03*
X254000Y101600D03*
D14*
X747713Y671513D02*
X749300Y673100D01*
X747713Y671513D02*
X696913Y671513D01*
X692150Y522288D02*
X688975Y522288D01*
X674688Y508000D01*
X577850Y508000D01*
X552450Y482600D01*
X406400Y482600D01*
X401638Y422275D02*
X401638Y417195D01*
X390843Y406400D01*
X301625Y406400D01*
X292100Y396875D01*
X282575Y336550D02*
X276225Y330200D01*
X160020Y330200D01*
X154623Y335598D01*
X43180Y335598D01*
X37783Y330200D01*
X18098Y330200D01*
X12700Y324803D01*
X20320Y215900D02*
X25400Y215900D01*
X20320Y215900D02*
X12700Y223520D01*
X12700Y324803D01*
D15*
X696913Y671513D03*
X692150Y522288D03*
X406400Y482600D03*
X401638Y422275D03*
X292100Y396875D03*
X282575Y336550D03*
D14*
X182563Y144463D02*
X177800Y139700D01*
X182563Y144463D02*
X198438Y144463D01*
X198438Y338773D02*
X194310Y342900D01*
X177800Y342900D01*
X177800Y546100D02*
X178118Y546418D01*
X187960Y546418D02*
X199390Y534988D01*
X187960Y546418D02*
X178118Y546418D01*
X709613Y711200D02*
X727075Y693738D01*
X709613Y711200D02*
X623888Y711200D01*
X604838Y731838D02*
X600075Y736600D01*
X447675Y736600D01*
X287338Y711200D02*
X193675Y711200D01*
X192088Y709613D01*
D15*
X198438Y144463D03*
X198438Y338773D03*
X199390Y534988D03*
X727075Y693738D03*
X623888Y711200D03*
X604838Y731838D03*
X447675Y736600D03*
X287338Y711200D03*
X192088Y709613D03*
D14*
X739775Y381000D02*
X744538Y385763D01*
X739775Y381000D02*
X344488Y381000D01*
X307975Y422275D02*
X298450Y431800D01*
X190500Y431800D01*
X177800Y419100D01*
D15*
X744538Y385763D03*
X344488Y381000D03*
X307975Y422275D03*
D14*
X230188Y90488D02*
X228600Y88900D01*
X230188Y90488D02*
X249238Y90488D01*
X254000Y277813D02*
X239713Y292100D01*
X228600Y292100D01*
X254318Y482600D02*
X241618Y495300D01*
X228600Y495300D01*
X254318Y482600D02*
X300038Y482600D01*
X453708Y625475D02*
X538163Y625475D01*
X453708Y625475D02*
X444183Y635000D01*
X423228Y635000D01*
X397828Y609600D01*
X360363Y609600D01*
X229235Y697865D02*
X228600Y698500D01*
X229235Y697865D02*
X287338Y697865D01*
D15*
X249238Y90488D03*
X254000Y277813D03*
X300038Y482600D03*
X538163Y625475D03*
X360363Y609600D03*
X287338Y697865D03*
D14*
X225425Y168275D02*
X228600Y165100D01*
X225425Y168275D02*
X207963Y168275D01*
X207963Y363538D02*
X212725Y368300D01*
X228600Y368300D01*
X211138Y554038D02*
X228600Y571500D01*
X211138Y554038D02*
X207963Y554038D01*
X198120Y777558D02*
X225743Y777558D01*
X198120Y777558D02*
X196850Y778828D01*
X225743Y777558D02*
X228600Y774700D01*
X544513Y569913D02*
X546100Y571500D01*
X544513Y569913D02*
X482918Y569913D01*
X469900Y309563D02*
X465138Y304800D01*
X407988Y304800D01*
X394970Y291783D01*
X388620Y279400D02*
X354013Y279400D01*
X388620Y279400D02*
X394970Y285750D01*
X394970Y291783D01*
X354013Y279400D02*
X350838Y282575D01*
X284163Y169863D02*
X279400Y165100D01*
X228600Y165100D01*
D15*
X207963Y168275D03*
X207963Y363538D03*
X207963Y554038D03*
X196850Y778828D03*
X482918Y569913D03*
X469900Y309563D03*
X350838Y282575D03*
X284163Y169863D03*
D14*
X463233Y543243D02*
X543243Y543243D01*
X546100Y546100D01*
X463233Y543243D02*
X461963Y541973D01*
X468313Y229870D02*
X467043Y228600D01*
X370523Y228600D01*
X367348Y225425D01*
X277178Y225425D01*
X274003Y228600D01*
X253048Y228600D01*
X240348Y241300D01*
X228600Y241300D01*
D15*
X461963Y541973D03*
X468313Y229870D03*
D14*
X228600Y190500D02*
X227965Y189865D01*
X200978Y189865D01*
X188913Y177800D01*
X157163Y177800D01*
X165100Y381000D02*
X191770Y381000D01*
X165100Y381000D02*
X154940Y370840D01*
X154940Y358775D01*
X191770Y381000D02*
X203200Y392430D01*
X227330Y392430D02*
X228600Y393700D01*
X227330Y392430D02*
X203200Y392430D01*
X228600Y596900D02*
X225425Y600075D01*
X207963Y600075D01*
X482600Y711200D02*
X484188Y709613D01*
X482600Y711200D02*
X415925Y711200D01*
X406400Y731838D02*
X401638Y736600D01*
X254635Y736600D01*
X165418Y584200D02*
X157163Y575945D01*
X157163Y568325D01*
X165418Y584200D02*
X184150Y584200D01*
X200025Y600075D01*
X207963Y600075D01*
D15*
X157163Y177800D03*
X154940Y358775D03*
X207963Y600075D03*
X484188Y709613D03*
X415925Y711200D03*
X406400Y731838D03*
X254635Y736600D03*
X157163Y568325D03*
D14*
X541973Y499428D02*
X546100Y495300D01*
X541973Y499428D02*
X451485Y499428D01*
X442913Y508000D01*
X420370Y508000D01*
X414655Y502285D01*
X387985Y502285D01*
X381000Y495300D01*
X541973Y465773D02*
X546100Y469900D01*
X541973Y465773D02*
X471488Y465773D01*
X481648Y25400D02*
X482918Y24130D01*
X481648Y25400D02*
X254635Y25400D01*
X241935Y12700D01*
X228600Y12700D01*
D15*
X471488Y465773D03*
X482918Y24130D03*
D14*
X381000Y139700D02*
X376238Y144463D01*
X360363Y144463D01*
X353060Y342900D02*
X381000Y342900D01*
X541338Y449263D02*
X546100Y444500D01*
X541338Y449263D02*
X512763Y449263D01*
X512445Y558800D02*
X512763Y559118D01*
X512445Y558800D02*
X401638Y558800D01*
X384175Y542925D02*
X381000Y546100D01*
X384175Y542925D02*
X401638Y542925D01*
X360680Y546100D02*
X360363Y545783D01*
X360680Y546100D02*
X381000Y546100D01*
D15*
X360363Y144463D03*
X353060Y342900D03*
X512763Y449263D03*
X512763Y559118D03*
X401638Y558800D03*
X401638Y542925D03*
X360363Y545783D03*
D14*
X398780Y431800D02*
X386080Y419100D01*
X381000Y419100D01*
X398780Y431800D02*
X495300Y431800D01*
X508000Y419100D01*
X546100Y419100D01*
X436563Y93663D02*
X431800Y88900D01*
X436563Y93663D02*
X452438Y93663D01*
X460375Y287338D02*
X455613Y292100D01*
X431800Y292100D01*
X436563Y490538D02*
X431800Y495300D01*
X436563Y490538D02*
X528638Y490538D01*
X412115Y495300D02*
X411163Y494348D01*
X412115Y495300D02*
X431800Y495300D01*
X431800Y292100D02*
X406400Y292100D01*
D15*
X452438Y93663D03*
X460375Y287338D03*
X528638Y490538D03*
X411163Y494348D03*
X406400Y292100D03*
D14*
X431800Y571500D02*
X436563Y576263D01*
X452438Y576263D01*
X427038Y169863D02*
X431800Y165100D01*
X427038Y169863D02*
X411163Y169863D01*
X411163Y363538D02*
X415925Y368300D01*
X431800Y368300D01*
X454025Y368300D01*
X546100Y368300D01*
D15*
X452438Y576263D03*
X411163Y169863D03*
X411163Y363538D03*
X454025Y368300D03*
D14*
X529273Y334963D02*
X537210Y342900D01*
X546100Y342900D01*
X529273Y334963D02*
X454025Y334963D01*
D15*
X454025Y334963D03*
D14*
X431800Y596900D02*
X436563Y601663D01*
X466725Y601663D01*
X427038Y195263D02*
X431800Y190500D01*
X427038Y195263D02*
X406400Y195263D01*
X406400Y393383D02*
X406718Y393700D01*
X431800Y393700D01*
X528320Y393700D02*
X528638Y393383D01*
X488950Y393700D02*
X431800Y393700D01*
X488950Y393700D02*
X528320Y393700D01*
D15*
X466725Y601663D03*
X406400Y195263D03*
X406400Y393383D03*
X528638Y393383D03*
X488950Y393700D03*
D14*
X546100Y292100D02*
X584200Y292100D01*
X546100Y266700D02*
X541338Y261938D01*
X453073Y261938D01*
X452438Y262573D01*
X452438Y216218D02*
X452120Y215900D01*
X431800Y215900D01*
D15*
X452438Y262573D03*
X452438Y216218D03*
D14*
X579438Y338138D02*
X584200Y342900D01*
X579438Y338138D02*
X563563Y338138D01*
X579438Y541338D02*
X584200Y546100D01*
X579438Y541338D02*
X563563Y541338D01*
D15*
X563563Y338138D03*
X563563Y541338D03*
D14*
X566420Y12700D02*
X584200Y12700D01*
X548958Y30163D02*
X547688Y30163D01*
X548958Y30163D02*
X566420Y12700D01*
X584200Y215900D02*
X546100Y215900D01*
X579438Y617538D02*
X584200Y622300D01*
X579438Y617538D02*
X522288Y617538D01*
D15*
X547688Y30163D03*
X522288Y617538D03*
D14*
X584518Y520383D02*
X609600Y520383D01*
X584518Y520383D02*
X584200Y520700D01*
X609600Y520383D02*
X622618Y533400D01*
X774700Y533400D01*
X787400Y520700D01*
X179070Y521970D02*
X177800Y520700D01*
X179070Y521970D02*
X202248Y521970D01*
X213678Y533400D01*
X254000Y533400D02*
X334963Y533400D01*
X254000Y533400D02*
X213678Y533400D01*
X334963Y533400D02*
X349250Y519113D01*
X379413Y519113D01*
X381000Y520700D01*
X254000Y533400D02*
X254000Y557213D01*
X560070Y508000D02*
X572770Y520700D01*
X584200Y520700D01*
X560070Y508000D02*
X520383Y508000D01*
X506095Y522288D01*
X504825Y522288D01*
X501650Y681038D02*
X500063Y682625D01*
X450850Y682625D01*
X401638Y525463D02*
X396875Y520700D01*
X381000Y520700D01*
D15*
X254000Y557213D03*
X504825Y522288D03*
X501650Y681038D03*
X450850Y682625D03*
X401638Y525463D03*
D14*
X38100Y558800D02*
X25400Y546100D01*
X38100Y558800D02*
X192088Y558800D01*
X204788Y546100D01*
X228600Y546100D01*
X427038Y550863D02*
X431800Y546100D01*
X427038Y550863D02*
X393700Y550863D01*
X385763Y558800D01*
X279400Y558800D01*
X266700Y571500D01*
X622300Y546100D02*
X635000Y546100D01*
X622300Y546100D02*
X609600Y558800D01*
X528638Y558800D01*
X519748Y549910D01*
X435610Y549910D02*
X431800Y546100D01*
X435610Y549910D02*
X519748Y549910D01*
X254000Y571500D02*
X228600Y546100D01*
X254000Y571500D02*
X266700Y571500D01*
X38100Y508000D02*
X25400Y520700D01*
X38100Y508000D02*
X201613Y508000D01*
X214313Y520700D01*
X228600Y520700D01*
X419100Y520700D02*
X431800Y520700D01*
X419100Y520700D02*
X406400Y508000D01*
X260350Y508000D01*
X247650Y520700D01*
X228600Y520700D01*
X635000Y520700D02*
X635318Y520383D01*
X672783Y520383D01*
X655638Y182563D02*
X650875Y177800D01*
X614363Y177800D01*
X504825Y508635D02*
X492760Y520700D01*
X431800Y520700D01*
X249238Y522288D02*
X247650Y520700D01*
D15*
X672783Y520383D03*
X655638Y182563D03*
X614363Y177800D03*
X504825Y508635D03*
X249238Y522288D03*
D14*
X178118Y444818D02*
X177800Y444500D01*
X178118Y444818D02*
X205105Y444818D01*
X217488Y457200D01*
X254000Y457200D02*
X368300Y457200D01*
X254000Y457200D02*
X217488Y457200D01*
X368300Y457200D02*
X381000Y444500D01*
X571500Y684213D02*
X565150Y690563D01*
X468313Y690563D01*
X781368Y450533D02*
X787400Y444500D01*
X781368Y450533D02*
X707708Y450533D01*
X705168Y447993D01*
X704850Y744538D02*
X668338Y744538D01*
X650875Y762000D01*
X254000Y458788D02*
X254000Y457200D01*
D15*
X571500Y684213D03*
X468313Y690563D03*
X705168Y447993D03*
X704850Y744538D03*
X650875Y762000D03*
X254000Y458788D03*
D14*
X38100Y457200D02*
X25400Y469900D01*
X145098Y457200D02*
X204470Y457200D01*
X145098Y457200D02*
X38100Y457200D01*
X217170Y469900D02*
X228600Y469900D01*
X217170Y469900D02*
X204470Y457200D01*
X254000Y495300D02*
X241300Y508000D01*
X254000Y495300D02*
X266700Y495300D01*
X241300Y508000D02*
X215583Y508000D01*
X190183Y482600D01*
X170498Y482600D01*
X145098Y457200D01*
X427038Y474663D02*
X431800Y469900D01*
X427038Y474663D02*
X393700Y474663D01*
X385763Y482600D01*
X366713Y482600D01*
X354013Y495300D01*
X266700Y495300D01*
X624840Y469900D02*
X635000Y469900D01*
X624840Y469900D02*
X616903Y461963D01*
X604838Y461963D01*
X604838Y446088D02*
X604838Y442278D01*
X594360Y431800D01*
X511810Y431800D01*
X494348Y449263D02*
X484188Y449263D01*
X494348Y449263D02*
X511810Y431800D01*
X484505Y473710D02*
X483235Y474980D01*
X436880Y474980D01*
X431800Y469900D01*
D15*
X604838Y461963D03*
X604838Y446088D03*
X484188Y449263D03*
X484505Y473710D03*
D14*
X215900Y482600D02*
X203200Y469900D01*
X177800Y469900D01*
X215900Y482600D02*
X241300Y482600D01*
X254000Y469900D02*
X266700Y469900D01*
X254000Y469900D02*
X241300Y482600D01*
X266700Y469900D02*
X350838Y469900D01*
X381000Y469900D01*
X584676Y469424D02*
X600075Y454025D01*
X584676Y469424D02*
X584200Y469900D01*
X600075Y454025D02*
X623253Y454025D01*
X626428Y457200D01*
X774700Y457200D01*
X787400Y469900D01*
X350838Y469900D02*
X350838Y487363D01*
X349885Y533400D02*
X604838Y533400D01*
X588328Y473075D02*
X584676Y469424D01*
X588328Y473075D02*
X604838Y473075D01*
D15*
X350838Y487363D03*
X349885Y533400D03*
X604838Y533400D03*
X604838Y473075D03*
D14*
X381000Y571500D02*
X322263Y571500D01*
X200660Y584200D02*
X187960Y571500D01*
X177800Y571500D01*
X200660Y584200D02*
X309563Y584200D01*
X322263Y571500D01*
X571500Y584200D02*
X584200Y571500D01*
X571500Y584200D02*
X393700Y584200D01*
X381000Y571500D01*
X774700Y584200D02*
X787400Y571500D01*
X774700Y584200D02*
X571500Y584200D01*
D15*
X322263Y571500D03*
D14*
X341313Y579438D02*
X358775Y596900D01*
X381000Y596900D01*
X198120Y609600D02*
X185420Y596900D01*
X177800Y596900D01*
X198120Y609600D02*
X311150Y609600D01*
X341313Y579438D01*
X571500Y609600D02*
X584200Y596900D01*
X571500Y609600D02*
X413068Y609600D01*
X400368Y596900D01*
X381000Y596900D01*
X774700Y609600D02*
X787400Y596900D01*
X774700Y609600D02*
X621030Y609600D01*
X608330Y596900D01*
X584200Y596900D01*
D15*
X341313Y579438D03*
D14*
X588963Y322263D02*
X584200Y317500D01*
X588963Y322263D02*
X614680Y322263D01*
X622618Y330200D01*
X671513Y330200D02*
X774700Y330200D01*
X671513Y330200D02*
X622618Y330200D01*
X774700Y330200D02*
X787400Y317500D01*
X177800Y317500D02*
X157480Y317500D01*
X148590Y326390D01*
X165100Y406400D02*
X204788Y406400D01*
X165100Y406400D02*
X144463Y385763D01*
X144463Y353378D01*
X204788Y406400D02*
X207963Y409575D01*
X207963Y381000D02*
X242570Y381000D01*
X255270Y393700D02*
X266700Y393700D01*
X255270Y393700D02*
X242570Y381000D01*
X315913Y317500D02*
X381000Y317500D01*
X315913Y317500D02*
X279400Y354013D01*
X671513Y344805D02*
X671513Y330200D01*
X671513Y465138D02*
X654050Y482600D01*
X576263Y482600D01*
X550863Y457200D01*
X413703Y457200D01*
X388303Y431800D01*
X328613Y431800D01*
X309245Y412433D01*
X291783Y412433D02*
X290513Y411163D01*
X291783Y412433D02*
X309245Y412433D01*
D15*
X148590Y326390D03*
X144463Y353378D03*
X207963Y409575D03*
X207963Y381000D03*
X279400Y354013D03*
X671513Y344805D03*
X671513Y465138D03*
X290513Y411163D03*
D14*
X152718Y342900D02*
X25400Y342900D01*
X152718Y342900D02*
X165418Y355600D01*
X187960Y355600D01*
X195580Y347980D01*
X223520Y347980D02*
X228600Y342900D01*
X223520Y347980D02*
X195580Y347980D01*
X403543Y342900D02*
X431800Y342900D01*
X403543Y342900D02*
X390843Y355600D01*
X288925Y355600D01*
X276225Y368300D01*
X266700Y368300D01*
X634683Y343218D02*
X635000Y342900D01*
X634683Y343218D02*
X608965Y343218D01*
X596583Y355600D01*
X529273Y355600D01*
X516573Y342900D01*
X431800Y342900D01*
X232728Y347028D02*
X228600Y342900D01*
X232728Y347028D02*
X245428Y347028D01*
X266700Y368300D01*
X431800Y317500D02*
X517208Y317500D01*
X529908Y304800D01*
X609600Y304800D01*
X622300Y317500D02*
X635000Y317500D01*
X622300Y317500D02*
X609600Y304800D01*
X38100Y304800D02*
X25400Y317500D01*
X38100Y304800D02*
X202883Y304800D01*
X214313Y316230D01*
X227330Y316230D02*
X228600Y317500D01*
X227330Y316230D02*
X214313Y316230D01*
X249238Y315913D02*
X249238Y322263D01*
X231458Y322263D01*
X228600Y319405D01*
X228600Y317500D01*
X405130Y317500D02*
X431800Y317500D01*
X405130Y317500D02*
X392430Y304800D01*
X349250Y304800D01*
X346075Y307975D01*
X277178Y307975D01*
X274003Y304800D01*
X260350Y304800D01*
X249238Y315913D01*
D15*
X249238Y322263D03*
D14*
X586740Y238760D02*
X608648Y238760D01*
X586740Y238760D02*
X584200Y241300D01*
X608648Y238760D02*
X623888Y254000D01*
X666750Y254000D01*
X679450Y241300D01*
X787400Y241300D01*
X178118Y241618D02*
X177800Y241300D01*
X178118Y241618D02*
X203835Y241618D01*
X216218Y254000D01*
X246063Y254000D02*
X273050Y254000D01*
X246063Y254000D02*
X216218Y254000D01*
X273050Y254000D02*
X285750Y241300D01*
X381000Y241300D01*
X571500Y254000D02*
X584200Y241300D01*
X571500Y254000D02*
X415290Y254000D01*
X402590Y241300D01*
X381000Y241300D01*
D15*
X246063Y254000D03*
D14*
X153988Y266700D02*
X25400Y266700D01*
X153988Y266700D02*
X166688Y254000D01*
X203200Y254000D01*
X215900Y266700D02*
X228600Y266700D01*
X215900Y266700D02*
X203200Y254000D01*
X243840Y304800D02*
X256540Y292100D01*
X266700Y292100D01*
X243840Y304800D02*
X215583Y304800D01*
X190183Y279400D01*
X166688Y279400D01*
X153988Y266700D01*
X414020Y266700D02*
X431800Y266700D01*
X414020Y266700D02*
X401320Y254000D01*
X284163Y254000D01*
X604838Y249238D02*
X622300Y266700D01*
X635000Y266700D01*
X604838Y219075D02*
X604838Y213995D01*
X594043Y203200D01*
X533718Y203200D01*
X521970Y214948D01*
X476250Y214948D01*
X475615Y270510D02*
X435610Y270510D01*
X431800Y266700D01*
X475615Y270510D02*
X476250Y269875D01*
D15*
X284163Y254000D03*
X604838Y249238D03*
X604838Y219075D03*
X476250Y214948D03*
X476250Y269875D03*
D14*
X215900Y279400D02*
X203200Y266700D01*
X177800Y266700D01*
X215900Y279400D02*
X240030Y279400D01*
X252730Y266700D01*
X266700Y266700D01*
X342900Y266700D01*
X381000Y266700D01*
X584835Y266065D02*
X604838Y266065D01*
X584835Y266065D02*
X584200Y266700D01*
X604838Y406400D02*
X630238Y431800D01*
X792163Y431800D01*
X804863Y419100D01*
X796290Y266700D02*
X787400Y266700D01*
X796290Y266700D02*
X804863Y275273D01*
X804863Y419100D01*
X342900Y300038D02*
X342900Y266700D01*
X350838Y325438D02*
X355600Y330200D01*
X443865Y330200D01*
X447040Y327025D01*
X533083Y327025D01*
X536258Y330200D01*
X603250Y330200D01*
D15*
X604838Y266065D03*
X604838Y406400D03*
X342900Y300038D03*
X350838Y325438D03*
X603250Y330200D03*
D14*
X614680Y355600D02*
X601980Y368300D01*
X584200Y368300D01*
X614680Y355600D02*
X656590Y355600D01*
X774700Y355600D01*
X787400Y368300D01*
X199390Y355600D02*
X186690Y368300D01*
X177800Y368300D01*
X199390Y355600D02*
X236538Y355600D01*
X261938Y381000D01*
X280988Y381000D01*
X293688Y368300D01*
X360363Y368300D02*
X381000Y368300D01*
X360363Y368300D02*
X293688Y368300D01*
X271780Y241300D02*
X279718Y233363D01*
X271780Y241300D02*
X266700Y241300D01*
X279718Y233363D02*
X360363Y233363D01*
X656590Y354965D02*
X656590Y355600D01*
X655003Y241300D02*
X642303Y228600D01*
X655003Y241300D02*
X656273Y241300D01*
X642303Y228600D02*
X530225Y228600D01*
X509588Y350838D02*
X504825Y355600D01*
X403860Y355600D01*
X391160Y368300D02*
X381000Y368300D01*
X391160Y368300D02*
X403860Y355600D01*
D15*
X360363Y233363D03*
X360363Y368300D03*
X656590Y354965D03*
X656273Y241300D03*
X530225Y228600D03*
X509588Y350838D03*
D14*
X304800Y393700D02*
X295275Y384175D01*
X292100Y381000D01*
X304800Y393700D02*
X381000Y393700D01*
X183198Y399098D02*
X177800Y393700D01*
X183198Y399098D02*
X208915Y399098D01*
X216218Y406400D01*
X271463Y406400D01*
X293688Y384175D01*
X295275Y384175D01*
X571500Y406400D02*
X584200Y393700D01*
X571500Y406400D02*
X405130Y406400D01*
X392430Y393700D01*
X381000Y393700D01*
X774700Y406400D02*
X787400Y393700D01*
X774700Y406400D02*
X621030Y406400D01*
X608330Y393700D01*
X584200Y393700D01*
D15*
X292100Y381000D03*
D14*
X190500Y127000D02*
X177800Y114300D01*
X190500Y127000D02*
X368300Y127000D01*
X381000Y114300D01*
X558800Y127000D02*
X571500Y114300D01*
X584200Y114300D01*
X558800Y127000D02*
X368300Y127000D01*
X774700Y127000D02*
X787400Y114300D01*
X774700Y127000D02*
X622300Y127000D01*
X609600Y114300D01*
X584200Y114300D01*
X139700Y114300D02*
X133350Y120650D01*
X139700Y114300D02*
X177800Y114300D01*
D15*
X133350Y120650D03*
D14*
X561340Y139700D02*
X574040Y127000D01*
X561340Y139700D02*
X431800Y139700D01*
X574040Y127000D02*
X609600Y127000D01*
X622300Y139700D02*
X635000Y139700D01*
X622300Y139700D02*
X609600Y127000D01*
X53340Y152400D02*
X40640Y139700D01*
X25400Y139700D01*
X63500Y162560D02*
X63500Y165100D01*
X63500Y162560D02*
X53340Y152400D01*
X215900Y152400D02*
X228600Y139700D01*
X215900Y152400D02*
X53340Y152400D01*
X431483Y140018D02*
X431800Y139700D01*
X431483Y140018D02*
X404495Y140018D01*
X392113Y152400D01*
X215900Y152400D01*
X59690Y139700D02*
X34290Y114300D01*
X25400Y114300D01*
X59690Y139700D02*
X63500Y139700D01*
X217170Y114300D02*
X228600Y114300D01*
X217170Y114300D02*
X204470Y101600D01*
X101600Y101600D01*
X63500Y139700D01*
X394970Y101600D02*
X407670Y114300D01*
X431800Y114300D01*
X394970Y101600D02*
X265113Y101600D01*
X252413Y114300D01*
X228600Y114300D01*
X622300Y114300D02*
X635000Y114300D01*
X622300Y114300D02*
X609600Y101600D01*
X567690Y101600D01*
X554990Y114300D01*
X431800Y114300D01*
X584200Y38100D02*
X584518Y38418D01*
X611505Y38418D01*
X623888Y50800D01*
X774700Y50800D01*
X787400Y38100D01*
X178118Y38418D02*
X177800Y38100D01*
X178118Y38418D02*
X205105Y38418D01*
X217488Y50800D01*
X240030Y50800D01*
X252730Y38100D01*
X381000Y38100D01*
X101600Y76200D02*
X63500Y114300D01*
X101600Y76200D02*
X188913Y76200D01*
X567690Y38100D02*
X584200Y38100D01*
X567690Y38100D02*
X554990Y50800D01*
X419100Y50800D01*
X406400Y38100D01*
X381000Y38100D01*
D15*
X188913Y76200D03*
D14*
X50800Y88900D02*
X28575Y66675D01*
X25400Y63500D01*
X50800Y88900D02*
X63500Y88900D01*
X203200Y50800D02*
X215900Y63500D01*
X228600Y63500D01*
X203200Y50800D02*
X44450Y50800D01*
X28575Y66675D01*
X419100Y63500D02*
X431800Y63500D01*
X419100Y63500D02*
X406400Y50800D01*
X254000Y50800D01*
X241300Y63500D01*
X228600Y63500D01*
X609600Y50800D02*
X622300Y63500D01*
X635000Y63500D01*
X609600Y50800D02*
X568960Y50800D01*
X556260Y63500D01*
X431800Y63500D01*
X177800Y63500D02*
X63500Y63500D01*
X405130Y63500D02*
X417830Y76200D01*
X405130Y63500D02*
X381000Y63500D01*
X417830Y76200D02*
X557530Y76200D01*
X570230Y63500D02*
X584200Y63500D01*
X570230Y63500D02*
X557530Y76200D01*
X786130Y63500D02*
X787400Y63500D01*
X786130Y63500D02*
X773430Y76200D01*
X622300Y76200D01*
X609600Y63500D01*
X584200Y63500D01*
X203200Y63183D02*
X178118Y63183D01*
X177800Y63500D01*
X203200Y63183D02*
X216218Y76200D01*
X242570Y76200D01*
X255270Y63500D01*
X381000Y63500D01*
X161925Y165100D02*
X157163Y160338D01*
X161925Y165100D02*
X177800Y165100D01*
X393700Y165100D02*
X406400Y152400D01*
X393700Y165100D02*
X381000Y165100D01*
X406400Y152400D02*
X571500Y152400D01*
X584200Y165100D01*
X774700Y152400D02*
X787400Y165100D01*
X774700Y152400D02*
X571500Y152400D01*
X201930Y177800D02*
X189230Y165100D01*
X177800Y165100D01*
X201930Y177800D02*
X315278Y177800D01*
X327978Y165100D01*
X381000Y165100D01*
D15*
X157163Y160338D03*
D14*
X63500Y12700D02*
X49530Y12700D01*
X36830Y25400D01*
X16828Y25400D01*
X7938Y34290D01*
X13970Y152400D02*
X33338Y152400D01*
X13970Y152400D02*
X7938Y146368D01*
X7938Y34290D01*
X33338Y152400D02*
X58738Y177800D01*
X141288Y177800D01*
X153988Y190500D01*
X177800Y190500D01*
X388620Y190500D02*
X401320Y203200D01*
X388620Y190500D02*
X381000Y190500D01*
X401320Y203200D02*
X515938Y203200D01*
X528638Y190500D01*
X584200Y190500D01*
X774700Y203200D02*
X787400Y190500D01*
X774700Y203200D02*
X607060Y203200D01*
X594360Y190500D02*
X584200Y190500D01*
X594360Y190500D02*
X607060Y203200D01*
X200660Y203200D02*
X187960Y190500D01*
X177800Y190500D01*
X200660Y203200D02*
X245428Y203200D01*
X258128Y190500D01*
X381000Y190500D01*
X614363Y495300D02*
X635000Y495300D01*
X635318Y89218D02*
X635000Y88900D01*
X658813Y100648D02*
X658813Y101918D01*
X658813Y100648D02*
X647383Y89218D01*
X635318Y89218D01*
X702628Y174308D02*
X702628Y174625D01*
X736600Y174625D01*
X749300Y187325D01*
X749300Y190500D01*
X691833Y249238D02*
X648970Y292100D01*
X635000Y292100D01*
X691833Y249238D02*
X692150Y249238D01*
X635000Y292100D02*
X628650Y285750D01*
X614363Y285750D01*
D15*
X614363Y495300D03*
X658813Y101918D03*
X702628Y174308D03*
X692150Y249238D03*
X614363Y285750D03*
D14*
X635000Y571500D02*
X639763Y576263D01*
X655638Y576263D01*
X635000Y165100D02*
X749300Y165100D01*
X741363Y368300D02*
X656908Y368300D01*
X635000Y368300D01*
D15*
X655638Y576263D03*
X741363Y368300D03*
X656908Y368300D03*
D14*
X635000Y596900D02*
X639763Y601663D01*
X660400Y601663D01*
X635000Y190500D02*
X725488Y190500D01*
X733425Y182563D01*
X636588Y392113D02*
X635000Y393700D01*
X663575Y392113D02*
X733425Y392113D01*
X663575Y392113D02*
X636588Y392113D01*
D15*
X660400Y601663D03*
X733425Y182563D03*
X733425Y392113D03*
X663575Y392113D03*
D14*
X749300Y88900D02*
X787400Y88900D01*
X787400Y546100D02*
X800100Y558800D01*
X791210Y749300D02*
X787400Y749300D01*
X791210Y749300D02*
X800100Y740410D01*
X800100Y558800D01*
X787400Y12700D02*
X749300Y12700D01*
X800100Y203200D02*
X787400Y215900D01*
X800100Y25400D02*
X787400Y12700D01*
X800100Y25400D02*
X800100Y203200D01*
X800100Y406400D02*
X787400Y419100D01*
X782638Y279400D02*
X796290Y279400D01*
X800100Y283210D01*
X800100Y406400D01*
X782638Y279400D02*
X774700Y271463D01*
X779780Y254000D02*
X792163Y254000D01*
X779780Y254000D02*
X774700Y259080D01*
X774700Y271463D01*
X792163Y254000D02*
X800100Y246063D01*
X800100Y215900D01*
X787400Y215900D01*
M02*
