G04 EAGLE Gerber RS-274X export*
G75*
%MOMM*%
%FSLAX34Y34*%
%LPD*%
%INBottom Copper*%
%IPPOS*%
%AMOC8*
5,1,8,0,0,1.08239X$1,22.5*%
G01*
%ADD10C,1.879600*%
%ADD11R,1.879600X1.879600*%
%ADD12C,0.203200*%
%ADD13C,0.808000*%


D10*
X63500Y800100D03*
X63500Y774700D03*
X63500Y749300D03*
X63500Y723900D03*
X63500Y698500D03*
X63500Y673100D03*
X63500Y647700D03*
X63500Y622300D03*
X266700Y596900D03*
X266700Y571500D03*
X266700Y546100D03*
X266700Y520700D03*
X266700Y495300D03*
X266700Y469900D03*
X266700Y444500D03*
X266700Y419100D03*
X266700Y393700D03*
X266700Y368300D03*
X266700Y342900D03*
X266700Y317500D03*
X266700Y292100D03*
X266700Y266700D03*
X266700Y241300D03*
X266700Y215900D03*
X749300Y800100D03*
X749300Y774700D03*
X749300Y749300D03*
X749300Y723900D03*
X749300Y698500D03*
X749300Y673100D03*
X749300Y647700D03*
X749300Y622300D03*
X546100Y596900D03*
X546100Y571500D03*
X546100Y546100D03*
X546100Y520700D03*
X546100Y495300D03*
X546100Y469900D03*
X546100Y444500D03*
X546100Y419100D03*
X546100Y393700D03*
X546100Y368300D03*
X546100Y342900D03*
X546100Y317500D03*
X546100Y292100D03*
X546100Y266700D03*
X546100Y241300D03*
X546100Y215900D03*
X749300Y190500D03*
X749300Y165100D03*
X749300Y139700D03*
X749300Y114300D03*
X749300Y88900D03*
X749300Y63500D03*
X749300Y38100D03*
X749300Y12700D03*
X63500Y190500D03*
X63500Y165100D03*
X63500Y139700D03*
X63500Y114300D03*
X63500Y88900D03*
X63500Y63500D03*
X63500Y38100D03*
X63500Y12700D03*
D11*
X25400Y800100D03*
D10*
X25400Y774700D03*
X25400Y749300D03*
X25400Y723900D03*
X25400Y698500D03*
X25400Y673100D03*
X25400Y647700D03*
X25400Y622300D03*
X177800Y622300D03*
X177800Y647700D03*
X177800Y673100D03*
X177800Y698500D03*
X177800Y723900D03*
X177800Y749300D03*
X177800Y774700D03*
X177800Y800100D03*
D11*
X228600Y800100D03*
D10*
X228600Y774700D03*
X228600Y749300D03*
X228600Y723900D03*
X228600Y698500D03*
X228600Y673100D03*
X228600Y647700D03*
X228600Y622300D03*
X381000Y622300D03*
X381000Y647700D03*
X381000Y673100D03*
X381000Y698500D03*
X381000Y723900D03*
X381000Y749300D03*
X381000Y774700D03*
X381000Y800100D03*
D11*
X431800Y800100D03*
D10*
X431800Y774700D03*
X431800Y749300D03*
X431800Y723900D03*
X431800Y698500D03*
X431800Y673100D03*
X431800Y647700D03*
X431800Y622300D03*
X584200Y622300D03*
X584200Y647700D03*
X584200Y673100D03*
X584200Y698500D03*
X584200Y723900D03*
X584200Y749300D03*
X584200Y774700D03*
X584200Y800100D03*
D11*
X635000Y800100D03*
D10*
X635000Y774700D03*
X635000Y749300D03*
X635000Y723900D03*
X635000Y698500D03*
X635000Y673100D03*
X635000Y647700D03*
X635000Y622300D03*
X787400Y622300D03*
X787400Y647700D03*
X787400Y673100D03*
X787400Y698500D03*
X787400Y723900D03*
X787400Y749300D03*
X787400Y774700D03*
X787400Y800100D03*
D11*
X25400Y596900D03*
D10*
X25400Y571500D03*
X25400Y546100D03*
X25400Y520700D03*
X25400Y495300D03*
X25400Y469900D03*
X25400Y444500D03*
X25400Y419100D03*
X177800Y419100D03*
X177800Y444500D03*
X177800Y469900D03*
X177800Y495300D03*
X177800Y520700D03*
X177800Y546100D03*
X177800Y571500D03*
X177800Y596900D03*
D11*
X228600Y596900D03*
D10*
X228600Y571500D03*
X228600Y546100D03*
X228600Y520700D03*
X228600Y495300D03*
X228600Y469900D03*
X228600Y444500D03*
X228600Y419100D03*
X381000Y419100D03*
X381000Y444500D03*
X381000Y469900D03*
X381000Y495300D03*
X381000Y520700D03*
X381000Y546100D03*
X381000Y571500D03*
X381000Y596900D03*
D11*
X431800Y596900D03*
D10*
X431800Y571500D03*
X431800Y546100D03*
X431800Y520700D03*
X431800Y495300D03*
X431800Y469900D03*
X431800Y444500D03*
X431800Y419100D03*
X584200Y419100D03*
X584200Y444500D03*
X584200Y469900D03*
X584200Y495300D03*
X584200Y520700D03*
X584200Y546100D03*
X584200Y571500D03*
X584200Y596900D03*
D11*
X635000Y596900D03*
D10*
X635000Y571500D03*
X635000Y546100D03*
X635000Y520700D03*
X635000Y495300D03*
X635000Y469900D03*
X635000Y444500D03*
X635000Y419100D03*
X787400Y419100D03*
X787400Y444500D03*
X787400Y469900D03*
X787400Y495300D03*
X787400Y520700D03*
X787400Y546100D03*
X787400Y571500D03*
X787400Y596900D03*
D11*
X25400Y393700D03*
D10*
X25400Y368300D03*
X25400Y342900D03*
X25400Y317500D03*
X25400Y292100D03*
X25400Y266700D03*
X25400Y241300D03*
X25400Y215900D03*
X177800Y215900D03*
X177800Y241300D03*
X177800Y266700D03*
X177800Y292100D03*
X177800Y317500D03*
X177800Y342900D03*
X177800Y368300D03*
X177800Y393700D03*
D11*
X228600Y393700D03*
D10*
X228600Y368300D03*
X228600Y342900D03*
X228600Y317500D03*
X228600Y292100D03*
X228600Y266700D03*
X228600Y241300D03*
X228600Y215900D03*
X381000Y215900D03*
X381000Y241300D03*
X381000Y266700D03*
X381000Y292100D03*
X381000Y317500D03*
X381000Y342900D03*
X381000Y368300D03*
X381000Y393700D03*
D11*
X431800Y393700D03*
D10*
X431800Y368300D03*
X431800Y342900D03*
X431800Y317500D03*
X431800Y292100D03*
X431800Y266700D03*
X431800Y241300D03*
X431800Y215900D03*
X584200Y215900D03*
X584200Y241300D03*
X584200Y266700D03*
X584200Y292100D03*
X584200Y317500D03*
X584200Y342900D03*
X584200Y368300D03*
X584200Y393700D03*
D11*
X635000Y393700D03*
D10*
X635000Y368300D03*
X635000Y342900D03*
X635000Y317500D03*
X635000Y292100D03*
X635000Y266700D03*
X635000Y241300D03*
X635000Y215900D03*
X787400Y215900D03*
X787400Y241300D03*
X787400Y266700D03*
X787400Y292100D03*
X787400Y317500D03*
X787400Y342900D03*
X787400Y368300D03*
X787400Y393700D03*
D11*
X25400Y190500D03*
D10*
X25400Y165100D03*
X25400Y139700D03*
X25400Y114300D03*
X25400Y88900D03*
X25400Y63500D03*
X25400Y38100D03*
X25400Y12700D03*
X177800Y12700D03*
X177800Y38100D03*
X177800Y63500D03*
X177800Y88900D03*
X177800Y114300D03*
X177800Y139700D03*
X177800Y165100D03*
X177800Y190500D03*
D11*
X228600Y190500D03*
D10*
X228600Y165100D03*
X228600Y139700D03*
X228600Y114300D03*
X228600Y88900D03*
X228600Y63500D03*
X228600Y38100D03*
X228600Y12700D03*
X381000Y12700D03*
X381000Y38100D03*
X381000Y63500D03*
X381000Y88900D03*
X381000Y114300D03*
X381000Y139700D03*
X381000Y165100D03*
X381000Y190500D03*
D11*
X431800Y190500D03*
D10*
X431800Y165100D03*
X431800Y139700D03*
X431800Y114300D03*
X431800Y88900D03*
X431800Y63500D03*
X431800Y38100D03*
X431800Y12700D03*
X584200Y12700D03*
X584200Y38100D03*
X584200Y63500D03*
X584200Y88900D03*
X584200Y114300D03*
X584200Y139700D03*
X584200Y165100D03*
X584200Y190500D03*
D11*
X635000Y190500D03*
D10*
X635000Y165100D03*
X635000Y139700D03*
X635000Y114300D03*
X635000Y88900D03*
X635000Y63500D03*
X635000Y38100D03*
X635000Y12700D03*
X787400Y12700D03*
X787400Y38100D03*
X787400Y63500D03*
X787400Y88900D03*
X787400Y114300D03*
X787400Y139700D03*
X787400Y165100D03*
X787400Y190500D03*
D12*
X135255Y735965D02*
X71120Y800100D01*
X63500Y800100D01*
D13*
X135255Y735965D03*
D12*
X159703Y723583D02*
X159703Y665798D01*
X177800Y647700D01*
D13*
X159703Y723583D03*
D12*
X150495Y698818D02*
X121285Y669608D01*
X121285Y649288D01*
X150495Y698818D02*
X150495Y747395D01*
X177800Y774700D01*
D13*
X121285Y649288D03*
D12*
X144463Y703263D02*
X63500Y622300D01*
X144463Y703263D02*
X144463Y766763D01*
X177800Y800100D01*
X42863Y106363D02*
X25400Y88900D01*
X42863Y106363D02*
X42863Y274638D01*
X25400Y292100D01*
X42863Y477838D02*
X25400Y495300D01*
X42863Y477838D02*
X42863Y274638D01*
X42863Y681038D02*
X25400Y698500D01*
X42863Y681038D02*
X42863Y477838D01*
X684213Y735013D02*
X749300Y800100D01*
X684213Y735013D02*
X684213Y140970D01*
X658813Y115570D01*
X290513Y76200D02*
X239713Y25400D01*
D13*
X658813Y115570D03*
X290513Y76200D03*
X239713Y25400D03*
D12*
X50800Y258763D02*
X50800Y350838D01*
X50800Y571818D01*
X50800Y749300D02*
X25400Y774700D01*
X50800Y749300D02*
X50800Y571818D01*
X714375Y739775D02*
X749300Y774700D01*
X714375Y739775D02*
X714375Y344488D01*
X692150Y322263D01*
X406400Y279400D02*
X406400Y218758D01*
D13*
X50800Y258763D03*
X50800Y350838D03*
X50800Y571818D03*
X692150Y322263D03*
X406400Y279400D03*
X406400Y218758D03*
D12*
X25400Y41910D02*
X12700Y54610D01*
X25400Y41910D02*
X25400Y38100D01*
X12700Y54610D02*
X12700Y169863D01*
X20638Y177800D01*
X38100Y179070D02*
X38100Y228600D01*
X38100Y179070D02*
X36830Y177800D01*
X20638Y177800D01*
X38100Y228600D02*
X25400Y241300D01*
X25400Y444500D02*
X12700Y457200D01*
X12700Y576263D01*
X20638Y584200D01*
X38100Y585470D02*
X38100Y635000D01*
X38100Y585470D02*
X36830Y584200D01*
X20638Y584200D01*
X38100Y635000D02*
X25400Y647700D01*
X719138Y719138D02*
X749300Y749300D01*
X719138Y719138D02*
X719138Y102235D01*
X655003Y38100D01*
X496888Y41275D02*
X496888Y650558D01*
X496888Y41275D02*
X493713Y38100D01*
X496888Y650558D02*
X486728Y660718D01*
X450850Y660400D02*
X444500Y666750D01*
X444500Y677863D01*
X436563Y685800D01*
X415925Y685800D01*
X260350Y684848D02*
X235903Y660400D01*
X212725Y652145D02*
X212725Y641350D01*
X212725Y652145D02*
X220980Y660400D01*
X235903Y660400D01*
X12700Y254000D02*
X25400Y241300D01*
X12700Y254000D02*
X12700Y373063D01*
X20638Y381000D01*
X38100Y382270D02*
X38100Y431800D01*
X38100Y382270D02*
X36830Y381000D01*
X20638Y381000D01*
X38100Y431800D02*
X25400Y444500D01*
D13*
X655003Y38100D03*
X493713Y38100D03*
X486728Y660718D03*
X450850Y660400D03*
X415925Y685800D03*
X260350Y684848D03*
X212725Y641350D03*
D12*
X749300Y723900D02*
X762000Y711200D01*
X762000Y576263D01*
X604838Y576263D02*
X601663Y579438D01*
X601663Y622300D01*
X604838Y625475D01*
X450850Y639763D02*
X444500Y646113D01*
X444500Y652463D01*
X436563Y660400D01*
X415925Y653415D02*
X415925Y641350D01*
X415925Y653415D02*
X422910Y660400D01*
X436563Y660400D01*
D13*
X762000Y576263D03*
X604838Y576263D03*
X604838Y625475D03*
X450850Y639763D03*
X415925Y641350D03*
D12*
X190500Y101600D02*
X177800Y88900D01*
X190500Y101600D02*
X190500Y279400D01*
X177800Y292100D01*
X190500Y490220D02*
X185420Y495300D01*
X177800Y495300D01*
X190500Y490220D02*
X190500Y279400D01*
X190500Y685800D02*
X177800Y698500D01*
X190500Y685800D02*
X190500Y490220D01*
X731838Y681038D02*
X749300Y698500D01*
X731838Y681038D02*
X731838Y649288D01*
X612775Y611188D02*
X609600Y614363D01*
X612775Y611188D02*
X612775Y504825D01*
X606425Y498475D01*
X606425Y482600D01*
X612775Y476250D01*
X612775Y301625D01*
X606425Y295275D01*
X606425Y278130D01*
X612775Y271780D01*
X612775Y195263D01*
X330200Y177800D02*
X254000Y101600D01*
D13*
X731838Y649288D03*
X609600Y614363D03*
X612775Y195263D03*
X330200Y177800D03*
X254000Y101600D03*
D12*
X25400Y16510D02*
X25400Y12700D01*
X25400Y16510D02*
X7938Y33973D01*
X7938Y198438D01*
X25400Y215900D01*
X7938Y401638D02*
X25400Y419100D01*
X7938Y401638D02*
X7938Y198438D01*
X7938Y604838D02*
X25400Y622300D01*
X7938Y604838D02*
X7938Y401638D01*
X692150Y666750D02*
X696913Y671513D01*
X692150Y666750D02*
X692150Y522288D01*
X406400Y482600D02*
X401638Y477838D01*
X401638Y422275D01*
X292100Y396875D02*
X284163Y388938D01*
X284163Y360363D01*
X287338Y357188D01*
X287338Y341313D01*
X282575Y336550D01*
D13*
X696913Y671513D03*
X692150Y522288D03*
X406400Y482600D03*
X401638Y422275D03*
X292100Y396875D03*
X282575Y336550D03*
D12*
X198438Y338773D02*
X198438Y144463D01*
X195263Y341948D02*
X195263Y530860D01*
X195263Y341948D02*
X198438Y338773D01*
X195263Y731838D02*
X177800Y749300D01*
X195263Y709613D02*
X195263Y530860D01*
X195263Y709613D02*
X195263Y731838D01*
X199390Y534988D02*
X195263Y530860D01*
X741680Y640080D02*
X749300Y647700D01*
X723900Y645160D02*
X723900Y690563D01*
X723900Y645160D02*
X728980Y640080D01*
X741680Y640080D01*
X723900Y690563D02*
X727075Y693738D01*
X623888Y711200D02*
X604838Y730250D01*
X604838Y731838D01*
X447675Y736600D02*
X412750Y736600D01*
X387350Y762000D01*
X338138Y762000D01*
X287338Y711200D01*
X195263Y709613D02*
X192088Y709613D01*
D13*
X198438Y144463D03*
X198438Y338773D03*
X199390Y534988D03*
X727075Y693738D03*
X623888Y711200D03*
X604838Y731838D03*
X447675Y736600D03*
X287338Y711200D03*
X192088Y709613D03*
D12*
X165100Y25400D02*
X177800Y12700D01*
X165100Y25400D02*
X165100Y203200D01*
X177800Y215900D01*
X177800Y419100D02*
X165100Y431800D01*
X165100Y609600D01*
X177800Y622300D01*
X744538Y617538D02*
X749300Y622300D01*
X744538Y617538D02*
X744538Y385763D01*
X344488Y381000D02*
X307975Y417513D01*
X307975Y422275D01*
X165100Y228600D02*
X177800Y215900D01*
X165100Y228600D02*
X165100Y431800D01*
D13*
X744538Y385763D03*
X344488Y381000D03*
X307975Y422275D03*
D12*
X246063Y93663D02*
X249238Y90488D01*
X246063Y177800D02*
X246063Y242888D01*
X246063Y177800D02*
X246063Y93663D01*
X246063Y242888D02*
X254000Y250825D01*
X254000Y277813D01*
X300038Y238125D02*
X300038Y482600D01*
X300038Y238125D02*
X279400Y217488D01*
X279400Y211138D01*
X246063Y177800D01*
X546100Y596900D02*
X538163Y604838D01*
X538163Y625475D01*
X360363Y609600D02*
X349250Y598488D01*
X349250Y546418D01*
X300038Y497205D01*
X300038Y482600D01*
X360363Y624840D02*
X287338Y697865D01*
X360363Y624840D02*
X360363Y609600D01*
D13*
X249238Y90488D03*
X254000Y277813D03*
X300038Y482600D03*
X538163Y625475D03*
X360363Y609600D03*
X287338Y697865D03*
D12*
X207963Y363538D02*
X207963Y168275D01*
X208598Y553403D02*
X207963Y554038D01*
X208598Y553403D02*
X208598Y421323D01*
X200025Y412750D01*
X200025Y371475D01*
X207963Y363538D01*
X200025Y775653D02*
X196850Y778828D01*
X200025Y775653D02*
X200025Y561975D01*
X207963Y554038D01*
X469900Y556895D02*
X482918Y569913D01*
X469900Y556895D02*
X469900Y482918D01*
X463550Y476568D01*
X463550Y376238D01*
X469900Y369888D01*
X469900Y309563D01*
X350838Y282575D02*
X284163Y215900D01*
X284163Y169863D01*
D13*
X207963Y168275D03*
X207963Y363538D03*
X207963Y554038D03*
X196850Y778828D03*
X482918Y569913D03*
X469900Y309563D03*
X350838Y282575D03*
X284163Y169863D03*
D12*
X228600Y444500D02*
X241300Y457200D01*
X241300Y635000D01*
X228600Y647700D01*
X241300Y50800D02*
X228600Y38100D01*
X241300Y50800D02*
X241300Y228600D01*
X228600Y241300D01*
X458788Y538798D02*
X461963Y541973D01*
X458788Y538798D02*
X458788Y374650D01*
X461963Y371475D01*
X461963Y296863D01*
X468313Y290513D01*
X468313Y229870D01*
X241300Y431800D02*
X228600Y444500D01*
X241300Y431800D02*
X241300Y260350D01*
X228600Y247650D01*
X228600Y241300D01*
D13*
X461963Y541973D03*
X468313Y229870D03*
D12*
X160338Y180975D02*
X157163Y177800D01*
X160338Y180975D02*
X160338Y353378D01*
X154940Y358775D01*
X207963Y600075D02*
X204788Y603250D01*
X204788Y736600D02*
X204788Y773113D01*
X204788Y736600D02*
X204788Y603250D01*
X204788Y773113D02*
X228600Y796925D01*
X228600Y800100D01*
X530225Y536575D02*
X546100Y520700D01*
X530225Y536575D02*
X530225Y663575D01*
X484188Y709613D01*
X415925Y711200D02*
X406400Y720725D01*
X406400Y731838D01*
X254635Y736600D02*
X204788Y736600D01*
X159703Y565785D02*
X159703Y363538D01*
X154940Y358775D01*
X159703Y565785D02*
X157163Y568325D01*
D13*
X157163Y177800D03*
X154940Y358775D03*
X207963Y600075D03*
X484188Y709613D03*
X415925Y711200D03*
X406400Y731838D03*
X254635Y736600D03*
X157163Y568325D03*
D12*
X393700Y101600D02*
X381000Y88900D01*
X393700Y101600D02*
X393700Y279400D01*
X381000Y292100D01*
X393700Y482600D02*
X381000Y495300D01*
X393700Y482600D02*
X393700Y279400D01*
X393700Y685800D02*
X381000Y698500D01*
X393700Y685800D02*
X393700Y482600D01*
X215900Y25400D02*
X228600Y12700D01*
X215900Y25400D02*
X215900Y203200D01*
X228600Y215900D01*
X215900Y406400D02*
X228600Y419100D01*
X215900Y406400D02*
X215900Y203200D01*
X474663Y462598D02*
X471488Y465773D01*
X474663Y462598D02*
X474663Y315913D01*
X485458Y305118D01*
X485458Y26670D01*
X482918Y24130D01*
X215900Y609600D02*
X228600Y622300D01*
X215900Y609600D02*
X215900Y406400D01*
D13*
X471488Y465773D03*
X482918Y24130D03*
D12*
X360363Y144463D02*
X352425Y152400D01*
X352425Y273050D01*
X358775Y279400D01*
X358775Y337185D01*
X353060Y342900D01*
X512763Y449263D02*
X512763Y559118D01*
X401638Y558800D02*
X398463Y561975D01*
X398463Y731838D01*
X381000Y749300D01*
X401638Y558800D02*
X401638Y542925D01*
X352425Y343535D02*
X353060Y342900D01*
X352425Y343535D02*
X352425Y477838D01*
X360363Y485775D01*
X360363Y545783D01*
D13*
X360363Y144463D03*
X353060Y342900D03*
X512763Y449263D03*
X512763Y559118D03*
X401638Y558800D03*
X401638Y542925D03*
X360363Y545783D03*
D12*
X368300Y25400D02*
X381000Y12700D01*
X368300Y25400D02*
X368300Y203200D01*
X381000Y215900D01*
X368300Y609600D02*
X381000Y622300D01*
X368300Y609600D02*
X368300Y431800D01*
X381000Y419100D01*
X368300Y228600D02*
X381000Y215900D01*
X368300Y228600D02*
X368300Y431800D01*
X460375Y101600D02*
X452438Y93663D01*
X460375Y101600D02*
X460375Y287338D01*
X533400Y485775D02*
X528638Y490538D01*
X533400Y485775D02*
X533400Y406400D01*
X546100Y393700D01*
X407988Y569913D02*
X407988Y691198D01*
X415290Y698500D01*
X431800Y698500D01*
X407988Y569913D02*
X414338Y563563D01*
X414338Y497523D01*
X411163Y494348D01*
X403225Y295275D02*
X406400Y292100D01*
X403225Y295275D02*
X403225Y371475D01*
X414338Y382588D01*
X414338Y497523D01*
D13*
X452438Y93663D03*
X460375Y287338D03*
X528638Y490538D03*
X411163Y494348D03*
X406400Y292100D03*
D12*
X452438Y576263D02*
X458788Y582613D01*
X458788Y747713D01*
X431800Y774700D01*
X414338Y173038D02*
X411163Y169863D01*
X414338Y173038D02*
X414338Y360363D01*
X411163Y363538D01*
X454025Y574675D02*
X452438Y576263D01*
X454025Y574675D02*
X454025Y368300D01*
D13*
X452438Y576263D03*
X411163Y169863D03*
X411163Y363538D03*
X454025Y368300D03*
D12*
X444500Y50800D02*
X431800Y38100D01*
X444500Y50800D02*
X444500Y228600D01*
X431800Y241300D01*
X444500Y325438D02*
X446088Y327025D01*
X454025Y334963D01*
X444500Y325438D02*
X444500Y228600D01*
X446088Y430213D02*
X444500Y431800D01*
X431800Y444500D01*
X446088Y430213D02*
X446088Y327025D01*
X444500Y635000D02*
X431800Y647700D01*
X444500Y635000D02*
X444500Y431800D01*
D13*
X454025Y334963D03*
D12*
X466725Y601663D02*
X476250Y611188D01*
X476250Y755650D01*
X431800Y800100D01*
X398463Y203200D02*
X406400Y195263D01*
X398463Y203200D02*
X398463Y385445D01*
X406400Y393383D01*
X528638Y334963D02*
X546100Y317500D01*
X528638Y334963D02*
X528638Y393383D01*
X492125Y576263D02*
X466725Y601663D01*
X492125Y576263D02*
X492125Y396875D01*
X488950Y393700D01*
D13*
X466725Y601663D03*
X406400Y195263D03*
X406400Y393383D03*
X528638Y393383D03*
X488950Y393700D03*
D12*
X584200Y495300D02*
X596900Y508000D01*
X596900Y685800D01*
X584200Y698500D01*
X596900Y101600D02*
X584200Y88900D01*
X596900Y101600D02*
X596900Y279400D01*
X584200Y292100D01*
X596900Y482600D02*
X584200Y495300D01*
X596900Y482600D02*
X596900Y334963D01*
X595313Y333375D01*
X595313Y323850D01*
X596900Y322263D01*
X596900Y279400D01*
X419100Y25400D02*
X431800Y12700D01*
X419100Y25400D02*
X419100Y203200D01*
X431800Y215900D01*
X452438Y216218D02*
X452438Y262573D01*
X419100Y406400D02*
X431800Y419100D01*
X419100Y406400D02*
X419100Y203200D01*
X419100Y609600D02*
X431800Y622300D01*
X419100Y609600D02*
X419100Y406400D01*
D13*
X452438Y262573D03*
X452438Y216218D03*
D12*
X558800Y165100D02*
X584200Y139700D01*
X558800Y165100D02*
X558800Y228600D01*
X546100Y241300D01*
X558800Y333375D02*
X563563Y338138D01*
X558800Y333375D02*
X558800Y228600D01*
X563563Y338138D02*
X563563Y541338D01*
X563563Y728663D02*
X584200Y749300D01*
X563563Y728663D02*
X563563Y541338D01*
D13*
X563563Y338138D03*
X563563Y541338D03*
D12*
X546100Y31750D02*
X547688Y30163D01*
X546100Y31750D02*
X546100Y215900D01*
X571500Y406400D02*
X584200Y419100D01*
X571500Y406400D02*
X571500Y228600D01*
X584200Y215900D01*
X520700Y615950D02*
X522288Y617538D01*
X520700Y615950D02*
X520700Y249238D01*
X546100Y223838D01*
X546100Y215900D01*
D13*
X547688Y30163D03*
X522288Y617538D03*
D12*
X266700Y596900D02*
X254000Y584200D01*
X254000Y557213D01*
X501650Y525463D02*
X504825Y522288D01*
X501650Y525463D02*
X501650Y681038D01*
X450850Y682625D02*
X444500Y688975D01*
X444500Y703263D01*
X436563Y711200D01*
X427038Y711200D02*
X423863Y708025D01*
X427038Y711200D02*
X436563Y711200D01*
X423863Y708025D02*
X419100Y703263D01*
X403225Y694055D02*
X403225Y568325D01*
X403225Y694055D02*
X412433Y703263D01*
X419100Y703263D01*
X403225Y568325D02*
X409575Y561975D01*
X409575Y533400D01*
X401638Y525463D01*
D13*
X254000Y557213D03*
X504825Y522288D03*
X501650Y681038D03*
X450850Y682625D03*
X401638Y525463D03*
D12*
X672783Y520383D02*
X679450Y513715D01*
X679450Y206375D01*
X655638Y182563D01*
X614363Y177800D02*
X601663Y165100D01*
X591820Y25400D02*
X559118Y25400D01*
X591820Y25400D02*
X601663Y35243D01*
X601663Y165100D01*
X559118Y25400D02*
X553720Y20003D01*
X501650Y41910D02*
X501650Y505460D01*
X501650Y41910D02*
X523558Y20003D01*
X553720Y20003D01*
X501650Y505460D02*
X504825Y508635D01*
X266700Y546100D02*
X249238Y528638D01*
X249238Y522288D01*
D13*
X672783Y520383D03*
X655638Y182563D03*
X614363Y177800D03*
X504825Y508635D03*
X249238Y522288D03*
D12*
X571500Y457200D02*
X584200Y444500D01*
X571500Y457200D02*
X571500Y684213D01*
X468313Y690563D02*
X463550Y695325D01*
X463550Y760413D01*
X436563Y787400D01*
X279400Y715010D02*
X279400Y533400D01*
X279400Y715010D02*
X351790Y787400D01*
X436563Y787400D01*
X279400Y533400D02*
X266700Y520700D01*
X704850Y455930D02*
X705168Y455613D01*
X705168Y447993D01*
X704850Y455930D02*
X704850Y744538D01*
X650875Y762000D02*
X647700Y765175D01*
X647700Y779463D01*
X639763Y787400D01*
X596900Y782320D02*
X596900Y719138D01*
X596900Y782320D02*
X601980Y787400D01*
X639763Y787400D01*
X596900Y719138D02*
X588963Y711200D01*
X571500Y707390D02*
X571500Y684213D01*
X571500Y707390D02*
X575310Y711200D01*
X588963Y711200D01*
X254000Y508000D02*
X254000Y458788D01*
X254000Y508000D02*
X266700Y520700D01*
D13*
X571500Y684213D03*
X468313Y690563D03*
X705168Y447993D03*
X704850Y744538D03*
X650875Y762000D03*
X254000Y458788D03*
D12*
X604838Y461963D02*
X604838Y446088D01*
X484505Y449580D02*
X484188Y449263D01*
X484505Y449580D02*
X484505Y473710D01*
D13*
X604838Y461963D03*
X604838Y446088D03*
X484188Y449263D03*
X484505Y473710D03*
D12*
X351155Y487680D02*
X350838Y487363D01*
X351155Y532130D02*
X349885Y533400D01*
X351155Y532130D02*
X351155Y487680D01*
X601663Y530225D02*
X604838Y533400D01*
X601663Y530225D02*
X601663Y476250D01*
X604838Y473075D01*
D13*
X350838Y487363D03*
X349885Y533400D03*
X604838Y533400D03*
X604838Y473075D03*
D12*
X287338Y465138D02*
X266700Y444500D01*
X287338Y465138D02*
X287338Y536575D01*
X322263Y571500D01*
D13*
X322263Y571500D03*
D12*
X292100Y444500D02*
X266700Y419100D01*
X292100Y444500D02*
X292100Y530225D01*
X341313Y579438D01*
D13*
X341313Y579438D03*
D12*
X144463Y330518D02*
X148590Y326390D01*
X144463Y330518D02*
X144463Y353378D01*
X207963Y381000D02*
X207963Y409575D01*
X279400Y381000D02*
X279400Y354013D01*
X279400Y381000D02*
X269875Y390525D01*
X671513Y344805D02*
X671513Y465138D01*
X290513Y411163D02*
X269875Y390525D01*
X266700Y393700D01*
D13*
X148590Y326390D03*
X144463Y353378D03*
X207963Y409575D03*
X207963Y381000D03*
X279400Y354013D03*
X671513Y344805D03*
X671513Y465138D03*
X290513Y411163D03*
D12*
X266700Y342900D02*
X249238Y325438D01*
X249238Y322263D01*
D13*
X249238Y322263D03*
D12*
X266700Y317500D02*
X246063Y296863D01*
X246063Y254000D01*
D13*
X246063Y254000D03*
D12*
X279400Y258763D02*
X284163Y254000D01*
X279400Y258763D02*
X279400Y279400D01*
X266700Y292100D01*
X604838Y249238D02*
X604838Y219075D01*
X476250Y214948D02*
X476250Y269875D01*
D13*
X284163Y254000D03*
X604838Y249238D03*
X604838Y219075D03*
X476250Y214948D03*
X476250Y269875D03*
D12*
X601663Y269240D02*
X604838Y266065D01*
X601663Y330200D02*
X601663Y403225D01*
X601663Y330200D02*
X601663Y269240D01*
X601663Y403225D02*
X604838Y406400D01*
X350838Y307975D02*
X342900Y300038D01*
X350838Y307975D02*
X350838Y325438D01*
X601663Y330200D02*
X603250Y330200D01*
D13*
X604838Y266065D03*
X604838Y406400D03*
X342900Y300038D03*
X350838Y325438D03*
X603250Y330200D03*
D12*
X363538Y236538D02*
X360363Y233363D01*
X363538Y236538D02*
X363538Y365125D01*
X360363Y368300D01*
X656273Y354648D02*
X656590Y354965D01*
X656273Y354648D02*
X656273Y241300D01*
X530225Y228600D02*
X509588Y249238D01*
X509588Y350838D01*
D13*
X360363Y233363D03*
X360363Y368300D03*
X656590Y354965D03*
X656273Y241300D03*
X530225Y228600D03*
X509588Y350838D03*
D12*
X292100Y241300D02*
X266700Y215900D01*
X292100Y241300D02*
X292100Y381000D01*
D13*
X292100Y381000D03*
D12*
X63500Y190500D02*
X133350Y120650D01*
D13*
X133350Y120650D03*
D12*
X188913Y76200D02*
X193040Y72073D01*
X193040Y52070D01*
X179070Y38100D02*
X177800Y38100D01*
X179070Y38100D02*
X193040Y52070D01*
D13*
X188913Y76200D03*
D12*
X157163Y131763D02*
X63500Y38100D01*
X157163Y131763D02*
X157163Y160338D01*
D13*
X157163Y160338D03*
D12*
X614363Y495300D02*
X617538Y498475D01*
X617538Y681038D01*
X635000Y698500D01*
X702628Y144463D02*
X660083Y101918D01*
X658813Y101918D01*
X702628Y144463D02*
X702628Y174308D01*
X702628Y238760D02*
X692150Y249238D01*
X702628Y238760D02*
X702628Y174308D01*
X617538Y492125D02*
X614363Y495300D01*
X617538Y492125D02*
X617538Y288925D01*
X614363Y285750D01*
D13*
X614363Y495300D03*
X658813Y101918D03*
X702628Y174308D03*
X692150Y249238D03*
X614363Y285750D03*
D12*
X655638Y576263D02*
X652463Y579438D01*
X652463Y749300D01*
X635000Y766763D01*
X635000Y774700D01*
X741363Y368300D02*
X762000Y347663D01*
X762000Y177800D01*
X749300Y165100D01*
X655638Y369570D02*
X655638Y576263D01*
X655638Y369570D02*
X656908Y368300D01*
D13*
X655638Y576263D03*
X741363Y368300D03*
X656908Y368300D03*
D12*
X635000Y444500D02*
X647700Y457200D01*
X647700Y635000D01*
X635000Y647700D01*
X647700Y50800D02*
X635000Y38100D01*
X647700Y50800D02*
X647700Y228600D01*
X635000Y241300D01*
X749300Y139700D02*
X762000Y127000D01*
X755650Y76200D02*
X709295Y76200D01*
X755650Y76200D02*
X762000Y82550D01*
X762000Y127000D01*
X709295Y76200D02*
X661988Y28893D01*
X644208Y28893D02*
X635000Y38100D01*
X644208Y28893D02*
X661988Y28893D01*
X648970Y430530D02*
X635000Y444500D01*
X648970Y430530D02*
X648970Y255270D01*
X635000Y241300D01*
X660400Y601663D02*
X658813Y603250D01*
X658813Y776288D01*
X635000Y800100D01*
X733425Y182563D02*
X734060Y181928D01*
X734060Y129540D01*
X749300Y114300D01*
X733425Y182563D02*
X733425Y392113D01*
X663575Y598488D02*
X660400Y601663D01*
X663575Y598488D02*
X663575Y392113D01*
D13*
X660400Y601663D03*
X733425Y182563D03*
X733425Y392113D03*
X663575Y392113D03*
D12*
X787400Y292100D02*
X800100Y304800D01*
X800100Y482600D01*
X787400Y495300D01*
X800100Y685800D02*
X787400Y698500D01*
X800100Y685800D02*
X800100Y482600D01*
X800100Y101600D02*
X787400Y88900D01*
X800100Y101600D02*
X800100Y304800D01*
X701040Y12700D02*
X635000Y12700D01*
X749300Y60960D02*
X749300Y63500D01*
X749300Y60960D02*
X701040Y12700D01*
X635000Y215900D02*
X622300Y228600D01*
X622300Y406400D01*
X635000Y419100D01*
X622300Y609600D02*
X635000Y622300D01*
X622300Y609600D02*
X622300Y406400D01*
X622300Y25400D02*
X635000Y12700D01*
X622300Y25400D02*
X622300Y228600D01*
X774700Y63500D02*
X749300Y38100D01*
X774700Y63500D02*
X774700Y127000D01*
X787400Y139700D01*
X774700Y330200D02*
X787400Y342900D01*
X774700Y330200D02*
X774700Y127000D01*
X769938Y731838D02*
X787400Y749300D01*
X769938Y731838D02*
X769938Y360363D01*
X787400Y342900D01*
X787400Y419100D02*
X774700Y431800D01*
X774700Y609600D01*
X787400Y622300D01*
M02*
