G04 EAGLE Gerber RS-274X export*
G75*
%MOMM*%
%FSLAX34Y34*%
%LPD*%
%INBottom Copper*%
%IPPOS*%
%AMOC8*
5,1,8,0,0,1.08239X$1,22.5*%
G01*
%ADD10R,1.879600X1.879600*%
%ADD11C,1.879600*%
%ADD12C,0.203200*%
%ADD13C,0.808000*%


D10*
X25400Y800100D03*
D11*
X25400Y774700D03*
X25400Y749300D03*
X25400Y723900D03*
X25400Y698500D03*
X25400Y673100D03*
X25400Y647700D03*
X25400Y622300D03*
X177800Y622300D03*
X177800Y647700D03*
X177800Y673100D03*
X177800Y698500D03*
X177800Y723900D03*
X177800Y749300D03*
X177800Y774700D03*
X177800Y800100D03*
D10*
X228600Y800100D03*
D11*
X228600Y774700D03*
X228600Y749300D03*
X228600Y723900D03*
X228600Y698500D03*
X228600Y673100D03*
X228600Y647700D03*
X228600Y622300D03*
X381000Y622300D03*
X381000Y647700D03*
X381000Y673100D03*
X381000Y698500D03*
X381000Y723900D03*
X381000Y749300D03*
X381000Y774700D03*
X381000Y800100D03*
D10*
X431800Y800100D03*
D11*
X431800Y774700D03*
X431800Y749300D03*
X431800Y723900D03*
X431800Y698500D03*
X431800Y673100D03*
X431800Y647700D03*
X431800Y622300D03*
X584200Y622300D03*
X584200Y647700D03*
X584200Y673100D03*
X584200Y698500D03*
X584200Y723900D03*
X584200Y749300D03*
X584200Y774700D03*
X584200Y800100D03*
D10*
X25400Y596900D03*
D11*
X25400Y571500D03*
X25400Y546100D03*
X25400Y520700D03*
X25400Y495300D03*
X25400Y469900D03*
X25400Y444500D03*
X25400Y419100D03*
X177800Y419100D03*
X177800Y444500D03*
X177800Y469900D03*
X177800Y495300D03*
X177800Y520700D03*
X177800Y546100D03*
X177800Y571500D03*
X177800Y596900D03*
D10*
X228600Y596900D03*
D11*
X228600Y571500D03*
X228600Y546100D03*
X228600Y520700D03*
X228600Y495300D03*
X228600Y469900D03*
X228600Y444500D03*
X228600Y419100D03*
X381000Y419100D03*
X381000Y444500D03*
X381000Y469900D03*
X381000Y495300D03*
X381000Y520700D03*
X381000Y546100D03*
X381000Y571500D03*
X381000Y596900D03*
D10*
X431800Y596900D03*
D11*
X431800Y571500D03*
X431800Y546100D03*
X431800Y520700D03*
X431800Y495300D03*
X431800Y469900D03*
X431800Y444500D03*
X431800Y419100D03*
X584200Y419100D03*
X584200Y444500D03*
X584200Y469900D03*
X584200Y495300D03*
X584200Y520700D03*
X584200Y546100D03*
X584200Y571500D03*
X584200Y596900D03*
D10*
X25400Y393700D03*
D11*
X25400Y368300D03*
X25400Y342900D03*
X25400Y317500D03*
X25400Y292100D03*
X25400Y266700D03*
X25400Y241300D03*
X25400Y215900D03*
X177800Y215900D03*
X177800Y241300D03*
X177800Y266700D03*
X177800Y292100D03*
X177800Y317500D03*
X177800Y342900D03*
X177800Y368300D03*
X177800Y393700D03*
D10*
X228600Y393700D03*
D11*
X228600Y368300D03*
X228600Y342900D03*
X228600Y317500D03*
X228600Y292100D03*
X228600Y266700D03*
X228600Y241300D03*
X228600Y215900D03*
X381000Y215900D03*
X381000Y241300D03*
X381000Y266700D03*
X381000Y292100D03*
X381000Y317500D03*
X381000Y342900D03*
X381000Y368300D03*
X381000Y393700D03*
D10*
X431800Y393700D03*
D11*
X431800Y368300D03*
X431800Y342900D03*
X431800Y317500D03*
X431800Y292100D03*
X431800Y266700D03*
X431800Y241300D03*
X431800Y215900D03*
X584200Y215900D03*
X584200Y241300D03*
X584200Y266700D03*
X584200Y292100D03*
X584200Y317500D03*
X584200Y342900D03*
X584200Y368300D03*
X584200Y393700D03*
X63500Y800100D03*
X63500Y774700D03*
X63500Y749300D03*
X63500Y723900D03*
X63500Y698500D03*
X63500Y673100D03*
X63500Y647700D03*
X63500Y622300D03*
X266700Y596900D03*
X266700Y571500D03*
X266700Y546100D03*
X266700Y520700D03*
X266700Y495300D03*
X266700Y469900D03*
X266700Y444500D03*
X266700Y419100D03*
X266700Y393700D03*
X266700Y368300D03*
X266700Y342900D03*
X266700Y317500D03*
X266700Y292100D03*
X266700Y266700D03*
X266700Y241300D03*
X266700Y215900D03*
X749300Y800100D03*
X749300Y774700D03*
X749300Y749300D03*
X749300Y723900D03*
X749300Y698500D03*
X749300Y673100D03*
X749300Y647700D03*
X749300Y622300D03*
X546100Y596900D03*
X546100Y571500D03*
X546100Y546100D03*
X546100Y520700D03*
X546100Y495300D03*
X546100Y469900D03*
X546100Y444500D03*
X546100Y419100D03*
X546100Y393700D03*
X546100Y368300D03*
X546100Y342900D03*
X546100Y317500D03*
X546100Y292100D03*
X546100Y266700D03*
X546100Y241300D03*
X546100Y215900D03*
D10*
X635000Y800100D03*
D11*
X635000Y774700D03*
X635000Y749300D03*
X635000Y723900D03*
X635000Y698500D03*
X635000Y673100D03*
X635000Y647700D03*
X635000Y622300D03*
X787400Y622300D03*
X787400Y647700D03*
X787400Y673100D03*
X787400Y698500D03*
X787400Y723900D03*
X787400Y749300D03*
X787400Y774700D03*
X787400Y800100D03*
D10*
X635000Y596900D03*
D11*
X635000Y571500D03*
X635000Y546100D03*
X635000Y520700D03*
X635000Y495300D03*
X635000Y469900D03*
X635000Y444500D03*
X635000Y419100D03*
X787400Y419100D03*
X787400Y444500D03*
X787400Y469900D03*
X787400Y495300D03*
X787400Y520700D03*
X787400Y546100D03*
X787400Y571500D03*
X787400Y596900D03*
D10*
X635000Y393700D03*
D11*
X635000Y368300D03*
X635000Y342900D03*
X635000Y317500D03*
X635000Y292100D03*
X635000Y266700D03*
X635000Y241300D03*
X635000Y215900D03*
X787400Y215900D03*
X787400Y241300D03*
X787400Y266700D03*
X787400Y292100D03*
X787400Y317500D03*
X787400Y342900D03*
X787400Y368300D03*
X787400Y393700D03*
X749300Y190500D03*
X749300Y165100D03*
X749300Y139700D03*
X749300Y114300D03*
X749300Y88900D03*
X749300Y63500D03*
X749300Y38100D03*
X749300Y12700D03*
D10*
X25400Y190500D03*
D11*
X25400Y165100D03*
X25400Y139700D03*
X25400Y114300D03*
X25400Y88900D03*
X25400Y63500D03*
X25400Y38100D03*
X25400Y12700D03*
X177800Y12700D03*
X177800Y38100D03*
X177800Y63500D03*
X177800Y88900D03*
X177800Y114300D03*
X177800Y139700D03*
X177800Y165100D03*
X177800Y190500D03*
D10*
X228600Y190500D03*
D11*
X228600Y165100D03*
X228600Y139700D03*
X228600Y114300D03*
X228600Y88900D03*
X228600Y63500D03*
X228600Y38100D03*
X228600Y12700D03*
X381000Y12700D03*
X381000Y38100D03*
X381000Y63500D03*
X381000Y88900D03*
X381000Y114300D03*
X381000Y139700D03*
X381000Y165100D03*
X381000Y190500D03*
D10*
X431800Y190500D03*
D11*
X431800Y165100D03*
X431800Y139700D03*
X431800Y114300D03*
X431800Y88900D03*
X431800Y63500D03*
X431800Y38100D03*
X431800Y12700D03*
X584200Y12700D03*
X584200Y38100D03*
X584200Y63500D03*
X584200Y88900D03*
X584200Y114300D03*
X584200Y139700D03*
X584200Y165100D03*
X584200Y190500D03*
X63500Y190500D03*
X63500Y165100D03*
X63500Y139700D03*
X63500Y114300D03*
X63500Y88900D03*
X63500Y63500D03*
X63500Y38100D03*
X63500Y12700D03*
D10*
X635000Y190500D03*
D11*
X635000Y165100D03*
X635000Y139700D03*
X635000Y114300D03*
X635000Y88900D03*
X635000Y63500D03*
X635000Y38100D03*
X635000Y12700D03*
X787400Y12700D03*
X787400Y38100D03*
X787400Y63500D03*
X787400Y88900D03*
X787400Y114300D03*
X787400Y139700D03*
X787400Y165100D03*
X787400Y190500D03*
D12*
X127000Y625475D02*
X127000Y735330D01*
D13*
X127000Y625475D03*
D12*
X127000Y735330D02*
X63500Y798830D01*
X63500Y800100D01*
D13*
X88900Y749300D03*
D12*
X63500Y774700D01*
X93980Y718820D02*
X93980Y684530D01*
X85090Y675640D01*
X85090Y635000D01*
D13*
X85090Y635000D03*
D12*
X93980Y718820D02*
X63500Y749300D01*
D13*
X83820Y699135D03*
D12*
X63500Y719455D02*
X63500Y723900D01*
X63500Y719455D02*
X83820Y699135D01*
X50800Y711200D02*
X50800Y774700D01*
X25400Y800100D01*
X50800Y711200D02*
X63500Y698500D01*
X44450Y723900D02*
X44450Y641350D01*
X44450Y723900D02*
X31750Y736600D01*
X12700Y736600D01*
X12700Y711200D01*
X25400Y698500D01*
X44450Y641350D02*
X63500Y622300D01*
X191770Y128270D02*
X177800Y114300D01*
X191770Y128270D02*
X191770Y303530D01*
X177800Y317500D01*
X191770Y506730D02*
X190500Y508000D01*
X177800Y520700D01*
X191770Y506730D02*
X191770Y303530D01*
X190500Y711200D02*
X177800Y723900D01*
X190500Y711200D02*
X190500Y508000D01*
X762000Y692150D02*
X762000Y787400D01*
X762000Y692150D02*
X758825Y688975D01*
X717550Y685800D02*
X717550Y79375D01*
X409575Y66675D02*
X409575Y155575D01*
X325755Y152400D02*
X325755Y149860D01*
X307975Y132080D01*
X305435Y132080D01*
D13*
X717550Y79375D03*
X409575Y66675D03*
X409575Y155575D03*
X325755Y152400D03*
X305435Y132080D03*
D12*
X762000Y787400D02*
X749300Y800100D01*
X758825Y688975D02*
X755650Y685800D01*
X717550Y685800D01*
X692150Y717550D02*
X692150Y641350D01*
X695325Y638175D01*
X695325Y542925D01*
X692150Y539750D01*
X692150Y508000D01*
X612775Y508000D02*
X612775Y460375D01*
D13*
X692150Y508000D03*
X612775Y508000D03*
X612775Y460375D03*
D12*
X692150Y717550D02*
X749300Y774700D01*
X38100Y127000D02*
X25400Y114300D01*
X38100Y127000D02*
X38100Y304800D01*
X25400Y317500D01*
X38100Y508000D02*
X25400Y520700D01*
X38100Y508000D02*
X38100Y304800D01*
X38100Y716280D02*
X30480Y723900D01*
X25400Y723900D01*
X38100Y716280D02*
X38100Y508000D01*
X698500Y641350D02*
X698500Y698500D01*
X698500Y641350D02*
X701675Y638175D01*
X701675Y536575D01*
X335280Y702945D02*
X330200Y708025D01*
X335280Y535305D02*
X333375Y533400D01*
X335280Y535305D02*
X335280Y702945D01*
D13*
X701675Y536575D03*
X333375Y533400D03*
X330200Y708025D03*
D12*
X698500Y698500D02*
X749300Y749300D01*
X200025Y60325D02*
X190500Y50800D01*
X177800Y38100D01*
X200025Y60325D02*
X200025Y231775D01*
X201295Y442595D02*
X201295Y443865D01*
X201295Y442595D02*
X198120Y439420D01*
X198120Y233680D01*
X200025Y231775D01*
X201295Y443865D02*
X201295Y636905D01*
X488950Y669925D02*
X488950Y457200D01*
X479425Y447675D01*
X479425Y327025D01*
X352425Y330200D02*
X346075Y323850D01*
X346075Y60325D01*
X336550Y50800D01*
X190500Y50800D01*
D13*
X200025Y231775D03*
X201295Y443865D03*
X201295Y636905D03*
X488950Y669925D03*
X479425Y327025D03*
X352425Y330200D03*
D12*
X25400Y63500D02*
X19050Y63500D01*
X6350Y76200D01*
X6350Y247650D01*
X12700Y254000D02*
X25400Y266700D01*
X12700Y254000D02*
X6350Y247650D01*
X12700Y457200D02*
X25400Y469900D01*
X12700Y457200D02*
X12700Y254000D01*
X12700Y660400D02*
X25400Y673100D01*
X12700Y660400D02*
X12700Y457200D01*
X682625Y695325D02*
X685800Y692150D01*
X685800Y641350D01*
X688975Y638175D01*
X688975Y545465D01*
X685800Y542290D01*
X685800Y516890D01*
X682625Y513715D01*
X682625Y314325D01*
X612775Y304800D02*
X612775Y257175D01*
D13*
X682625Y695325D03*
X682625Y314325D03*
X612775Y304800D03*
X612775Y257175D03*
D12*
X177800Y63500D02*
X146050Y95250D01*
X146050Y250825D01*
X136525Y260350D02*
X136525Y466725D01*
X136525Y260350D02*
X146050Y250825D01*
X136525Y657225D02*
X149225Y669925D01*
X136525Y657225D02*
X136525Y466725D01*
X762000Y389255D02*
X762000Y660400D01*
X762000Y389255D02*
X739775Y367030D01*
X739775Y282575D01*
X530225Y269875D02*
X530225Y247015D01*
X520700Y237490D01*
X520700Y66675D01*
X450850Y63500D02*
X438150Y50800D01*
X361950Y50800D01*
D13*
X146050Y250825D03*
X136525Y466725D03*
X149225Y669925D03*
X739775Y282575D03*
X565150Y279400D03*
X520700Y66675D03*
X450850Y63500D03*
X361950Y50800D03*
D12*
X762000Y660400D02*
X749300Y673100D01*
X539750Y279400D02*
X530225Y269875D01*
X539750Y279400D02*
X565150Y279400D01*
X177800Y165100D02*
X155575Y187325D01*
X155575Y354330D01*
X155575Y549275D01*
X708025Y644525D02*
X711200Y641350D01*
X711200Y187325D01*
X657225Y133350D01*
X488950Y136525D02*
X488950Y450850D01*
X498475Y460375D01*
X498475Y727075D01*
X450850Y774700D01*
X400050Y787400D02*
X365125Y787400D01*
X365125Y784225D01*
X158750Y552450D02*
X155575Y549275D01*
X158750Y552450D02*
X158750Y755650D01*
X177800Y774700D01*
D13*
X155575Y354330D03*
X155575Y549275D03*
X708025Y644525D03*
X657225Y133350D03*
X488950Y136525D03*
X450850Y774700D03*
X400050Y787400D03*
X365125Y784225D03*
D12*
X165100Y203200D02*
X177800Y190500D01*
X165100Y203200D02*
X165100Y381000D01*
X177800Y393700D01*
X165100Y584200D02*
X177800Y596900D01*
X165100Y584200D02*
X165100Y381000D01*
X190500Y787400D02*
X177800Y800100D01*
X190500Y762000D02*
X190500Y742950D01*
X190500Y762000D02*
X190500Y787400D01*
X190500Y742950D02*
X184150Y736600D01*
X165100Y736600D01*
X165100Y584200D01*
X736600Y609600D02*
X736600Y463550D01*
X558800Y482600D02*
X558800Y501650D01*
X527050Y508000D02*
X527050Y718820D01*
X458470Y787400D01*
X417195Y787400D01*
X391795Y762000D01*
X365125Y762000D01*
X365125Y758825D01*
X250190Y762000D02*
X190500Y762000D01*
D13*
X736600Y463550D03*
X565150Y476250D03*
X365125Y758825D03*
X250190Y762000D03*
D12*
X736600Y609600D02*
X749300Y622300D01*
X558800Y501650D02*
X552450Y508000D01*
X527050Y508000D01*
X558800Y482600D02*
X565150Y476250D01*
X393700Y127000D02*
X381000Y114300D01*
X393700Y127000D02*
X393700Y304800D01*
X381000Y317500D01*
X393700Y508000D02*
X381000Y520700D01*
X393700Y508000D02*
X393700Y304800D01*
X393700Y574675D02*
X400050Y581025D01*
X403225Y584200D01*
X393700Y574675D02*
X393700Y533400D01*
X381000Y520700D01*
X400050Y704850D02*
X381000Y723900D01*
X400050Y704850D02*
X400050Y581025D01*
D13*
X403225Y584200D03*
D12*
X327025Y170180D02*
X290195Y133350D01*
X288925Y133350D01*
X327025Y170180D02*
X327025Y314325D01*
X310515Y532765D02*
X311150Y533400D01*
X310515Y532765D02*
X310515Y400685D01*
X327025Y384175D01*
X327025Y314325D01*
X558800Y584200D02*
X558800Y662305D01*
X311150Y657225D02*
X311150Y533400D01*
X311150Y749300D02*
X228600Y749300D01*
X311150Y749300D02*
X311150Y657225D01*
D13*
X288925Y133350D03*
X327025Y314325D03*
X311150Y533400D03*
X558800Y662305D03*
X311150Y657225D03*
D12*
X546100Y571500D02*
X558800Y584200D01*
X241300Y533400D02*
X228600Y520700D01*
X241300Y533400D02*
X241300Y711200D01*
X228600Y723900D01*
X241300Y127000D02*
X228600Y114300D01*
X241300Y127000D02*
X241300Y304800D01*
X228600Y317500D01*
X469900Y136525D02*
X469900Y544830D01*
X146050Y533400D02*
X146050Y342900D01*
D13*
X469900Y544830D03*
X469900Y136525D03*
X146050Y533400D03*
X146050Y342900D03*
D12*
X533400Y628650D02*
X536575Y631825D01*
X381000Y241300D02*
X353084Y213384D01*
X361950Y438150D02*
X358775Y441325D01*
X412750Y631190D02*
X409575Y634365D01*
X412750Y631190D02*
X412750Y438150D01*
X409575Y434975D01*
D13*
X536575Y631825D03*
X358775Y441325D03*
X409575Y634365D03*
X409575Y434975D03*
D12*
X381000Y38100D02*
X361368Y38100D01*
X353084Y46384D02*
X353084Y213384D01*
X353084Y46384D02*
X361368Y38100D01*
X381000Y241300D02*
X361950Y260350D01*
X361950Y438150D01*
X533400Y533400D02*
X533400Y628650D01*
X533400Y533400D02*
X546100Y520700D01*
X228600Y469900D02*
X215900Y482600D01*
X215900Y660400D01*
X228600Y673100D01*
X209550Y82550D02*
X228600Y63500D01*
X209550Y82550D02*
X209550Y247650D01*
X228600Y266700D01*
X527050Y317500D02*
X527050Y476250D01*
X511175Y301625D02*
X498475Y288925D01*
X498475Y123825D01*
X215900Y457200D02*
X228600Y469900D01*
X215900Y457200D02*
X215900Y336550D01*
X209550Y330200D01*
X209550Y247650D01*
D13*
X527050Y317500D03*
X511175Y301625D03*
X498475Y123825D03*
X400050Y101600D03*
X361950Y79375D03*
D12*
X361950Y91813D01*
X371737Y101600D01*
X400050Y101600D01*
X527050Y476250D02*
X546100Y495300D01*
X336550Y263525D02*
X336550Y63500D01*
X381000Y469900D02*
X368300Y482600D01*
X368300Y660400D01*
X381000Y673100D01*
X479425Y720725D02*
X479425Y473075D01*
X479425Y720725D02*
X438150Y762000D01*
X417830Y762000D01*
X392430Y736600D01*
X368300Y736600D01*
X368300Y660400D01*
X368300Y279400D02*
X381000Y266700D01*
X368300Y279400D02*
X368300Y482600D01*
D13*
X336550Y63500D03*
X336550Y263525D03*
X479425Y473075D03*
D12*
X412750Y177800D02*
X403225Y168275D01*
X412750Y177800D02*
X412750Y361950D01*
X409575Y365125D01*
X400050Y558800D02*
X403225Y561975D01*
X400050Y517525D02*
X400050Y422275D01*
X400050Y517525D02*
X400050Y558800D01*
X400050Y422275D02*
X412750Y409575D01*
X412750Y361950D01*
X460375Y441325D02*
X460375Y504825D01*
X381000Y774700D02*
X355600Y774700D01*
X355600Y574675D01*
D13*
X403225Y168275D03*
X409575Y365125D03*
X403225Y561975D03*
X460375Y441325D03*
X460375Y504825D03*
X400050Y517525D03*
X355600Y574675D03*
D12*
X345440Y600075D02*
X345440Y781050D01*
X345440Y600075D02*
X346075Y600075D01*
X345440Y781050D02*
X364490Y800100D01*
X381000Y800100D01*
X400050Y196850D02*
X403225Y193675D01*
X400050Y196850D02*
X400050Y381000D01*
X403225Y384175D01*
X403225Y406400D01*
X345440Y396875D02*
X345440Y600075D01*
D13*
X346075Y600075D03*
X403225Y193675D03*
X403225Y384175D03*
X403225Y406400D03*
X345440Y396875D03*
D12*
X596900Y127000D02*
X584200Y114300D01*
X596900Y127000D02*
X596900Y304800D01*
X584200Y317500D01*
X563245Y322580D02*
X563245Y376555D01*
X596900Y508000D02*
X584200Y520700D01*
X596900Y508000D02*
X596900Y304800D01*
X596900Y711200D02*
X584200Y723900D01*
X596900Y711200D02*
X596900Y508000D01*
D13*
X563245Y322580D03*
D12*
X563245Y376555D02*
X546100Y393700D01*
X454025Y346075D02*
X454025Y136525D01*
X508000Y346075D02*
X508000Y365125D01*
X450850Y541655D02*
X454025Y544830D01*
X450850Y541655D02*
X450850Y349250D01*
X454025Y346075D01*
X454025Y727075D02*
X431800Y749300D01*
X454025Y727075D02*
X454025Y544830D01*
D13*
X454025Y136525D03*
X454025Y346075D03*
X508000Y365125D03*
X508000Y346075D03*
X454025Y544830D03*
D12*
X444500Y127000D02*
X431800Y114300D01*
X444500Y127000D02*
X444500Y304800D01*
X431800Y317500D01*
X444500Y508000D02*
X431800Y520700D01*
X444500Y508000D02*
X444500Y304800D01*
X444500Y711200D02*
X431800Y723900D01*
X444500Y711200D02*
X444500Y508000D01*
X511175Y38100D02*
X584200Y38100D01*
X511175Y38100D02*
X511175Y282575D01*
X530225Y301625D01*
X666750Y228600D02*
X673100Y234950D01*
X673100Y428625D01*
X679450Y521970D02*
X679450Y635000D01*
X679450Y521970D02*
X673100Y515620D01*
X673100Y428625D01*
X530225Y301625D02*
X517525Y314325D01*
X517525Y638175D01*
D13*
X666750Y228600D03*
X673100Y428625D03*
X679450Y635000D03*
X517525Y638175D03*
D12*
X546100Y317500D02*
X530225Y301625D01*
X419100Y76200D02*
X431800Y63500D01*
X419100Y76200D02*
X419100Y254000D01*
X431800Y266700D01*
X419100Y457200D02*
X431800Y469900D01*
X419100Y457200D02*
X419100Y254000D01*
X419100Y660400D02*
X431800Y673100D01*
X419100Y660400D02*
X419100Y457200D01*
D13*
X520700Y266700D03*
D12*
X537210Y292100D02*
X546100Y292100D01*
X537210Y292100D02*
X520700Y275590D01*
X520700Y266700D01*
X584200Y469900D02*
X571500Y482600D01*
X571500Y660400D01*
X584200Y673100D01*
X571500Y76200D02*
X584200Y63500D01*
X571500Y76200D02*
X571500Y254000D01*
X584200Y266700D01*
X571500Y457200D02*
X584200Y469900D01*
X571500Y457200D02*
X571500Y285750D01*
X584200Y273050D01*
X584200Y266700D01*
X533400Y201930D02*
X561975Y173355D01*
X533400Y201930D02*
X533400Y228600D01*
X606425Y368300D02*
X603250Y371475D01*
X603250Y568325D02*
X603250Y755650D01*
X603250Y568325D02*
X603250Y371475D01*
X603250Y755650D02*
X584200Y774700D01*
X603250Y568325D02*
X606425Y568325D01*
X561975Y173355D02*
X565150Y170180D01*
X565150Y63500D01*
X577850Y50800D01*
X603250Y50800D01*
X603250Y371475D01*
D13*
X561975Y173355D03*
X606425Y368300D03*
X606425Y568325D03*
D12*
X546100Y241300D02*
X533400Y228600D01*
X612775Y600075D02*
X609600Y603250D01*
X609600Y774700D01*
X584200Y800100D01*
X546100Y208280D02*
X563245Y191135D01*
X563245Y188595D01*
X657225Y174625D02*
X657225Y381000D01*
X654050Y581025D02*
X657225Y584200D01*
X654050Y581025D02*
X654050Y384175D01*
X657225Y381000D01*
D13*
X612775Y600075D03*
X563245Y188595D03*
X657225Y381000D03*
X657225Y174625D03*
X657225Y584200D03*
D12*
X546100Y215900D02*
X546100Y208280D01*
X209550Y425450D02*
X206375Y422275D01*
X209550Y425450D02*
X209550Y723900D01*
X222250Y736600D01*
X266700Y736600D01*
X320675Y434975D02*
X333375Y422275D01*
X320675Y434975D02*
X320675Y587375D01*
X660400Y425450D02*
X663575Y422275D01*
X660400Y425450D02*
X660400Y568325D01*
X666750Y574675D01*
X666750Y619760D01*
X654050Y632460D01*
X654050Y723900D01*
X329565Y736600D02*
X320675Y727710D01*
X320675Y587375D01*
D13*
X206375Y422275D03*
X333375Y422275D03*
X320675Y587375D03*
X663575Y422275D03*
X654050Y723900D03*
X329565Y736600D03*
D12*
X266700Y736600D02*
X266700Y596900D01*
D13*
X301625Y447675D03*
D12*
X301625Y574675D01*
X299720Y576580D01*
X287020Y576580D01*
X284480Y574040D01*
X284480Y557530D01*
X273050Y546100D02*
X266700Y546100D01*
X273050Y546100D02*
X284480Y557530D01*
X285750Y501650D02*
X285750Y495300D01*
D13*
X285750Y495300D03*
D12*
X285750Y501650D02*
X266700Y520700D01*
X250825Y511175D02*
X250825Y589280D01*
D13*
X250825Y589280D03*
D12*
X250825Y511175D02*
X266700Y495300D01*
X612775Y441325D02*
X612775Y377825D01*
X279400Y406400D02*
X279400Y419100D01*
X279400Y457200D01*
X254000Y419100D02*
X254000Y412750D01*
X260350Y406400D01*
D13*
X612775Y441325D03*
X612775Y377825D03*
X317500Y381000D03*
D12*
X279400Y457200D02*
X266700Y469900D01*
X228600Y444500D02*
X254000Y419100D01*
X279400Y419100D02*
X317500Y381000D01*
X279400Y406400D02*
X260350Y406400D01*
D13*
X294005Y567690D03*
D12*
X294005Y491543D01*
X285062Y482600D01*
X252222Y476115D02*
X252222Y458978D01*
X258707Y482600D02*
X285062Y482600D01*
X258707Y482600D02*
X252222Y476115D01*
X252222Y458978D02*
X266700Y444500D01*
X241300Y444500D02*
X241300Y482600D01*
X228600Y495300D01*
X241300Y444500D02*
X254000Y431800D01*
X266700Y419100D01*
X316841Y203859D02*
X317500Y203200D01*
X316841Y203859D02*
X316841Y358111D01*
D13*
X317500Y203200D03*
D12*
X316841Y358111D02*
X281252Y393700D01*
X266700Y393700D01*
D13*
X295275Y228600D03*
D12*
X296545Y229870D02*
X296545Y313055D01*
X296545Y229870D02*
X295275Y228600D01*
X296545Y313055D02*
X266700Y342900D01*
X285750Y298450D02*
X285750Y292100D01*
D13*
X285750Y292100D03*
D12*
X285750Y298450D02*
X266700Y317500D01*
X254000Y330200D02*
X254000Y304800D01*
X254000Y330200D02*
X241300Y342900D01*
X241300Y381000D01*
X228600Y393700D01*
X254000Y304800D02*
X266700Y292100D01*
X609600Y234950D02*
X612775Y238125D01*
X609600Y234950D02*
X609600Y40640D01*
X594360Y25400D01*
X479425Y25400D01*
X479425Y238125D01*
X228600Y241300D02*
X215900Y228600D01*
X215900Y107950D01*
X222250Y101600D01*
X279400Y101600D01*
X279400Y254000D01*
D13*
X612775Y238125D03*
X479425Y238125D03*
D12*
X279400Y254000D02*
X266700Y266700D01*
X306705Y243840D02*
X306705Y351155D01*
X306705Y243840D02*
X307340Y243205D01*
X306705Y351155D02*
X304165Y353695D01*
X498475Y336550D02*
X508000Y327025D01*
X498475Y336550D02*
X498475Y371475D01*
D13*
X307340Y243205D03*
X304165Y353695D03*
X508000Y327025D03*
X498475Y371475D03*
D12*
X247650Y311150D02*
X247650Y234950D01*
X247650Y311150D02*
X241300Y317500D01*
X241300Y323850D01*
X234950Y330200D01*
X215900Y330200D01*
X215900Y304800D01*
X228600Y292100D01*
X247650Y234950D02*
X266700Y215900D01*
X91440Y99060D02*
X165100Y25400D01*
X177800Y12700D01*
X91440Y99060D02*
X91440Y162560D01*
X251460Y12700D02*
X381000Y12700D01*
X251460Y12700D02*
X238760Y25400D01*
X165100Y25400D01*
X452120Y12700D02*
X584200Y12700D01*
X452120Y12700D02*
X439420Y25400D01*
X381000Y25400D01*
X381000Y12700D01*
X608330Y25400D02*
X609600Y25400D01*
X595630Y12700D02*
X584200Y12700D01*
X595630Y12700D02*
X608330Y25400D01*
D13*
X609600Y25400D03*
D12*
X91440Y162560D02*
X63500Y190500D01*
X82550Y123190D02*
X82550Y27940D01*
X80010Y25400D01*
D13*
X80010Y25400D03*
D12*
X66040Y139700D02*
X63500Y139700D01*
X66040Y139700D02*
X82550Y123190D01*
X155575Y111125D02*
X177800Y88900D01*
D13*
X155575Y111125D03*
D12*
X48260Y85090D02*
X48260Y53340D01*
X48260Y85090D02*
X31750Y101600D01*
X12700Y101600D01*
X12700Y152400D01*
X25400Y165100D01*
X48260Y53340D02*
X63500Y38100D01*
X40640Y35560D02*
X40640Y73660D01*
X25400Y88900D01*
X40640Y35560D02*
X50800Y25400D01*
X63500Y12700D01*
X787400Y520700D02*
X801370Y506730D01*
X801370Y331470D01*
X787400Y317500D01*
X806450Y704850D02*
X787400Y723900D01*
X806450Y704850D02*
X806450Y539750D01*
X787400Y520700D01*
X730250Y146050D02*
X727075Y142875D01*
X730250Y330200D02*
X727075Y333375D01*
X730250Y330200D02*
X730250Y146050D01*
X746125Y393700D02*
X746125Y546100D01*
X746125Y393700D02*
X727075Y374650D01*
X727075Y333375D01*
X669925Y749300D02*
X635000Y749300D01*
X669925Y749300D02*
X669925Y629285D01*
X673100Y626110D01*
X673100Y549275D01*
X669925Y546100D01*
D13*
X727075Y142875D03*
X727075Y333375D03*
X746125Y546100D03*
X669925Y546100D03*
D12*
X749300Y165100D02*
X730250Y146050D01*
X635000Y317500D02*
X647700Y330200D01*
X647700Y508000D01*
X635000Y520700D01*
X647700Y711200D02*
X635000Y723900D01*
X647700Y711200D02*
X647700Y508000D01*
X647700Y127000D02*
X635000Y114300D01*
X647700Y127000D02*
X647700Y330200D01*
X768350Y95250D02*
X768350Y57150D01*
X787400Y38100D01*
X787400Y241300D02*
X800100Y254000D01*
X800100Y298450D01*
X793750Y304800D01*
X774700Y304800D01*
X774700Y431800D01*
X787400Y444500D01*
X727075Y485775D02*
X727075Y625475D01*
X768350Y260350D02*
X768350Y133350D01*
D13*
X736600Y635000D03*
X727075Y485775D03*
X768350Y260350D03*
D12*
X768350Y133350D02*
X749300Y114300D01*
X768350Y95250D01*
X727075Y625475D02*
X736600Y635000D01*
X622300Y279400D02*
X635000Y266700D01*
X622300Y279400D02*
X622300Y457200D01*
X635000Y469900D01*
X622300Y660400D02*
X635000Y673100D01*
X622300Y660400D02*
X622300Y457200D01*
X622300Y76200D02*
X635000Y63500D01*
X622300Y76200D02*
X622300Y279400D01*
X787400Y469900D02*
X774700Y482600D01*
X774700Y660400D01*
X787400Y673100D01*
X787400Y266700D02*
X774700Y254000D01*
X774700Y76200D01*
X787400Y63500D01*
X768350Y450850D02*
X787400Y469900D01*
X768350Y450850D02*
X768350Y285750D01*
X787400Y266700D01*
X777240Y25400D02*
X764540Y12700D01*
X777240Y25400D02*
X800100Y25400D01*
X800100Y177800D01*
X787400Y190500D01*
X774700Y787400D02*
X787400Y800100D01*
X774700Y787400D02*
X774700Y692150D01*
X781050Y685800D01*
X800100Y685800D01*
X800100Y609600D01*
X787400Y596900D01*
X736600Y146050D02*
X736600Y25400D01*
X762000Y152400D02*
X762000Y231775D01*
X755650Y238125D01*
X755650Y365125D01*
D13*
X755650Y365125D03*
D12*
X742950Y152400D02*
X736600Y146050D01*
X742950Y152400D02*
X762000Y152400D01*
X736600Y25400D02*
X749300Y12700D01*
X764540Y12700D01*
M02*
