M48
;GenerationSoftware,Autodesk,EAGLE,9.6.1*%
;CreationDate,2024-10-24T18:08:57Z*%
FMAT,2
ICI,OFF
METRIC,TZ,000.000
T2C0.300
T1C1.016
%
G90
M71
T1
X54610Y26670
X54610Y24130
X54610Y21590
X63500Y80010
X63500Y77470
X63500Y74930
X63500Y72390
X63500Y69850
X63500Y67310
X63500Y64770
X63500Y62230
X78740Y62230
X78740Y64770
X78740Y67310
X78740Y69850
X78740Y72390
X78740Y74930
X78740Y77470
X78740Y80010
X63500Y59690
X63500Y57150
X63500Y54610
X63500Y52070
X63500Y49530
X63500Y46990
X63500Y44450
X63500Y41910
X78740Y41910
X78740Y44450
X78740Y46990
X78740Y49530
X78740Y52070
X78740Y54610
X78740Y57150
X78740Y59690
X63500Y39370
X63500Y36830
X63500Y34290
X63500Y31750
X63500Y29210
X63500Y26670
X63500Y24130
X63500Y21590
X78740Y21590
X78740Y24130
X78740Y26670
X78740Y29210
X78740Y31750
X78740Y34290
X78740Y36830
X78740Y39370
X74930Y19050
X74930Y16510
X74930Y13970
X74930Y11430
X74930Y8890
X58420Y57150
X74930Y6350
X74930Y3810
X74930Y1270
X2540Y19050
X2540Y16510
X2540Y13970
X2540Y11430
X2540Y8890
X2540Y6350
X2540Y3810
X2540Y1270
X17780Y1270
X17780Y3810
X17780Y6350
X17780Y8890
X17780Y11430
X17780Y13970
X17780Y16510
X22860Y19050
X22860Y16510
X22860Y13970
X22860Y11430
X22860Y8890
X22860Y6350
X22860Y3810
X22860Y1270
X38100Y1270
X38100Y3810
X38100Y6350
X38100Y8890
X38100Y11430
X38100Y13970
X38100Y16510
X38100Y19050
X43180Y19050
X43180Y16510
X43180Y13970
X43180Y11430
X43180Y8890
X43180Y6350
X43180Y3810
X43180Y1270
X58420Y1270
X58420Y3810
X58420Y6350
X58420Y8890
X58420Y11430
X58420Y13970
X58420Y16510
X58420Y19050
X6350Y19050
X6350Y16510
X6350Y13970
X6350Y11430
X6350Y8890
X6350Y6350
X6350Y3810
X6350Y1270
X63500Y19050
X63500Y16510
X63500Y13970
X63500Y11430
X63500Y8890
X63500Y6350
X63500Y3810
X63500Y1270
X78740Y1270
X78740Y3810
X78740Y6350
X78740Y8890
X78740Y11430
X78740Y13970
X78740Y16510
X78740Y19050
X2540Y80010
X2540Y77470
X2540Y74930
X2540Y72390
X2540Y69850
X2540Y67310
X2540Y64770
X2540Y62230
X17780Y62230
X17780Y64770
X17780Y67310
X17780Y69850
X17780Y72390
X17780Y74930
X17780Y77470
X17780Y80010
X22860Y80010
X22860Y77470
X22860Y74930
X22860Y72390
X22860Y69850
X22860Y67310
X22860Y64770
X22860Y62230
X38100Y62230
X38100Y64770
X38100Y67310
X38100Y69850
X38100Y72390
X38100Y74930
X38100Y77470
X38100Y80010
X43180Y80010
X43180Y77470
X43180Y74930
X43180Y72390
X43180Y69850
X43180Y67310
X43180Y64770
X43180Y62230
X58420Y62230
X58420Y64770
X58420Y67310
X58420Y69850
X58420Y72390
X58420Y74930
X58420Y77470
X58420Y80010
X2540Y59690
X2540Y57150
X2540Y54610
X2540Y52070
X2540Y49530
X2540Y46990
X2540Y44450
X2540Y41910
X17780Y41910
X17780Y44450
X17780Y46990
X17780Y49530
X17780Y52070
X17780Y54610
X17780Y57150
X17780Y59690
X22860Y59690
X22860Y57150
X22860Y54610
X22860Y52070
X22860Y49530
X22860Y46990
X22860Y44450
X22860Y41910
X38100Y41910
X38100Y44450
X38100Y46990
X38100Y49530
X38100Y52070
X38100Y54610
X38100Y57150
X38100Y59690
X43180Y59690
X43180Y57150
X43180Y54610
X43180Y52070
X43180Y49530
X43180Y46990
X43180Y44450
X43180Y41910
X58420Y41910
X58420Y44450
X58420Y46990
X58420Y49530
X58420Y52070
X58420Y54610
X17780Y19050
X58420Y59690
X2540Y39370
X2540Y36830
X2540Y34290
X2540Y31750
X2540Y29210
X2540Y26670
X2540Y24130
X2540Y21590
X17780Y21590
X17780Y24130
X17780Y26670
X17780Y29210
X17780Y31750
X17780Y34290
X17780Y36830
X17780Y39370
X22860Y39370
X22860Y36830
X22860Y34290
X22860Y31750
X22860Y29210
X22860Y26670
X22860Y24130
X22860Y21590
X38100Y21590
X38100Y24130
X38100Y26670
X38100Y29210
X38100Y31750
X38100Y34290
X38100Y36830
X38100Y39370
X43180Y39370
X43180Y36830
X43180Y34290
X43180Y31750
X43180Y29210
X43180Y26670
X43180Y24130
X43180Y21590
X58420Y21590
X58420Y24130
X58420Y26670
X58420Y29210
X58420Y31750
X58420Y34290
X58420Y36830
X58420Y39370
X6350Y80010
X6350Y77470
X6350Y74930
X6350Y72390
X6350Y69850
X6350Y67310
X6350Y64770
X6350Y62230
X26670Y59690
X26670Y57150
X26670Y54610
X26670Y52070
X26670Y49530
X26670Y46990
X26670Y44450
X26670Y41910
X26670Y39370
X26670Y36830
X26670Y34290
X26670Y31750
X26670Y29210
X26670Y26670
X26670Y24130
X26670Y21590
X74930Y80010
X74930Y77470
X74930Y74930
X74930Y72390
X74930Y69850
X74930Y67310
X74930Y64770
X74930Y62230
X54610Y59690
X54610Y57150
X54610Y54610
X54610Y52070
X54610Y49530
X54610Y46990
X54610Y44450
X54610Y41910
X54610Y39370
X54610Y36830
X54610Y34290
X54610Y31750
X54610Y29210
T2
X12700Y62547
X8890Y74930
X8509Y63500
X8382Y69914
X71755Y7937
X40958Y6667
X40958Y15557
X32575Y15240
X30543Y13208
X69215Y50800
X61277Y50800
X61277Y46037
X70168Y53657
X33338Y53340
X33020Y70803
X20003Y23177
X20130Y44386
X20130Y63690
X48895Y66993
X47942Y32702
X35243Y33020
X68263Y69533
X68263Y31432
X61277Y30480
X61277Y25717
X14605Y25082
X13652Y46672
X14922Y66993
X73978Y28257
X56515Y27940
X52070Y6667
X45085Y6350
X36195Y5080
X15557Y35433
X15557Y54927
X70803Y64452
X65723Y13335
X48895Y13652
X45085Y77470
X40005Y78740
X36513Y78423
X73660Y46355
X56515Y47625
X36513Y75883
X25019Y76200
X40323Y58420
X28892Y13335
X32702Y31432
X31115Y53340
X55880Y66231
X31115Y65723
X46990Y54483
X46990Y13652
X14605Y53340
X14605Y34290
X53657Y63182
X40958Y63436
X40958Y43498
X52705Y31750
X51117Y30162
X49847Y12382
X40005Y10160
X36195Y7937
X33655Y6350
X33655Y26352
X47942Y47307
X40323Y16828
X40958Y36513
X40323Y56197
X46037Y44132
X46037Y50482
X40005Y51752
X35560Y57467
X34608Y60007
X40323Y19368
X40323Y38418
X40323Y40640
X34544Y39688
X56324Y32258
X45402Y13652
X45402Y34608
X50800Y36513
X50800Y34608
X45402Y54483
X66675Y22860
X67310Y42863
X67945Y63500
X51752Y63817
X52070Y26670
X56197Y17336
X60642Y36830
X60642Y56832
X61277Y60007
X56324Y18860
X65723Y38100
X65723Y17463
X65723Y58420
X20638Y42228
X33338Y42228
X32067Y58737
X66358Y42228
X65405Y72390
X32957Y73660
X30162Y44767
X28575Y49530
X25082Y58928
X61277Y44132
X61277Y37783
X31750Y38100
X29400Y56769
X31750Y20320
X29527Y22860
X28575Y29210
X61277Y23812
X47942Y23812
X30734Y24320
X30416Y35370
X50800Y32702
X49847Y37148
X60960Y2540
X8001Y2540
X15557Y11112
X72708Y14287
X72708Y33338
X74613Y54610
X66993Y54610
X73660Y63500
X72708Y48577
X76835Y26035
X75565Y36513
X35878Y44132
M30