M48
;GenerationSoftware,Autodesk,EAGLE,9.6.1*%
;CreationDate,2024-11-07T15:04:51Z*%
FMAT,2
ICI,OFF
METRIC,TZ,000.000
T2C0.300
T1C1.016
%
G90
M71
T1
X22860Y41910
X38100Y41910
X38100Y44450
X38100Y46990
X38100Y49530
X38100Y52070
X38100Y54610
X38100Y57150
X38100Y59690
X43180Y59690
X43180Y57150
X43180Y54610
X43180Y52070
X43180Y49530
X43180Y46990
X43180Y44450
X43180Y41910
X58420Y41910
X58420Y44450
X58420Y46990
X58420Y49530
X58420Y52070
X58420Y54610
X58420Y57150
X58420Y59690
X63500Y59690
X63500Y57150
X63500Y54610
X63500Y52070
X63500Y49530
X63500Y46990
X63500Y44450
X63500Y41910
X78740Y41910
X78740Y44450
X78740Y46990
X78740Y49530
X78740Y52070
X78740Y54610
X78740Y57150
X78740Y59690
X2540Y39370
X2540Y36830
X2540Y34290
X2540Y31750
X2540Y29210
X2540Y26670
X2540Y24130
X2540Y21590
X17780Y21590
X17780Y24130
X17780Y26670
X17780Y29210
X17780Y31750
X17780Y34290
X17780Y36830
X17780Y39370
X22860Y39370
X22860Y36830
X22860Y34290
X22860Y31750
X17780Y69850
X22860Y29210
X22860Y26670
X22860Y24130
X22860Y21590
X38100Y21590
X38100Y24130
X38100Y26670
X38100Y29210
X38100Y31750
X38100Y34290
X38100Y36830
X38100Y39370
X43180Y39370
X43180Y36830
X43180Y34290
X43180Y31750
X43180Y29210
X43180Y26670
X43180Y24130
X43180Y21590
X58420Y21590
X58420Y24130
X58420Y26670
X58420Y29210
X58420Y31750
X58420Y34290
X58420Y36830
X58420Y39370
X63500Y39370
X63500Y36830
X63500Y34290
X63500Y31750
X63500Y29210
X63500Y26670
X63500Y24130
X63500Y21590
X78740Y21590
X78740Y24130
X78740Y26670
X78740Y29210
X78740Y31750
X78740Y34290
X78740Y36830
X78740Y39370
X2540Y19050
X2540Y16510
X2540Y11430
X2540Y8890
X2540Y6350
X2540Y3810
X2540Y1270
X17780Y1270
X17780Y3810
X17780Y6350
X17780Y8890
X17780Y11430
X17780Y13970
X17780Y16510
X17780Y19050
X22860Y19050
X22860Y16510
X22860Y13970
X22860Y11430
X22860Y8890
X22860Y6350
X22860Y3810
X22860Y1270
X38100Y1270
X38100Y3810
X38100Y6350
X38100Y8890
X38100Y11430
X38100Y13970
X38100Y16510
X38100Y19050
X43180Y19050
X43180Y16510
X43180Y13970
X43180Y11430
X43180Y8890
X43180Y6350
X43180Y3810
X43180Y1270
X58420Y1270
X58420Y3810
X58420Y6350
X58420Y8890
X58420Y11430
X58420Y13970
X58420Y16510
X58420Y19050
X63500Y19050
X63500Y16510
X63500Y13970
X63500Y11430
X63500Y8890
X63500Y6350
X63500Y3810
X63500Y1270
X78740Y1270
X78740Y3810
X78740Y6350
X78740Y8890
X78740Y11430
X78740Y13970
X78740Y16510
X78740Y19050
X6350Y80010
X6350Y77470
X6350Y74930
X6350Y72390
X6350Y69850
X6350Y67310
X6350Y64770
X6350Y62230
X26670Y59690
X26670Y57150
X26670Y54610
X26670Y52070
X26670Y49530
X26670Y46990
X26670Y44450
X26670Y41910
X26670Y39370
X26670Y36830
X26670Y34290
X26670Y31750
X26670Y29210
X26670Y26670
X26670Y24130
X26670Y21590
X74930Y80010
X74930Y77470
X74930Y74930
X74930Y72390
X74930Y69850
X74930Y67310
X74930Y64770
X74930Y62230
X54610Y59690
X54610Y57150
X54610Y54610
X54610Y52070
X54610Y49530
X54610Y46990
X54610Y44450
X54610Y41910
X54610Y39370
X54610Y36830
X54610Y34290
X54610Y31750
X54610Y29210
X54610Y26670
X54610Y24130
X54610Y21590
X74930Y19050
X74930Y16510
X74930Y13970
X74930Y11430
X74930Y8890
X74930Y6350
X74930Y3810
X74930Y1270
X6350Y19050
X6350Y16510
X6350Y13970
X6350Y11430
X6350Y8890
X6350Y6350
X6350Y3810
X6350Y1270
X2540Y80010
X2540Y77470
X2540Y74930
X2540Y72390
X2540Y69850
X2540Y67310
X2540Y64770
X2540Y62230
X17780Y62230
X17780Y64770
X17780Y67310
X2540Y13970
X17780Y72390
X17780Y74930
X17780Y77470
X17780Y80010
X22860Y80010
X22860Y77470
X22860Y74930
X22860Y72390
X22860Y69850
X22860Y67310
X22860Y64770
X22860Y62230
X38100Y62230
X38100Y64770
X38100Y67310
X38100Y69850
X38100Y72390
X38100Y74930
X38100Y77470
X38100Y80010
X43180Y80010
X43180Y77470
X43180Y74930
X43180Y72390
X43180Y69850
X43180Y67310
X43180Y64770
X43180Y62230
X58420Y62230
X58420Y64770
X58420Y67310
X58420Y69850
X58420Y72390
X58420Y74930
X58420Y77470
X58420Y80010
X63500Y80010
X63500Y77470
X63500Y74930
X63500Y72390
X63500Y69850
X63500Y67310
X63500Y64770
X63500Y62230
X78740Y62230
X78740Y64770
X78740Y67310
X78740Y69850
X78740Y72390
X78740Y74930
X78740Y77470
X78740Y80010
X2540Y59690
X2540Y57150
X2540Y54610
X2540Y52070
X2540Y49530
X2540Y46990
X2540Y44450
X2540Y41910
X17780Y41910
X17780Y44450
X17780Y46990
X17780Y49530
X17780Y52070
X17780Y54610
X17780Y57150
X17780Y59690
X22860Y59690
X22860Y57150
X22860Y54610
X22860Y52070
X22860Y49530
X22860Y46990
X22860Y44450
T2
X13525Y73597
X15970Y72358
X12128Y64929
X65881Y11557
X29051Y7620
X23971Y2540
X5080Y25876
X5080Y35084
X5080Y57182
X69215Y32226
X40640Y27940
X40640Y21876
X65500Y3810
X49371Y3810
X48673Y66072
X45085Y66040
X41593Y68580
X26035Y68485
X21273Y64135
X76200Y57626
X60484Y57626
X60484Y62547
X45085Y63976
X41593Y64135
X73184Y64929
X60960Y61436
X61277Y19526
X33020Y17780
X25400Y10160
X69691Y67151
X69215Y52229
X40640Y48260
X40164Y42228
X29210Y39688
X28257Y33655
X19844Y14446
X19844Y33877
X19939Y53499
X72708Y69374
X62389Y71120
X60484Y73184
X44767Y73660
X28734Y71120
X19209Y70961
X74454Y38576
X34449Y38100
X30797Y42228
X24924Y9049
X25400Y27781
X30004Y48260
X53816Y62547
X36036Y60960
X28734Y69787
X20796Y16828
X20796Y36354
X20796Y55404
X19685Y77883
X48292Y56991
X46990Y30956
X35084Y28257
X28416Y16986
X46831Y22987
X15716Y17780
X15494Y35878
X20796Y60007
X48419Y70961
X41593Y71120
X40640Y73184
X25463Y73660
X15716Y56832
X47149Y46577
X48292Y2413
X36036Y14446
X35306Y34290
X51276Y44926
X51276Y55912
X40164Y55880
X40164Y54292
X36036Y54578
X45244Y9366
X46037Y28734
X52864Y49054
X41116Y49435
X40640Y29210
X45244Y57626
X41116Y16986
X41116Y36354
X45402Y36830
X45402Y33496
X46672Y60166
X40640Y19526
X40640Y39338
X52864Y39338
X48895Y39370
X45244Y26257
X45244Y21622
X56356Y33814
X56356Y54134
X54769Y3016
X52229Y61754
X25400Y55721
X50482Y52229
X50165Y68104
X45085Y68263
X40164Y52546
X67278Y52038
X65564Y18256
X61436Y17780
X50482Y50863
X24924Y52229
X57150Y68421
X46831Y69056
X70517Y44799
X70485Y74454
X65087Y76200
X25400Y45879
X60484Y46196
X60484Y44609
X48419Y44926
X48450Y47371
X35084Y48736
X34989Y53340
X60484Y53340
X60484Y47307
X32226Y57150
X34131Y57944
X14859Y32639
X14446Y35338
X20796Y40958
X20796Y38100
X27940Y35401
X67151Y34481
X67151Y46514
X29051Y41116
X24924Y32226
X24606Y25400
X28416Y25400
X60484Y24924
X60484Y21907
X47625Y21495
X47625Y26987
X60484Y26606
X60484Y40640
X34290Y30004
X35084Y32544
X60325Y33020
X36036Y23336
X36036Y36830
X65659Y35497
X65627Y24130
X53022Y22860
X50959Y35084
X29210Y38100
X13335Y12065
X18891Y7620
X15716Y16034
X61436Y49530
X65881Y10192
X70263Y17431
X69215Y24924
X61436Y28575
X65564Y57626
X74136Y36830
X65691Y36830
X66040Y60166
X73343Y18256
X73343Y39211
X66358Y39211
X46196Y54197
M30