G04 EAGLE Gerber RS-274X export*
G75*
%MOMM*%
%FSLAX34Y34*%
%LPD*%
%INSilkscreen Top*%
%IPPOS*%
%AMOC8*
5,1,8,0,0,1.08239X$1,22.5*%
G01*
%ADD10C,0.101600*%
%ADD11C,0.152400*%
%ADD12C,0.203200*%
%ADD13C,0.127000*%


D10*
X51308Y216408D02*
X62992Y216408D01*
X62992Y221601D01*
X62992Y226314D02*
X62992Y231507D01*
X62992Y226314D02*
X51308Y226314D01*
X51308Y231507D01*
X56501Y230209D02*
X56501Y226314D01*
X51308Y236197D02*
X62992Y236197D01*
X51308Y236197D02*
X51308Y239443D01*
X51310Y239556D01*
X51316Y239669D01*
X51326Y239782D01*
X51340Y239895D01*
X51357Y240007D01*
X51379Y240118D01*
X51404Y240228D01*
X51434Y240338D01*
X51467Y240446D01*
X51504Y240553D01*
X51544Y240659D01*
X51589Y240763D01*
X51637Y240866D01*
X51688Y240967D01*
X51743Y241066D01*
X51801Y241163D01*
X51863Y241258D01*
X51928Y241351D01*
X51996Y241441D01*
X52067Y241529D01*
X52142Y241615D01*
X52219Y241698D01*
X52299Y241778D01*
X52382Y241855D01*
X52468Y241930D01*
X52556Y242001D01*
X52646Y242069D01*
X52739Y242134D01*
X52834Y242196D01*
X52931Y242254D01*
X53030Y242309D01*
X53131Y242360D01*
X53234Y242408D01*
X53338Y242453D01*
X53444Y242493D01*
X53551Y242530D01*
X53659Y242563D01*
X53769Y242593D01*
X53879Y242618D01*
X53990Y242640D01*
X54102Y242657D01*
X54215Y242671D01*
X54328Y242681D01*
X54441Y242687D01*
X54554Y242689D01*
X59746Y242689D01*
X59859Y242687D01*
X59972Y242681D01*
X60085Y242671D01*
X60198Y242657D01*
X60310Y242640D01*
X60421Y242618D01*
X60531Y242593D01*
X60641Y242563D01*
X60749Y242530D01*
X60856Y242493D01*
X60962Y242453D01*
X61066Y242408D01*
X61169Y242360D01*
X61270Y242309D01*
X61369Y242254D01*
X61466Y242196D01*
X61561Y242134D01*
X61654Y242069D01*
X61744Y242001D01*
X61832Y241930D01*
X61918Y241855D01*
X62001Y241778D01*
X62081Y241698D01*
X62158Y241615D01*
X62233Y241529D01*
X62304Y241441D01*
X62372Y241351D01*
X62437Y241258D01*
X62499Y241163D01*
X62557Y241066D01*
X62612Y240967D01*
X62663Y240866D01*
X62711Y240763D01*
X62756Y240659D01*
X62796Y240553D01*
X62833Y240446D01*
X62866Y240338D01*
X62896Y240228D01*
X62921Y240118D01*
X62943Y240007D01*
X62960Y239895D01*
X62974Y239782D01*
X62984Y239669D01*
X62990Y239556D01*
X62992Y239443D01*
X62992Y236197D01*
X62992Y254104D02*
X62992Y257350D01*
X62990Y257463D01*
X62984Y257576D01*
X62974Y257689D01*
X62960Y257802D01*
X62943Y257914D01*
X62921Y258025D01*
X62896Y258135D01*
X62866Y258245D01*
X62833Y258353D01*
X62796Y258460D01*
X62756Y258566D01*
X62711Y258670D01*
X62663Y258773D01*
X62612Y258874D01*
X62557Y258973D01*
X62499Y259070D01*
X62437Y259165D01*
X62372Y259258D01*
X62304Y259348D01*
X62233Y259436D01*
X62158Y259522D01*
X62081Y259605D01*
X62001Y259685D01*
X61918Y259762D01*
X61832Y259837D01*
X61744Y259908D01*
X61654Y259976D01*
X61561Y260041D01*
X61466Y260103D01*
X61369Y260161D01*
X61270Y260216D01*
X61169Y260267D01*
X61066Y260315D01*
X60962Y260360D01*
X60856Y260400D01*
X60749Y260437D01*
X60641Y260470D01*
X60531Y260500D01*
X60421Y260525D01*
X60310Y260547D01*
X60198Y260564D01*
X60085Y260578D01*
X59972Y260588D01*
X59859Y260594D01*
X59746Y260596D01*
X59633Y260594D01*
X59520Y260588D01*
X59407Y260578D01*
X59294Y260564D01*
X59182Y260547D01*
X59071Y260525D01*
X58961Y260500D01*
X58851Y260470D01*
X58743Y260437D01*
X58636Y260400D01*
X58530Y260360D01*
X58426Y260315D01*
X58323Y260267D01*
X58222Y260216D01*
X58123Y260161D01*
X58026Y260103D01*
X57931Y260041D01*
X57838Y259976D01*
X57748Y259908D01*
X57660Y259837D01*
X57574Y259762D01*
X57491Y259685D01*
X57411Y259605D01*
X57334Y259522D01*
X57259Y259436D01*
X57188Y259348D01*
X57120Y259258D01*
X57055Y259165D01*
X56993Y259070D01*
X56935Y258973D01*
X56880Y258874D01*
X56829Y258773D01*
X56781Y258670D01*
X56736Y258566D01*
X56696Y258460D01*
X56659Y258353D01*
X56626Y258245D01*
X56596Y258135D01*
X56571Y258025D01*
X56549Y257914D01*
X56532Y257802D01*
X56518Y257689D01*
X56508Y257576D01*
X56502Y257463D01*
X56500Y257350D01*
X51308Y257999D02*
X51308Y254104D01*
X51308Y257999D02*
X51310Y258100D01*
X51316Y258200D01*
X51326Y258300D01*
X51339Y258400D01*
X51357Y258499D01*
X51378Y258598D01*
X51403Y258695D01*
X51432Y258792D01*
X51465Y258887D01*
X51501Y258981D01*
X51541Y259073D01*
X51584Y259164D01*
X51631Y259253D01*
X51681Y259340D01*
X51735Y259426D01*
X51792Y259509D01*
X51852Y259589D01*
X51915Y259668D01*
X51982Y259744D01*
X52051Y259817D01*
X52123Y259887D01*
X52197Y259955D01*
X52274Y260020D01*
X52354Y260081D01*
X52436Y260140D01*
X52520Y260195D01*
X52606Y260247D01*
X52694Y260296D01*
X52784Y260341D01*
X52876Y260383D01*
X52969Y260421D01*
X53064Y260455D01*
X53159Y260486D01*
X53256Y260513D01*
X53354Y260536D01*
X53453Y260556D01*
X53553Y260571D01*
X53653Y260583D01*
X53753Y260591D01*
X53854Y260595D01*
X53954Y260595D01*
X54055Y260591D01*
X54155Y260583D01*
X54255Y260571D01*
X54355Y260556D01*
X54454Y260536D01*
X54552Y260513D01*
X54649Y260486D01*
X54744Y260455D01*
X54839Y260421D01*
X54932Y260383D01*
X55024Y260341D01*
X55114Y260296D01*
X55202Y260247D01*
X55288Y260195D01*
X55372Y260140D01*
X55454Y260081D01*
X55534Y260020D01*
X55611Y259955D01*
X55685Y259887D01*
X55757Y259817D01*
X55826Y259744D01*
X55893Y259668D01*
X55956Y259589D01*
X56016Y259509D01*
X56073Y259426D01*
X56127Y259340D01*
X56177Y259253D01*
X56224Y259164D01*
X56267Y259073D01*
X56307Y258981D01*
X56343Y258887D01*
X56376Y258792D01*
X56405Y258695D01*
X56430Y258598D01*
X56451Y258499D01*
X56469Y258400D01*
X56482Y258300D01*
X56492Y258200D01*
X56498Y258100D01*
X56500Y257999D01*
X56501Y257999D02*
X56501Y255403D01*
X51308Y269104D02*
X51310Y269211D01*
X51316Y269317D01*
X51326Y269423D01*
X51339Y269529D01*
X51357Y269635D01*
X51378Y269739D01*
X51403Y269843D01*
X51432Y269946D01*
X51464Y270047D01*
X51501Y270147D01*
X51541Y270246D01*
X51584Y270344D01*
X51631Y270440D01*
X51682Y270534D01*
X51736Y270626D01*
X51793Y270716D01*
X51853Y270804D01*
X51917Y270889D01*
X51984Y270972D01*
X52054Y271053D01*
X52126Y271131D01*
X52202Y271207D01*
X52280Y271279D01*
X52361Y271349D01*
X52444Y271416D01*
X52529Y271480D01*
X52617Y271540D01*
X52707Y271597D01*
X52799Y271651D01*
X52893Y271702D01*
X52989Y271749D01*
X53087Y271792D01*
X53186Y271832D01*
X53286Y271869D01*
X53387Y271901D01*
X53490Y271930D01*
X53594Y271955D01*
X53698Y271976D01*
X53804Y271994D01*
X53910Y272007D01*
X54016Y272017D01*
X54122Y272023D01*
X54229Y272025D01*
X51308Y269104D02*
X51310Y268983D01*
X51316Y268862D01*
X51326Y268742D01*
X51339Y268621D01*
X51357Y268502D01*
X51378Y268382D01*
X51403Y268264D01*
X51432Y268147D01*
X51465Y268030D01*
X51501Y267915D01*
X51542Y267801D01*
X51585Y267688D01*
X51633Y267576D01*
X51684Y267467D01*
X51739Y267359D01*
X51797Y267252D01*
X51858Y267148D01*
X51923Y267046D01*
X51991Y266946D01*
X52062Y266848D01*
X52136Y266752D01*
X52213Y266659D01*
X52294Y266569D01*
X52377Y266481D01*
X52463Y266396D01*
X52552Y266313D01*
X52643Y266234D01*
X52737Y266157D01*
X52833Y266084D01*
X52931Y266014D01*
X53032Y265947D01*
X53135Y265883D01*
X53240Y265823D01*
X53347Y265765D01*
X53455Y265712D01*
X53565Y265662D01*
X53677Y265616D01*
X53790Y265573D01*
X53905Y265534D01*
X56501Y271051D02*
X56423Y271130D01*
X56343Y271206D01*
X56260Y271279D01*
X56174Y271349D01*
X56087Y271416D01*
X55996Y271480D01*
X55904Y271540D01*
X55810Y271598D01*
X55713Y271652D01*
X55615Y271702D01*
X55515Y271749D01*
X55414Y271793D01*
X55311Y271833D01*
X55206Y271869D01*
X55101Y271901D01*
X54994Y271930D01*
X54887Y271955D01*
X54778Y271977D01*
X54669Y271994D01*
X54560Y272008D01*
X54450Y272017D01*
X54339Y272023D01*
X54229Y272025D01*
X56501Y271052D02*
X62992Y265534D01*
X62992Y272025D01*
X62992Y276470D02*
X55203Y281663D01*
X55203Y276470D02*
X62992Y281663D01*
X62992Y286108D02*
X62992Y289354D01*
X62990Y289467D01*
X62984Y289580D01*
X62974Y289693D01*
X62960Y289806D01*
X62943Y289918D01*
X62921Y290029D01*
X62896Y290139D01*
X62866Y290249D01*
X62833Y290357D01*
X62796Y290464D01*
X62756Y290570D01*
X62711Y290674D01*
X62663Y290777D01*
X62612Y290878D01*
X62557Y290977D01*
X62499Y291074D01*
X62437Y291169D01*
X62372Y291262D01*
X62304Y291352D01*
X62233Y291440D01*
X62158Y291526D01*
X62081Y291609D01*
X62001Y291689D01*
X61918Y291766D01*
X61832Y291841D01*
X61744Y291912D01*
X61654Y291980D01*
X61561Y292045D01*
X61466Y292107D01*
X61369Y292165D01*
X61270Y292220D01*
X61169Y292271D01*
X61066Y292319D01*
X60962Y292364D01*
X60856Y292404D01*
X60749Y292441D01*
X60641Y292474D01*
X60531Y292504D01*
X60421Y292529D01*
X60310Y292551D01*
X60198Y292568D01*
X60085Y292582D01*
X59972Y292592D01*
X59859Y292598D01*
X59746Y292600D01*
X59633Y292598D01*
X59520Y292592D01*
X59407Y292582D01*
X59294Y292568D01*
X59182Y292551D01*
X59071Y292529D01*
X58961Y292504D01*
X58851Y292474D01*
X58743Y292441D01*
X58636Y292404D01*
X58530Y292364D01*
X58426Y292319D01*
X58323Y292271D01*
X58222Y292220D01*
X58123Y292165D01*
X58026Y292107D01*
X57931Y292045D01*
X57838Y291980D01*
X57748Y291912D01*
X57660Y291841D01*
X57574Y291766D01*
X57491Y291689D01*
X57411Y291609D01*
X57334Y291526D01*
X57259Y291440D01*
X57188Y291352D01*
X57120Y291262D01*
X57055Y291169D01*
X56993Y291074D01*
X56935Y290977D01*
X56880Y290878D01*
X56829Y290777D01*
X56781Y290674D01*
X56736Y290570D01*
X56696Y290464D01*
X56659Y290357D01*
X56626Y290249D01*
X56596Y290139D01*
X56571Y290029D01*
X56549Y289918D01*
X56532Y289806D01*
X56518Y289693D01*
X56508Y289580D01*
X56502Y289467D01*
X56500Y289354D01*
X51308Y290003D02*
X51308Y286108D01*
X51308Y290003D02*
X51310Y290104D01*
X51316Y290204D01*
X51326Y290304D01*
X51339Y290404D01*
X51357Y290503D01*
X51378Y290602D01*
X51403Y290699D01*
X51432Y290796D01*
X51465Y290891D01*
X51501Y290985D01*
X51541Y291077D01*
X51584Y291168D01*
X51631Y291257D01*
X51681Y291344D01*
X51735Y291430D01*
X51792Y291513D01*
X51852Y291593D01*
X51915Y291672D01*
X51982Y291748D01*
X52051Y291821D01*
X52123Y291891D01*
X52197Y291959D01*
X52274Y292024D01*
X52354Y292085D01*
X52436Y292144D01*
X52520Y292199D01*
X52606Y292251D01*
X52694Y292300D01*
X52784Y292345D01*
X52876Y292387D01*
X52969Y292425D01*
X53064Y292459D01*
X53159Y292490D01*
X53256Y292517D01*
X53354Y292540D01*
X53453Y292560D01*
X53553Y292575D01*
X53653Y292587D01*
X53753Y292595D01*
X53854Y292599D01*
X53954Y292599D01*
X54055Y292595D01*
X54155Y292587D01*
X54255Y292575D01*
X54355Y292560D01*
X54454Y292540D01*
X54552Y292517D01*
X54649Y292490D01*
X54744Y292459D01*
X54839Y292425D01*
X54932Y292387D01*
X55024Y292345D01*
X55114Y292300D01*
X55202Y292251D01*
X55288Y292199D01*
X55372Y292144D01*
X55454Y292085D01*
X55534Y292024D01*
X55611Y291959D01*
X55685Y291891D01*
X55757Y291821D01*
X55826Y291748D01*
X55893Y291672D01*
X55956Y291593D01*
X56016Y291513D01*
X56073Y291430D01*
X56127Y291344D01*
X56177Y291257D01*
X56224Y291168D01*
X56267Y291077D01*
X56307Y290985D01*
X56343Y290891D01*
X56376Y290796D01*
X56405Y290699D01*
X56430Y290602D01*
X56451Y290503D01*
X56469Y290404D01*
X56482Y290304D01*
X56492Y290204D01*
X56498Y290104D01*
X56500Y290003D01*
X56501Y290003D02*
X56501Y287407D01*
X51308Y301108D02*
X51310Y301215D01*
X51316Y301321D01*
X51326Y301427D01*
X51339Y301533D01*
X51357Y301639D01*
X51378Y301743D01*
X51403Y301847D01*
X51432Y301950D01*
X51464Y302051D01*
X51501Y302151D01*
X51541Y302250D01*
X51584Y302348D01*
X51631Y302444D01*
X51682Y302538D01*
X51736Y302630D01*
X51793Y302720D01*
X51853Y302808D01*
X51917Y302893D01*
X51984Y302976D01*
X52054Y303057D01*
X52126Y303135D01*
X52202Y303211D01*
X52280Y303283D01*
X52361Y303353D01*
X52444Y303420D01*
X52529Y303484D01*
X52617Y303544D01*
X52707Y303601D01*
X52799Y303655D01*
X52893Y303706D01*
X52989Y303753D01*
X53087Y303796D01*
X53186Y303836D01*
X53286Y303873D01*
X53387Y303905D01*
X53490Y303934D01*
X53594Y303959D01*
X53698Y303980D01*
X53804Y303998D01*
X53910Y304011D01*
X54016Y304021D01*
X54122Y304027D01*
X54229Y304029D01*
X51308Y301108D02*
X51310Y300987D01*
X51316Y300866D01*
X51326Y300746D01*
X51339Y300625D01*
X51357Y300506D01*
X51378Y300386D01*
X51403Y300268D01*
X51432Y300151D01*
X51465Y300034D01*
X51501Y299919D01*
X51542Y299805D01*
X51585Y299692D01*
X51633Y299580D01*
X51684Y299471D01*
X51739Y299363D01*
X51797Y299256D01*
X51858Y299152D01*
X51923Y299050D01*
X51991Y298950D01*
X52062Y298852D01*
X52136Y298756D01*
X52213Y298663D01*
X52294Y298573D01*
X52377Y298485D01*
X52463Y298400D01*
X52552Y298317D01*
X52643Y298238D01*
X52737Y298161D01*
X52833Y298088D01*
X52931Y298018D01*
X53032Y297951D01*
X53135Y297887D01*
X53240Y297827D01*
X53347Y297769D01*
X53455Y297716D01*
X53565Y297666D01*
X53677Y297620D01*
X53790Y297577D01*
X53905Y297538D01*
X56501Y303055D02*
X56423Y303134D01*
X56343Y303210D01*
X56260Y303283D01*
X56174Y303353D01*
X56087Y303420D01*
X55996Y303484D01*
X55904Y303544D01*
X55810Y303602D01*
X55713Y303656D01*
X55615Y303706D01*
X55515Y303753D01*
X55414Y303797D01*
X55311Y303837D01*
X55206Y303873D01*
X55101Y303905D01*
X54994Y303934D01*
X54887Y303959D01*
X54778Y303981D01*
X54669Y303998D01*
X54560Y304012D01*
X54450Y304021D01*
X54339Y304027D01*
X54229Y304029D01*
X56501Y303056D02*
X62992Y297538D01*
X62992Y304029D01*
X62992Y315558D02*
X51308Y315558D01*
X57799Y319453D01*
X51308Y323347D01*
X62992Y323347D01*
X58448Y330880D02*
X58448Y333801D01*
X58448Y330880D02*
X58450Y330786D01*
X58456Y330692D01*
X58465Y330599D01*
X58479Y330506D01*
X58496Y330414D01*
X58518Y330322D01*
X58542Y330232D01*
X58571Y330142D01*
X58603Y330054D01*
X58639Y329967D01*
X58679Y329882D01*
X58722Y329799D01*
X58768Y329717D01*
X58818Y329637D01*
X58871Y329560D01*
X58927Y329485D01*
X58986Y329412D01*
X59048Y329341D01*
X59113Y329273D01*
X59181Y329208D01*
X59252Y329146D01*
X59325Y329087D01*
X59400Y329031D01*
X59477Y328978D01*
X59557Y328928D01*
X59639Y328882D01*
X59722Y328839D01*
X59807Y328799D01*
X59894Y328763D01*
X59982Y328731D01*
X60072Y328702D01*
X60162Y328678D01*
X60254Y328656D01*
X60346Y328639D01*
X60439Y328625D01*
X60532Y328616D01*
X60626Y328610D01*
X60720Y328608D01*
X60814Y328610D01*
X60908Y328616D01*
X61001Y328625D01*
X61094Y328639D01*
X61186Y328656D01*
X61278Y328678D01*
X61368Y328702D01*
X61458Y328731D01*
X61546Y328763D01*
X61633Y328799D01*
X61718Y328839D01*
X61801Y328882D01*
X61883Y328928D01*
X61963Y328978D01*
X62040Y329031D01*
X62115Y329087D01*
X62188Y329146D01*
X62259Y329208D01*
X62327Y329273D01*
X62392Y329341D01*
X62454Y329412D01*
X62513Y329485D01*
X62569Y329560D01*
X62622Y329637D01*
X62672Y329717D01*
X62718Y329799D01*
X62761Y329882D01*
X62801Y329967D01*
X62837Y330054D01*
X62869Y330142D01*
X62898Y330232D01*
X62922Y330322D01*
X62944Y330414D01*
X62961Y330506D01*
X62975Y330599D01*
X62984Y330692D01*
X62990Y330786D01*
X62992Y330880D01*
X62992Y333801D01*
X57150Y333801D01*
X57063Y333799D01*
X56975Y333793D01*
X56889Y333783D01*
X56802Y333770D01*
X56717Y333752D01*
X56632Y333731D01*
X56548Y333706D01*
X56466Y333677D01*
X56385Y333644D01*
X56305Y333608D01*
X56227Y333569D01*
X56151Y333525D01*
X56077Y333479D01*
X56006Y333429D01*
X55936Y333376D01*
X55869Y333320D01*
X55805Y333261D01*
X55743Y333199D01*
X55684Y333135D01*
X55628Y333068D01*
X55575Y332998D01*
X55525Y332927D01*
X55479Y332853D01*
X55435Y332777D01*
X55396Y332699D01*
X55360Y332619D01*
X55327Y332538D01*
X55298Y332456D01*
X55273Y332372D01*
X55252Y332287D01*
X55234Y332202D01*
X55221Y332115D01*
X55211Y332029D01*
X55205Y331941D01*
X55203Y331854D01*
X55203Y329258D01*
X55203Y337987D02*
X55203Y341882D01*
X51308Y339285D02*
X61045Y339285D01*
X61045Y339286D02*
X61132Y339288D01*
X61220Y339294D01*
X61306Y339304D01*
X61393Y339317D01*
X61478Y339335D01*
X61563Y339356D01*
X61647Y339381D01*
X61729Y339410D01*
X61810Y339443D01*
X61890Y339479D01*
X61968Y339518D01*
X62044Y339562D01*
X62118Y339608D01*
X62189Y339658D01*
X62259Y339711D01*
X62326Y339767D01*
X62390Y339826D01*
X62452Y339888D01*
X62511Y339952D01*
X62567Y340019D01*
X62620Y340089D01*
X62670Y340160D01*
X62716Y340234D01*
X62760Y340310D01*
X62799Y340388D01*
X62835Y340468D01*
X62868Y340549D01*
X62897Y340631D01*
X62922Y340715D01*
X62943Y340800D01*
X62961Y340885D01*
X62974Y340972D01*
X62984Y341058D01*
X62990Y341146D01*
X62992Y341233D01*
X62992Y341882D01*
X62992Y346641D02*
X55203Y346641D01*
X55203Y350535D01*
X56501Y350535D01*
X55203Y354124D02*
X62992Y354124D01*
X51957Y353799D02*
X51308Y353799D01*
X51308Y354448D01*
X51957Y354448D01*
X51957Y353799D01*
X55203Y363578D02*
X62992Y358385D01*
X62992Y363578D02*
X55203Y358385D01*
X70358Y216408D02*
X82042Y216408D01*
X70358Y216408D02*
X70358Y219654D01*
X70360Y219767D01*
X70366Y219880D01*
X70376Y219993D01*
X70390Y220106D01*
X70407Y220218D01*
X70429Y220329D01*
X70454Y220439D01*
X70484Y220549D01*
X70517Y220657D01*
X70554Y220764D01*
X70594Y220870D01*
X70639Y220974D01*
X70687Y221077D01*
X70738Y221178D01*
X70793Y221277D01*
X70851Y221374D01*
X70913Y221469D01*
X70978Y221562D01*
X71046Y221652D01*
X71117Y221740D01*
X71192Y221826D01*
X71269Y221909D01*
X71349Y221989D01*
X71432Y222066D01*
X71518Y222141D01*
X71606Y222212D01*
X71696Y222280D01*
X71789Y222345D01*
X71884Y222407D01*
X71981Y222465D01*
X72080Y222520D01*
X72181Y222571D01*
X72284Y222619D01*
X72388Y222664D01*
X72494Y222704D01*
X72601Y222741D01*
X72709Y222774D01*
X72819Y222804D01*
X72929Y222829D01*
X73040Y222851D01*
X73152Y222868D01*
X73265Y222882D01*
X73378Y222892D01*
X73491Y222898D01*
X73604Y222900D01*
X73604Y222899D02*
X78796Y222899D01*
X78796Y222900D02*
X78909Y222898D01*
X79022Y222892D01*
X79135Y222882D01*
X79248Y222868D01*
X79360Y222851D01*
X79471Y222829D01*
X79581Y222804D01*
X79691Y222774D01*
X79799Y222741D01*
X79906Y222704D01*
X80012Y222664D01*
X80116Y222619D01*
X80219Y222571D01*
X80320Y222520D01*
X80419Y222465D01*
X80516Y222407D01*
X80611Y222345D01*
X80704Y222280D01*
X80794Y222212D01*
X80882Y222141D01*
X80968Y222066D01*
X81051Y221989D01*
X81131Y221909D01*
X81208Y221826D01*
X81283Y221740D01*
X81354Y221652D01*
X81422Y221562D01*
X81487Y221469D01*
X81549Y221374D01*
X81607Y221277D01*
X81662Y221178D01*
X81713Y221077D01*
X81761Y220974D01*
X81806Y220870D01*
X81846Y220764D01*
X81883Y220657D01*
X81916Y220549D01*
X81946Y220439D01*
X81971Y220329D01*
X81993Y220218D01*
X82010Y220106D01*
X82024Y219993D01*
X82034Y219880D01*
X82040Y219767D01*
X82042Y219654D01*
X82042Y216408D01*
X82042Y228036D02*
X74253Y228036D01*
X71007Y227711D02*
X70358Y227711D01*
X70358Y228360D01*
X71007Y228360D01*
X71007Y227711D01*
X77498Y233652D02*
X78796Y236897D01*
X77499Y233652D02*
X77466Y233577D01*
X77430Y233503D01*
X77391Y233431D01*
X77348Y233361D01*
X77302Y233294D01*
X77252Y233228D01*
X77200Y233166D01*
X77144Y233105D01*
X77086Y233048D01*
X77025Y232993D01*
X76961Y232942D01*
X76895Y232894D01*
X76826Y232849D01*
X76756Y232807D01*
X76683Y232769D01*
X76609Y232734D01*
X76533Y232703D01*
X76456Y232676D01*
X76377Y232653D01*
X76298Y232633D01*
X76217Y232618D01*
X76136Y232606D01*
X76054Y232598D01*
X75973Y232594D01*
X75891Y232595D01*
X75809Y232599D01*
X75727Y232607D01*
X75646Y232619D01*
X75566Y232635D01*
X75486Y232655D01*
X75408Y232679D01*
X75331Y232707D01*
X75255Y232738D01*
X75181Y232773D01*
X75109Y232811D01*
X75038Y232853D01*
X74970Y232899D01*
X74904Y232947D01*
X74841Y232999D01*
X74780Y233054D01*
X74722Y233112D01*
X74666Y233172D01*
X74614Y233235D01*
X74565Y233301D01*
X74519Y233369D01*
X74477Y233439D01*
X74437Y233511D01*
X74402Y233585D01*
X74370Y233660D01*
X74342Y233737D01*
X74318Y233815D01*
X74297Y233895D01*
X74280Y233975D01*
X74268Y234056D01*
X74259Y234137D01*
X74254Y234219D01*
X74253Y234301D01*
X74257Y234478D01*
X74266Y234655D01*
X74280Y234832D01*
X74297Y235009D01*
X74319Y235184D01*
X74344Y235360D01*
X74375Y235534D01*
X74409Y235708D01*
X74447Y235881D01*
X74490Y236053D01*
X74537Y236224D01*
X74587Y236394D01*
X74642Y236563D01*
X74701Y236730D01*
X74764Y236896D01*
X74831Y237060D01*
X74902Y237222D01*
X78796Y236897D02*
X78829Y236972D01*
X78865Y237046D01*
X78904Y237118D01*
X78947Y237188D01*
X78993Y237255D01*
X79043Y237321D01*
X79095Y237383D01*
X79151Y237444D01*
X79209Y237501D01*
X79270Y237556D01*
X79334Y237607D01*
X79400Y237655D01*
X79469Y237700D01*
X79539Y237742D01*
X79612Y237780D01*
X79686Y237815D01*
X79762Y237846D01*
X79839Y237873D01*
X79918Y237896D01*
X79998Y237916D01*
X80078Y237931D01*
X80159Y237943D01*
X80241Y237951D01*
X80322Y237955D01*
X80404Y237954D01*
X80486Y237950D01*
X80568Y237942D01*
X80649Y237930D01*
X80729Y237914D01*
X80809Y237894D01*
X80887Y237870D01*
X80964Y237842D01*
X81040Y237811D01*
X81114Y237776D01*
X81186Y237738D01*
X81257Y237696D01*
X81325Y237650D01*
X81391Y237602D01*
X81454Y237550D01*
X81515Y237495D01*
X81573Y237437D01*
X81629Y237377D01*
X81681Y237314D01*
X81730Y237248D01*
X81776Y237180D01*
X81818Y237110D01*
X81858Y237038D01*
X81893Y236964D01*
X81925Y236889D01*
X81953Y236812D01*
X81977Y236734D01*
X81998Y236654D01*
X82015Y236574D01*
X82027Y236493D01*
X82036Y236412D01*
X82041Y236330D01*
X82042Y236248D01*
X82035Y235988D01*
X82022Y235728D01*
X82003Y235468D01*
X81978Y235209D01*
X81946Y234950D01*
X81909Y234693D01*
X81865Y234436D01*
X81816Y234180D01*
X81760Y233926D01*
X81699Y233673D01*
X81631Y233422D01*
X81557Y233172D01*
X81478Y232924D01*
X81393Y232678D01*
X85937Y243024D02*
X74253Y243024D01*
X74253Y246269D01*
X74255Y246356D01*
X74261Y246444D01*
X74271Y246530D01*
X74284Y246617D01*
X74302Y246702D01*
X74323Y246787D01*
X74348Y246871D01*
X74377Y246953D01*
X74410Y247034D01*
X74446Y247114D01*
X74485Y247192D01*
X74529Y247268D01*
X74575Y247342D01*
X74625Y247413D01*
X74678Y247483D01*
X74734Y247550D01*
X74793Y247614D01*
X74854Y247676D01*
X74919Y247735D01*
X74986Y247791D01*
X75056Y247844D01*
X75127Y247894D01*
X75201Y247940D01*
X75277Y247984D01*
X75355Y248023D01*
X75435Y248059D01*
X75516Y248092D01*
X75598Y248121D01*
X75682Y248146D01*
X75767Y248167D01*
X75852Y248185D01*
X75939Y248198D01*
X76025Y248208D01*
X76113Y248214D01*
X76200Y248216D01*
X76200Y248217D02*
X80095Y248217D01*
X80095Y248216D02*
X80182Y248214D01*
X80270Y248208D01*
X80356Y248198D01*
X80443Y248185D01*
X80528Y248167D01*
X80613Y248146D01*
X80697Y248121D01*
X80779Y248092D01*
X80860Y248059D01*
X80940Y248023D01*
X81018Y247984D01*
X81094Y247940D01*
X81168Y247894D01*
X81239Y247844D01*
X81309Y247791D01*
X81376Y247735D01*
X81440Y247676D01*
X81502Y247614D01*
X81561Y247550D01*
X81617Y247483D01*
X81670Y247413D01*
X81720Y247342D01*
X81766Y247268D01*
X81810Y247192D01*
X81849Y247114D01*
X81885Y247034D01*
X81918Y246953D01*
X81947Y246871D01*
X81972Y246787D01*
X81993Y246702D01*
X82011Y246617D01*
X82024Y246530D01*
X82034Y246444D01*
X82040Y246356D01*
X82042Y246269D01*
X82042Y243024D01*
X80095Y253021D02*
X70358Y253021D01*
X80095Y253021D02*
X80182Y253023D01*
X80270Y253029D01*
X80356Y253039D01*
X80443Y253052D01*
X80528Y253070D01*
X80613Y253091D01*
X80697Y253116D01*
X80779Y253145D01*
X80860Y253178D01*
X80940Y253214D01*
X81018Y253253D01*
X81094Y253297D01*
X81168Y253343D01*
X81239Y253393D01*
X81309Y253446D01*
X81376Y253502D01*
X81440Y253561D01*
X81502Y253623D01*
X81561Y253687D01*
X81617Y253754D01*
X81670Y253824D01*
X81720Y253895D01*
X81766Y253969D01*
X81810Y254045D01*
X81849Y254123D01*
X81885Y254203D01*
X81918Y254284D01*
X81947Y254366D01*
X81972Y254450D01*
X81993Y254535D01*
X82011Y254620D01*
X82024Y254707D01*
X82034Y254793D01*
X82040Y254881D01*
X82042Y254968D01*
X77498Y261180D02*
X77498Y264101D01*
X77498Y261180D02*
X77500Y261086D01*
X77506Y260992D01*
X77515Y260899D01*
X77529Y260806D01*
X77546Y260714D01*
X77568Y260622D01*
X77592Y260532D01*
X77621Y260442D01*
X77653Y260354D01*
X77689Y260267D01*
X77729Y260182D01*
X77772Y260099D01*
X77818Y260017D01*
X77868Y259937D01*
X77921Y259860D01*
X77977Y259785D01*
X78036Y259712D01*
X78098Y259641D01*
X78163Y259573D01*
X78231Y259508D01*
X78302Y259446D01*
X78375Y259387D01*
X78450Y259331D01*
X78527Y259278D01*
X78607Y259228D01*
X78689Y259182D01*
X78772Y259139D01*
X78857Y259099D01*
X78944Y259063D01*
X79032Y259031D01*
X79122Y259002D01*
X79212Y258978D01*
X79304Y258956D01*
X79396Y258939D01*
X79489Y258925D01*
X79582Y258916D01*
X79676Y258910D01*
X79770Y258908D01*
X79864Y258910D01*
X79958Y258916D01*
X80051Y258925D01*
X80144Y258939D01*
X80236Y258956D01*
X80328Y258978D01*
X80418Y259002D01*
X80508Y259031D01*
X80596Y259063D01*
X80683Y259099D01*
X80768Y259139D01*
X80851Y259182D01*
X80933Y259228D01*
X81013Y259278D01*
X81090Y259331D01*
X81165Y259387D01*
X81238Y259446D01*
X81309Y259508D01*
X81377Y259573D01*
X81442Y259641D01*
X81504Y259712D01*
X81563Y259785D01*
X81619Y259860D01*
X81672Y259937D01*
X81722Y260017D01*
X81768Y260099D01*
X81811Y260182D01*
X81851Y260267D01*
X81887Y260354D01*
X81919Y260442D01*
X81948Y260532D01*
X81972Y260622D01*
X81994Y260714D01*
X82011Y260806D01*
X82025Y260899D01*
X82034Y260992D01*
X82040Y261086D01*
X82042Y261180D01*
X82042Y264101D01*
X76200Y264101D01*
X76113Y264099D01*
X76025Y264093D01*
X75939Y264083D01*
X75852Y264070D01*
X75767Y264052D01*
X75682Y264031D01*
X75598Y264006D01*
X75516Y263977D01*
X75435Y263944D01*
X75355Y263908D01*
X75277Y263869D01*
X75201Y263825D01*
X75127Y263779D01*
X75056Y263729D01*
X74986Y263676D01*
X74919Y263620D01*
X74855Y263561D01*
X74793Y263499D01*
X74734Y263435D01*
X74678Y263368D01*
X74625Y263298D01*
X74575Y263227D01*
X74529Y263153D01*
X74485Y263077D01*
X74446Y262999D01*
X74410Y262919D01*
X74377Y262838D01*
X74348Y262756D01*
X74323Y262672D01*
X74302Y262587D01*
X74284Y262502D01*
X74271Y262415D01*
X74261Y262329D01*
X74255Y262241D01*
X74253Y262154D01*
X74253Y259557D01*
X85937Y268873D02*
X85937Y270171D01*
X74253Y274066D01*
X74253Y268873D02*
X82042Y271469D01*
X75551Y285157D02*
X75551Y288403D01*
X75550Y288403D02*
X75552Y288516D01*
X75558Y288629D01*
X75568Y288742D01*
X75582Y288855D01*
X75599Y288967D01*
X75621Y289078D01*
X75646Y289188D01*
X75676Y289298D01*
X75709Y289406D01*
X75746Y289513D01*
X75786Y289619D01*
X75831Y289723D01*
X75879Y289826D01*
X75930Y289927D01*
X75985Y290026D01*
X76043Y290123D01*
X76105Y290218D01*
X76170Y290311D01*
X76238Y290401D01*
X76309Y290489D01*
X76384Y290575D01*
X76461Y290658D01*
X76541Y290738D01*
X76624Y290815D01*
X76710Y290890D01*
X76798Y290961D01*
X76888Y291029D01*
X76981Y291094D01*
X77076Y291156D01*
X77173Y291214D01*
X77272Y291269D01*
X77373Y291320D01*
X77476Y291368D01*
X77580Y291413D01*
X77686Y291453D01*
X77793Y291490D01*
X77901Y291523D01*
X78011Y291553D01*
X78121Y291578D01*
X78232Y291600D01*
X78344Y291617D01*
X78457Y291631D01*
X78570Y291641D01*
X78683Y291647D01*
X78796Y291649D01*
X78909Y291647D01*
X79022Y291641D01*
X79135Y291631D01*
X79248Y291617D01*
X79360Y291600D01*
X79471Y291578D01*
X79581Y291553D01*
X79691Y291523D01*
X79799Y291490D01*
X79906Y291453D01*
X80012Y291413D01*
X80116Y291368D01*
X80219Y291320D01*
X80320Y291269D01*
X80419Y291214D01*
X80516Y291156D01*
X80611Y291094D01*
X80704Y291029D01*
X80794Y290961D01*
X80882Y290890D01*
X80968Y290815D01*
X81051Y290738D01*
X81131Y290658D01*
X81208Y290575D01*
X81283Y290489D01*
X81354Y290401D01*
X81422Y290311D01*
X81487Y290218D01*
X81549Y290123D01*
X81607Y290026D01*
X81662Y289927D01*
X81713Y289826D01*
X81761Y289723D01*
X81806Y289619D01*
X81846Y289513D01*
X81883Y289406D01*
X81916Y289298D01*
X81946Y289188D01*
X81971Y289078D01*
X81993Y288967D01*
X82010Y288855D01*
X82024Y288742D01*
X82034Y288629D01*
X82040Y288516D01*
X82042Y288403D01*
X82042Y285157D01*
X70358Y285157D01*
X70358Y288403D01*
X70360Y288504D01*
X70366Y288604D01*
X70376Y288704D01*
X70389Y288804D01*
X70407Y288903D01*
X70428Y289002D01*
X70453Y289099D01*
X70482Y289196D01*
X70515Y289291D01*
X70551Y289385D01*
X70591Y289477D01*
X70634Y289568D01*
X70681Y289657D01*
X70731Y289744D01*
X70785Y289830D01*
X70842Y289913D01*
X70902Y289993D01*
X70965Y290072D01*
X71032Y290148D01*
X71101Y290221D01*
X71173Y290291D01*
X71247Y290359D01*
X71324Y290424D01*
X71404Y290485D01*
X71486Y290544D01*
X71570Y290599D01*
X71656Y290651D01*
X71744Y290700D01*
X71834Y290745D01*
X71926Y290787D01*
X72019Y290825D01*
X72114Y290859D01*
X72209Y290890D01*
X72306Y290917D01*
X72404Y290940D01*
X72503Y290960D01*
X72603Y290975D01*
X72703Y290987D01*
X72803Y290995D01*
X72904Y290999D01*
X73004Y290999D01*
X73105Y290995D01*
X73205Y290987D01*
X73305Y290975D01*
X73405Y290960D01*
X73504Y290940D01*
X73602Y290917D01*
X73699Y290890D01*
X73794Y290859D01*
X73889Y290825D01*
X73982Y290787D01*
X74074Y290745D01*
X74164Y290700D01*
X74252Y290651D01*
X74338Y290599D01*
X74422Y290544D01*
X74504Y290485D01*
X74584Y290424D01*
X74661Y290359D01*
X74735Y290291D01*
X74807Y290221D01*
X74876Y290148D01*
X74943Y290072D01*
X75006Y289993D01*
X75066Y289913D01*
X75123Y289830D01*
X75177Y289744D01*
X75227Y289657D01*
X75274Y289568D01*
X75317Y289477D01*
X75357Y289385D01*
X75393Y289291D01*
X75426Y289196D01*
X75455Y289099D01*
X75480Y289002D01*
X75501Y288903D01*
X75519Y288804D01*
X75532Y288704D01*
X75542Y288604D01*
X75548Y288504D01*
X75550Y288403D01*
X74253Y296371D02*
X82042Y296371D01*
X74253Y296371D02*
X74253Y300266D01*
X75551Y300266D01*
X82042Y305872D02*
X82042Y309118D01*
X82042Y305872D02*
X82040Y305785D01*
X82034Y305697D01*
X82024Y305611D01*
X82011Y305524D01*
X81993Y305439D01*
X81972Y305354D01*
X81947Y305270D01*
X81918Y305188D01*
X81885Y305107D01*
X81849Y305027D01*
X81810Y304949D01*
X81766Y304873D01*
X81720Y304799D01*
X81670Y304728D01*
X81617Y304658D01*
X81561Y304591D01*
X81502Y304527D01*
X81440Y304465D01*
X81376Y304406D01*
X81309Y304350D01*
X81239Y304297D01*
X81168Y304247D01*
X81094Y304201D01*
X81018Y304157D01*
X80940Y304118D01*
X80860Y304082D01*
X80779Y304049D01*
X80697Y304020D01*
X80613Y303995D01*
X80528Y303974D01*
X80443Y303956D01*
X80356Y303943D01*
X80270Y303933D01*
X80182Y303927D01*
X80095Y303925D01*
X76849Y303925D01*
X76748Y303927D01*
X76648Y303933D01*
X76548Y303943D01*
X76448Y303956D01*
X76349Y303974D01*
X76250Y303995D01*
X76153Y304020D01*
X76056Y304049D01*
X75961Y304082D01*
X75867Y304118D01*
X75775Y304158D01*
X75684Y304201D01*
X75595Y304248D01*
X75508Y304298D01*
X75422Y304352D01*
X75339Y304409D01*
X75259Y304469D01*
X75180Y304532D01*
X75104Y304599D01*
X75031Y304668D01*
X74961Y304740D01*
X74893Y304814D01*
X74828Y304891D01*
X74767Y304971D01*
X74708Y305053D01*
X74653Y305137D01*
X74601Y305223D01*
X74552Y305311D01*
X74507Y305401D01*
X74465Y305493D01*
X74427Y305586D01*
X74393Y305681D01*
X74362Y305776D01*
X74335Y305873D01*
X74312Y305971D01*
X74292Y306070D01*
X74277Y306170D01*
X74265Y306270D01*
X74257Y306370D01*
X74253Y306471D01*
X74253Y306571D01*
X74257Y306672D01*
X74265Y306772D01*
X74277Y306872D01*
X74292Y306972D01*
X74312Y307071D01*
X74335Y307169D01*
X74362Y307266D01*
X74393Y307361D01*
X74427Y307456D01*
X74465Y307549D01*
X74507Y307641D01*
X74552Y307731D01*
X74601Y307819D01*
X74653Y307905D01*
X74708Y307989D01*
X74767Y308071D01*
X74828Y308151D01*
X74893Y308228D01*
X74961Y308302D01*
X75031Y308374D01*
X75104Y308443D01*
X75180Y308510D01*
X75259Y308573D01*
X75339Y308633D01*
X75422Y308690D01*
X75508Y308744D01*
X75595Y308794D01*
X75684Y308841D01*
X75775Y308884D01*
X75867Y308924D01*
X75961Y308960D01*
X76056Y308993D01*
X76153Y309022D01*
X76250Y309047D01*
X76349Y309068D01*
X76448Y309086D01*
X76548Y309099D01*
X76648Y309109D01*
X76748Y309115D01*
X76849Y309117D01*
X76849Y309118D02*
X78147Y309118D01*
X78147Y303925D01*
X77498Y316044D02*
X77498Y318965D01*
X77498Y316044D02*
X77500Y315950D01*
X77506Y315856D01*
X77515Y315763D01*
X77529Y315670D01*
X77546Y315578D01*
X77568Y315486D01*
X77592Y315396D01*
X77621Y315306D01*
X77653Y315218D01*
X77689Y315131D01*
X77729Y315046D01*
X77772Y314963D01*
X77818Y314881D01*
X77868Y314801D01*
X77921Y314724D01*
X77977Y314649D01*
X78036Y314576D01*
X78098Y314505D01*
X78163Y314437D01*
X78231Y314372D01*
X78302Y314310D01*
X78375Y314251D01*
X78450Y314195D01*
X78527Y314142D01*
X78607Y314092D01*
X78689Y314046D01*
X78772Y314003D01*
X78857Y313963D01*
X78944Y313927D01*
X79032Y313895D01*
X79122Y313866D01*
X79212Y313842D01*
X79304Y313820D01*
X79396Y313803D01*
X79489Y313789D01*
X79582Y313780D01*
X79676Y313774D01*
X79770Y313772D01*
X79864Y313774D01*
X79958Y313780D01*
X80051Y313789D01*
X80144Y313803D01*
X80236Y313820D01*
X80328Y313842D01*
X80418Y313866D01*
X80508Y313895D01*
X80596Y313927D01*
X80683Y313963D01*
X80768Y314003D01*
X80851Y314046D01*
X80933Y314092D01*
X81013Y314142D01*
X81090Y314195D01*
X81165Y314251D01*
X81238Y314310D01*
X81309Y314372D01*
X81377Y314437D01*
X81442Y314505D01*
X81504Y314576D01*
X81563Y314649D01*
X81619Y314724D01*
X81672Y314801D01*
X81722Y314881D01*
X81768Y314963D01*
X81811Y315046D01*
X81851Y315131D01*
X81887Y315218D01*
X81919Y315306D01*
X81948Y315396D01*
X81972Y315486D01*
X81994Y315578D01*
X82011Y315670D01*
X82025Y315763D01*
X82034Y315856D01*
X82040Y315950D01*
X82042Y316044D01*
X82042Y318965D01*
X76200Y318965D01*
X76113Y318963D01*
X76025Y318957D01*
X75939Y318947D01*
X75852Y318934D01*
X75767Y318916D01*
X75682Y318895D01*
X75598Y318870D01*
X75516Y318841D01*
X75435Y318808D01*
X75355Y318772D01*
X75277Y318733D01*
X75201Y318689D01*
X75127Y318643D01*
X75056Y318593D01*
X74986Y318540D01*
X74919Y318484D01*
X74855Y318425D01*
X74793Y318363D01*
X74734Y318299D01*
X74678Y318232D01*
X74625Y318162D01*
X74575Y318091D01*
X74529Y318017D01*
X74485Y317941D01*
X74446Y317863D01*
X74410Y317783D01*
X74377Y317702D01*
X74348Y317620D01*
X74323Y317536D01*
X74302Y317451D01*
X74284Y317366D01*
X74271Y317279D01*
X74261Y317193D01*
X74255Y317105D01*
X74253Y317018D01*
X74253Y314421D01*
X70358Y324634D02*
X82042Y324634D01*
X78147Y324634D02*
X74253Y329827D01*
X76525Y326906D02*
X82042Y329827D01*
X79446Y334024D02*
X76849Y334024D01*
X76748Y334026D01*
X76648Y334032D01*
X76548Y334042D01*
X76448Y334055D01*
X76349Y334073D01*
X76250Y334094D01*
X76153Y334119D01*
X76056Y334148D01*
X75961Y334181D01*
X75867Y334217D01*
X75775Y334257D01*
X75684Y334300D01*
X75595Y334347D01*
X75508Y334397D01*
X75422Y334451D01*
X75339Y334508D01*
X75259Y334568D01*
X75180Y334631D01*
X75104Y334698D01*
X75031Y334767D01*
X74961Y334839D01*
X74893Y334913D01*
X74828Y334990D01*
X74767Y335070D01*
X74708Y335152D01*
X74653Y335236D01*
X74601Y335322D01*
X74552Y335410D01*
X74507Y335500D01*
X74465Y335592D01*
X74427Y335685D01*
X74393Y335780D01*
X74362Y335875D01*
X74335Y335972D01*
X74312Y336070D01*
X74292Y336169D01*
X74277Y336269D01*
X74265Y336369D01*
X74257Y336469D01*
X74253Y336570D01*
X74253Y336670D01*
X74257Y336771D01*
X74265Y336871D01*
X74277Y336971D01*
X74292Y337071D01*
X74312Y337170D01*
X74335Y337268D01*
X74362Y337365D01*
X74393Y337460D01*
X74427Y337555D01*
X74465Y337648D01*
X74507Y337740D01*
X74552Y337830D01*
X74601Y337918D01*
X74653Y338004D01*
X74708Y338088D01*
X74767Y338170D01*
X74828Y338250D01*
X74893Y338327D01*
X74961Y338401D01*
X75031Y338473D01*
X75104Y338542D01*
X75180Y338609D01*
X75259Y338672D01*
X75339Y338732D01*
X75422Y338789D01*
X75508Y338843D01*
X75595Y338893D01*
X75684Y338940D01*
X75775Y338983D01*
X75867Y339023D01*
X75961Y339059D01*
X76056Y339092D01*
X76153Y339121D01*
X76250Y339146D01*
X76349Y339167D01*
X76448Y339185D01*
X76548Y339198D01*
X76648Y339208D01*
X76748Y339214D01*
X76849Y339216D01*
X76849Y339217D02*
X79446Y339217D01*
X79446Y339216D02*
X79547Y339214D01*
X79647Y339208D01*
X79747Y339198D01*
X79847Y339185D01*
X79946Y339167D01*
X80045Y339146D01*
X80142Y339121D01*
X80239Y339092D01*
X80334Y339059D01*
X80428Y339023D01*
X80520Y338983D01*
X80611Y338940D01*
X80700Y338893D01*
X80787Y338843D01*
X80873Y338789D01*
X80956Y338732D01*
X81036Y338672D01*
X81115Y338609D01*
X81191Y338542D01*
X81264Y338473D01*
X81334Y338401D01*
X81402Y338327D01*
X81467Y338250D01*
X81528Y338170D01*
X81587Y338088D01*
X81642Y338004D01*
X81694Y337918D01*
X81743Y337830D01*
X81788Y337740D01*
X81830Y337648D01*
X81868Y337555D01*
X81902Y337460D01*
X81933Y337365D01*
X81960Y337268D01*
X81983Y337170D01*
X82003Y337071D01*
X82018Y336971D01*
X82030Y336871D01*
X82038Y336771D01*
X82042Y336670D01*
X82042Y336570D01*
X82038Y336469D01*
X82030Y336369D01*
X82018Y336269D01*
X82003Y336169D01*
X81983Y336070D01*
X81960Y335972D01*
X81933Y335875D01*
X81902Y335780D01*
X81868Y335685D01*
X81830Y335592D01*
X81788Y335500D01*
X81743Y335410D01*
X81694Y335322D01*
X81642Y335236D01*
X81587Y335152D01*
X81528Y335070D01*
X81467Y334990D01*
X81402Y334913D01*
X81334Y334839D01*
X81264Y334767D01*
X81191Y334698D01*
X81115Y334631D01*
X81036Y334568D01*
X80956Y334508D01*
X80873Y334451D01*
X80787Y334397D01*
X80700Y334347D01*
X80611Y334300D01*
X80520Y334257D01*
X80428Y334217D01*
X80334Y334181D01*
X80239Y334148D01*
X80142Y334119D01*
X80045Y334094D01*
X79946Y334073D01*
X79847Y334055D01*
X79747Y334042D01*
X79647Y334032D01*
X79547Y334026D01*
X79446Y334024D01*
X80095Y344311D02*
X74253Y344311D01*
X80095Y344311D02*
X80182Y344313D01*
X80270Y344319D01*
X80356Y344329D01*
X80443Y344342D01*
X80528Y344360D01*
X80613Y344381D01*
X80697Y344406D01*
X80779Y344435D01*
X80860Y344468D01*
X80940Y344504D01*
X81018Y344543D01*
X81094Y344587D01*
X81168Y344633D01*
X81239Y344683D01*
X81309Y344736D01*
X81376Y344792D01*
X81440Y344851D01*
X81502Y344913D01*
X81561Y344977D01*
X81617Y345044D01*
X81670Y345114D01*
X81720Y345185D01*
X81766Y345259D01*
X81810Y345335D01*
X81849Y345413D01*
X81885Y345493D01*
X81918Y345574D01*
X81947Y345656D01*
X81972Y345740D01*
X81993Y345825D01*
X82011Y345910D01*
X82024Y345997D01*
X82034Y346083D01*
X82040Y346171D01*
X82042Y346258D01*
X82042Y349504D01*
X74253Y349504D01*
X74253Y353631D02*
X74253Y357525D01*
X70358Y354929D02*
X80095Y354929D01*
X80182Y354931D01*
X80270Y354937D01*
X80356Y354947D01*
X80443Y354960D01*
X80528Y354978D01*
X80613Y354999D01*
X80697Y355024D01*
X80779Y355053D01*
X80860Y355086D01*
X80940Y355122D01*
X81018Y355161D01*
X81094Y355205D01*
X81168Y355251D01*
X81239Y355301D01*
X81309Y355354D01*
X81376Y355410D01*
X81440Y355469D01*
X81502Y355531D01*
X81561Y355595D01*
X81617Y355662D01*
X81670Y355732D01*
X81720Y355803D01*
X81766Y355877D01*
X81810Y355953D01*
X81849Y356031D01*
X81885Y356111D01*
X81918Y356192D01*
X81947Y356274D01*
X81972Y356358D01*
X81993Y356443D01*
X82011Y356528D01*
X82024Y356615D01*
X82034Y356701D01*
X82040Y356789D01*
X82042Y356876D01*
X82042Y357525D01*
X89408Y216408D02*
X101092Y216408D01*
X89408Y216408D02*
X89408Y219654D01*
X89410Y219767D01*
X89416Y219880D01*
X89426Y219993D01*
X89440Y220106D01*
X89457Y220218D01*
X89479Y220329D01*
X89504Y220439D01*
X89534Y220549D01*
X89567Y220657D01*
X89604Y220764D01*
X89644Y220870D01*
X89689Y220974D01*
X89737Y221077D01*
X89788Y221178D01*
X89843Y221277D01*
X89901Y221374D01*
X89963Y221469D01*
X90028Y221562D01*
X90096Y221652D01*
X90167Y221740D01*
X90242Y221826D01*
X90319Y221909D01*
X90399Y221989D01*
X90482Y222066D01*
X90568Y222141D01*
X90656Y222212D01*
X90746Y222280D01*
X90839Y222345D01*
X90934Y222407D01*
X91031Y222465D01*
X91130Y222520D01*
X91231Y222571D01*
X91334Y222619D01*
X91438Y222664D01*
X91544Y222704D01*
X91651Y222741D01*
X91759Y222774D01*
X91869Y222804D01*
X91979Y222829D01*
X92090Y222851D01*
X92202Y222868D01*
X92315Y222882D01*
X92428Y222892D01*
X92541Y222898D01*
X92654Y222900D01*
X92767Y222898D01*
X92880Y222892D01*
X92993Y222882D01*
X93106Y222868D01*
X93218Y222851D01*
X93329Y222829D01*
X93439Y222804D01*
X93549Y222774D01*
X93657Y222741D01*
X93764Y222704D01*
X93870Y222664D01*
X93974Y222619D01*
X94077Y222571D01*
X94178Y222520D01*
X94277Y222465D01*
X94374Y222407D01*
X94469Y222345D01*
X94562Y222280D01*
X94652Y222212D01*
X94740Y222141D01*
X94826Y222066D01*
X94909Y221989D01*
X94989Y221909D01*
X95066Y221826D01*
X95141Y221740D01*
X95212Y221652D01*
X95280Y221562D01*
X95345Y221469D01*
X95407Y221374D01*
X95465Y221277D01*
X95520Y221178D01*
X95571Y221077D01*
X95619Y220974D01*
X95664Y220870D01*
X95704Y220764D01*
X95741Y220657D01*
X95774Y220549D01*
X95804Y220439D01*
X95829Y220329D01*
X95851Y220218D01*
X95868Y220106D01*
X95882Y219993D01*
X95892Y219880D01*
X95898Y219767D01*
X95900Y219654D01*
X95899Y219654D02*
X95899Y216408D01*
X95899Y220303D02*
X101092Y222899D01*
X101092Y229599D02*
X101092Y232844D01*
X101092Y229599D02*
X101090Y229512D01*
X101084Y229424D01*
X101074Y229338D01*
X101061Y229251D01*
X101043Y229166D01*
X101022Y229081D01*
X100997Y228997D01*
X100968Y228915D01*
X100935Y228834D01*
X100899Y228754D01*
X100860Y228676D01*
X100816Y228600D01*
X100770Y228526D01*
X100720Y228455D01*
X100667Y228385D01*
X100611Y228318D01*
X100552Y228254D01*
X100490Y228192D01*
X100426Y228133D01*
X100359Y228077D01*
X100289Y228024D01*
X100218Y227974D01*
X100144Y227928D01*
X100068Y227884D01*
X99990Y227845D01*
X99910Y227809D01*
X99829Y227776D01*
X99747Y227747D01*
X99663Y227722D01*
X99578Y227701D01*
X99493Y227683D01*
X99406Y227670D01*
X99320Y227660D01*
X99232Y227654D01*
X99145Y227652D01*
X99145Y227651D02*
X95899Y227651D01*
X95899Y227652D02*
X95798Y227654D01*
X95698Y227660D01*
X95598Y227670D01*
X95498Y227683D01*
X95399Y227701D01*
X95300Y227722D01*
X95203Y227747D01*
X95106Y227776D01*
X95011Y227809D01*
X94917Y227845D01*
X94825Y227885D01*
X94734Y227928D01*
X94645Y227975D01*
X94558Y228025D01*
X94472Y228079D01*
X94389Y228136D01*
X94309Y228196D01*
X94230Y228259D01*
X94154Y228326D01*
X94081Y228395D01*
X94011Y228467D01*
X93943Y228541D01*
X93878Y228618D01*
X93817Y228698D01*
X93758Y228780D01*
X93703Y228864D01*
X93651Y228950D01*
X93602Y229038D01*
X93557Y229128D01*
X93515Y229220D01*
X93477Y229313D01*
X93443Y229408D01*
X93412Y229503D01*
X93385Y229600D01*
X93362Y229698D01*
X93342Y229797D01*
X93327Y229897D01*
X93315Y229997D01*
X93307Y230097D01*
X93303Y230198D01*
X93303Y230298D01*
X93307Y230399D01*
X93315Y230499D01*
X93327Y230599D01*
X93342Y230699D01*
X93362Y230798D01*
X93385Y230896D01*
X93412Y230993D01*
X93443Y231088D01*
X93477Y231183D01*
X93515Y231276D01*
X93557Y231368D01*
X93602Y231458D01*
X93651Y231546D01*
X93703Y231632D01*
X93758Y231716D01*
X93817Y231798D01*
X93878Y231878D01*
X93943Y231955D01*
X94011Y232029D01*
X94081Y232101D01*
X94154Y232170D01*
X94230Y232237D01*
X94309Y232300D01*
X94389Y232360D01*
X94472Y232417D01*
X94558Y232471D01*
X94645Y232521D01*
X94734Y232568D01*
X94825Y232611D01*
X94917Y232651D01*
X95011Y232687D01*
X95106Y232720D01*
X95203Y232749D01*
X95300Y232774D01*
X95399Y232795D01*
X95498Y232813D01*
X95598Y232826D01*
X95698Y232836D01*
X95798Y232842D01*
X95899Y232844D01*
X97197Y232844D01*
X97197Y227651D01*
X93303Y237176D02*
X101092Y239773D01*
X93303Y242369D01*
X89408Y250060D02*
X101092Y246165D01*
X101092Y253955D02*
X89408Y250060D01*
X98171Y252981D02*
X98171Y247139D01*
D11*
X305506Y42620D02*
X305624Y42618D01*
X305742Y42612D01*
X305860Y42603D01*
X305977Y42589D01*
X306094Y42572D01*
X306211Y42551D01*
X306326Y42526D01*
X306441Y42497D01*
X306555Y42464D01*
X306667Y42428D01*
X306778Y42388D01*
X306888Y42345D01*
X306997Y42298D01*
X307104Y42248D01*
X307209Y42193D01*
X307312Y42136D01*
X307413Y42075D01*
X307513Y42011D01*
X307610Y41944D01*
X307705Y41874D01*
X307797Y41800D01*
X307888Y41724D01*
X307975Y41644D01*
X308060Y41562D01*
X308142Y41477D01*
X308222Y41390D01*
X308298Y41299D01*
X308372Y41207D01*
X308442Y41112D01*
X308509Y41015D01*
X308573Y40915D01*
X308634Y40814D01*
X308691Y40711D01*
X308746Y40606D01*
X308796Y40499D01*
X308843Y40390D01*
X308886Y40280D01*
X308926Y40169D01*
X308962Y40057D01*
X308995Y39943D01*
X309024Y39828D01*
X309049Y39713D01*
X309070Y39596D01*
X309087Y39479D01*
X309101Y39362D01*
X309110Y39244D01*
X309116Y39126D01*
X309118Y39008D01*
X309116Y38825D01*
X309109Y38643D01*
X309098Y38461D01*
X309083Y38279D01*
X309063Y38097D01*
X309040Y37916D01*
X309011Y37736D01*
X308979Y37556D01*
X308942Y37377D01*
X308901Y37200D01*
X308855Y37023D01*
X308806Y36847D01*
X308752Y36673D01*
X308694Y36499D01*
X308632Y36328D01*
X308566Y36158D01*
X308495Y35989D01*
X308421Y35822D01*
X308343Y35657D01*
X308261Y35494D01*
X308175Y35333D01*
X308085Y35174D01*
X307991Y35017D01*
X307894Y34863D01*
X307793Y34711D01*
X307688Y34561D01*
X307580Y34414D01*
X307469Y34270D01*
X307354Y34128D01*
X307235Y33989D01*
X307113Y33853D01*
X306988Y33720D01*
X306860Y33590D01*
X296474Y34041D02*
X296356Y34043D01*
X296238Y34049D01*
X296120Y34058D01*
X296003Y34072D01*
X295886Y34089D01*
X295769Y34110D01*
X295654Y34135D01*
X295539Y34164D01*
X295425Y34197D01*
X295313Y34233D01*
X295202Y34273D01*
X295092Y34316D01*
X294983Y34363D01*
X294876Y34413D01*
X294771Y34468D01*
X294668Y34525D01*
X294567Y34586D01*
X294467Y34650D01*
X294370Y34717D01*
X294275Y34787D01*
X294183Y34861D01*
X294092Y34937D01*
X294005Y35017D01*
X293920Y35099D01*
X293838Y35184D01*
X293758Y35271D01*
X293682Y35362D01*
X293608Y35454D01*
X293538Y35549D01*
X293471Y35646D01*
X293407Y35746D01*
X293346Y35847D01*
X293289Y35950D01*
X293234Y36055D01*
X293184Y36162D01*
X293137Y36271D01*
X293094Y36381D01*
X293054Y36492D01*
X293018Y36604D01*
X292985Y36718D01*
X292956Y36833D01*
X292931Y36948D01*
X292910Y37065D01*
X292893Y37182D01*
X292879Y37299D01*
X292870Y37417D01*
X292864Y37535D01*
X292862Y37653D01*
X292864Y37814D01*
X292870Y37976D01*
X292879Y38137D01*
X292893Y38298D01*
X292910Y38458D01*
X292931Y38618D01*
X292956Y38778D01*
X292985Y38937D01*
X293017Y39095D01*
X293053Y39252D01*
X293093Y39408D01*
X293137Y39564D01*
X293185Y39718D01*
X293236Y39871D01*
X293290Y40023D01*
X293349Y40174D01*
X293410Y40323D01*
X293476Y40470D01*
X293545Y40616D01*
X293617Y40761D01*
X293693Y40903D01*
X293772Y41044D01*
X293854Y41183D01*
X293940Y41319D01*
X294029Y41454D01*
X294121Y41587D01*
X294217Y41717D01*
X299635Y35847D02*
X299573Y35746D01*
X299508Y35646D01*
X299439Y35549D01*
X299367Y35454D01*
X299293Y35361D01*
X299215Y35271D01*
X299134Y35183D01*
X299051Y35098D01*
X298965Y35016D01*
X298876Y34937D01*
X298785Y34860D01*
X298691Y34787D01*
X298595Y34716D01*
X298497Y34649D01*
X298397Y34585D01*
X298294Y34524D01*
X298190Y34467D01*
X298084Y34413D01*
X297976Y34363D01*
X297867Y34316D01*
X297756Y34272D01*
X297644Y34232D01*
X297530Y34196D01*
X297416Y34164D01*
X297300Y34135D01*
X297184Y34110D01*
X297067Y34089D01*
X296949Y34072D01*
X296831Y34058D01*
X296712Y34049D01*
X296593Y34043D01*
X296474Y34041D01*
X302345Y40815D02*
X302407Y40916D01*
X302472Y41016D01*
X302541Y41113D01*
X302613Y41208D01*
X302687Y41301D01*
X302765Y41391D01*
X302846Y41479D01*
X302929Y41564D01*
X303015Y41646D01*
X303104Y41725D01*
X303195Y41802D01*
X303289Y41875D01*
X303385Y41946D01*
X303483Y42013D01*
X303583Y42077D01*
X303686Y42138D01*
X303790Y42195D01*
X303896Y42249D01*
X304004Y42299D01*
X304113Y42346D01*
X304224Y42390D01*
X304336Y42430D01*
X304450Y42466D01*
X304564Y42498D01*
X304680Y42527D01*
X304796Y42552D01*
X304913Y42573D01*
X305031Y42590D01*
X305149Y42604D01*
X305268Y42613D01*
X305387Y42619D01*
X305506Y42621D01*
X302345Y40814D02*
X299635Y35847D01*
X298281Y48526D02*
X309118Y48526D01*
X293765Y48074D02*
X292862Y48074D01*
X292862Y48977D01*
X293765Y48977D01*
X293765Y48074D01*
X292862Y61965D02*
X309118Y61965D01*
X309118Y57449D01*
X309116Y57348D01*
X309110Y57247D01*
X309101Y57146D01*
X309088Y57045D01*
X309071Y56945D01*
X309050Y56846D01*
X309026Y56748D01*
X308998Y56651D01*
X308966Y56554D01*
X308931Y56459D01*
X308892Y56366D01*
X308850Y56274D01*
X308804Y56183D01*
X308755Y56094D01*
X308703Y56008D01*
X308647Y55923D01*
X308589Y55840D01*
X308527Y55760D01*
X308462Y55682D01*
X308395Y55606D01*
X308325Y55533D01*
X308252Y55463D01*
X308176Y55396D01*
X308098Y55331D01*
X308018Y55269D01*
X307935Y55211D01*
X307850Y55155D01*
X307764Y55103D01*
X307675Y55054D01*
X307584Y55008D01*
X307492Y54966D01*
X307399Y54927D01*
X307304Y54892D01*
X307207Y54860D01*
X307110Y54832D01*
X307012Y54808D01*
X306913Y54787D01*
X306813Y54770D01*
X306712Y54757D01*
X306611Y54748D01*
X306510Y54742D01*
X306409Y54740D01*
X300990Y54740D01*
X300889Y54742D01*
X300788Y54748D01*
X300687Y54757D01*
X300586Y54770D01*
X300486Y54787D01*
X300387Y54808D01*
X300289Y54832D01*
X300192Y54860D01*
X300095Y54892D01*
X300000Y54927D01*
X299907Y54966D01*
X299815Y55008D01*
X299724Y55054D01*
X299636Y55103D01*
X299549Y55155D01*
X299464Y55211D01*
X299381Y55269D01*
X299301Y55331D01*
X299223Y55396D01*
X299147Y55463D01*
X299074Y55533D01*
X299004Y55606D01*
X298937Y55682D01*
X298872Y55760D01*
X298810Y55840D01*
X298752Y55923D01*
X298696Y56008D01*
X298644Y56094D01*
X298595Y56183D01*
X298549Y56274D01*
X298507Y56366D01*
X298468Y56459D01*
X298433Y56554D01*
X298401Y56651D01*
X298373Y56748D01*
X298349Y56846D01*
X298328Y56945D01*
X298311Y57045D01*
X298298Y57146D01*
X298289Y57247D01*
X298283Y57348D01*
X298281Y57449D01*
X298281Y61965D01*
X309118Y71590D02*
X309118Y76106D01*
X309118Y71590D02*
X309116Y71489D01*
X309110Y71388D01*
X309101Y71287D01*
X309088Y71186D01*
X309071Y71086D01*
X309050Y70987D01*
X309026Y70889D01*
X308998Y70792D01*
X308966Y70695D01*
X308931Y70600D01*
X308892Y70507D01*
X308850Y70415D01*
X308804Y70324D01*
X308755Y70235D01*
X308703Y70149D01*
X308647Y70064D01*
X308589Y69981D01*
X308527Y69901D01*
X308462Y69823D01*
X308395Y69747D01*
X308325Y69674D01*
X308252Y69604D01*
X308176Y69537D01*
X308098Y69472D01*
X308018Y69410D01*
X307935Y69352D01*
X307850Y69296D01*
X307764Y69244D01*
X307675Y69195D01*
X307584Y69149D01*
X307492Y69107D01*
X307399Y69068D01*
X307304Y69033D01*
X307207Y69001D01*
X307110Y68973D01*
X307012Y68949D01*
X306913Y68928D01*
X306813Y68911D01*
X306712Y68898D01*
X306611Y68889D01*
X306510Y68883D01*
X306409Y68881D01*
X301893Y68881D01*
X301893Y68882D02*
X301774Y68884D01*
X301654Y68890D01*
X301535Y68900D01*
X301417Y68914D01*
X301298Y68931D01*
X301181Y68953D01*
X301064Y68978D01*
X300949Y69008D01*
X300834Y69041D01*
X300720Y69078D01*
X300608Y69118D01*
X300497Y69163D01*
X300388Y69211D01*
X300280Y69262D01*
X300174Y69317D01*
X300070Y69376D01*
X299968Y69438D01*
X299868Y69503D01*
X299770Y69572D01*
X299674Y69644D01*
X299581Y69719D01*
X299491Y69796D01*
X299403Y69877D01*
X299318Y69961D01*
X299236Y70048D01*
X299156Y70137D01*
X299080Y70229D01*
X299006Y70323D01*
X298936Y70420D01*
X298869Y70518D01*
X298805Y70619D01*
X298745Y70723D01*
X298688Y70828D01*
X298635Y70935D01*
X298585Y71043D01*
X298539Y71153D01*
X298497Y71265D01*
X298458Y71378D01*
X298423Y71492D01*
X298392Y71607D01*
X298364Y71724D01*
X298341Y71841D01*
X298321Y71958D01*
X298305Y72077D01*
X298293Y72196D01*
X298285Y72315D01*
X298281Y72434D01*
X298281Y72554D01*
X298285Y72673D01*
X298293Y72792D01*
X298305Y72911D01*
X298321Y73030D01*
X298341Y73147D01*
X298364Y73264D01*
X298392Y73381D01*
X298423Y73496D01*
X298458Y73610D01*
X298497Y73723D01*
X298539Y73835D01*
X298585Y73945D01*
X298635Y74053D01*
X298688Y74160D01*
X298745Y74265D01*
X298805Y74369D01*
X298869Y74470D01*
X298936Y74568D01*
X299006Y74665D01*
X299080Y74759D01*
X299156Y74851D01*
X299236Y74940D01*
X299318Y75027D01*
X299403Y75111D01*
X299491Y75192D01*
X299581Y75269D01*
X299674Y75344D01*
X299770Y75416D01*
X299868Y75485D01*
X299968Y75550D01*
X300070Y75612D01*
X300174Y75671D01*
X300280Y75726D01*
X300388Y75777D01*
X300497Y75825D01*
X300608Y75870D01*
X300720Y75910D01*
X300834Y75947D01*
X300949Y75980D01*
X301064Y76010D01*
X301181Y76035D01*
X301298Y76057D01*
X301417Y76074D01*
X301535Y76088D01*
X301654Y76098D01*
X301774Y76104D01*
X301893Y76106D01*
X303699Y76106D01*
X303699Y68881D01*
X309118Y90001D02*
X292862Y95419D01*
X309118Y100838D01*
X305054Y99483D02*
X305054Y91355D01*
X317500Y114300D02*
X279400Y114300D01*
X279400Y25400D01*
X317500Y25400D01*
X317500Y114300D01*
D12*
X0Y800100D02*
X0Y812800D01*
X12700Y812800D01*
X0Y800100D01*
D10*
X51308Y427934D02*
X53904Y424688D01*
X51308Y427934D02*
X62992Y427934D01*
X62992Y431179D02*
X62992Y424688D01*
X56501Y436118D02*
X56501Y440013D01*
X56503Y440112D01*
X56509Y440212D01*
X56518Y440311D01*
X56531Y440409D01*
X56548Y440507D01*
X56569Y440605D01*
X56594Y440701D01*
X56622Y440796D01*
X56654Y440890D01*
X56689Y440983D01*
X56728Y441075D01*
X56771Y441165D01*
X56816Y441253D01*
X56866Y441340D01*
X56918Y441424D01*
X56974Y441507D01*
X57032Y441587D01*
X57094Y441665D01*
X57159Y441740D01*
X57227Y441813D01*
X57297Y441883D01*
X57370Y441951D01*
X57445Y442016D01*
X57523Y442078D01*
X57603Y442136D01*
X57686Y442192D01*
X57770Y442244D01*
X57857Y442294D01*
X57945Y442339D01*
X58035Y442382D01*
X58127Y442421D01*
X58220Y442456D01*
X58314Y442488D01*
X58409Y442516D01*
X58505Y442541D01*
X58603Y442562D01*
X58701Y442579D01*
X58799Y442592D01*
X58898Y442601D01*
X58998Y442607D01*
X59097Y442609D01*
X59746Y442609D01*
X59746Y442610D02*
X59859Y442608D01*
X59972Y442602D01*
X60085Y442592D01*
X60198Y442578D01*
X60310Y442561D01*
X60421Y442539D01*
X60531Y442514D01*
X60641Y442484D01*
X60749Y442451D01*
X60856Y442414D01*
X60962Y442374D01*
X61066Y442329D01*
X61169Y442281D01*
X61270Y442230D01*
X61369Y442175D01*
X61466Y442117D01*
X61561Y442055D01*
X61654Y441990D01*
X61744Y441922D01*
X61832Y441851D01*
X61918Y441776D01*
X62001Y441699D01*
X62081Y441619D01*
X62158Y441536D01*
X62233Y441450D01*
X62304Y441362D01*
X62372Y441272D01*
X62437Y441179D01*
X62499Y441084D01*
X62557Y440987D01*
X62612Y440888D01*
X62663Y440787D01*
X62711Y440684D01*
X62756Y440580D01*
X62796Y440474D01*
X62833Y440367D01*
X62866Y440259D01*
X62896Y440149D01*
X62921Y440039D01*
X62943Y439928D01*
X62960Y439816D01*
X62974Y439703D01*
X62984Y439590D01*
X62990Y439477D01*
X62992Y439364D01*
X62990Y439251D01*
X62984Y439138D01*
X62974Y439025D01*
X62960Y438912D01*
X62943Y438800D01*
X62921Y438689D01*
X62896Y438579D01*
X62866Y438469D01*
X62833Y438361D01*
X62796Y438254D01*
X62756Y438148D01*
X62711Y438044D01*
X62663Y437941D01*
X62612Y437840D01*
X62557Y437741D01*
X62499Y437644D01*
X62437Y437549D01*
X62372Y437456D01*
X62304Y437366D01*
X62233Y437278D01*
X62158Y437192D01*
X62081Y437109D01*
X62001Y437029D01*
X61918Y436952D01*
X61832Y436877D01*
X61744Y436806D01*
X61654Y436738D01*
X61561Y436673D01*
X61466Y436611D01*
X61369Y436553D01*
X61270Y436498D01*
X61169Y436447D01*
X61066Y436399D01*
X60962Y436354D01*
X60856Y436314D01*
X60749Y436277D01*
X60641Y436244D01*
X60531Y436214D01*
X60421Y436189D01*
X60310Y436167D01*
X60198Y436150D01*
X60085Y436136D01*
X59972Y436126D01*
X59859Y436120D01*
X59746Y436118D01*
X56501Y436118D01*
X56358Y436120D01*
X56215Y436126D01*
X56072Y436136D01*
X55930Y436150D01*
X55788Y436167D01*
X55646Y436189D01*
X55505Y436214D01*
X55365Y436244D01*
X55226Y436277D01*
X55088Y436314D01*
X54951Y436355D01*
X54815Y436399D01*
X54680Y436448D01*
X54547Y436500D01*
X54415Y436555D01*
X54285Y436615D01*
X54156Y436678D01*
X54029Y436744D01*
X53905Y436814D01*
X53782Y436887D01*
X53661Y436964D01*
X53542Y437043D01*
X53426Y437127D01*
X53311Y437213D01*
X53200Y437302D01*
X53091Y437395D01*
X52984Y437490D01*
X52880Y437589D01*
X52779Y437690D01*
X52680Y437794D01*
X52585Y437900D01*
X52492Y438010D01*
X52403Y438121D01*
X52317Y438235D01*
X52234Y438352D01*
X52154Y438471D01*
X52077Y438592D01*
X52004Y438714D01*
X51934Y438839D01*
X51868Y438966D01*
X51805Y439095D01*
X51745Y439225D01*
X51690Y439357D01*
X51638Y439490D01*
X51589Y439625D01*
X51545Y439761D01*
X51504Y439898D01*
X51467Y440036D01*
X51434Y440175D01*
X51404Y440315D01*
X51379Y440456D01*
X51357Y440598D01*
X51340Y440740D01*
X51326Y440882D01*
X51316Y441025D01*
X51310Y441168D01*
X51308Y441311D01*
X55203Y452247D02*
X62992Y447054D01*
X62992Y452247D02*
X55203Y447054D01*
X52606Y462788D02*
X51308Y462788D01*
X51308Y469279D01*
X62992Y466033D01*
X59746Y474217D02*
X59633Y474219D01*
X59520Y474225D01*
X59407Y474235D01*
X59294Y474249D01*
X59182Y474266D01*
X59071Y474288D01*
X58961Y474313D01*
X58851Y474343D01*
X58743Y474376D01*
X58636Y474413D01*
X58530Y474453D01*
X58426Y474498D01*
X58323Y474546D01*
X58222Y474597D01*
X58123Y474652D01*
X58026Y474710D01*
X57931Y474772D01*
X57838Y474837D01*
X57748Y474905D01*
X57660Y474976D01*
X57574Y475051D01*
X57491Y475128D01*
X57411Y475208D01*
X57334Y475291D01*
X57259Y475377D01*
X57188Y475465D01*
X57120Y475555D01*
X57055Y475648D01*
X56993Y475743D01*
X56935Y475840D01*
X56880Y475939D01*
X56829Y476040D01*
X56781Y476143D01*
X56736Y476247D01*
X56696Y476353D01*
X56659Y476460D01*
X56626Y476568D01*
X56596Y476678D01*
X56571Y476788D01*
X56549Y476899D01*
X56532Y477011D01*
X56518Y477124D01*
X56508Y477237D01*
X56502Y477350D01*
X56500Y477463D01*
X56502Y477576D01*
X56508Y477689D01*
X56518Y477802D01*
X56532Y477915D01*
X56549Y478027D01*
X56571Y478138D01*
X56596Y478248D01*
X56626Y478358D01*
X56659Y478466D01*
X56696Y478573D01*
X56736Y478679D01*
X56781Y478783D01*
X56829Y478886D01*
X56880Y478987D01*
X56935Y479086D01*
X56993Y479183D01*
X57055Y479278D01*
X57120Y479371D01*
X57188Y479461D01*
X57259Y479549D01*
X57334Y479635D01*
X57411Y479718D01*
X57491Y479798D01*
X57574Y479875D01*
X57660Y479950D01*
X57748Y480021D01*
X57838Y480089D01*
X57931Y480154D01*
X58026Y480216D01*
X58123Y480274D01*
X58222Y480329D01*
X58323Y480380D01*
X58426Y480428D01*
X58530Y480473D01*
X58636Y480513D01*
X58743Y480550D01*
X58851Y480583D01*
X58961Y480613D01*
X59071Y480638D01*
X59182Y480660D01*
X59294Y480677D01*
X59407Y480691D01*
X59520Y480701D01*
X59633Y480707D01*
X59746Y480709D01*
X59859Y480707D01*
X59972Y480701D01*
X60085Y480691D01*
X60198Y480677D01*
X60310Y480660D01*
X60421Y480638D01*
X60531Y480613D01*
X60641Y480583D01*
X60749Y480550D01*
X60856Y480513D01*
X60962Y480473D01*
X61066Y480428D01*
X61169Y480380D01*
X61270Y480329D01*
X61369Y480274D01*
X61466Y480216D01*
X61561Y480154D01*
X61654Y480089D01*
X61744Y480021D01*
X61832Y479950D01*
X61918Y479875D01*
X62001Y479798D01*
X62081Y479718D01*
X62158Y479635D01*
X62233Y479549D01*
X62304Y479461D01*
X62372Y479371D01*
X62437Y479278D01*
X62499Y479183D01*
X62557Y479086D01*
X62612Y478987D01*
X62663Y478886D01*
X62711Y478783D01*
X62756Y478679D01*
X62796Y478573D01*
X62833Y478466D01*
X62866Y478358D01*
X62896Y478248D01*
X62921Y478138D01*
X62943Y478027D01*
X62960Y477915D01*
X62974Y477802D01*
X62984Y477689D01*
X62990Y477576D01*
X62992Y477463D01*
X62990Y477350D01*
X62984Y477237D01*
X62974Y477124D01*
X62960Y477011D01*
X62943Y476899D01*
X62921Y476788D01*
X62896Y476678D01*
X62866Y476568D01*
X62833Y476460D01*
X62796Y476353D01*
X62756Y476247D01*
X62711Y476143D01*
X62663Y476040D01*
X62612Y475939D01*
X62557Y475840D01*
X62499Y475743D01*
X62437Y475648D01*
X62372Y475555D01*
X62304Y475465D01*
X62233Y475377D01*
X62158Y475291D01*
X62081Y475208D01*
X62001Y475128D01*
X61918Y475051D01*
X61832Y474976D01*
X61744Y474905D01*
X61654Y474837D01*
X61561Y474772D01*
X61466Y474710D01*
X61369Y474652D01*
X61270Y474597D01*
X61169Y474546D01*
X61066Y474498D01*
X60962Y474453D01*
X60856Y474413D01*
X60749Y474376D01*
X60641Y474343D01*
X60531Y474313D01*
X60421Y474288D01*
X60310Y474266D01*
X60198Y474249D01*
X60085Y474235D01*
X59972Y474225D01*
X59859Y474219D01*
X59746Y474217D01*
X53904Y474867D02*
X53803Y474869D01*
X53703Y474875D01*
X53603Y474885D01*
X53503Y474898D01*
X53404Y474916D01*
X53305Y474937D01*
X53208Y474962D01*
X53111Y474991D01*
X53016Y475024D01*
X52922Y475060D01*
X52830Y475100D01*
X52739Y475143D01*
X52650Y475190D01*
X52563Y475240D01*
X52477Y475294D01*
X52394Y475351D01*
X52314Y475411D01*
X52235Y475474D01*
X52159Y475541D01*
X52086Y475610D01*
X52016Y475682D01*
X51948Y475756D01*
X51883Y475833D01*
X51822Y475913D01*
X51763Y475995D01*
X51708Y476079D01*
X51656Y476165D01*
X51607Y476253D01*
X51562Y476343D01*
X51520Y476435D01*
X51482Y476528D01*
X51448Y476623D01*
X51417Y476718D01*
X51390Y476815D01*
X51367Y476913D01*
X51347Y477012D01*
X51332Y477112D01*
X51320Y477212D01*
X51312Y477312D01*
X51308Y477413D01*
X51308Y477513D01*
X51312Y477614D01*
X51320Y477714D01*
X51332Y477814D01*
X51347Y477914D01*
X51367Y478013D01*
X51390Y478111D01*
X51417Y478208D01*
X51448Y478303D01*
X51482Y478398D01*
X51520Y478491D01*
X51562Y478583D01*
X51607Y478673D01*
X51656Y478761D01*
X51708Y478847D01*
X51763Y478931D01*
X51822Y479013D01*
X51883Y479093D01*
X51948Y479170D01*
X52016Y479244D01*
X52086Y479316D01*
X52159Y479385D01*
X52235Y479452D01*
X52314Y479515D01*
X52394Y479575D01*
X52477Y479632D01*
X52563Y479686D01*
X52650Y479736D01*
X52739Y479783D01*
X52830Y479826D01*
X52922Y479866D01*
X53016Y479902D01*
X53111Y479935D01*
X53208Y479964D01*
X53305Y479989D01*
X53404Y480010D01*
X53503Y480028D01*
X53603Y480041D01*
X53703Y480051D01*
X53803Y480057D01*
X53904Y480059D01*
X54005Y480057D01*
X54105Y480051D01*
X54205Y480041D01*
X54305Y480028D01*
X54404Y480010D01*
X54503Y479989D01*
X54600Y479964D01*
X54697Y479935D01*
X54792Y479902D01*
X54886Y479866D01*
X54978Y479826D01*
X55069Y479783D01*
X55158Y479736D01*
X55245Y479686D01*
X55331Y479632D01*
X55414Y479575D01*
X55494Y479515D01*
X55573Y479452D01*
X55649Y479385D01*
X55722Y479316D01*
X55792Y479244D01*
X55860Y479170D01*
X55925Y479093D01*
X55986Y479013D01*
X56045Y478931D01*
X56100Y478847D01*
X56152Y478761D01*
X56201Y478673D01*
X56246Y478583D01*
X56288Y478491D01*
X56326Y478398D01*
X56360Y478303D01*
X56391Y478208D01*
X56418Y478111D01*
X56441Y478013D01*
X56461Y477914D01*
X56476Y477814D01*
X56488Y477714D01*
X56496Y477614D01*
X56500Y477513D01*
X56500Y477413D01*
X56496Y477312D01*
X56488Y477212D01*
X56476Y477112D01*
X56461Y477012D01*
X56441Y476913D01*
X56418Y476815D01*
X56391Y476718D01*
X56360Y476623D01*
X56326Y476528D01*
X56288Y476435D01*
X56246Y476343D01*
X56201Y476253D01*
X56152Y476165D01*
X56100Y476079D01*
X56045Y475995D01*
X55986Y475913D01*
X55925Y475833D01*
X55860Y475756D01*
X55792Y475682D01*
X55722Y475610D01*
X55649Y475541D01*
X55573Y475474D01*
X55494Y475411D01*
X55414Y475351D01*
X55331Y475294D01*
X55245Y475240D01*
X55158Y475190D01*
X55069Y475143D01*
X54978Y475100D01*
X54886Y475060D01*
X54792Y475024D01*
X54697Y474991D01*
X54600Y474962D01*
X54503Y474937D01*
X54404Y474916D01*
X54305Y474898D01*
X54205Y474885D01*
X54105Y474875D01*
X54005Y474869D01*
X53904Y474867D01*
X59746Y485647D02*
X59633Y485649D01*
X59520Y485655D01*
X59407Y485665D01*
X59294Y485679D01*
X59182Y485696D01*
X59071Y485718D01*
X58961Y485743D01*
X58851Y485773D01*
X58743Y485806D01*
X58636Y485843D01*
X58530Y485883D01*
X58426Y485928D01*
X58323Y485976D01*
X58222Y486027D01*
X58123Y486082D01*
X58026Y486140D01*
X57931Y486202D01*
X57838Y486267D01*
X57748Y486335D01*
X57660Y486406D01*
X57574Y486481D01*
X57491Y486558D01*
X57411Y486638D01*
X57334Y486721D01*
X57259Y486807D01*
X57188Y486895D01*
X57120Y486985D01*
X57055Y487078D01*
X56993Y487173D01*
X56935Y487270D01*
X56880Y487369D01*
X56829Y487470D01*
X56781Y487573D01*
X56736Y487677D01*
X56696Y487783D01*
X56659Y487890D01*
X56626Y487998D01*
X56596Y488108D01*
X56571Y488218D01*
X56549Y488329D01*
X56532Y488441D01*
X56518Y488554D01*
X56508Y488667D01*
X56502Y488780D01*
X56500Y488893D01*
X56502Y489006D01*
X56508Y489119D01*
X56518Y489232D01*
X56532Y489345D01*
X56549Y489457D01*
X56571Y489568D01*
X56596Y489678D01*
X56626Y489788D01*
X56659Y489896D01*
X56696Y490003D01*
X56736Y490109D01*
X56781Y490213D01*
X56829Y490316D01*
X56880Y490417D01*
X56935Y490516D01*
X56993Y490613D01*
X57055Y490708D01*
X57120Y490801D01*
X57188Y490891D01*
X57259Y490979D01*
X57334Y491065D01*
X57411Y491148D01*
X57491Y491228D01*
X57574Y491305D01*
X57660Y491380D01*
X57748Y491451D01*
X57838Y491519D01*
X57931Y491584D01*
X58026Y491646D01*
X58123Y491704D01*
X58222Y491759D01*
X58323Y491810D01*
X58426Y491858D01*
X58530Y491903D01*
X58636Y491943D01*
X58743Y491980D01*
X58851Y492013D01*
X58961Y492043D01*
X59071Y492068D01*
X59182Y492090D01*
X59294Y492107D01*
X59407Y492121D01*
X59520Y492131D01*
X59633Y492137D01*
X59746Y492139D01*
X59859Y492137D01*
X59972Y492131D01*
X60085Y492121D01*
X60198Y492107D01*
X60310Y492090D01*
X60421Y492068D01*
X60531Y492043D01*
X60641Y492013D01*
X60749Y491980D01*
X60856Y491943D01*
X60962Y491903D01*
X61066Y491858D01*
X61169Y491810D01*
X61270Y491759D01*
X61369Y491704D01*
X61466Y491646D01*
X61561Y491584D01*
X61654Y491519D01*
X61744Y491451D01*
X61832Y491380D01*
X61918Y491305D01*
X62001Y491228D01*
X62081Y491148D01*
X62158Y491065D01*
X62233Y490979D01*
X62304Y490891D01*
X62372Y490801D01*
X62437Y490708D01*
X62499Y490613D01*
X62557Y490516D01*
X62612Y490417D01*
X62663Y490316D01*
X62711Y490213D01*
X62756Y490109D01*
X62796Y490003D01*
X62833Y489896D01*
X62866Y489788D01*
X62896Y489678D01*
X62921Y489568D01*
X62943Y489457D01*
X62960Y489345D01*
X62974Y489232D01*
X62984Y489119D01*
X62990Y489006D01*
X62992Y488893D01*
X62990Y488780D01*
X62984Y488667D01*
X62974Y488554D01*
X62960Y488441D01*
X62943Y488329D01*
X62921Y488218D01*
X62896Y488108D01*
X62866Y487998D01*
X62833Y487890D01*
X62796Y487783D01*
X62756Y487677D01*
X62711Y487573D01*
X62663Y487470D01*
X62612Y487369D01*
X62557Y487270D01*
X62499Y487173D01*
X62437Y487078D01*
X62372Y486985D01*
X62304Y486895D01*
X62233Y486807D01*
X62158Y486721D01*
X62081Y486638D01*
X62001Y486558D01*
X61918Y486481D01*
X61832Y486406D01*
X61744Y486335D01*
X61654Y486267D01*
X61561Y486202D01*
X61466Y486140D01*
X61369Y486082D01*
X61270Y486027D01*
X61169Y485976D01*
X61066Y485928D01*
X60962Y485883D01*
X60856Y485843D01*
X60749Y485806D01*
X60641Y485773D01*
X60531Y485743D01*
X60421Y485718D01*
X60310Y485696D01*
X60198Y485679D01*
X60085Y485665D01*
X59972Y485655D01*
X59859Y485649D01*
X59746Y485647D01*
X53904Y486297D02*
X53803Y486299D01*
X53703Y486305D01*
X53603Y486315D01*
X53503Y486328D01*
X53404Y486346D01*
X53305Y486367D01*
X53208Y486392D01*
X53111Y486421D01*
X53016Y486454D01*
X52922Y486490D01*
X52830Y486530D01*
X52739Y486573D01*
X52650Y486620D01*
X52563Y486670D01*
X52477Y486724D01*
X52394Y486781D01*
X52314Y486841D01*
X52235Y486904D01*
X52159Y486971D01*
X52086Y487040D01*
X52016Y487112D01*
X51948Y487186D01*
X51883Y487263D01*
X51822Y487343D01*
X51763Y487425D01*
X51708Y487509D01*
X51656Y487595D01*
X51607Y487683D01*
X51562Y487773D01*
X51520Y487865D01*
X51482Y487958D01*
X51448Y488053D01*
X51417Y488148D01*
X51390Y488245D01*
X51367Y488343D01*
X51347Y488442D01*
X51332Y488542D01*
X51320Y488642D01*
X51312Y488742D01*
X51308Y488843D01*
X51308Y488943D01*
X51312Y489044D01*
X51320Y489144D01*
X51332Y489244D01*
X51347Y489344D01*
X51367Y489443D01*
X51390Y489541D01*
X51417Y489638D01*
X51448Y489733D01*
X51482Y489828D01*
X51520Y489921D01*
X51562Y490013D01*
X51607Y490103D01*
X51656Y490191D01*
X51708Y490277D01*
X51763Y490361D01*
X51822Y490443D01*
X51883Y490523D01*
X51948Y490600D01*
X52016Y490674D01*
X52086Y490746D01*
X52159Y490815D01*
X52235Y490882D01*
X52314Y490945D01*
X52394Y491005D01*
X52477Y491062D01*
X52563Y491116D01*
X52650Y491166D01*
X52739Y491213D01*
X52830Y491256D01*
X52922Y491296D01*
X53016Y491332D01*
X53111Y491365D01*
X53208Y491394D01*
X53305Y491419D01*
X53404Y491440D01*
X53503Y491458D01*
X53603Y491471D01*
X53703Y491481D01*
X53803Y491487D01*
X53904Y491489D01*
X54005Y491487D01*
X54105Y491481D01*
X54205Y491471D01*
X54305Y491458D01*
X54404Y491440D01*
X54503Y491419D01*
X54600Y491394D01*
X54697Y491365D01*
X54792Y491332D01*
X54886Y491296D01*
X54978Y491256D01*
X55069Y491213D01*
X55158Y491166D01*
X55245Y491116D01*
X55331Y491062D01*
X55414Y491005D01*
X55494Y490945D01*
X55573Y490882D01*
X55649Y490815D01*
X55722Y490746D01*
X55792Y490674D01*
X55860Y490600D01*
X55925Y490523D01*
X55986Y490443D01*
X56045Y490361D01*
X56100Y490277D01*
X56152Y490191D01*
X56201Y490103D01*
X56246Y490013D01*
X56288Y489921D01*
X56326Y489828D01*
X56360Y489733D01*
X56391Y489638D01*
X56418Y489541D01*
X56441Y489443D01*
X56461Y489344D01*
X56476Y489244D01*
X56488Y489144D01*
X56496Y489044D01*
X56500Y488943D01*
X56500Y488843D01*
X56496Y488742D01*
X56488Y488642D01*
X56476Y488542D01*
X56461Y488442D01*
X56441Y488343D01*
X56418Y488245D01*
X56391Y488148D01*
X56360Y488053D01*
X56326Y487958D01*
X56288Y487865D01*
X56246Y487773D01*
X56201Y487683D01*
X56152Y487595D01*
X56100Y487509D01*
X56045Y487425D01*
X55986Y487343D01*
X55925Y487263D01*
X55860Y487186D01*
X55792Y487112D01*
X55722Y487040D01*
X55649Y486971D01*
X55573Y486904D01*
X55494Y486841D01*
X55414Y486781D01*
X55331Y486724D01*
X55245Y486670D01*
X55158Y486620D01*
X55069Y486573D01*
X54978Y486530D01*
X54886Y486490D01*
X54792Y486454D01*
X54697Y486421D01*
X54600Y486392D01*
X54503Y486367D01*
X54404Y486346D01*
X54305Y486328D01*
X54205Y486315D01*
X54105Y486305D01*
X54005Y486299D01*
X53904Y486297D01*
X56501Y497628D02*
X56501Y500874D01*
X56500Y500874D02*
X56502Y500987D01*
X56508Y501100D01*
X56518Y501213D01*
X56532Y501326D01*
X56549Y501438D01*
X56571Y501549D01*
X56596Y501659D01*
X56626Y501769D01*
X56659Y501877D01*
X56696Y501984D01*
X56736Y502090D01*
X56781Y502194D01*
X56829Y502297D01*
X56880Y502398D01*
X56935Y502497D01*
X56993Y502594D01*
X57055Y502689D01*
X57120Y502782D01*
X57188Y502872D01*
X57259Y502960D01*
X57334Y503046D01*
X57411Y503129D01*
X57491Y503209D01*
X57574Y503286D01*
X57660Y503361D01*
X57748Y503432D01*
X57838Y503500D01*
X57931Y503565D01*
X58026Y503627D01*
X58123Y503685D01*
X58222Y503740D01*
X58323Y503791D01*
X58426Y503839D01*
X58530Y503884D01*
X58636Y503924D01*
X58743Y503961D01*
X58851Y503994D01*
X58961Y504024D01*
X59071Y504049D01*
X59182Y504071D01*
X59294Y504088D01*
X59407Y504102D01*
X59520Y504112D01*
X59633Y504118D01*
X59746Y504120D01*
X59859Y504118D01*
X59972Y504112D01*
X60085Y504102D01*
X60198Y504088D01*
X60310Y504071D01*
X60421Y504049D01*
X60531Y504024D01*
X60641Y503994D01*
X60749Y503961D01*
X60856Y503924D01*
X60962Y503884D01*
X61066Y503839D01*
X61169Y503791D01*
X61270Y503740D01*
X61369Y503685D01*
X61466Y503627D01*
X61561Y503565D01*
X61654Y503500D01*
X61744Y503432D01*
X61832Y503361D01*
X61918Y503286D01*
X62001Y503209D01*
X62081Y503129D01*
X62158Y503046D01*
X62233Y502960D01*
X62304Y502872D01*
X62372Y502782D01*
X62437Y502689D01*
X62499Y502594D01*
X62557Y502497D01*
X62612Y502398D01*
X62663Y502297D01*
X62711Y502194D01*
X62756Y502090D01*
X62796Y501984D01*
X62833Y501877D01*
X62866Y501769D01*
X62896Y501659D01*
X62921Y501549D01*
X62943Y501438D01*
X62960Y501326D01*
X62974Y501213D01*
X62984Y501100D01*
X62990Y500987D01*
X62992Y500874D01*
X62992Y497628D01*
X51308Y497628D01*
X51308Y500874D01*
X51310Y500975D01*
X51316Y501075D01*
X51326Y501175D01*
X51339Y501275D01*
X51357Y501374D01*
X51378Y501473D01*
X51403Y501570D01*
X51432Y501667D01*
X51465Y501762D01*
X51501Y501856D01*
X51541Y501948D01*
X51584Y502039D01*
X51631Y502128D01*
X51681Y502215D01*
X51735Y502301D01*
X51792Y502384D01*
X51852Y502464D01*
X51915Y502543D01*
X51982Y502619D01*
X52051Y502692D01*
X52123Y502762D01*
X52197Y502830D01*
X52274Y502895D01*
X52354Y502956D01*
X52436Y503015D01*
X52520Y503070D01*
X52606Y503122D01*
X52694Y503171D01*
X52784Y503216D01*
X52876Y503258D01*
X52969Y503296D01*
X53064Y503330D01*
X53159Y503361D01*
X53256Y503388D01*
X53354Y503411D01*
X53453Y503431D01*
X53553Y503446D01*
X53653Y503458D01*
X53753Y503466D01*
X53854Y503470D01*
X53954Y503470D01*
X54055Y503466D01*
X54155Y503458D01*
X54255Y503446D01*
X54355Y503431D01*
X54454Y503411D01*
X54552Y503388D01*
X54649Y503361D01*
X54744Y503330D01*
X54839Y503296D01*
X54932Y503258D01*
X55024Y503216D01*
X55114Y503171D01*
X55202Y503122D01*
X55288Y503070D01*
X55372Y503015D01*
X55454Y502956D01*
X55534Y502895D01*
X55611Y502830D01*
X55685Y502762D01*
X55757Y502692D01*
X55826Y502619D01*
X55893Y502543D01*
X55956Y502464D01*
X56016Y502384D01*
X56073Y502301D01*
X56127Y502215D01*
X56177Y502128D01*
X56224Y502039D01*
X56267Y501948D01*
X56307Y501856D01*
X56343Y501762D01*
X56376Y501667D01*
X56405Y501570D01*
X56430Y501473D01*
X56451Y501374D01*
X56469Y501275D01*
X56482Y501175D01*
X56492Y501075D01*
X56498Y500975D01*
X56500Y500874D01*
X62992Y512021D02*
X62990Y512120D01*
X62984Y512220D01*
X62975Y512319D01*
X62962Y512417D01*
X62945Y512515D01*
X62924Y512613D01*
X62899Y512709D01*
X62871Y512804D01*
X62839Y512898D01*
X62804Y512991D01*
X62765Y513083D01*
X62722Y513173D01*
X62677Y513261D01*
X62627Y513348D01*
X62575Y513432D01*
X62519Y513515D01*
X62461Y513595D01*
X62399Y513673D01*
X62334Y513748D01*
X62266Y513821D01*
X62196Y513891D01*
X62123Y513959D01*
X62048Y514024D01*
X61970Y514086D01*
X61890Y514144D01*
X61807Y514200D01*
X61723Y514252D01*
X61636Y514302D01*
X61548Y514347D01*
X61458Y514390D01*
X61366Y514429D01*
X61273Y514464D01*
X61179Y514496D01*
X61084Y514524D01*
X60988Y514549D01*
X60890Y514570D01*
X60792Y514587D01*
X60694Y514600D01*
X60595Y514609D01*
X60495Y514615D01*
X60396Y514617D01*
X62992Y512021D02*
X62990Y511877D01*
X62984Y511732D01*
X62975Y511588D01*
X62962Y511445D01*
X62945Y511301D01*
X62924Y511158D01*
X62899Y511016D01*
X62871Y510875D01*
X62839Y510734D01*
X62803Y510594D01*
X62764Y510455D01*
X62721Y510317D01*
X62674Y510181D01*
X62624Y510045D01*
X62570Y509911D01*
X62513Y509779D01*
X62452Y509648D01*
X62388Y509519D01*
X62320Y509391D01*
X62250Y509265D01*
X62175Y509141D01*
X62098Y509020D01*
X62017Y508900D01*
X61934Y508782D01*
X61847Y508667D01*
X61757Y508554D01*
X61664Y508443D01*
X61569Y508335D01*
X61470Y508229D01*
X61369Y508126D01*
X53904Y508452D02*
X53805Y508454D01*
X53705Y508460D01*
X53606Y508469D01*
X53508Y508482D01*
X53410Y508499D01*
X53312Y508520D01*
X53216Y508545D01*
X53121Y508573D01*
X53027Y508605D01*
X52934Y508640D01*
X52842Y508679D01*
X52752Y508722D01*
X52664Y508767D01*
X52577Y508817D01*
X52493Y508869D01*
X52410Y508925D01*
X52330Y508983D01*
X52252Y509045D01*
X52177Y509110D01*
X52104Y509178D01*
X52034Y509248D01*
X51966Y509321D01*
X51901Y509396D01*
X51839Y509474D01*
X51781Y509554D01*
X51725Y509637D01*
X51673Y509721D01*
X51623Y509808D01*
X51578Y509896D01*
X51535Y509986D01*
X51496Y510078D01*
X51461Y510171D01*
X51429Y510265D01*
X51401Y510360D01*
X51376Y510456D01*
X51355Y510554D01*
X51338Y510652D01*
X51325Y510750D01*
X51316Y510849D01*
X51310Y510949D01*
X51308Y511048D01*
X51310Y511184D01*
X51316Y511320D01*
X51325Y511456D01*
X51338Y511592D01*
X51356Y511727D01*
X51376Y511861D01*
X51401Y511995D01*
X51429Y512129D01*
X51462Y512261D01*
X51497Y512392D01*
X51537Y512523D01*
X51580Y512652D01*
X51626Y512780D01*
X51677Y512906D01*
X51730Y513032D01*
X51788Y513155D01*
X51848Y513277D01*
X51912Y513397D01*
X51980Y513516D01*
X52050Y513632D01*
X52124Y513746D01*
X52201Y513859D01*
X52282Y513969D01*
X56176Y509749D02*
X56123Y509663D01*
X56066Y509579D01*
X56007Y509497D01*
X55944Y509417D01*
X55878Y509340D01*
X55810Y509265D01*
X55738Y509193D01*
X55664Y509124D01*
X55587Y509058D01*
X55508Y508995D01*
X55426Y508935D01*
X55342Y508878D01*
X55256Y508824D01*
X55168Y508774D01*
X55078Y508727D01*
X54987Y508683D01*
X54893Y508644D01*
X54799Y508607D01*
X54703Y508575D01*
X54605Y508546D01*
X54507Y508521D01*
X54408Y508500D01*
X54308Y508482D01*
X54208Y508469D01*
X54107Y508459D01*
X54005Y508453D01*
X53904Y508451D01*
X58124Y513320D02*
X58177Y513406D01*
X58234Y513490D01*
X58293Y513572D01*
X58356Y513652D01*
X58422Y513729D01*
X58490Y513804D01*
X58562Y513876D01*
X58636Y513945D01*
X58713Y514011D01*
X58792Y514074D01*
X58874Y514134D01*
X58958Y514191D01*
X59044Y514245D01*
X59132Y514295D01*
X59222Y514342D01*
X59313Y514386D01*
X59407Y514425D01*
X59501Y514462D01*
X59597Y514494D01*
X59695Y514523D01*
X59793Y514548D01*
X59892Y514569D01*
X59992Y514587D01*
X60092Y514600D01*
X60193Y514610D01*
X60295Y514616D01*
X60396Y514618D01*
X58124Y513320D02*
X56176Y509750D01*
X53904Y525272D02*
X51308Y528517D01*
X62992Y528517D01*
X62992Y525272D02*
X62992Y531763D01*
X62992Y536194D02*
X62343Y536194D01*
X62343Y536843D01*
X62992Y536843D01*
X62992Y536194D01*
X57799Y543870D02*
X57799Y547765D01*
X57799Y543870D02*
X57797Y543771D01*
X57791Y543671D01*
X57782Y543572D01*
X57769Y543474D01*
X57752Y543376D01*
X57731Y543278D01*
X57706Y543182D01*
X57678Y543087D01*
X57646Y542993D01*
X57611Y542900D01*
X57572Y542808D01*
X57529Y542718D01*
X57484Y542630D01*
X57434Y542543D01*
X57382Y542459D01*
X57326Y542376D01*
X57268Y542296D01*
X57206Y542218D01*
X57141Y542143D01*
X57073Y542070D01*
X57003Y542000D01*
X56930Y541932D01*
X56855Y541867D01*
X56777Y541805D01*
X56697Y541747D01*
X56614Y541691D01*
X56530Y541639D01*
X56443Y541589D01*
X56355Y541544D01*
X56265Y541501D01*
X56173Y541462D01*
X56080Y541427D01*
X55986Y541395D01*
X55891Y541367D01*
X55795Y541342D01*
X55697Y541321D01*
X55599Y541304D01*
X55501Y541291D01*
X55402Y541282D01*
X55302Y541276D01*
X55203Y541274D01*
X54554Y541274D01*
X54554Y541273D02*
X54441Y541275D01*
X54328Y541281D01*
X54215Y541291D01*
X54102Y541305D01*
X53990Y541322D01*
X53879Y541344D01*
X53769Y541369D01*
X53659Y541399D01*
X53551Y541432D01*
X53444Y541469D01*
X53338Y541509D01*
X53234Y541554D01*
X53131Y541602D01*
X53030Y541653D01*
X52931Y541708D01*
X52834Y541766D01*
X52739Y541828D01*
X52646Y541893D01*
X52556Y541961D01*
X52468Y542032D01*
X52382Y542107D01*
X52299Y542184D01*
X52219Y542264D01*
X52142Y542347D01*
X52067Y542433D01*
X51996Y542521D01*
X51928Y542611D01*
X51863Y542704D01*
X51801Y542799D01*
X51743Y542896D01*
X51688Y542995D01*
X51637Y543096D01*
X51589Y543199D01*
X51544Y543303D01*
X51504Y543409D01*
X51467Y543516D01*
X51434Y543624D01*
X51404Y543734D01*
X51379Y543844D01*
X51357Y543955D01*
X51340Y544067D01*
X51326Y544180D01*
X51316Y544293D01*
X51310Y544406D01*
X51308Y544519D01*
X51310Y544632D01*
X51316Y544745D01*
X51326Y544858D01*
X51340Y544971D01*
X51357Y545083D01*
X51379Y545194D01*
X51404Y545304D01*
X51434Y545414D01*
X51467Y545522D01*
X51504Y545629D01*
X51544Y545735D01*
X51589Y545839D01*
X51637Y545942D01*
X51688Y546043D01*
X51743Y546142D01*
X51801Y546239D01*
X51863Y546334D01*
X51928Y546427D01*
X51996Y546517D01*
X52067Y546605D01*
X52142Y546691D01*
X52219Y546774D01*
X52299Y546854D01*
X52382Y546931D01*
X52468Y547006D01*
X52556Y547077D01*
X52646Y547145D01*
X52739Y547210D01*
X52834Y547272D01*
X52931Y547330D01*
X53030Y547385D01*
X53131Y547436D01*
X53234Y547484D01*
X53338Y547529D01*
X53444Y547569D01*
X53551Y547606D01*
X53659Y547639D01*
X53769Y547669D01*
X53879Y547694D01*
X53990Y547716D01*
X54102Y547733D01*
X54215Y547747D01*
X54328Y547757D01*
X54441Y547763D01*
X54554Y547765D01*
X57799Y547765D01*
X57942Y547763D01*
X58085Y547757D01*
X58228Y547747D01*
X58370Y547733D01*
X58512Y547716D01*
X58654Y547694D01*
X58795Y547669D01*
X58935Y547639D01*
X59074Y547606D01*
X59212Y547569D01*
X59349Y547528D01*
X59485Y547484D01*
X59620Y547435D01*
X59753Y547383D01*
X59885Y547328D01*
X60015Y547268D01*
X60144Y547205D01*
X60271Y547139D01*
X60396Y547069D01*
X60518Y546996D01*
X60639Y546919D01*
X60758Y546839D01*
X60874Y546756D01*
X60989Y546670D01*
X61100Y546581D01*
X61210Y546488D01*
X61316Y546393D01*
X61420Y546294D01*
X61521Y546193D01*
X61620Y546089D01*
X61715Y545983D01*
X61808Y545873D01*
X61897Y545762D01*
X61983Y545647D01*
X62066Y545531D01*
X62146Y545412D01*
X62223Y545291D01*
X62296Y545169D01*
X62366Y545044D01*
X62432Y544917D01*
X62495Y544788D01*
X62555Y544658D01*
X62610Y544526D01*
X62662Y544393D01*
X62711Y544258D01*
X62755Y544122D01*
X62796Y543985D01*
X62833Y543847D01*
X62866Y543708D01*
X62896Y543568D01*
X62921Y543427D01*
X62943Y543285D01*
X62960Y543143D01*
X62974Y543001D01*
X62984Y542858D01*
X62990Y542715D01*
X62992Y542572D01*
X62992Y553198D02*
X55203Y553198D01*
X55203Y559040D01*
X55205Y559127D01*
X55211Y559215D01*
X55221Y559301D01*
X55234Y559388D01*
X55252Y559473D01*
X55273Y559558D01*
X55298Y559642D01*
X55327Y559724D01*
X55360Y559805D01*
X55396Y559885D01*
X55435Y559963D01*
X55479Y560039D01*
X55525Y560113D01*
X55575Y560184D01*
X55628Y560254D01*
X55684Y560321D01*
X55743Y560385D01*
X55805Y560447D01*
X55869Y560506D01*
X55936Y560562D01*
X56006Y560615D01*
X56077Y560665D01*
X56151Y560711D01*
X56227Y560755D01*
X56305Y560794D01*
X56385Y560830D01*
X56466Y560863D01*
X56548Y560892D01*
X56632Y560917D01*
X56717Y560938D01*
X56802Y560956D01*
X56889Y560969D01*
X56975Y560979D01*
X57063Y560985D01*
X57150Y560987D01*
X62992Y560987D01*
X62992Y557092D02*
X55203Y557092D01*
X55203Y566914D02*
X62992Y566914D01*
X55203Y566914D02*
X55203Y572756D01*
X55205Y572843D01*
X55211Y572931D01*
X55221Y573017D01*
X55234Y573104D01*
X55252Y573189D01*
X55273Y573274D01*
X55298Y573358D01*
X55327Y573440D01*
X55360Y573521D01*
X55396Y573601D01*
X55435Y573679D01*
X55479Y573755D01*
X55525Y573829D01*
X55575Y573900D01*
X55628Y573970D01*
X55684Y574037D01*
X55743Y574101D01*
X55805Y574163D01*
X55869Y574222D01*
X55936Y574278D01*
X56006Y574331D01*
X56077Y574381D01*
X56151Y574427D01*
X56227Y574471D01*
X56305Y574510D01*
X56385Y574546D01*
X56466Y574579D01*
X56548Y574608D01*
X56632Y574633D01*
X56717Y574654D01*
X56802Y574672D01*
X56889Y574685D01*
X56975Y574695D01*
X57063Y574701D01*
X57150Y574703D01*
X62992Y574703D01*
X62992Y570808D02*
X55203Y570808D01*
X70358Y424688D02*
X82042Y424688D01*
X82042Y429881D01*
X82042Y434594D02*
X82042Y439787D01*
X82042Y434594D02*
X70358Y434594D01*
X70358Y439787D01*
X75551Y438489D02*
X75551Y434594D01*
X70358Y444477D02*
X82042Y444477D01*
X70358Y444477D02*
X70358Y447723D01*
X70360Y447836D01*
X70366Y447949D01*
X70376Y448062D01*
X70390Y448175D01*
X70407Y448287D01*
X70429Y448398D01*
X70454Y448508D01*
X70484Y448618D01*
X70517Y448726D01*
X70554Y448833D01*
X70594Y448939D01*
X70639Y449043D01*
X70687Y449146D01*
X70738Y449247D01*
X70793Y449346D01*
X70851Y449443D01*
X70913Y449538D01*
X70978Y449631D01*
X71046Y449721D01*
X71117Y449809D01*
X71192Y449895D01*
X71269Y449978D01*
X71349Y450058D01*
X71432Y450135D01*
X71518Y450210D01*
X71606Y450281D01*
X71696Y450349D01*
X71789Y450414D01*
X71884Y450476D01*
X71981Y450534D01*
X72080Y450589D01*
X72181Y450640D01*
X72284Y450688D01*
X72388Y450733D01*
X72494Y450773D01*
X72601Y450810D01*
X72709Y450843D01*
X72819Y450873D01*
X72929Y450898D01*
X73040Y450920D01*
X73152Y450937D01*
X73265Y450951D01*
X73378Y450961D01*
X73491Y450967D01*
X73604Y450969D01*
X78796Y450969D01*
X78909Y450967D01*
X79022Y450961D01*
X79135Y450951D01*
X79248Y450937D01*
X79360Y450920D01*
X79471Y450898D01*
X79581Y450873D01*
X79691Y450843D01*
X79799Y450810D01*
X79906Y450773D01*
X80012Y450733D01*
X80116Y450688D01*
X80219Y450640D01*
X80320Y450589D01*
X80419Y450534D01*
X80516Y450476D01*
X80611Y450414D01*
X80704Y450349D01*
X80794Y450281D01*
X80882Y450210D01*
X80968Y450135D01*
X81051Y450058D01*
X81131Y449978D01*
X81208Y449895D01*
X81283Y449809D01*
X81354Y449721D01*
X81422Y449631D01*
X81487Y449538D01*
X81549Y449443D01*
X81607Y449346D01*
X81662Y449247D01*
X81713Y449146D01*
X81761Y449043D01*
X81806Y448939D01*
X81846Y448833D01*
X81883Y448726D01*
X81916Y448618D01*
X81946Y448508D01*
X81971Y448398D01*
X81993Y448287D01*
X82010Y448175D01*
X82024Y448062D01*
X82034Y447949D01*
X82040Y447836D01*
X82042Y447723D01*
X82042Y444477D01*
X82042Y462878D02*
X70358Y462878D01*
X76849Y466773D01*
X70358Y470668D01*
X82042Y470668D01*
X79446Y475988D02*
X76849Y475988D01*
X76748Y475990D01*
X76648Y475996D01*
X76548Y476006D01*
X76448Y476019D01*
X76349Y476037D01*
X76250Y476058D01*
X76153Y476083D01*
X76056Y476112D01*
X75961Y476145D01*
X75867Y476181D01*
X75775Y476221D01*
X75684Y476264D01*
X75595Y476311D01*
X75508Y476361D01*
X75422Y476415D01*
X75339Y476472D01*
X75259Y476532D01*
X75180Y476595D01*
X75104Y476662D01*
X75031Y476731D01*
X74961Y476803D01*
X74893Y476877D01*
X74828Y476954D01*
X74767Y477034D01*
X74708Y477116D01*
X74653Y477200D01*
X74601Y477286D01*
X74552Y477374D01*
X74507Y477464D01*
X74465Y477556D01*
X74427Y477649D01*
X74393Y477744D01*
X74362Y477839D01*
X74335Y477936D01*
X74312Y478034D01*
X74292Y478133D01*
X74277Y478233D01*
X74265Y478333D01*
X74257Y478433D01*
X74253Y478534D01*
X74253Y478634D01*
X74257Y478735D01*
X74265Y478835D01*
X74277Y478935D01*
X74292Y479035D01*
X74312Y479134D01*
X74335Y479232D01*
X74362Y479329D01*
X74393Y479424D01*
X74427Y479519D01*
X74465Y479612D01*
X74507Y479704D01*
X74552Y479794D01*
X74601Y479882D01*
X74653Y479968D01*
X74708Y480052D01*
X74767Y480134D01*
X74828Y480214D01*
X74893Y480291D01*
X74961Y480365D01*
X75031Y480437D01*
X75104Y480506D01*
X75180Y480573D01*
X75259Y480636D01*
X75339Y480696D01*
X75422Y480753D01*
X75508Y480807D01*
X75595Y480857D01*
X75684Y480904D01*
X75775Y480947D01*
X75867Y480987D01*
X75961Y481023D01*
X76056Y481056D01*
X76153Y481085D01*
X76250Y481110D01*
X76349Y481131D01*
X76448Y481149D01*
X76548Y481162D01*
X76648Y481172D01*
X76748Y481178D01*
X76849Y481180D01*
X79446Y481180D01*
X79547Y481178D01*
X79647Y481172D01*
X79747Y481162D01*
X79847Y481149D01*
X79946Y481131D01*
X80045Y481110D01*
X80142Y481085D01*
X80239Y481056D01*
X80334Y481023D01*
X80428Y480987D01*
X80520Y480947D01*
X80611Y480904D01*
X80700Y480857D01*
X80787Y480807D01*
X80873Y480753D01*
X80956Y480696D01*
X81036Y480636D01*
X81115Y480573D01*
X81191Y480506D01*
X81264Y480437D01*
X81334Y480365D01*
X81402Y480291D01*
X81467Y480214D01*
X81528Y480134D01*
X81587Y480052D01*
X81642Y479968D01*
X81694Y479882D01*
X81743Y479794D01*
X81788Y479704D01*
X81830Y479612D01*
X81868Y479519D01*
X81902Y479424D01*
X81933Y479329D01*
X81960Y479232D01*
X81983Y479134D01*
X82003Y479035D01*
X82018Y478935D01*
X82030Y478835D01*
X82038Y478735D01*
X82042Y478634D01*
X82042Y478534D01*
X82038Y478433D01*
X82030Y478333D01*
X82018Y478233D01*
X82003Y478133D01*
X81983Y478034D01*
X81960Y477936D01*
X81933Y477839D01*
X81902Y477744D01*
X81868Y477649D01*
X81830Y477556D01*
X81788Y477464D01*
X81743Y477374D01*
X81694Y477286D01*
X81642Y477200D01*
X81587Y477116D01*
X81528Y477034D01*
X81467Y476954D01*
X81402Y476877D01*
X81334Y476803D01*
X81264Y476731D01*
X81191Y476662D01*
X81115Y476595D01*
X81036Y476532D01*
X80956Y476472D01*
X80873Y476415D01*
X80787Y476361D01*
X80700Y476311D01*
X80611Y476264D01*
X80520Y476221D01*
X80428Y476181D01*
X80334Y476145D01*
X80239Y476112D01*
X80142Y476083D01*
X80045Y476058D01*
X79946Y476037D01*
X79847Y476019D01*
X79747Y476006D01*
X79647Y475996D01*
X79547Y475990D01*
X79446Y475988D01*
X82042Y491027D02*
X70358Y491027D01*
X82042Y491027D02*
X82042Y487782D01*
X82040Y487695D01*
X82034Y487607D01*
X82024Y487521D01*
X82011Y487434D01*
X81993Y487349D01*
X81972Y487264D01*
X81947Y487180D01*
X81918Y487098D01*
X81885Y487017D01*
X81849Y486937D01*
X81810Y486859D01*
X81766Y486783D01*
X81720Y486709D01*
X81670Y486638D01*
X81617Y486568D01*
X81561Y486501D01*
X81502Y486437D01*
X81440Y486375D01*
X81376Y486316D01*
X81309Y486260D01*
X81239Y486207D01*
X81168Y486157D01*
X81094Y486111D01*
X81018Y486067D01*
X80940Y486028D01*
X80860Y485992D01*
X80779Y485959D01*
X80697Y485930D01*
X80613Y485905D01*
X80528Y485884D01*
X80443Y485866D01*
X80356Y485853D01*
X80270Y485843D01*
X80182Y485837D01*
X80095Y485835D01*
X76200Y485835D01*
X76113Y485837D01*
X76025Y485843D01*
X75939Y485853D01*
X75852Y485866D01*
X75767Y485884D01*
X75682Y485905D01*
X75598Y485930D01*
X75516Y485959D01*
X75435Y485992D01*
X75355Y486028D01*
X75277Y486067D01*
X75201Y486111D01*
X75127Y486157D01*
X75056Y486207D01*
X74986Y486260D01*
X74919Y486316D01*
X74855Y486375D01*
X74793Y486437D01*
X74734Y486501D01*
X74678Y486568D01*
X74625Y486638D01*
X74575Y486709D01*
X74529Y486783D01*
X74485Y486859D01*
X74446Y486937D01*
X74410Y487017D01*
X74377Y487098D01*
X74348Y487180D01*
X74323Y487264D01*
X74302Y487349D01*
X74284Y487434D01*
X74271Y487521D01*
X74261Y487607D01*
X74255Y487695D01*
X74253Y487782D01*
X74253Y491027D01*
X74253Y496561D02*
X80095Y496561D01*
X80095Y496562D02*
X80182Y496564D01*
X80270Y496570D01*
X80356Y496580D01*
X80443Y496593D01*
X80528Y496611D01*
X80613Y496632D01*
X80697Y496657D01*
X80779Y496686D01*
X80860Y496719D01*
X80940Y496755D01*
X81018Y496794D01*
X81094Y496838D01*
X81168Y496884D01*
X81239Y496934D01*
X81309Y496987D01*
X81376Y497043D01*
X81440Y497102D01*
X81502Y497164D01*
X81561Y497228D01*
X81617Y497295D01*
X81670Y497365D01*
X81720Y497436D01*
X81766Y497510D01*
X81810Y497586D01*
X81849Y497664D01*
X81885Y497744D01*
X81918Y497825D01*
X81947Y497907D01*
X81972Y497991D01*
X81993Y498076D01*
X82011Y498161D01*
X82024Y498248D01*
X82034Y498334D01*
X82040Y498422D01*
X82042Y498509D01*
X82042Y501754D01*
X74253Y501754D01*
X70358Y506998D02*
X80095Y506998D01*
X80182Y507000D01*
X80270Y507006D01*
X80356Y507016D01*
X80443Y507029D01*
X80528Y507047D01*
X80613Y507068D01*
X80697Y507093D01*
X80779Y507122D01*
X80860Y507155D01*
X80940Y507191D01*
X81018Y507230D01*
X81094Y507274D01*
X81168Y507320D01*
X81239Y507370D01*
X81309Y507423D01*
X81376Y507479D01*
X81440Y507538D01*
X81502Y507600D01*
X81561Y507664D01*
X81617Y507731D01*
X81670Y507801D01*
X81720Y507872D01*
X81766Y507946D01*
X81810Y508022D01*
X81849Y508100D01*
X81885Y508180D01*
X81918Y508261D01*
X81947Y508343D01*
X81972Y508427D01*
X81993Y508512D01*
X82011Y508597D01*
X82024Y508684D01*
X82034Y508770D01*
X82040Y508858D01*
X82042Y508945D01*
X82042Y514892D02*
X82042Y518137D01*
X82042Y514892D02*
X82040Y514805D01*
X82034Y514717D01*
X82024Y514631D01*
X82011Y514544D01*
X81993Y514459D01*
X81972Y514374D01*
X81947Y514290D01*
X81918Y514208D01*
X81885Y514127D01*
X81849Y514047D01*
X81810Y513969D01*
X81766Y513893D01*
X81720Y513819D01*
X81670Y513748D01*
X81617Y513678D01*
X81561Y513611D01*
X81502Y513547D01*
X81440Y513485D01*
X81376Y513426D01*
X81309Y513370D01*
X81239Y513317D01*
X81168Y513267D01*
X81094Y513221D01*
X81018Y513177D01*
X80940Y513138D01*
X80860Y513102D01*
X80779Y513069D01*
X80697Y513040D01*
X80613Y513015D01*
X80528Y512994D01*
X80443Y512976D01*
X80356Y512963D01*
X80270Y512953D01*
X80182Y512947D01*
X80095Y512945D01*
X80095Y512944D02*
X76849Y512944D01*
X76849Y512945D02*
X76748Y512947D01*
X76648Y512953D01*
X76548Y512963D01*
X76448Y512976D01*
X76349Y512994D01*
X76250Y513015D01*
X76153Y513040D01*
X76056Y513069D01*
X75961Y513102D01*
X75867Y513138D01*
X75775Y513178D01*
X75684Y513221D01*
X75595Y513268D01*
X75508Y513318D01*
X75422Y513372D01*
X75339Y513429D01*
X75259Y513489D01*
X75180Y513552D01*
X75104Y513619D01*
X75031Y513688D01*
X74961Y513760D01*
X74893Y513834D01*
X74828Y513911D01*
X74767Y513991D01*
X74708Y514073D01*
X74653Y514157D01*
X74601Y514243D01*
X74552Y514331D01*
X74507Y514421D01*
X74465Y514513D01*
X74427Y514606D01*
X74393Y514701D01*
X74362Y514796D01*
X74335Y514893D01*
X74312Y514991D01*
X74292Y515090D01*
X74277Y515190D01*
X74265Y515290D01*
X74257Y515390D01*
X74253Y515491D01*
X74253Y515591D01*
X74257Y515692D01*
X74265Y515792D01*
X74277Y515892D01*
X74292Y515992D01*
X74312Y516091D01*
X74335Y516189D01*
X74362Y516286D01*
X74393Y516381D01*
X74427Y516476D01*
X74465Y516569D01*
X74507Y516661D01*
X74552Y516751D01*
X74601Y516839D01*
X74653Y516925D01*
X74708Y517009D01*
X74767Y517091D01*
X74828Y517171D01*
X74893Y517248D01*
X74961Y517322D01*
X75031Y517394D01*
X75104Y517463D01*
X75180Y517530D01*
X75259Y517593D01*
X75339Y517653D01*
X75422Y517710D01*
X75508Y517764D01*
X75595Y517814D01*
X75684Y517861D01*
X75775Y517904D01*
X75867Y517944D01*
X75961Y517980D01*
X76056Y518013D01*
X76153Y518042D01*
X76250Y518067D01*
X76349Y518088D01*
X76448Y518106D01*
X76548Y518119D01*
X76648Y518129D01*
X76748Y518135D01*
X76849Y518137D01*
X78147Y518137D01*
X78147Y512944D01*
X77498Y523824D02*
X78796Y527070D01*
X77499Y523824D02*
X77466Y523749D01*
X77430Y523675D01*
X77391Y523603D01*
X77348Y523533D01*
X77302Y523466D01*
X77252Y523400D01*
X77200Y523338D01*
X77144Y523277D01*
X77086Y523220D01*
X77025Y523165D01*
X76961Y523114D01*
X76895Y523066D01*
X76826Y523021D01*
X76756Y522979D01*
X76683Y522941D01*
X76609Y522906D01*
X76533Y522875D01*
X76456Y522848D01*
X76377Y522825D01*
X76298Y522805D01*
X76217Y522790D01*
X76136Y522778D01*
X76054Y522770D01*
X75973Y522766D01*
X75891Y522767D01*
X75809Y522771D01*
X75727Y522779D01*
X75646Y522791D01*
X75566Y522807D01*
X75486Y522827D01*
X75408Y522851D01*
X75331Y522879D01*
X75255Y522910D01*
X75181Y522945D01*
X75109Y522983D01*
X75038Y523025D01*
X74970Y523071D01*
X74904Y523119D01*
X74841Y523171D01*
X74780Y523226D01*
X74722Y523284D01*
X74666Y523344D01*
X74614Y523407D01*
X74565Y523473D01*
X74519Y523541D01*
X74477Y523611D01*
X74437Y523683D01*
X74402Y523757D01*
X74370Y523832D01*
X74342Y523909D01*
X74318Y523987D01*
X74297Y524067D01*
X74280Y524147D01*
X74268Y524228D01*
X74259Y524309D01*
X74254Y524391D01*
X74253Y524473D01*
X74257Y524650D01*
X74266Y524827D01*
X74280Y525004D01*
X74297Y525181D01*
X74319Y525356D01*
X74344Y525532D01*
X74375Y525706D01*
X74409Y525880D01*
X74447Y526053D01*
X74490Y526225D01*
X74537Y526396D01*
X74587Y526566D01*
X74642Y526735D01*
X74701Y526902D01*
X74764Y527068D01*
X74831Y527232D01*
X74902Y527394D01*
X78796Y527070D02*
X78829Y527145D01*
X78865Y527219D01*
X78904Y527291D01*
X78947Y527361D01*
X78993Y527428D01*
X79043Y527494D01*
X79095Y527556D01*
X79151Y527617D01*
X79209Y527674D01*
X79270Y527729D01*
X79334Y527780D01*
X79400Y527828D01*
X79469Y527873D01*
X79539Y527915D01*
X79612Y527953D01*
X79686Y527988D01*
X79762Y528019D01*
X79839Y528046D01*
X79918Y528069D01*
X79998Y528089D01*
X80078Y528104D01*
X80159Y528116D01*
X80241Y528124D01*
X80322Y528128D01*
X80404Y528127D01*
X80486Y528123D01*
X80568Y528115D01*
X80649Y528103D01*
X80729Y528087D01*
X80809Y528067D01*
X80887Y528043D01*
X80964Y528015D01*
X81040Y527984D01*
X81114Y527949D01*
X81186Y527911D01*
X81257Y527869D01*
X81325Y527823D01*
X81391Y527775D01*
X81454Y527723D01*
X81515Y527668D01*
X81573Y527610D01*
X81629Y527550D01*
X81681Y527487D01*
X81730Y527421D01*
X81776Y527353D01*
X81818Y527283D01*
X81858Y527211D01*
X81893Y527137D01*
X81925Y527062D01*
X81953Y526985D01*
X81977Y526907D01*
X81998Y526827D01*
X82015Y526747D01*
X82027Y526666D01*
X82036Y526585D01*
X82041Y526503D01*
X82042Y526421D01*
X82035Y526161D01*
X82022Y525901D01*
X82003Y525641D01*
X81978Y525382D01*
X81946Y525123D01*
X81909Y524866D01*
X81865Y524609D01*
X81816Y524353D01*
X81760Y524099D01*
X81699Y523846D01*
X81631Y523595D01*
X81557Y523345D01*
X81478Y523097D01*
X81393Y522851D01*
D13*
X254Y812546D02*
X202946Y812546D01*
X202946Y609854D01*
X254Y609854D01*
X254Y812546D01*
D10*
X148082Y805265D02*
X148082Y796826D01*
X148084Y796713D01*
X148090Y796600D01*
X148100Y796487D01*
X148114Y796374D01*
X148131Y796262D01*
X148153Y796151D01*
X148178Y796041D01*
X148208Y795931D01*
X148241Y795823D01*
X148278Y795716D01*
X148318Y795610D01*
X148363Y795506D01*
X148411Y795403D01*
X148462Y795302D01*
X148517Y795203D01*
X148575Y795106D01*
X148637Y795011D01*
X148702Y794918D01*
X148770Y794828D01*
X148841Y794740D01*
X148916Y794654D01*
X148993Y794571D01*
X149073Y794491D01*
X149156Y794414D01*
X149242Y794339D01*
X149330Y794268D01*
X149420Y794200D01*
X149513Y794135D01*
X149608Y794073D01*
X149705Y794015D01*
X149804Y793960D01*
X149905Y793909D01*
X150008Y793861D01*
X150112Y793816D01*
X150218Y793776D01*
X150325Y793739D01*
X150433Y793706D01*
X150543Y793676D01*
X150653Y793651D01*
X150764Y793629D01*
X150876Y793612D01*
X150989Y793598D01*
X151102Y793588D01*
X151215Y793582D01*
X151328Y793580D01*
X151441Y793582D01*
X151554Y793588D01*
X151667Y793598D01*
X151780Y793612D01*
X151892Y793629D01*
X152003Y793651D01*
X152113Y793676D01*
X152223Y793706D01*
X152331Y793739D01*
X152438Y793776D01*
X152544Y793816D01*
X152648Y793861D01*
X152751Y793909D01*
X152852Y793960D01*
X152951Y794015D01*
X153048Y794073D01*
X153143Y794135D01*
X153236Y794200D01*
X153326Y794268D01*
X153414Y794339D01*
X153500Y794414D01*
X153583Y794491D01*
X153663Y794571D01*
X153740Y794654D01*
X153815Y794740D01*
X153886Y794828D01*
X153954Y794918D01*
X154019Y795011D01*
X154081Y795106D01*
X154139Y795203D01*
X154194Y795302D01*
X154245Y795403D01*
X154293Y795506D01*
X154338Y795610D01*
X154378Y795716D01*
X154415Y795823D01*
X154448Y795931D01*
X154478Y796041D01*
X154503Y796151D01*
X154525Y796262D01*
X154542Y796374D01*
X154556Y796487D01*
X154566Y796600D01*
X154572Y796713D01*
X154574Y796826D01*
X154573Y796826D02*
X154573Y805265D01*
X159893Y802668D02*
X163139Y805265D01*
X163139Y793581D01*
X166384Y793581D02*
X159893Y793581D01*
D13*
X203454Y812546D02*
X406146Y812546D01*
X406146Y609854D01*
X203454Y609854D01*
X203454Y812546D01*
D10*
X348742Y805265D02*
X348742Y796826D01*
X348744Y796713D01*
X348750Y796600D01*
X348760Y796487D01*
X348774Y796374D01*
X348791Y796262D01*
X348813Y796151D01*
X348838Y796041D01*
X348868Y795931D01*
X348901Y795823D01*
X348938Y795716D01*
X348978Y795610D01*
X349023Y795506D01*
X349071Y795403D01*
X349122Y795302D01*
X349177Y795203D01*
X349235Y795106D01*
X349297Y795011D01*
X349362Y794918D01*
X349430Y794828D01*
X349501Y794740D01*
X349576Y794654D01*
X349653Y794571D01*
X349733Y794491D01*
X349816Y794414D01*
X349902Y794339D01*
X349990Y794268D01*
X350080Y794200D01*
X350173Y794135D01*
X350268Y794073D01*
X350365Y794015D01*
X350464Y793960D01*
X350565Y793909D01*
X350668Y793861D01*
X350772Y793816D01*
X350878Y793776D01*
X350985Y793739D01*
X351093Y793706D01*
X351203Y793676D01*
X351313Y793651D01*
X351424Y793629D01*
X351536Y793612D01*
X351649Y793598D01*
X351762Y793588D01*
X351875Y793582D01*
X351988Y793580D01*
X352101Y793582D01*
X352214Y793588D01*
X352327Y793598D01*
X352440Y793612D01*
X352552Y793629D01*
X352663Y793651D01*
X352773Y793676D01*
X352883Y793706D01*
X352991Y793739D01*
X353098Y793776D01*
X353204Y793816D01*
X353308Y793861D01*
X353411Y793909D01*
X353512Y793960D01*
X353611Y794015D01*
X353708Y794073D01*
X353803Y794135D01*
X353896Y794200D01*
X353986Y794268D01*
X354074Y794339D01*
X354160Y794414D01*
X354243Y794491D01*
X354323Y794571D01*
X354400Y794654D01*
X354475Y794740D01*
X354546Y794828D01*
X354614Y794918D01*
X354679Y795011D01*
X354741Y795106D01*
X354799Y795203D01*
X354854Y795302D01*
X354905Y795403D01*
X354953Y795506D01*
X354998Y795610D01*
X355038Y795716D01*
X355075Y795823D01*
X355108Y795931D01*
X355138Y796041D01*
X355163Y796151D01*
X355185Y796262D01*
X355202Y796374D01*
X355216Y796487D01*
X355226Y796600D01*
X355232Y796713D01*
X355234Y796826D01*
X355233Y796826D02*
X355233Y805265D01*
X364123Y805265D02*
X364230Y805263D01*
X364336Y805257D01*
X364442Y805247D01*
X364548Y805234D01*
X364654Y805216D01*
X364758Y805195D01*
X364862Y805170D01*
X364965Y805141D01*
X365066Y805109D01*
X365166Y805072D01*
X365265Y805032D01*
X365363Y804989D01*
X365459Y804942D01*
X365553Y804891D01*
X365645Y804837D01*
X365735Y804780D01*
X365823Y804720D01*
X365908Y804656D01*
X365991Y804589D01*
X366072Y804519D01*
X366150Y804447D01*
X366226Y804371D01*
X366298Y804293D01*
X366368Y804212D01*
X366435Y804129D01*
X366499Y804044D01*
X366559Y803956D01*
X366616Y803866D01*
X366670Y803774D01*
X366721Y803680D01*
X366768Y803584D01*
X366811Y803486D01*
X366851Y803387D01*
X366888Y803287D01*
X366920Y803186D01*
X366949Y803083D01*
X366974Y802979D01*
X366995Y802875D01*
X367013Y802769D01*
X367026Y802663D01*
X367036Y802557D01*
X367042Y802451D01*
X367044Y802344D01*
X364123Y805265D02*
X364002Y805263D01*
X363881Y805257D01*
X363761Y805247D01*
X363640Y805234D01*
X363521Y805216D01*
X363401Y805195D01*
X363283Y805170D01*
X363166Y805141D01*
X363049Y805108D01*
X362934Y805072D01*
X362820Y805031D01*
X362707Y804988D01*
X362595Y804940D01*
X362486Y804889D01*
X362378Y804834D01*
X362271Y804776D01*
X362167Y804715D01*
X362065Y804650D01*
X361965Y804582D01*
X361867Y804511D01*
X361771Y804437D01*
X361678Y804360D01*
X361588Y804279D01*
X361500Y804196D01*
X361415Y804110D01*
X361332Y804021D01*
X361253Y803930D01*
X361176Y803836D01*
X361103Y803740D01*
X361033Y803642D01*
X360966Y803541D01*
X360902Y803438D01*
X360842Y803333D01*
X360785Y803226D01*
X360731Y803118D01*
X360681Y803008D01*
X360635Y802896D01*
X360592Y802783D01*
X360553Y802668D01*
X366071Y800072D02*
X366150Y800149D01*
X366226Y800230D01*
X366299Y800313D01*
X366369Y800398D01*
X366436Y800486D01*
X366500Y800576D01*
X366560Y800668D01*
X366617Y800763D01*
X366671Y800859D01*
X366722Y800957D01*
X366769Y801057D01*
X366813Y801159D01*
X366853Y801262D01*
X366889Y801366D01*
X366921Y801472D01*
X366950Y801578D01*
X366975Y801686D01*
X366997Y801794D01*
X367014Y801904D01*
X367028Y802013D01*
X367037Y802123D01*
X367043Y802234D01*
X367045Y802344D01*
X366070Y800072D02*
X360553Y793581D01*
X367044Y793581D01*
D13*
X406654Y812546D02*
X609346Y812546D01*
X609346Y609854D01*
X406654Y609854D01*
X406654Y812546D01*
D10*
X449072Y805265D02*
X449072Y796826D01*
X449074Y796713D01*
X449080Y796600D01*
X449090Y796487D01*
X449104Y796374D01*
X449121Y796262D01*
X449143Y796151D01*
X449168Y796041D01*
X449198Y795931D01*
X449231Y795823D01*
X449268Y795716D01*
X449308Y795610D01*
X449353Y795506D01*
X449401Y795403D01*
X449452Y795302D01*
X449507Y795203D01*
X449565Y795106D01*
X449627Y795011D01*
X449692Y794918D01*
X449760Y794828D01*
X449831Y794740D01*
X449906Y794654D01*
X449983Y794571D01*
X450063Y794491D01*
X450146Y794414D01*
X450232Y794339D01*
X450320Y794268D01*
X450410Y794200D01*
X450503Y794135D01*
X450598Y794073D01*
X450695Y794015D01*
X450794Y793960D01*
X450895Y793909D01*
X450998Y793861D01*
X451102Y793816D01*
X451208Y793776D01*
X451315Y793739D01*
X451423Y793706D01*
X451533Y793676D01*
X451643Y793651D01*
X451754Y793629D01*
X451866Y793612D01*
X451979Y793598D01*
X452092Y793588D01*
X452205Y793582D01*
X452318Y793580D01*
X452431Y793582D01*
X452544Y793588D01*
X452657Y793598D01*
X452770Y793612D01*
X452882Y793629D01*
X452993Y793651D01*
X453103Y793676D01*
X453213Y793706D01*
X453321Y793739D01*
X453428Y793776D01*
X453534Y793816D01*
X453638Y793861D01*
X453741Y793909D01*
X453842Y793960D01*
X453941Y794015D01*
X454038Y794073D01*
X454133Y794135D01*
X454226Y794200D01*
X454316Y794268D01*
X454404Y794339D01*
X454490Y794414D01*
X454573Y794491D01*
X454653Y794571D01*
X454730Y794654D01*
X454805Y794740D01*
X454876Y794828D01*
X454944Y794918D01*
X455009Y795011D01*
X455071Y795106D01*
X455129Y795203D01*
X455184Y795302D01*
X455235Y795403D01*
X455283Y795506D01*
X455328Y795610D01*
X455368Y795716D01*
X455405Y795823D01*
X455438Y795931D01*
X455468Y796041D01*
X455493Y796151D01*
X455515Y796262D01*
X455532Y796374D01*
X455546Y796487D01*
X455556Y796600D01*
X455562Y796713D01*
X455564Y796826D01*
X455563Y796826D02*
X455563Y805265D01*
X460883Y793581D02*
X464129Y793581D01*
X464129Y793580D02*
X464242Y793582D01*
X464355Y793588D01*
X464468Y793598D01*
X464581Y793612D01*
X464693Y793629D01*
X464804Y793651D01*
X464914Y793676D01*
X465024Y793706D01*
X465132Y793739D01*
X465239Y793776D01*
X465345Y793816D01*
X465449Y793861D01*
X465552Y793909D01*
X465653Y793960D01*
X465752Y794015D01*
X465849Y794073D01*
X465944Y794135D01*
X466037Y794200D01*
X466127Y794268D01*
X466215Y794339D01*
X466301Y794414D01*
X466384Y794491D01*
X466464Y794571D01*
X466541Y794654D01*
X466616Y794740D01*
X466687Y794828D01*
X466755Y794918D01*
X466820Y795011D01*
X466882Y795106D01*
X466940Y795203D01*
X466995Y795302D01*
X467046Y795403D01*
X467094Y795506D01*
X467139Y795610D01*
X467179Y795716D01*
X467216Y795823D01*
X467249Y795931D01*
X467279Y796041D01*
X467304Y796151D01*
X467326Y796262D01*
X467343Y796374D01*
X467357Y796487D01*
X467367Y796600D01*
X467373Y796713D01*
X467375Y796826D01*
X467373Y796939D01*
X467367Y797052D01*
X467357Y797165D01*
X467343Y797278D01*
X467326Y797390D01*
X467304Y797501D01*
X467279Y797611D01*
X467249Y797721D01*
X467216Y797829D01*
X467179Y797936D01*
X467139Y798042D01*
X467094Y798146D01*
X467046Y798249D01*
X466995Y798350D01*
X466940Y798449D01*
X466882Y798546D01*
X466820Y798641D01*
X466755Y798734D01*
X466687Y798824D01*
X466616Y798912D01*
X466541Y798998D01*
X466464Y799081D01*
X466384Y799161D01*
X466301Y799238D01*
X466215Y799313D01*
X466127Y799384D01*
X466037Y799452D01*
X465944Y799517D01*
X465849Y799579D01*
X465752Y799637D01*
X465653Y799692D01*
X465552Y799743D01*
X465449Y799791D01*
X465345Y799836D01*
X465239Y799876D01*
X465132Y799913D01*
X465024Y799946D01*
X464914Y799976D01*
X464804Y800001D01*
X464693Y800023D01*
X464581Y800040D01*
X464468Y800054D01*
X464355Y800064D01*
X464242Y800070D01*
X464129Y800072D01*
X464778Y805265D02*
X460883Y805265D01*
X464778Y805264D02*
X464879Y805262D01*
X464979Y805256D01*
X465079Y805246D01*
X465179Y805233D01*
X465278Y805215D01*
X465377Y805194D01*
X465474Y805169D01*
X465571Y805140D01*
X465666Y805107D01*
X465760Y805071D01*
X465852Y805031D01*
X465943Y804988D01*
X466032Y804941D01*
X466119Y804891D01*
X466205Y804837D01*
X466288Y804780D01*
X466368Y804720D01*
X466447Y804657D01*
X466523Y804590D01*
X466596Y804521D01*
X466666Y804449D01*
X466734Y804375D01*
X466799Y804298D01*
X466860Y804218D01*
X466919Y804136D01*
X466974Y804052D01*
X467026Y803966D01*
X467075Y803878D01*
X467120Y803788D01*
X467162Y803696D01*
X467200Y803603D01*
X467234Y803508D01*
X467265Y803413D01*
X467292Y803316D01*
X467315Y803218D01*
X467335Y803119D01*
X467350Y803019D01*
X467362Y802919D01*
X467370Y802819D01*
X467374Y802718D01*
X467374Y802618D01*
X467370Y802517D01*
X467362Y802417D01*
X467350Y802317D01*
X467335Y802217D01*
X467315Y802118D01*
X467292Y802020D01*
X467265Y801923D01*
X467234Y801828D01*
X467200Y801733D01*
X467162Y801640D01*
X467120Y801548D01*
X467075Y801458D01*
X467026Y801370D01*
X466974Y801284D01*
X466919Y801200D01*
X466860Y801118D01*
X466799Y801038D01*
X466734Y800961D01*
X466666Y800887D01*
X466596Y800815D01*
X466523Y800746D01*
X466447Y800679D01*
X466368Y800616D01*
X466288Y800556D01*
X466205Y800499D01*
X466119Y800445D01*
X466032Y800395D01*
X465943Y800348D01*
X465852Y800305D01*
X465760Y800265D01*
X465666Y800229D01*
X465571Y800196D01*
X465474Y800167D01*
X465377Y800142D01*
X465278Y800121D01*
X465179Y800103D01*
X465079Y800090D01*
X464979Y800080D01*
X464879Y800074D01*
X464778Y800072D01*
X462181Y800072D01*
D13*
X202946Y609346D02*
X254Y609346D01*
X202946Y609346D02*
X202946Y406654D01*
X254Y406654D01*
X254Y609346D01*
D10*
X145542Y600795D02*
X145542Y592356D01*
X145544Y592243D01*
X145550Y592130D01*
X145560Y592017D01*
X145574Y591904D01*
X145591Y591792D01*
X145613Y591681D01*
X145638Y591571D01*
X145668Y591461D01*
X145701Y591353D01*
X145738Y591246D01*
X145778Y591140D01*
X145823Y591036D01*
X145871Y590933D01*
X145922Y590832D01*
X145977Y590733D01*
X146035Y590636D01*
X146097Y590541D01*
X146162Y590448D01*
X146230Y590358D01*
X146301Y590270D01*
X146376Y590184D01*
X146453Y590101D01*
X146533Y590021D01*
X146616Y589944D01*
X146702Y589869D01*
X146790Y589798D01*
X146880Y589730D01*
X146973Y589665D01*
X147068Y589603D01*
X147165Y589545D01*
X147264Y589490D01*
X147365Y589439D01*
X147468Y589391D01*
X147572Y589346D01*
X147678Y589306D01*
X147785Y589269D01*
X147893Y589236D01*
X148003Y589206D01*
X148113Y589181D01*
X148224Y589159D01*
X148336Y589142D01*
X148449Y589128D01*
X148562Y589118D01*
X148675Y589112D01*
X148788Y589110D01*
X148901Y589112D01*
X149014Y589118D01*
X149127Y589128D01*
X149240Y589142D01*
X149352Y589159D01*
X149463Y589181D01*
X149573Y589206D01*
X149683Y589236D01*
X149791Y589269D01*
X149898Y589306D01*
X150004Y589346D01*
X150108Y589391D01*
X150211Y589439D01*
X150312Y589490D01*
X150411Y589545D01*
X150508Y589603D01*
X150603Y589665D01*
X150696Y589730D01*
X150786Y589798D01*
X150874Y589869D01*
X150960Y589944D01*
X151043Y590021D01*
X151123Y590101D01*
X151200Y590184D01*
X151275Y590270D01*
X151346Y590358D01*
X151414Y590448D01*
X151479Y590541D01*
X151541Y590636D01*
X151599Y590733D01*
X151654Y590832D01*
X151705Y590933D01*
X151753Y591036D01*
X151798Y591140D01*
X151838Y591246D01*
X151875Y591353D01*
X151908Y591461D01*
X151938Y591571D01*
X151963Y591681D01*
X151985Y591792D01*
X152002Y591904D01*
X152016Y592017D01*
X152026Y592130D01*
X152032Y592243D01*
X152034Y592356D01*
X152033Y592356D02*
X152033Y600795D01*
X159949Y600795D02*
X157353Y591707D01*
X163844Y591707D01*
X161897Y594304D02*
X161897Y589111D01*
D13*
X203454Y609346D02*
X406146Y609346D01*
X406146Y406654D01*
X203454Y406654D01*
X203454Y609346D01*
D10*
X347472Y603335D02*
X347472Y594896D01*
X347474Y594783D01*
X347480Y594670D01*
X347490Y594557D01*
X347504Y594444D01*
X347521Y594332D01*
X347543Y594221D01*
X347568Y594111D01*
X347598Y594001D01*
X347631Y593893D01*
X347668Y593786D01*
X347708Y593680D01*
X347753Y593576D01*
X347801Y593473D01*
X347852Y593372D01*
X347907Y593273D01*
X347965Y593176D01*
X348027Y593081D01*
X348092Y592988D01*
X348160Y592898D01*
X348231Y592810D01*
X348306Y592724D01*
X348383Y592641D01*
X348463Y592561D01*
X348546Y592484D01*
X348632Y592409D01*
X348720Y592338D01*
X348810Y592270D01*
X348903Y592205D01*
X348998Y592143D01*
X349095Y592085D01*
X349194Y592030D01*
X349295Y591979D01*
X349398Y591931D01*
X349502Y591886D01*
X349608Y591846D01*
X349715Y591809D01*
X349823Y591776D01*
X349933Y591746D01*
X350043Y591721D01*
X350154Y591699D01*
X350266Y591682D01*
X350379Y591668D01*
X350492Y591658D01*
X350605Y591652D01*
X350718Y591650D01*
X350831Y591652D01*
X350944Y591658D01*
X351057Y591668D01*
X351170Y591682D01*
X351282Y591699D01*
X351393Y591721D01*
X351503Y591746D01*
X351613Y591776D01*
X351721Y591809D01*
X351828Y591846D01*
X351934Y591886D01*
X352038Y591931D01*
X352141Y591979D01*
X352242Y592030D01*
X352341Y592085D01*
X352438Y592143D01*
X352533Y592205D01*
X352626Y592270D01*
X352716Y592338D01*
X352804Y592409D01*
X352890Y592484D01*
X352973Y592561D01*
X353053Y592641D01*
X353130Y592724D01*
X353205Y592810D01*
X353276Y592898D01*
X353344Y592988D01*
X353409Y593081D01*
X353471Y593176D01*
X353529Y593273D01*
X353584Y593372D01*
X353635Y593473D01*
X353683Y593576D01*
X353728Y593680D01*
X353768Y593786D01*
X353805Y593893D01*
X353838Y594001D01*
X353868Y594111D01*
X353893Y594221D01*
X353915Y594332D01*
X353932Y594444D01*
X353946Y594557D01*
X353956Y594670D01*
X353962Y594783D01*
X353964Y594896D01*
X353963Y594896D02*
X353963Y603335D01*
X359283Y591651D02*
X363178Y591651D01*
X363277Y591653D01*
X363377Y591659D01*
X363476Y591668D01*
X363574Y591681D01*
X363672Y591698D01*
X363770Y591719D01*
X363866Y591744D01*
X363961Y591772D01*
X364055Y591804D01*
X364148Y591839D01*
X364240Y591878D01*
X364330Y591921D01*
X364418Y591966D01*
X364505Y592016D01*
X364589Y592068D01*
X364672Y592124D01*
X364752Y592182D01*
X364830Y592244D01*
X364905Y592309D01*
X364978Y592377D01*
X365048Y592447D01*
X365116Y592520D01*
X365181Y592595D01*
X365243Y592673D01*
X365301Y592753D01*
X365357Y592836D01*
X365409Y592920D01*
X365459Y593007D01*
X365504Y593095D01*
X365547Y593185D01*
X365586Y593277D01*
X365621Y593370D01*
X365653Y593464D01*
X365681Y593559D01*
X365706Y593655D01*
X365727Y593753D01*
X365744Y593851D01*
X365757Y593949D01*
X365766Y594048D01*
X365772Y594148D01*
X365774Y594247D01*
X365774Y595545D01*
X365772Y595644D01*
X365766Y595744D01*
X365757Y595843D01*
X365744Y595941D01*
X365727Y596039D01*
X365706Y596137D01*
X365681Y596233D01*
X365653Y596328D01*
X365621Y596422D01*
X365586Y596515D01*
X365547Y596607D01*
X365504Y596697D01*
X365459Y596785D01*
X365409Y596872D01*
X365357Y596956D01*
X365301Y597039D01*
X365243Y597119D01*
X365181Y597197D01*
X365116Y597272D01*
X365048Y597345D01*
X364978Y597415D01*
X364905Y597483D01*
X364830Y597548D01*
X364752Y597610D01*
X364672Y597668D01*
X364589Y597724D01*
X364505Y597776D01*
X364418Y597826D01*
X364330Y597871D01*
X364240Y597914D01*
X364148Y597953D01*
X364055Y597988D01*
X363961Y598020D01*
X363866Y598048D01*
X363770Y598073D01*
X363672Y598094D01*
X363574Y598111D01*
X363476Y598124D01*
X363377Y598133D01*
X363277Y598139D01*
X363178Y598141D01*
X363178Y598142D02*
X359283Y598142D01*
X359283Y603335D01*
X365774Y603335D01*
D13*
X406654Y609346D02*
X609346Y609346D01*
X609346Y406654D01*
X406654Y406654D01*
X406654Y609346D01*
D10*
X447802Y603335D02*
X447802Y594896D01*
X447804Y594783D01*
X447810Y594670D01*
X447820Y594557D01*
X447834Y594444D01*
X447851Y594332D01*
X447873Y594221D01*
X447898Y594111D01*
X447928Y594001D01*
X447961Y593893D01*
X447998Y593786D01*
X448038Y593680D01*
X448083Y593576D01*
X448131Y593473D01*
X448182Y593372D01*
X448237Y593273D01*
X448295Y593176D01*
X448357Y593081D01*
X448422Y592988D01*
X448490Y592898D01*
X448561Y592810D01*
X448636Y592724D01*
X448713Y592641D01*
X448793Y592561D01*
X448876Y592484D01*
X448962Y592409D01*
X449050Y592338D01*
X449140Y592270D01*
X449233Y592205D01*
X449328Y592143D01*
X449425Y592085D01*
X449524Y592030D01*
X449625Y591979D01*
X449728Y591931D01*
X449832Y591886D01*
X449938Y591846D01*
X450045Y591809D01*
X450153Y591776D01*
X450263Y591746D01*
X450373Y591721D01*
X450484Y591699D01*
X450596Y591682D01*
X450709Y591668D01*
X450822Y591658D01*
X450935Y591652D01*
X451048Y591650D01*
X451161Y591652D01*
X451274Y591658D01*
X451387Y591668D01*
X451500Y591682D01*
X451612Y591699D01*
X451723Y591721D01*
X451833Y591746D01*
X451943Y591776D01*
X452051Y591809D01*
X452158Y591846D01*
X452264Y591886D01*
X452368Y591931D01*
X452471Y591979D01*
X452572Y592030D01*
X452671Y592085D01*
X452768Y592143D01*
X452863Y592205D01*
X452956Y592270D01*
X453046Y592338D01*
X453134Y592409D01*
X453220Y592484D01*
X453303Y592561D01*
X453383Y592641D01*
X453460Y592724D01*
X453535Y592810D01*
X453606Y592898D01*
X453674Y592988D01*
X453739Y593081D01*
X453801Y593176D01*
X453859Y593273D01*
X453914Y593372D01*
X453965Y593473D01*
X454013Y593576D01*
X454058Y593680D01*
X454098Y593786D01*
X454135Y593893D01*
X454168Y594001D01*
X454198Y594111D01*
X454223Y594221D01*
X454245Y594332D01*
X454262Y594444D01*
X454276Y594557D01*
X454286Y594670D01*
X454292Y594783D01*
X454294Y594896D01*
X454293Y594896D02*
X454293Y603335D01*
X459613Y598142D02*
X463508Y598142D01*
X463508Y598141D02*
X463607Y598139D01*
X463707Y598133D01*
X463806Y598124D01*
X463904Y598111D01*
X464002Y598094D01*
X464100Y598073D01*
X464196Y598048D01*
X464291Y598020D01*
X464385Y597988D01*
X464478Y597953D01*
X464570Y597914D01*
X464660Y597871D01*
X464748Y597826D01*
X464835Y597776D01*
X464919Y597724D01*
X465002Y597668D01*
X465082Y597610D01*
X465160Y597548D01*
X465235Y597483D01*
X465308Y597415D01*
X465378Y597345D01*
X465446Y597272D01*
X465511Y597197D01*
X465573Y597119D01*
X465631Y597039D01*
X465687Y596956D01*
X465739Y596872D01*
X465789Y596785D01*
X465834Y596697D01*
X465877Y596607D01*
X465916Y596515D01*
X465951Y596422D01*
X465983Y596328D01*
X466011Y596233D01*
X466036Y596137D01*
X466057Y596039D01*
X466074Y595941D01*
X466087Y595843D01*
X466096Y595744D01*
X466102Y595644D01*
X466104Y595545D01*
X466104Y594896D01*
X466105Y594896D02*
X466103Y594783D01*
X466097Y594670D01*
X466087Y594557D01*
X466073Y594444D01*
X466056Y594332D01*
X466034Y594221D01*
X466009Y594111D01*
X465979Y594001D01*
X465946Y593893D01*
X465909Y593786D01*
X465869Y593680D01*
X465824Y593576D01*
X465776Y593473D01*
X465725Y593372D01*
X465670Y593273D01*
X465612Y593176D01*
X465550Y593081D01*
X465485Y592988D01*
X465417Y592898D01*
X465346Y592810D01*
X465271Y592724D01*
X465194Y592641D01*
X465114Y592561D01*
X465031Y592484D01*
X464945Y592409D01*
X464857Y592338D01*
X464767Y592270D01*
X464674Y592205D01*
X464579Y592143D01*
X464482Y592085D01*
X464383Y592030D01*
X464282Y591979D01*
X464179Y591931D01*
X464075Y591886D01*
X463969Y591846D01*
X463862Y591809D01*
X463754Y591776D01*
X463644Y591746D01*
X463534Y591721D01*
X463423Y591699D01*
X463311Y591682D01*
X463198Y591668D01*
X463085Y591658D01*
X462972Y591652D01*
X462859Y591650D01*
X462746Y591652D01*
X462633Y591658D01*
X462520Y591668D01*
X462407Y591682D01*
X462295Y591699D01*
X462184Y591721D01*
X462074Y591746D01*
X461964Y591776D01*
X461856Y591809D01*
X461749Y591846D01*
X461643Y591886D01*
X461539Y591931D01*
X461436Y591979D01*
X461335Y592030D01*
X461236Y592085D01*
X461139Y592143D01*
X461044Y592205D01*
X460951Y592270D01*
X460861Y592338D01*
X460773Y592409D01*
X460687Y592484D01*
X460604Y592561D01*
X460524Y592641D01*
X460447Y592724D01*
X460372Y592810D01*
X460301Y592898D01*
X460233Y592988D01*
X460168Y593081D01*
X460106Y593176D01*
X460048Y593273D01*
X459993Y593372D01*
X459942Y593473D01*
X459894Y593576D01*
X459849Y593680D01*
X459809Y593786D01*
X459772Y593893D01*
X459739Y594001D01*
X459709Y594111D01*
X459684Y594221D01*
X459662Y594332D01*
X459645Y594444D01*
X459631Y594557D01*
X459621Y594670D01*
X459615Y594783D01*
X459613Y594896D01*
X459613Y598142D01*
X459615Y598285D01*
X459621Y598428D01*
X459631Y598571D01*
X459645Y598713D01*
X459662Y598855D01*
X459684Y598997D01*
X459709Y599138D01*
X459739Y599278D01*
X459772Y599417D01*
X459809Y599555D01*
X459850Y599692D01*
X459894Y599828D01*
X459943Y599963D01*
X459995Y600096D01*
X460050Y600228D01*
X460110Y600358D01*
X460173Y600487D01*
X460239Y600614D01*
X460309Y600738D01*
X460382Y600861D01*
X460459Y600982D01*
X460539Y601101D01*
X460622Y601217D01*
X460708Y601332D01*
X460797Y601443D01*
X460890Y601553D01*
X460985Y601659D01*
X461084Y601763D01*
X461185Y601864D01*
X461289Y601963D01*
X461395Y602058D01*
X461505Y602151D01*
X461616Y602240D01*
X461731Y602326D01*
X461847Y602409D01*
X461966Y602489D01*
X462087Y602566D01*
X462209Y602639D01*
X462334Y602709D01*
X462461Y602775D01*
X462590Y602838D01*
X462720Y602898D01*
X462852Y602953D01*
X462985Y603005D01*
X463120Y603054D01*
X463256Y603098D01*
X463393Y603139D01*
X463531Y603176D01*
X463670Y603209D01*
X463810Y603239D01*
X463951Y603264D01*
X464093Y603286D01*
X464235Y603303D01*
X464377Y603317D01*
X464520Y603327D01*
X464663Y603333D01*
X464806Y603335D01*
D13*
X202946Y406146D02*
X254Y406146D01*
X202946Y406146D02*
X202946Y203454D01*
X254Y203454D01*
X254Y406146D01*
D10*
X145542Y397595D02*
X145542Y389156D01*
X145544Y389043D01*
X145550Y388930D01*
X145560Y388817D01*
X145574Y388704D01*
X145591Y388592D01*
X145613Y388481D01*
X145638Y388371D01*
X145668Y388261D01*
X145701Y388153D01*
X145738Y388046D01*
X145778Y387940D01*
X145823Y387836D01*
X145871Y387733D01*
X145922Y387632D01*
X145977Y387533D01*
X146035Y387436D01*
X146097Y387341D01*
X146162Y387248D01*
X146230Y387158D01*
X146301Y387070D01*
X146376Y386984D01*
X146453Y386901D01*
X146533Y386821D01*
X146616Y386744D01*
X146702Y386669D01*
X146790Y386598D01*
X146880Y386530D01*
X146973Y386465D01*
X147068Y386403D01*
X147165Y386345D01*
X147264Y386290D01*
X147365Y386239D01*
X147468Y386191D01*
X147572Y386146D01*
X147678Y386106D01*
X147785Y386069D01*
X147893Y386036D01*
X148003Y386006D01*
X148113Y385981D01*
X148224Y385959D01*
X148336Y385942D01*
X148449Y385928D01*
X148562Y385918D01*
X148675Y385912D01*
X148788Y385910D01*
X148901Y385912D01*
X149014Y385918D01*
X149127Y385928D01*
X149240Y385942D01*
X149352Y385959D01*
X149463Y385981D01*
X149573Y386006D01*
X149683Y386036D01*
X149791Y386069D01*
X149898Y386106D01*
X150004Y386146D01*
X150108Y386191D01*
X150211Y386239D01*
X150312Y386290D01*
X150411Y386345D01*
X150508Y386403D01*
X150603Y386465D01*
X150696Y386530D01*
X150786Y386598D01*
X150874Y386669D01*
X150960Y386744D01*
X151043Y386821D01*
X151123Y386901D01*
X151200Y386984D01*
X151275Y387070D01*
X151346Y387158D01*
X151414Y387248D01*
X151479Y387341D01*
X151541Y387436D01*
X151599Y387533D01*
X151654Y387632D01*
X151705Y387733D01*
X151753Y387836D01*
X151798Y387940D01*
X151838Y388046D01*
X151875Y388153D01*
X151908Y388261D01*
X151938Y388371D01*
X151963Y388481D01*
X151985Y388592D01*
X152002Y388704D01*
X152016Y388817D01*
X152026Y388930D01*
X152032Y389043D01*
X152034Y389156D01*
X152033Y389156D02*
X152033Y397595D01*
X157353Y397595D02*
X157353Y396296D01*
X157353Y397595D02*
X163844Y397595D01*
X160599Y385911D01*
D13*
X203454Y406146D02*
X406146Y406146D01*
X406146Y203454D01*
X203454Y203454D01*
X203454Y406146D01*
D10*
X350012Y398865D02*
X350012Y390426D01*
X350014Y390313D01*
X350020Y390200D01*
X350030Y390087D01*
X350044Y389974D01*
X350061Y389862D01*
X350083Y389751D01*
X350108Y389641D01*
X350138Y389531D01*
X350171Y389423D01*
X350208Y389316D01*
X350248Y389210D01*
X350293Y389106D01*
X350341Y389003D01*
X350392Y388902D01*
X350447Y388803D01*
X350505Y388706D01*
X350567Y388611D01*
X350632Y388518D01*
X350700Y388428D01*
X350771Y388340D01*
X350846Y388254D01*
X350923Y388171D01*
X351003Y388091D01*
X351086Y388014D01*
X351172Y387939D01*
X351260Y387868D01*
X351350Y387800D01*
X351443Y387735D01*
X351538Y387673D01*
X351635Y387615D01*
X351734Y387560D01*
X351835Y387509D01*
X351938Y387461D01*
X352042Y387416D01*
X352148Y387376D01*
X352255Y387339D01*
X352363Y387306D01*
X352473Y387276D01*
X352583Y387251D01*
X352694Y387229D01*
X352806Y387212D01*
X352919Y387198D01*
X353032Y387188D01*
X353145Y387182D01*
X353258Y387180D01*
X353371Y387182D01*
X353484Y387188D01*
X353597Y387198D01*
X353710Y387212D01*
X353822Y387229D01*
X353933Y387251D01*
X354043Y387276D01*
X354153Y387306D01*
X354261Y387339D01*
X354368Y387376D01*
X354474Y387416D01*
X354578Y387461D01*
X354681Y387509D01*
X354782Y387560D01*
X354881Y387615D01*
X354978Y387673D01*
X355073Y387735D01*
X355166Y387800D01*
X355256Y387868D01*
X355344Y387939D01*
X355430Y388014D01*
X355513Y388091D01*
X355593Y388171D01*
X355670Y388254D01*
X355745Y388340D01*
X355816Y388428D01*
X355884Y388518D01*
X355949Y388611D01*
X356011Y388706D01*
X356069Y388803D01*
X356124Y388902D01*
X356175Y389003D01*
X356223Y389106D01*
X356268Y389210D01*
X356308Y389316D01*
X356345Y389423D01*
X356378Y389531D01*
X356408Y389641D01*
X356433Y389751D01*
X356455Y389862D01*
X356472Y389974D01*
X356486Y390087D01*
X356496Y390200D01*
X356502Y390313D01*
X356504Y390426D01*
X356503Y390426D02*
X356503Y398865D01*
X361823Y390426D02*
X361825Y390539D01*
X361831Y390652D01*
X361841Y390765D01*
X361855Y390878D01*
X361872Y390990D01*
X361894Y391101D01*
X361919Y391211D01*
X361949Y391321D01*
X361982Y391429D01*
X362019Y391536D01*
X362059Y391642D01*
X362104Y391746D01*
X362152Y391849D01*
X362203Y391950D01*
X362258Y392049D01*
X362316Y392146D01*
X362378Y392241D01*
X362443Y392334D01*
X362511Y392424D01*
X362582Y392512D01*
X362657Y392598D01*
X362734Y392681D01*
X362814Y392761D01*
X362897Y392838D01*
X362983Y392913D01*
X363071Y392984D01*
X363161Y393052D01*
X363254Y393117D01*
X363349Y393179D01*
X363446Y393237D01*
X363545Y393292D01*
X363646Y393343D01*
X363749Y393391D01*
X363853Y393436D01*
X363959Y393476D01*
X364066Y393513D01*
X364174Y393546D01*
X364284Y393576D01*
X364394Y393601D01*
X364505Y393623D01*
X364617Y393640D01*
X364730Y393654D01*
X364843Y393664D01*
X364956Y393670D01*
X365069Y393672D01*
X365182Y393670D01*
X365295Y393664D01*
X365408Y393654D01*
X365521Y393640D01*
X365633Y393623D01*
X365744Y393601D01*
X365854Y393576D01*
X365964Y393546D01*
X366072Y393513D01*
X366179Y393476D01*
X366285Y393436D01*
X366389Y393391D01*
X366492Y393343D01*
X366593Y393292D01*
X366692Y393237D01*
X366789Y393179D01*
X366884Y393117D01*
X366977Y393052D01*
X367067Y392984D01*
X367155Y392913D01*
X367241Y392838D01*
X367324Y392761D01*
X367404Y392681D01*
X367481Y392598D01*
X367556Y392512D01*
X367627Y392424D01*
X367695Y392334D01*
X367760Y392241D01*
X367822Y392146D01*
X367880Y392049D01*
X367935Y391950D01*
X367986Y391849D01*
X368034Y391746D01*
X368079Y391642D01*
X368119Y391536D01*
X368156Y391429D01*
X368189Y391321D01*
X368219Y391211D01*
X368244Y391101D01*
X368266Y390990D01*
X368283Y390878D01*
X368297Y390765D01*
X368307Y390652D01*
X368313Y390539D01*
X368315Y390426D01*
X368313Y390313D01*
X368307Y390200D01*
X368297Y390087D01*
X368283Y389974D01*
X368266Y389862D01*
X368244Y389751D01*
X368219Y389641D01*
X368189Y389531D01*
X368156Y389423D01*
X368119Y389316D01*
X368079Y389210D01*
X368034Y389106D01*
X367986Y389003D01*
X367935Y388902D01*
X367880Y388803D01*
X367822Y388706D01*
X367760Y388611D01*
X367695Y388518D01*
X367627Y388428D01*
X367556Y388340D01*
X367481Y388254D01*
X367404Y388171D01*
X367324Y388091D01*
X367241Y388014D01*
X367155Y387939D01*
X367067Y387868D01*
X366977Y387800D01*
X366884Y387735D01*
X366789Y387673D01*
X366692Y387615D01*
X366593Y387560D01*
X366492Y387509D01*
X366389Y387461D01*
X366285Y387416D01*
X366179Y387376D01*
X366072Y387339D01*
X365964Y387306D01*
X365854Y387276D01*
X365744Y387251D01*
X365633Y387229D01*
X365521Y387212D01*
X365408Y387198D01*
X365295Y387188D01*
X365182Y387182D01*
X365069Y387180D01*
X364956Y387182D01*
X364843Y387188D01*
X364730Y387198D01*
X364617Y387212D01*
X364505Y387229D01*
X364394Y387251D01*
X364284Y387276D01*
X364174Y387306D01*
X364066Y387339D01*
X363959Y387376D01*
X363853Y387416D01*
X363749Y387461D01*
X363646Y387509D01*
X363545Y387560D01*
X363446Y387615D01*
X363349Y387673D01*
X363254Y387735D01*
X363161Y387800D01*
X363071Y387868D01*
X362983Y387939D01*
X362897Y388014D01*
X362814Y388091D01*
X362734Y388171D01*
X362657Y388254D01*
X362582Y388340D01*
X362511Y388428D01*
X362443Y388518D01*
X362378Y388611D01*
X362316Y388706D01*
X362258Y388803D01*
X362203Y388902D01*
X362152Y389003D01*
X362104Y389106D01*
X362059Y389210D01*
X362019Y389316D01*
X361982Y389423D01*
X361949Y389531D01*
X361919Y389641D01*
X361894Y389751D01*
X361872Y389862D01*
X361855Y389974D01*
X361841Y390087D01*
X361831Y390200D01*
X361825Y390313D01*
X361823Y390426D01*
X362473Y396268D02*
X362475Y396369D01*
X362481Y396469D01*
X362491Y396569D01*
X362504Y396669D01*
X362522Y396768D01*
X362543Y396867D01*
X362568Y396964D01*
X362597Y397061D01*
X362630Y397156D01*
X362666Y397250D01*
X362706Y397342D01*
X362749Y397433D01*
X362796Y397522D01*
X362846Y397609D01*
X362900Y397695D01*
X362957Y397778D01*
X363017Y397858D01*
X363080Y397937D01*
X363147Y398013D01*
X363216Y398086D01*
X363288Y398156D01*
X363362Y398224D01*
X363439Y398289D01*
X363519Y398350D01*
X363601Y398409D01*
X363685Y398464D01*
X363771Y398516D01*
X363859Y398565D01*
X363949Y398610D01*
X364041Y398652D01*
X364134Y398690D01*
X364229Y398724D01*
X364324Y398755D01*
X364421Y398782D01*
X364519Y398805D01*
X364618Y398825D01*
X364718Y398840D01*
X364818Y398852D01*
X364918Y398860D01*
X365019Y398864D01*
X365119Y398864D01*
X365220Y398860D01*
X365320Y398852D01*
X365420Y398840D01*
X365520Y398825D01*
X365619Y398805D01*
X365717Y398782D01*
X365814Y398755D01*
X365909Y398724D01*
X366004Y398690D01*
X366097Y398652D01*
X366189Y398610D01*
X366279Y398565D01*
X366367Y398516D01*
X366453Y398464D01*
X366537Y398409D01*
X366619Y398350D01*
X366699Y398289D01*
X366776Y398224D01*
X366850Y398156D01*
X366922Y398086D01*
X366991Y398013D01*
X367058Y397937D01*
X367121Y397858D01*
X367181Y397778D01*
X367238Y397695D01*
X367292Y397609D01*
X367342Y397522D01*
X367389Y397433D01*
X367432Y397342D01*
X367472Y397250D01*
X367508Y397156D01*
X367541Y397061D01*
X367570Y396964D01*
X367595Y396867D01*
X367616Y396768D01*
X367634Y396669D01*
X367647Y396569D01*
X367657Y396469D01*
X367663Y396369D01*
X367665Y396268D01*
X367663Y396167D01*
X367657Y396067D01*
X367647Y395967D01*
X367634Y395867D01*
X367616Y395768D01*
X367595Y395669D01*
X367570Y395572D01*
X367541Y395475D01*
X367508Y395380D01*
X367472Y395286D01*
X367432Y395194D01*
X367389Y395103D01*
X367342Y395014D01*
X367292Y394927D01*
X367238Y394841D01*
X367181Y394758D01*
X367121Y394678D01*
X367058Y394599D01*
X366991Y394523D01*
X366922Y394450D01*
X366850Y394380D01*
X366776Y394312D01*
X366699Y394247D01*
X366619Y394186D01*
X366537Y394127D01*
X366453Y394072D01*
X366367Y394020D01*
X366279Y393971D01*
X366189Y393926D01*
X366097Y393884D01*
X366004Y393846D01*
X365909Y393812D01*
X365814Y393781D01*
X365717Y393754D01*
X365619Y393731D01*
X365520Y393711D01*
X365420Y393696D01*
X365320Y393684D01*
X365220Y393676D01*
X365119Y393672D01*
X365019Y393672D01*
X364918Y393676D01*
X364818Y393684D01*
X364718Y393696D01*
X364618Y393711D01*
X364519Y393731D01*
X364421Y393754D01*
X364324Y393781D01*
X364229Y393812D01*
X364134Y393846D01*
X364041Y393884D01*
X363949Y393926D01*
X363859Y393971D01*
X363771Y394020D01*
X363685Y394072D01*
X363601Y394127D01*
X363519Y394186D01*
X363439Y394247D01*
X363362Y394312D01*
X363288Y394380D01*
X363216Y394450D01*
X363147Y394523D01*
X363080Y394599D01*
X363017Y394678D01*
X362957Y394758D01*
X362900Y394841D01*
X362846Y394927D01*
X362796Y395014D01*
X362749Y395103D01*
X362706Y395194D01*
X362666Y395286D01*
X362630Y395380D01*
X362597Y395475D01*
X362568Y395572D01*
X362543Y395669D01*
X362522Y395768D01*
X362504Y395867D01*
X362491Y395967D01*
X362481Y396067D01*
X362475Y396167D01*
X362473Y396268D01*
D13*
X406654Y406146D02*
X609346Y406146D01*
X609346Y203454D01*
X406654Y203454D01*
X406654Y406146D01*
D10*
X446532Y398865D02*
X446532Y390426D01*
X446534Y390313D01*
X446540Y390200D01*
X446550Y390087D01*
X446564Y389974D01*
X446581Y389862D01*
X446603Y389751D01*
X446628Y389641D01*
X446658Y389531D01*
X446691Y389423D01*
X446728Y389316D01*
X446768Y389210D01*
X446813Y389106D01*
X446861Y389003D01*
X446912Y388902D01*
X446967Y388803D01*
X447025Y388706D01*
X447087Y388611D01*
X447152Y388518D01*
X447220Y388428D01*
X447291Y388340D01*
X447366Y388254D01*
X447443Y388171D01*
X447523Y388091D01*
X447606Y388014D01*
X447692Y387939D01*
X447780Y387868D01*
X447870Y387800D01*
X447963Y387735D01*
X448058Y387673D01*
X448155Y387615D01*
X448254Y387560D01*
X448355Y387509D01*
X448458Y387461D01*
X448562Y387416D01*
X448668Y387376D01*
X448775Y387339D01*
X448883Y387306D01*
X448993Y387276D01*
X449103Y387251D01*
X449214Y387229D01*
X449326Y387212D01*
X449439Y387198D01*
X449552Y387188D01*
X449665Y387182D01*
X449778Y387180D01*
X449891Y387182D01*
X450004Y387188D01*
X450117Y387198D01*
X450230Y387212D01*
X450342Y387229D01*
X450453Y387251D01*
X450563Y387276D01*
X450673Y387306D01*
X450781Y387339D01*
X450888Y387376D01*
X450994Y387416D01*
X451098Y387461D01*
X451201Y387509D01*
X451302Y387560D01*
X451401Y387615D01*
X451498Y387673D01*
X451593Y387735D01*
X451686Y387800D01*
X451776Y387868D01*
X451864Y387939D01*
X451950Y388014D01*
X452033Y388091D01*
X452113Y388171D01*
X452190Y388254D01*
X452265Y388340D01*
X452336Y388428D01*
X452404Y388518D01*
X452469Y388611D01*
X452531Y388706D01*
X452589Y388803D01*
X452644Y388902D01*
X452695Y389003D01*
X452743Y389106D01*
X452788Y389210D01*
X452828Y389316D01*
X452865Y389423D01*
X452898Y389531D01*
X452928Y389641D01*
X452953Y389751D01*
X452975Y389862D01*
X452992Y389974D01*
X453006Y390087D01*
X453016Y390200D01*
X453022Y390313D01*
X453024Y390426D01*
X453023Y390426D02*
X453023Y398865D01*
X460939Y392374D02*
X464834Y392374D01*
X460939Y392374D02*
X460840Y392376D01*
X460740Y392382D01*
X460641Y392391D01*
X460543Y392404D01*
X460445Y392421D01*
X460347Y392442D01*
X460251Y392467D01*
X460156Y392495D01*
X460062Y392527D01*
X459969Y392562D01*
X459877Y392601D01*
X459787Y392644D01*
X459699Y392689D01*
X459612Y392739D01*
X459528Y392791D01*
X459445Y392847D01*
X459365Y392905D01*
X459287Y392967D01*
X459212Y393032D01*
X459139Y393100D01*
X459069Y393170D01*
X459001Y393243D01*
X458936Y393318D01*
X458874Y393396D01*
X458816Y393476D01*
X458760Y393559D01*
X458708Y393643D01*
X458658Y393730D01*
X458613Y393818D01*
X458570Y393908D01*
X458531Y394000D01*
X458496Y394093D01*
X458464Y394187D01*
X458436Y394282D01*
X458411Y394378D01*
X458390Y394476D01*
X458373Y394574D01*
X458360Y394672D01*
X458351Y394771D01*
X458345Y394871D01*
X458343Y394970D01*
X458343Y395619D01*
X458345Y395732D01*
X458351Y395845D01*
X458361Y395958D01*
X458375Y396071D01*
X458392Y396183D01*
X458414Y396294D01*
X458439Y396404D01*
X458469Y396514D01*
X458502Y396622D01*
X458539Y396729D01*
X458579Y396835D01*
X458624Y396939D01*
X458672Y397042D01*
X458723Y397143D01*
X458778Y397242D01*
X458836Y397339D01*
X458898Y397434D01*
X458963Y397527D01*
X459031Y397617D01*
X459102Y397705D01*
X459177Y397791D01*
X459254Y397874D01*
X459334Y397954D01*
X459417Y398031D01*
X459503Y398106D01*
X459591Y398177D01*
X459681Y398245D01*
X459774Y398310D01*
X459869Y398372D01*
X459966Y398430D01*
X460065Y398485D01*
X460166Y398536D01*
X460269Y398584D01*
X460373Y398629D01*
X460479Y398669D01*
X460586Y398706D01*
X460694Y398739D01*
X460804Y398769D01*
X460914Y398794D01*
X461025Y398816D01*
X461137Y398833D01*
X461250Y398847D01*
X461363Y398857D01*
X461476Y398863D01*
X461589Y398865D01*
X461702Y398863D01*
X461815Y398857D01*
X461928Y398847D01*
X462041Y398833D01*
X462153Y398816D01*
X462264Y398794D01*
X462374Y398769D01*
X462484Y398739D01*
X462592Y398706D01*
X462699Y398669D01*
X462805Y398629D01*
X462909Y398584D01*
X463012Y398536D01*
X463113Y398485D01*
X463212Y398430D01*
X463309Y398372D01*
X463404Y398310D01*
X463497Y398245D01*
X463587Y398177D01*
X463675Y398106D01*
X463761Y398031D01*
X463844Y397954D01*
X463924Y397874D01*
X464001Y397791D01*
X464076Y397705D01*
X464147Y397617D01*
X464215Y397527D01*
X464280Y397434D01*
X464342Y397339D01*
X464400Y397242D01*
X464455Y397143D01*
X464506Y397042D01*
X464554Y396939D01*
X464599Y396835D01*
X464639Y396729D01*
X464676Y396622D01*
X464709Y396514D01*
X464739Y396404D01*
X464764Y396294D01*
X464786Y396183D01*
X464803Y396071D01*
X464817Y395958D01*
X464827Y395845D01*
X464833Y395732D01*
X464835Y395619D01*
X464834Y395619D02*
X464834Y392374D01*
X464832Y392231D01*
X464826Y392088D01*
X464816Y391945D01*
X464802Y391803D01*
X464785Y391661D01*
X464763Y391519D01*
X464738Y391378D01*
X464708Y391238D01*
X464675Y391099D01*
X464638Y390961D01*
X464597Y390824D01*
X464553Y390688D01*
X464504Y390553D01*
X464452Y390420D01*
X464397Y390288D01*
X464337Y390158D01*
X464274Y390029D01*
X464208Y389902D01*
X464138Y389777D01*
X464065Y389655D01*
X463988Y389534D01*
X463908Y389415D01*
X463825Y389299D01*
X463739Y389184D01*
X463650Y389073D01*
X463557Y388963D01*
X463462Y388857D01*
X463363Y388753D01*
X463262Y388652D01*
X463158Y388553D01*
X463052Y388458D01*
X462942Y388365D01*
X462831Y388276D01*
X462716Y388190D01*
X462600Y388107D01*
X462481Y388027D01*
X462360Y387950D01*
X462238Y387877D01*
X462113Y387807D01*
X461986Y387741D01*
X461857Y387678D01*
X461727Y387618D01*
X461595Y387563D01*
X461462Y387511D01*
X461327Y387462D01*
X461191Y387418D01*
X461054Y387377D01*
X460916Y387340D01*
X460777Y387307D01*
X460637Y387277D01*
X460496Y387252D01*
X460354Y387230D01*
X460212Y387213D01*
X460070Y387199D01*
X459927Y387189D01*
X459784Y387183D01*
X459641Y387181D01*
D13*
X609854Y812546D02*
X812546Y812546D01*
X812546Y609854D01*
X609854Y609854D01*
X609854Y812546D01*
D10*
X651002Y806535D02*
X651002Y798096D01*
X651004Y797983D01*
X651010Y797870D01*
X651020Y797757D01*
X651034Y797644D01*
X651051Y797532D01*
X651073Y797421D01*
X651098Y797311D01*
X651128Y797201D01*
X651161Y797093D01*
X651198Y796986D01*
X651238Y796880D01*
X651283Y796776D01*
X651331Y796673D01*
X651382Y796572D01*
X651437Y796473D01*
X651495Y796376D01*
X651557Y796281D01*
X651622Y796188D01*
X651690Y796098D01*
X651761Y796010D01*
X651836Y795924D01*
X651913Y795841D01*
X651993Y795761D01*
X652076Y795684D01*
X652162Y795609D01*
X652250Y795538D01*
X652340Y795470D01*
X652433Y795405D01*
X652528Y795343D01*
X652625Y795285D01*
X652724Y795230D01*
X652825Y795179D01*
X652928Y795131D01*
X653032Y795086D01*
X653138Y795046D01*
X653245Y795009D01*
X653353Y794976D01*
X653463Y794946D01*
X653573Y794921D01*
X653684Y794899D01*
X653796Y794882D01*
X653909Y794868D01*
X654022Y794858D01*
X654135Y794852D01*
X654248Y794850D01*
X654361Y794852D01*
X654474Y794858D01*
X654587Y794868D01*
X654700Y794882D01*
X654812Y794899D01*
X654923Y794921D01*
X655033Y794946D01*
X655143Y794976D01*
X655251Y795009D01*
X655358Y795046D01*
X655464Y795086D01*
X655568Y795131D01*
X655671Y795179D01*
X655772Y795230D01*
X655871Y795285D01*
X655968Y795343D01*
X656063Y795405D01*
X656156Y795470D01*
X656246Y795538D01*
X656334Y795609D01*
X656420Y795684D01*
X656503Y795761D01*
X656583Y795841D01*
X656660Y795924D01*
X656735Y796010D01*
X656806Y796098D01*
X656874Y796188D01*
X656939Y796281D01*
X657001Y796376D01*
X657059Y796473D01*
X657114Y796572D01*
X657165Y796673D01*
X657213Y796776D01*
X657258Y796880D01*
X657298Y796986D01*
X657335Y797093D01*
X657368Y797201D01*
X657398Y797311D01*
X657423Y797421D01*
X657445Y797532D01*
X657462Y797644D01*
X657476Y797757D01*
X657486Y797870D01*
X657492Y797983D01*
X657494Y798096D01*
X657493Y798096D02*
X657493Y806535D01*
X662813Y803938D02*
X666059Y806535D01*
X666059Y794851D01*
X669304Y794851D02*
X662813Y794851D01*
X674243Y800693D02*
X674246Y800923D01*
X674254Y801153D01*
X674268Y801382D01*
X674287Y801611D01*
X674312Y801840D01*
X674342Y802067D01*
X674377Y802295D01*
X674418Y802521D01*
X674464Y802746D01*
X674516Y802970D01*
X674573Y803192D01*
X674635Y803414D01*
X674703Y803633D01*
X674776Y803851D01*
X674854Y804068D01*
X674937Y804282D01*
X675025Y804494D01*
X675118Y804704D01*
X675217Y804912D01*
X675216Y804912D02*
X675249Y805002D01*
X675285Y805091D01*
X675325Y805179D01*
X675369Y805264D01*
X675416Y805348D01*
X675466Y805430D01*
X675520Y805510D01*
X675576Y805587D01*
X675636Y805663D01*
X675699Y805736D01*
X675764Y805806D01*
X675833Y805874D01*
X675904Y805938D01*
X675977Y806000D01*
X676053Y806059D01*
X676131Y806115D01*
X676212Y806168D01*
X676294Y806217D01*
X676378Y806263D01*
X676465Y806306D01*
X676552Y806345D01*
X676642Y806381D01*
X676732Y806413D01*
X676824Y806441D01*
X676917Y806466D01*
X677011Y806487D01*
X677105Y806504D01*
X677200Y806518D01*
X677296Y806527D01*
X677392Y806533D01*
X677488Y806535D01*
X677584Y806533D01*
X677680Y806527D01*
X677776Y806518D01*
X677871Y806504D01*
X677965Y806487D01*
X678059Y806466D01*
X678152Y806441D01*
X678244Y806413D01*
X678334Y806381D01*
X678424Y806345D01*
X678511Y806306D01*
X678598Y806263D01*
X678682Y806217D01*
X678764Y806168D01*
X678845Y806115D01*
X678923Y806059D01*
X678999Y806000D01*
X679072Y805938D01*
X679143Y805874D01*
X679212Y805806D01*
X679277Y805736D01*
X679340Y805663D01*
X679400Y805587D01*
X679456Y805510D01*
X679510Y805430D01*
X679560Y805348D01*
X679607Y805264D01*
X679651Y805179D01*
X679691Y805091D01*
X679727Y805002D01*
X679760Y804912D01*
X679761Y804912D02*
X679860Y804705D01*
X679953Y804495D01*
X680041Y804282D01*
X680124Y804068D01*
X680202Y803852D01*
X680275Y803634D01*
X680343Y803414D01*
X680405Y803193D01*
X680462Y802970D01*
X680514Y802746D01*
X680560Y802521D01*
X680601Y802295D01*
X680636Y802068D01*
X680666Y801840D01*
X680691Y801611D01*
X680710Y801382D01*
X680724Y801153D01*
X680732Y800923D01*
X680735Y800693D01*
X674243Y800693D02*
X674246Y800463D01*
X674254Y800233D01*
X674268Y800004D01*
X674287Y799775D01*
X674312Y799546D01*
X674342Y799318D01*
X674377Y799091D01*
X674418Y798865D01*
X674464Y798640D01*
X674516Y798416D01*
X674573Y798193D01*
X674635Y797972D01*
X674703Y797752D01*
X674776Y797534D01*
X674854Y797318D01*
X674937Y797104D01*
X675025Y796892D01*
X675118Y796681D01*
X675217Y796474D01*
X675216Y796473D02*
X675249Y796383D01*
X675285Y796294D01*
X675326Y796206D01*
X675369Y796121D01*
X675416Y796037D01*
X675466Y795955D01*
X675520Y795875D01*
X675576Y795798D01*
X675636Y795722D01*
X675699Y795649D01*
X675764Y795579D01*
X675833Y795511D01*
X675904Y795447D01*
X675977Y795385D01*
X676053Y795326D01*
X676131Y795270D01*
X676212Y795217D01*
X676294Y795168D01*
X676378Y795122D01*
X676465Y795079D01*
X676552Y795040D01*
X676642Y795004D01*
X676732Y794972D01*
X676824Y794944D01*
X676917Y794919D01*
X677011Y794898D01*
X677105Y794881D01*
X677200Y794867D01*
X677296Y794858D01*
X677392Y794852D01*
X677488Y794850D01*
X679760Y796474D02*
X679859Y796681D01*
X679952Y796892D01*
X680040Y797104D01*
X680123Y797318D01*
X680201Y797534D01*
X680274Y797752D01*
X680342Y797972D01*
X680404Y798193D01*
X680461Y798416D01*
X680513Y798640D01*
X680559Y798865D01*
X680600Y799091D01*
X680635Y799318D01*
X680665Y799546D01*
X680690Y799775D01*
X680709Y800004D01*
X680723Y800233D01*
X680731Y800463D01*
X680734Y800693D01*
X679760Y796473D02*
X679727Y796383D01*
X679691Y796294D01*
X679651Y796206D01*
X679607Y796121D01*
X679560Y796037D01*
X679510Y795955D01*
X679456Y795875D01*
X679400Y795798D01*
X679340Y795722D01*
X679277Y795649D01*
X679212Y795579D01*
X679143Y795511D01*
X679072Y795447D01*
X678999Y795385D01*
X678923Y795326D01*
X678845Y795270D01*
X678764Y795217D01*
X678682Y795168D01*
X678598Y795122D01*
X678511Y795079D01*
X678424Y795040D01*
X678334Y795004D01*
X678244Y794972D01*
X678152Y794944D01*
X678059Y794919D01*
X677965Y794898D01*
X677871Y794881D01*
X677776Y794867D01*
X677680Y794858D01*
X677584Y794852D01*
X677488Y794850D01*
X674892Y797447D02*
X680085Y803938D01*
D13*
X609854Y609346D02*
X812546Y609346D01*
X812546Y406654D01*
X609854Y406654D01*
X609854Y609346D01*
D10*
X652272Y602065D02*
X652272Y593626D01*
X652274Y593513D01*
X652280Y593400D01*
X652290Y593287D01*
X652304Y593174D01*
X652321Y593062D01*
X652343Y592951D01*
X652368Y592841D01*
X652398Y592731D01*
X652431Y592623D01*
X652468Y592516D01*
X652508Y592410D01*
X652553Y592306D01*
X652601Y592203D01*
X652652Y592102D01*
X652707Y592003D01*
X652765Y591906D01*
X652827Y591811D01*
X652892Y591718D01*
X652960Y591628D01*
X653031Y591540D01*
X653106Y591454D01*
X653183Y591371D01*
X653263Y591291D01*
X653346Y591214D01*
X653432Y591139D01*
X653520Y591068D01*
X653610Y591000D01*
X653703Y590935D01*
X653798Y590873D01*
X653895Y590815D01*
X653994Y590760D01*
X654095Y590709D01*
X654198Y590661D01*
X654302Y590616D01*
X654408Y590576D01*
X654515Y590539D01*
X654623Y590506D01*
X654733Y590476D01*
X654843Y590451D01*
X654954Y590429D01*
X655066Y590412D01*
X655179Y590398D01*
X655292Y590388D01*
X655405Y590382D01*
X655518Y590380D01*
X655631Y590382D01*
X655744Y590388D01*
X655857Y590398D01*
X655970Y590412D01*
X656082Y590429D01*
X656193Y590451D01*
X656303Y590476D01*
X656413Y590506D01*
X656521Y590539D01*
X656628Y590576D01*
X656734Y590616D01*
X656838Y590661D01*
X656941Y590709D01*
X657042Y590760D01*
X657141Y590815D01*
X657238Y590873D01*
X657333Y590935D01*
X657426Y591000D01*
X657516Y591068D01*
X657604Y591139D01*
X657690Y591214D01*
X657773Y591291D01*
X657853Y591371D01*
X657930Y591454D01*
X658005Y591540D01*
X658076Y591628D01*
X658144Y591718D01*
X658209Y591811D01*
X658271Y591906D01*
X658329Y592003D01*
X658384Y592102D01*
X658435Y592203D01*
X658483Y592306D01*
X658528Y592410D01*
X658568Y592516D01*
X658605Y592623D01*
X658638Y592731D01*
X658668Y592841D01*
X658693Y592951D01*
X658715Y593062D01*
X658732Y593174D01*
X658746Y593287D01*
X658756Y593400D01*
X658762Y593513D01*
X658764Y593626D01*
X658763Y593626D02*
X658763Y602065D01*
X664083Y599468D02*
X667329Y602065D01*
X667329Y590381D01*
X670574Y590381D02*
X664083Y590381D01*
X675513Y599468D02*
X678758Y602065D01*
X678758Y590381D01*
X675513Y590381D02*
X682004Y590381D01*
D13*
X609854Y406146D02*
X812546Y406146D01*
X812546Y203454D01*
X609854Y203454D01*
X609854Y406146D01*
D10*
X651496Y398949D02*
X651496Y390511D01*
X651498Y390398D01*
X651504Y390285D01*
X651514Y390172D01*
X651528Y390059D01*
X651545Y389947D01*
X651567Y389836D01*
X651592Y389726D01*
X651622Y389616D01*
X651655Y389508D01*
X651692Y389401D01*
X651732Y389295D01*
X651777Y389191D01*
X651825Y389088D01*
X651876Y388987D01*
X651931Y388888D01*
X651989Y388791D01*
X652051Y388696D01*
X652116Y388603D01*
X652184Y388513D01*
X652255Y388425D01*
X652330Y388339D01*
X652407Y388256D01*
X652487Y388176D01*
X652570Y388099D01*
X652656Y388024D01*
X652744Y387953D01*
X652834Y387885D01*
X652927Y387820D01*
X653022Y387758D01*
X653119Y387700D01*
X653218Y387645D01*
X653319Y387594D01*
X653422Y387546D01*
X653526Y387501D01*
X653632Y387461D01*
X653739Y387424D01*
X653847Y387391D01*
X653957Y387361D01*
X654067Y387336D01*
X654178Y387314D01*
X654290Y387297D01*
X654403Y387283D01*
X654516Y387273D01*
X654629Y387267D01*
X654742Y387265D01*
X654855Y387267D01*
X654968Y387273D01*
X655081Y387283D01*
X655194Y387297D01*
X655306Y387314D01*
X655417Y387336D01*
X655527Y387361D01*
X655637Y387391D01*
X655745Y387424D01*
X655852Y387461D01*
X655958Y387501D01*
X656062Y387546D01*
X656165Y387594D01*
X656266Y387645D01*
X656365Y387700D01*
X656462Y387758D01*
X656557Y387820D01*
X656650Y387885D01*
X656740Y387953D01*
X656828Y388024D01*
X656914Y388099D01*
X656997Y388176D01*
X657077Y388256D01*
X657154Y388339D01*
X657229Y388425D01*
X657300Y388513D01*
X657368Y388603D01*
X657433Y388696D01*
X657495Y388791D01*
X657553Y388888D01*
X657608Y388987D01*
X657659Y389088D01*
X657707Y389191D01*
X657752Y389295D01*
X657792Y389401D01*
X657829Y389508D01*
X657862Y389616D01*
X657892Y389726D01*
X657917Y389836D01*
X657939Y389947D01*
X657956Y390059D01*
X657970Y390172D01*
X657980Y390285D01*
X657986Y390398D01*
X657988Y390511D01*
X657987Y390511D02*
X657987Y398949D01*
X663307Y396353D02*
X666552Y398949D01*
X666552Y387265D01*
X663307Y387265D02*
X669798Y387265D01*
X681228Y396028D02*
X681226Y396135D01*
X681220Y396241D01*
X681210Y396347D01*
X681197Y396453D01*
X681179Y396559D01*
X681158Y396663D01*
X681133Y396767D01*
X681104Y396870D01*
X681072Y396971D01*
X681035Y397071D01*
X680995Y397170D01*
X680952Y397268D01*
X680905Y397364D01*
X680854Y397458D01*
X680800Y397550D01*
X680743Y397640D01*
X680683Y397728D01*
X680619Y397813D01*
X680552Y397896D01*
X680482Y397977D01*
X680410Y398055D01*
X680334Y398131D01*
X680256Y398203D01*
X680175Y398273D01*
X680092Y398340D01*
X680007Y398404D01*
X679919Y398464D01*
X679829Y398521D01*
X679737Y398575D01*
X679643Y398626D01*
X679547Y398673D01*
X679449Y398716D01*
X679350Y398756D01*
X679250Y398793D01*
X679149Y398825D01*
X679046Y398854D01*
X678942Y398879D01*
X678838Y398900D01*
X678732Y398918D01*
X678626Y398931D01*
X678520Y398941D01*
X678414Y398947D01*
X678307Y398949D01*
X678307Y398950D02*
X678186Y398948D01*
X678065Y398942D01*
X677945Y398932D01*
X677824Y398919D01*
X677705Y398901D01*
X677585Y398880D01*
X677467Y398855D01*
X677350Y398826D01*
X677233Y398793D01*
X677118Y398757D01*
X677004Y398716D01*
X676891Y398673D01*
X676779Y398625D01*
X676670Y398574D01*
X676562Y398519D01*
X676455Y398461D01*
X676351Y398400D01*
X676249Y398335D01*
X676149Y398267D01*
X676051Y398196D01*
X675955Y398122D01*
X675862Y398045D01*
X675772Y397964D01*
X675684Y397881D01*
X675599Y397795D01*
X675516Y397706D01*
X675437Y397615D01*
X675360Y397521D01*
X675287Y397425D01*
X675217Y397327D01*
X675150Y397226D01*
X675086Y397123D01*
X675026Y397018D01*
X674969Y396911D01*
X674915Y396803D01*
X674865Y396693D01*
X674819Y396581D01*
X674776Y396468D01*
X674737Y396353D01*
X680255Y393756D02*
X680334Y393833D01*
X680410Y393914D01*
X680483Y393997D01*
X680553Y394082D01*
X680620Y394170D01*
X680684Y394260D01*
X680744Y394352D01*
X680801Y394447D01*
X680855Y394543D01*
X680906Y394641D01*
X680953Y394741D01*
X680997Y394843D01*
X681037Y394946D01*
X681073Y395050D01*
X681105Y395156D01*
X681134Y395262D01*
X681159Y395370D01*
X681181Y395478D01*
X681198Y395588D01*
X681212Y395697D01*
X681221Y395807D01*
X681227Y395918D01*
X681229Y396028D01*
X680254Y393756D02*
X674737Y387265D01*
X681228Y387265D01*
D13*
X202946Y202946D02*
X254Y202946D01*
X202946Y202946D02*
X202946Y254D01*
X254Y254D01*
X254Y202946D01*
D10*
X133336Y194479D02*
X133336Y186041D01*
X133338Y185928D01*
X133344Y185815D01*
X133354Y185702D01*
X133368Y185589D01*
X133385Y185477D01*
X133407Y185366D01*
X133432Y185256D01*
X133462Y185146D01*
X133495Y185038D01*
X133532Y184931D01*
X133572Y184825D01*
X133617Y184721D01*
X133665Y184618D01*
X133716Y184517D01*
X133771Y184418D01*
X133829Y184321D01*
X133891Y184226D01*
X133956Y184133D01*
X134024Y184043D01*
X134095Y183955D01*
X134170Y183869D01*
X134247Y183786D01*
X134327Y183706D01*
X134410Y183629D01*
X134496Y183554D01*
X134584Y183483D01*
X134674Y183415D01*
X134767Y183350D01*
X134862Y183288D01*
X134959Y183230D01*
X135058Y183175D01*
X135159Y183124D01*
X135262Y183076D01*
X135366Y183031D01*
X135472Y182991D01*
X135579Y182954D01*
X135687Y182921D01*
X135797Y182891D01*
X135907Y182866D01*
X136018Y182844D01*
X136130Y182827D01*
X136243Y182813D01*
X136356Y182803D01*
X136469Y182797D01*
X136582Y182795D01*
X136695Y182797D01*
X136808Y182803D01*
X136921Y182813D01*
X137034Y182827D01*
X137146Y182844D01*
X137257Y182866D01*
X137367Y182891D01*
X137477Y182921D01*
X137585Y182954D01*
X137692Y182991D01*
X137798Y183031D01*
X137902Y183076D01*
X138005Y183124D01*
X138106Y183175D01*
X138205Y183230D01*
X138302Y183288D01*
X138397Y183350D01*
X138490Y183415D01*
X138580Y183483D01*
X138668Y183554D01*
X138754Y183629D01*
X138837Y183706D01*
X138917Y183786D01*
X138994Y183869D01*
X139069Y183955D01*
X139140Y184043D01*
X139208Y184133D01*
X139273Y184226D01*
X139335Y184321D01*
X139393Y184418D01*
X139448Y184517D01*
X139499Y184618D01*
X139547Y184721D01*
X139592Y184825D01*
X139632Y184931D01*
X139669Y185038D01*
X139702Y185146D01*
X139732Y185256D01*
X139757Y185366D01*
X139779Y185477D01*
X139796Y185589D01*
X139810Y185702D01*
X139820Y185815D01*
X139826Y185928D01*
X139828Y186041D01*
X139827Y186041D02*
X139827Y194479D01*
X145147Y191883D02*
X148392Y194479D01*
X148392Y182795D01*
X145147Y182795D02*
X151638Y182795D01*
X156577Y182795D02*
X159822Y182795D01*
X159935Y182797D01*
X160048Y182803D01*
X160161Y182813D01*
X160274Y182827D01*
X160386Y182844D01*
X160497Y182866D01*
X160607Y182891D01*
X160717Y182921D01*
X160825Y182954D01*
X160932Y182991D01*
X161038Y183031D01*
X161142Y183076D01*
X161245Y183124D01*
X161346Y183175D01*
X161445Y183230D01*
X161542Y183288D01*
X161637Y183350D01*
X161730Y183415D01*
X161820Y183483D01*
X161908Y183554D01*
X161994Y183629D01*
X162077Y183706D01*
X162157Y183786D01*
X162234Y183869D01*
X162309Y183955D01*
X162380Y184043D01*
X162448Y184133D01*
X162513Y184226D01*
X162575Y184321D01*
X162633Y184418D01*
X162688Y184517D01*
X162739Y184618D01*
X162787Y184721D01*
X162832Y184825D01*
X162872Y184931D01*
X162909Y185038D01*
X162942Y185146D01*
X162972Y185256D01*
X162997Y185366D01*
X163019Y185477D01*
X163036Y185589D01*
X163050Y185702D01*
X163060Y185815D01*
X163066Y185928D01*
X163068Y186041D01*
X163066Y186154D01*
X163060Y186267D01*
X163050Y186380D01*
X163036Y186493D01*
X163019Y186605D01*
X162997Y186716D01*
X162972Y186826D01*
X162942Y186936D01*
X162909Y187044D01*
X162872Y187151D01*
X162832Y187257D01*
X162787Y187361D01*
X162739Y187464D01*
X162688Y187565D01*
X162633Y187664D01*
X162575Y187761D01*
X162513Y187856D01*
X162448Y187949D01*
X162380Y188039D01*
X162309Y188127D01*
X162234Y188213D01*
X162157Y188296D01*
X162077Y188376D01*
X161994Y188453D01*
X161908Y188528D01*
X161820Y188599D01*
X161730Y188667D01*
X161637Y188732D01*
X161542Y188794D01*
X161445Y188852D01*
X161346Y188907D01*
X161245Y188958D01*
X161142Y189006D01*
X161038Y189051D01*
X160932Y189091D01*
X160825Y189128D01*
X160717Y189161D01*
X160607Y189191D01*
X160497Y189216D01*
X160386Y189238D01*
X160274Y189255D01*
X160161Y189269D01*
X160048Y189279D01*
X159935Y189285D01*
X159822Y189287D01*
X160472Y194479D02*
X156577Y194479D01*
X160472Y194479D02*
X160573Y194477D01*
X160673Y194471D01*
X160773Y194461D01*
X160873Y194448D01*
X160972Y194430D01*
X161071Y194409D01*
X161168Y194384D01*
X161265Y194355D01*
X161360Y194322D01*
X161454Y194286D01*
X161546Y194246D01*
X161637Y194203D01*
X161726Y194156D01*
X161813Y194106D01*
X161899Y194052D01*
X161982Y193995D01*
X162062Y193935D01*
X162141Y193872D01*
X162217Y193805D01*
X162290Y193736D01*
X162360Y193664D01*
X162428Y193590D01*
X162493Y193513D01*
X162554Y193433D01*
X162613Y193351D01*
X162668Y193267D01*
X162720Y193181D01*
X162769Y193093D01*
X162814Y193003D01*
X162856Y192911D01*
X162894Y192818D01*
X162928Y192723D01*
X162959Y192628D01*
X162986Y192531D01*
X163009Y192433D01*
X163029Y192334D01*
X163044Y192234D01*
X163056Y192134D01*
X163064Y192034D01*
X163068Y191933D01*
X163068Y191833D01*
X163064Y191732D01*
X163056Y191632D01*
X163044Y191532D01*
X163029Y191432D01*
X163009Y191333D01*
X162986Y191235D01*
X162959Y191138D01*
X162928Y191043D01*
X162894Y190948D01*
X162856Y190855D01*
X162814Y190763D01*
X162769Y190673D01*
X162720Y190585D01*
X162668Y190499D01*
X162613Y190415D01*
X162554Y190333D01*
X162493Y190253D01*
X162428Y190176D01*
X162360Y190102D01*
X162290Y190030D01*
X162217Y189961D01*
X162141Y189894D01*
X162062Y189831D01*
X161982Y189771D01*
X161899Y189714D01*
X161813Y189660D01*
X161726Y189610D01*
X161637Y189563D01*
X161546Y189520D01*
X161454Y189480D01*
X161360Y189444D01*
X161265Y189411D01*
X161168Y189382D01*
X161071Y189357D01*
X160972Y189336D01*
X160873Y189318D01*
X160773Y189305D01*
X160673Y189295D01*
X160573Y189289D01*
X160472Y189287D01*
X160472Y189286D02*
X157875Y189286D01*
D13*
X203454Y202946D02*
X406146Y202946D01*
X406146Y254D01*
X203454Y254D01*
X203454Y202946D01*
D10*
X336042Y195665D02*
X336042Y187226D01*
X336044Y187113D01*
X336050Y187000D01*
X336060Y186887D01*
X336074Y186774D01*
X336091Y186662D01*
X336113Y186551D01*
X336138Y186441D01*
X336168Y186331D01*
X336201Y186223D01*
X336238Y186116D01*
X336278Y186010D01*
X336323Y185906D01*
X336371Y185803D01*
X336422Y185702D01*
X336477Y185603D01*
X336535Y185506D01*
X336597Y185411D01*
X336662Y185318D01*
X336730Y185228D01*
X336801Y185140D01*
X336876Y185054D01*
X336953Y184971D01*
X337033Y184891D01*
X337116Y184814D01*
X337202Y184739D01*
X337290Y184668D01*
X337380Y184600D01*
X337473Y184535D01*
X337568Y184473D01*
X337665Y184415D01*
X337764Y184360D01*
X337865Y184309D01*
X337968Y184261D01*
X338072Y184216D01*
X338178Y184176D01*
X338285Y184139D01*
X338393Y184106D01*
X338503Y184076D01*
X338613Y184051D01*
X338724Y184029D01*
X338836Y184012D01*
X338949Y183998D01*
X339062Y183988D01*
X339175Y183982D01*
X339288Y183980D01*
X339401Y183982D01*
X339514Y183988D01*
X339627Y183998D01*
X339740Y184012D01*
X339852Y184029D01*
X339963Y184051D01*
X340073Y184076D01*
X340183Y184106D01*
X340291Y184139D01*
X340398Y184176D01*
X340504Y184216D01*
X340608Y184261D01*
X340711Y184309D01*
X340812Y184360D01*
X340911Y184415D01*
X341008Y184473D01*
X341103Y184535D01*
X341196Y184600D01*
X341286Y184668D01*
X341374Y184739D01*
X341460Y184814D01*
X341543Y184891D01*
X341623Y184971D01*
X341700Y185054D01*
X341775Y185140D01*
X341846Y185228D01*
X341914Y185318D01*
X341979Y185411D01*
X342041Y185506D01*
X342099Y185603D01*
X342154Y185702D01*
X342205Y185803D01*
X342253Y185906D01*
X342298Y186010D01*
X342338Y186116D01*
X342375Y186223D01*
X342408Y186331D01*
X342438Y186441D01*
X342463Y186551D01*
X342485Y186662D01*
X342502Y186774D01*
X342516Y186887D01*
X342526Y187000D01*
X342532Y187113D01*
X342534Y187226D01*
X342533Y187226D02*
X342533Y195665D01*
X347853Y193068D02*
X351099Y195665D01*
X351099Y183981D01*
X354344Y183981D02*
X347853Y183981D01*
X359283Y186577D02*
X361879Y195665D01*
X359283Y186577D02*
X365774Y186577D01*
X363827Y189174D02*
X363827Y183981D01*
D13*
X406654Y202946D02*
X609346Y202946D01*
X609346Y254D01*
X406654Y254D01*
X406654Y202946D01*
D10*
X447802Y196935D02*
X447802Y188496D01*
X447804Y188383D01*
X447810Y188270D01*
X447820Y188157D01*
X447834Y188044D01*
X447851Y187932D01*
X447873Y187821D01*
X447898Y187711D01*
X447928Y187601D01*
X447961Y187493D01*
X447998Y187386D01*
X448038Y187280D01*
X448083Y187176D01*
X448131Y187073D01*
X448182Y186972D01*
X448237Y186873D01*
X448295Y186776D01*
X448357Y186681D01*
X448422Y186588D01*
X448490Y186498D01*
X448561Y186410D01*
X448636Y186324D01*
X448713Y186241D01*
X448793Y186161D01*
X448876Y186084D01*
X448962Y186009D01*
X449050Y185938D01*
X449140Y185870D01*
X449233Y185805D01*
X449328Y185743D01*
X449425Y185685D01*
X449524Y185630D01*
X449625Y185579D01*
X449728Y185531D01*
X449832Y185486D01*
X449938Y185446D01*
X450045Y185409D01*
X450153Y185376D01*
X450263Y185346D01*
X450373Y185321D01*
X450484Y185299D01*
X450596Y185282D01*
X450709Y185268D01*
X450822Y185258D01*
X450935Y185252D01*
X451048Y185250D01*
X451161Y185252D01*
X451274Y185258D01*
X451387Y185268D01*
X451500Y185282D01*
X451612Y185299D01*
X451723Y185321D01*
X451833Y185346D01*
X451943Y185376D01*
X452051Y185409D01*
X452158Y185446D01*
X452264Y185486D01*
X452368Y185531D01*
X452471Y185579D01*
X452572Y185630D01*
X452671Y185685D01*
X452768Y185743D01*
X452863Y185805D01*
X452956Y185870D01*
X453046Y185938D01*
X453134Y186009D01*
X453220Y186084D01*
X453303Y186161D01*
X453383Y186241D01*
X453460Y186324D01*
X453535Y186410D01*
X453606Y186498D01*
X453674Y186588D01*
X453739Y186681D01*
X453801Y186776D01*
X453859Y186873D01*
X453914Y186972D01*
X453965Y187073D01*
X454013Y187176D01*
X454058Y187280D01*
X454098Y187386D01*
X454135Y187493D01*
X454168Y187601D01*
X454198Y187711D01*
X454223Y187821D01*
X454245Y187932D01*
X454262Y188044D01*
X454276Y188157D01*
X454286Y188270D01*
X454292Y188383D01*
X454294Y188496D01*
X454293Y188496D02*
X454293Y196935D01*
X459613Y194338D02*
X462859Y196935D01*
X462859Y185251D01*
X466104Y185251D02*
X459613Y185251D01*
X471043Y185251D02*
X474938Y185251D01*
X475037Y185253D01*
X475137Y185259D01*
X475236Y185268D01*
X475334Y185281D01*
X475432Y185298D01*
X475530Y185319D01*
X475626Y185344D01*
X475721Y185372D01*
X475815Y185404D01*
X475908Y185439D01*
X476000Y185478D01*
X476090Y185521D01*
X476178Y185566D01*
X476265Y185616D01*
X476349Y185668D01*
X476432Y185724D01*
X476512Y185782D01*
X476590Y185844D01*
X476665Y185909D01*
X476738Y185977D01*
X476808Y186047D01*
X476876Y186120D01*
X476941Y186195D01*
X477003Y186273D01*
X477061Y186353D01*
X477117Y186436D01*
X477169Y186520D01*
X477219Y186607D01*
X477264Y186695D01*
X477307Y186785D01*
X477346Y186877D01*
X477381Y186970D01*
X477413Y187064D01*
X477441Y187159D01*
X477466Y187255D01*
X477487Y187353D01*
X477504Y187451D01*
X477517Y187549D01*
X477526Y187648D01*
X477532Y187748D01*
X477534Y187847D01*
X477534Y189145D01*
X477532Y189244D01*
X477526Y189344D01*
X477517Y189443D01*
X477504Y189541D01*
X477487Y189639D01*
X477466Y189737D01*
X477441Y189833D01*
X477413Y189928D01*
X477381Y190022D01*
X477346Y190115D01*
X477307Y190207D01*
X477264Y190297D01*
X477219Y190385D01*
X477169Y190472D01*
X477117Y190556D01*
X477061Y190639D01*
X477003Y190719D01*
X476941Y190797D01*
X476876Y190872D01*
X476808Y190945D01*
X476738Y191015D01*
X476665Y191083D01*
X476590Y191148D01*
X476512Y191210D01*
X476432Y191268D01*
X476349Y191324D01*
X476265Y191376D01*
X476178Y191426D01*
X476090Y191471D01*
X476000Y191514D01*
X475908Y191553D01*
X475815Y191588D01*
X475721Y191620D01*
X475626Y191648D01*
X475530Y191673D01*
X475432Y191694D01*
X475334Y191711D01*
X475236Y191724D01*
X475137Y191733D01*
X475037Y191739D01*
X474938Y191741D01*
X474938Y191742D02*
X471043Y191742D01*
X471043Y196935D01*
X477534Y196935D01*
D13*
X609854Y202946D02*
X812546Y202946D01*
X812546Y254D01*
X609854Y254D01*
X609854Y202946D01*
D10*
X651496Y194479D02*
X651496Y186041D01*
X651498Y185928D01*
X651504Y185815D01*
X651514Y185702D01*
X651528Y185589D01*
X651545Y185477D01*
X651567Y185366D01*
X651592Y185256D01*
X651622Y185146D01*
X651655Y185038D01*
X651692Y184931D01*
X651732Y184825D01*
X651777Y184721D01*
X651825Y184618D01*
X651876Y184517D01*
X651931Y184418D01*
X651989Y184321D01*
X652051Y184226D01*
X652116Y184133D01*
X652184Y184043D01*
X652255Y183955D01*
X652330Y183869D01*
X652407Y183786D01*
X652487Y183706D01*
X652570Y183629D01*
X652656Y183554D01*
X652744Y183483D01*
X652834Y183415D01*
X652927Y183350D01*
X653022Y183288D01*
X653119Y183230D01*
X653218Y183175D01*
X653319Y183124D01*
X653422Y183076D01*
X653526Y183031D01*
X653632Y182991D01*
X653739Y182954D01*
X653847Y182921D01*
X653957Y182891D01*
X654067Y182866D01*
X654178Y182844D01*
X654290Y182827D01*
X654403Y182813D01*
X654516Y182803D01*
X654629Y182797D01*
X654742Y182795D01*
X654855Y182797D01*
X654968Y182803D01*
X655081Y182813D01*
X655194Y182827D01*
X655306Y182844D01*
X655417Y182866D01*
X655527Y182891D01*
X655637Y182921D01*
X655745Y182954D01*
X655852Y182991D01*
X655958Y183031D01*
X656062Y183076D01*
X656165Y183124D01*
X656266Y183175D01*
X656365Y183230D01*
X656462Y183288D01*
X656557Y183350D01*
X656650Y183415D01*
X656740Y183483D01*
X656828Y183554D01*
X656914Y183629D01*
X656997Y183706D01*
X657077Y183786D01*
X657154Y183869D01*
X657229Y183955D01*
X657300Y184043D01*
X657368Y184133D01*
X657433Y184226D01*
X657495Y184321D01*
X657553Y184418D01*
X657608Y184517D01*
X657659Y184618D01*
X657707Y184721D01*
X657752Y184825D01*
X657792Y184931D01*
X657829Y185038D01*
X657862Y185146D01*
X657892Y185256D01*
X657917Y185366D01*
X657939Y185477D01*
X657956Y185589D01*
X657970Y185702D01*
X657980Y185815D01*
X657986Y185928D01*
X657988Y186041D01*
X657987Y186041D02*
X657987Y194479D01*
X663307Y191883D02*
X666552Y194479D01*
X666552Y182795D01*
X663307Y182795D02*
X669798Y182795D01*
X674737Y189286D02*
X678632Y189286D01*
X678731Y189284D01*
X678831Y189278D01*
X678930Y189269D01*
X679028Y189256D01*
X679126Y189239D01*
X679224Y189218D01*
X679320Y189193D01*
X679415Y189165D01*
X679509Y189133D01*
X679602Y189098D01*
X679694Y189059D01*
X679784Y189016D01*
X679872Y188971D01*
X679959Y188921D01*
X680043Y188869D01*
X680126Y188813D01*
X680206Y188755D01*
X680284Y188693D01*
X680359Y188628D01*
X680432Y188560D01*
X680502Y188490D01*
X680570Y188417D01*
X680635Y188342D01*
X680697Y188264D01*
X680755Y188184D01*
X680811Y188101D01*
X680863Y188017D01*
X680913Y187930D01*
X680958Y187842D01*
X681001Y187752D01*
X681040Y187660D01*
X681075Y187567D01*
X681107Y187473D01*
X681135Y187378D01*
X681160Y187282D01*
X681181Y187184D01*
X681198Y187086D01*
X681211Y186988D01*
X681220Y186889D01*
X681226Y186789D01*
X681228Y186690D01*
X681228Y186041D01*
X681226Y185928D01*
X681220Y185815D01*
X681210Y185702D01*
X681196Y185589D01*
X681179Y185477D01*
X681157Y185366D01*
X681132Y185256D01*
X681102Y185146D01*
X681069Y185038D01*
X681032Y184931D01*
X680992Y184825D01*
X680947Y184721D01*
X680899Y184618D01*
X680848Y184517D01*
X680793Y184418D01*
X680735Y184321D01*
X680673Y184226D01*
X680608Y184133D01*
X680540Y184043D01*
X680469Y183955D01*
X680394Y183869D01*
X680317Y183786D01*
X680237Y183706D01*
X680154Y183629D01*
X680068Y183554D01*
X679980Y183483D01*
X679890Y183415D01*
X679797Y183350D01*
X679702Y183288D01*
X679605Y183230D01*
X679506Y183175D01*
X679405Y183124D01*
X679302Y183076D01*
X679198Y183031D01*
X679092Y182991D01*
X678985Y182954D01*
X678877Y182921D01*
X678767Y182891D01*
X678657Y182866D01*
X678546Y182844D01*
X678434Y182827D01*
X678321Y182813D01*
X678208Y182803D01*
X678095Y182797D01*
X677982Y182795D01*
X677869Y182797D01*
X677756Y182803D01*
X677643Y182813D01*
X677530Y182827D01*
X677418Y182844D01*
X677307Y182866D01*
X677197Y182891D01*
X677087Y182921D01*
X676979Y182954D01*
X676872Y182991D01*
X676766Y183031D01*
X676662Y183076D01*
X676559Y183124D01*
X676458Y183175D01*
X676359Y183230D01*
X676262Y183288D01*
X676167Y183350D01*
X676074Y183415D01*
X675984Y183483D01*
X675896Y183554D01*
X675810Y183629D01*
X675727Y183706D01*
X675647Y183786D01*
X675570Y183869D01*
X675495Y183955D01*
X675424Y184043D01*
X675356Y184133D01*
X675291Y184226D01*
X675229Y184321D01*
X675171Y184418D01*
X675116Y184517D01*
X675065Y184618D01*
X675017Y184721D01*
X674972Y184825D01*
X674932Y184931D01*
X674895Y185038D01*
X674862Y185146D01*
X674832Y185256D01*
X674807Y185366D01*
X674785Y185477D01*
X674768Y185589D01*
X674754Y185702D01*
X674744Y185815D01*
X674738Y185928D01*
X674736Y186041D01*
X674737Y186041D02*
X674737Y189286D01*
X674739Y189429D01*
X674745Y189572D01*
X674755Y189715D01*
X674769Y189857D01*
X674786Y189999D01*
X674808Y190141D01*
X674833Y190282D01*
X674863Y190422D01*
X674896Y190561D01*
X674933Y190699D01*
X674974Y190836D01*
X675018Y190972D01*
X675067Y191107D01*
X675119Y191240D01*
X675174Y191372D01*
X675234Y191502D01*
X675297Y191631D01*
X675363Y191758D01*
X675433Y191882D01*
X675506Y192005D01*
X675583Y192126D01*
X675663Y192245D01*
X675746Y192361D01*
X675832Y192476D01*
X675921Y192587D01*
X676014Y192697D01*
X676109Y192803D01*
X676208Y192907D01*
X676309Y193008D01*
X676413Y193107D01*
X676519Y193202D01*
X676629Y193295D01*
X676740Y193384D01*
X676855Y193470D01*
X676971Y193553D01*
X677090Y193633D01*
X677211Y193710D01*
X677333Y193783D01*
X677458Y193853D01*
X677585Y193919D01*
X677714Y193982D01*
X677844Y194042D01*
X677976Y194097D01*
X678109Y194149D01*
X678244Y194198D01*
X678380Y194242D01*
X678517Y194283D01*
X678655Y194320D01*
X678794Y194353D01*
X678934Y194383D01*
X679075Y194408D01*
X679217Y194430D01*
X679359Y194447D01*
X679501Y194461D01*
X679644Y194471D01*
X679787Y194477D01*
X679930Y194479D01*
M02*
