M48
;GenerationSoftware,Autodesk,EAGLE,9.6.1*%
;CreationDate,2024-11-08T11:33:15Z*%
FMAT,2
ICI,OFF
METRIC,TZ,000.000
T3C0.350
T2C0.900
T1C1.016
%
G90
M71
T1
X22225Y54610
X26670Y57150
X1778Y26670
X1778Y29210
X77470Y48260
X77470Y45720
X77470Y43180
X77470Y33020
X77470Y35560
X77470Y38100
X43180Y76200
X45720Y76200
X48260Y76200
X43180Y5080
X45720Y5080
X48260Y5080
X46990Y43180
X44450Y43180
X22225Y29210
X22225Y26670
X22225Y24130
X22225Y59690
X22225Y57150
X22225Y52070
X22225Y41910
X22225Y44450
X22225Y46990
X22225Y34290
X22225Y36830
X22225Y39370
X74930Y80010
X74930Y77470
X74930Y74930
X74930Y72390
X74930Y69850
X74930Y67310
X74930Y64770
X74930Y62230
X54610Y59690
X54610Y57150
X54610Y54610
X54610Y52070
X54610Y49530
X54610Y46990
X54610Y44450
X54610Y41910
X54610Y39370
X54610Y36830
X54610Y34290
X54610Y31750
X54610Y29210
X54610Y26670
X54610Y24130
X54610Y21590
X74930Y19050
X74930Y16510
X74930Y13970
X74930Y11430
X74930Y8890
X74930Y6350
X74930Y3810
X74930Y1270
X6350Y80010
X6350Y77470
X6350Y74930
X6350Y72390
X6350Y69850
X6350Y67310
X6350Y64770
X6350Y62230
X26670Y59690
X26670Y54610
X26670Y52070
X26670Y49530
X26670Y46990
X26670Y44450
X26670Y41910
X26670Y39370
X26670Y36830
X26670Y34290
X26670Y31750
X26670Y29210
X26670Y26670
X26670Y24130
X26670Y21590
X6350Y19050
X6350Y16510
X6350Y13970
X6350Y11430
X6350Y8890
X6350Y6350
X6350Y3810
X6350Y1270
X1778Y24130
T2
X5969Y35900
X5969Y40300
T3
X9779Y51181
X10287Y56896
X13716Y51181
X5080Y52070
X3810Y21590
X11049Y51943
X6397Y49483
X15621Y54991
X53848Y4445
X65786Y10287
X30861Y9525
X27686Y4445
X42291Y22860
X47371Y29845
X24765Y66675
X30607Y72644
X43180Y45720
X47244Y52705
X64770Y45720
X67310Y52705
X55880Y66040
X65405Y66802
X64770Y22860
X69977Y29845
X24511Y15875
X20320Y80010
X13893Y78817
X8890Y31750
X6350Y31750
X12192Y51181
X8890Y21590
X6350Y21590
X6350Y27940
X6350Y25400
X3810Y31750
X3810Y27940
X3810Y25400
X77470Y57150
X77470Y25400
X7366Y45847
X44450Y33020
X58039Y70612
X68199Y67183
X59436Y70612
X67310Y69850
X59055Y73660
X68199Y72390
X59690Y76200
X67310Y74930
X58420Y77470
X68199Y77470
X65786Y74803
X69850Y26670
X66040Y7620
X69850Y49530
X65151Y70231
X75311Y43942
X67310Y10160
X68580Y27940
X68580Y50800
X65151Y71628
X69850Y34290
X68580Y31750
X67310Y65151
X69088Y53975
X66421Y12573
X69850Y24130
X60579Y3937
X67310Y3810
X60325Y6477
X67310Y6350
X58420Y8890
X67310Y8890
X59690Y11430
X67310Y11430
X58420Y12700
X67310Y13970
X58547Y15367
X53086Y19431
X67310Y16510
X66040Y5080
X30099Y76454
X29972Y3810
X27940Y76454
X51054Y27305
X50038Y38100
X53721Y63881
X47244Y50165
X29464Y6477
X27813Y77724
X46228Y47752
X51816Y48641
X51943Y25781
X51308Y23241
X51816Y56642
X52451Y62484
X46990Y54610
X27940Y63500
X46101Y20701
X50546Y21590
X47244Y21590
X49022Y21590
X36068Y9525
X30861Y11176
M30