G04 EAGLE Gerber RS-274X export*
G75*
%MOMM*%
%FSLAX34Y34*%
%LPD*%
%INSolderpaste Bottom*%
%IPPOS*%
%AMOC8*
5,1,8,0,0,1.08239X$1,22.5*%
G01*
%ADD10R,1.500000X1.300000*%
%ADD11R,1.600000X2.300000*%
%ADD12R,1.300000X1.500000*%
%ADD13R,1.200000X1.200000*%
%ADD14R,2.500000X0.500000*%
%ADD15R,2.500000X2.000000*%
%ADD16R,0.400000X1.499997*%
%ADD17R,1.900000X0.900000*%
%ADD18R,1.900000X3.200000*%
%ADD19R,1.600000X1.800000*%
%ADD20R,0.400000X1.000000*%

G36*
X88920Y240542D02*
X88920Y240542D01*
X88939Y240540D01*
X89041Y240562D01*
X89143Y240579D01*
X89160Y240588D01*
X89180Y240592D01*
X89269Y240645D01*
X89360Y240694D01*
X89374Y240708D01*
X89391Y240718D01*
X89458Y240797D01*
X89530Y240872D01*
X89538Y240890D01*
X89551Y240905D01*
X89590Y241001D01*
X89633Y241095D01*
X89635Y241115D01*
X89643Y241133D01*
X89661Y241300D01*
X89661Y292100D01*
X89658Y292120D01*
X89660Y292139D01*
X89638Y292241D01*
X89622Y292343D01*
X89612Y292360D01*
X89608Y292380D01*
X89555Y292469D01*
X89506Y292560D01*
X89492Y292574D01*
X89482Y292591D01*
X89403Y292658D01*
X89328Y292730D01*
X89310Y292738D01*
X89295Y292751D01*
X89199Y292790D01*
X89105Y292833D01*
X89085Y292835D01*
X89067Y292843D01*
X88900Y292861D01*
X58420Y292861D01*
X58400Y292858D01*
X58381Y292860D01*
X58279Y292838D01*
X58177Y292822D01*
X58160Y292812D01*
X58140Y292808D01*
X58051Y292755D01*
X57960Y292706D01*
X57946Y292692D01*
X57929Y292682D01*
X57862Y292603D01*
X57791Y292528D01*
X57782Y292510D01*
X57769Y292495D01*
X57730Y292399D01*
X57687Y292305D01*
X57685Y292285D01*
X57677Y292267D01*
X57659Y292100D01*
X57659Y241300D01*
X57662Y241280D01*
X57660Y241261D01*
X57682Y241159D01*
X57699Y241057D01*
X57708Y241040D01*
X57712Y241020D01*
X57765Y240931D01*
X57814Y240840D01*
X57828Y240826D01*
X57838Y240809D01*
X57917Y240742D01*
X57992Y240671D01*
X58010Y240662D01*
X58025Y240649D01*
X58121Y240610D01*
X58215Y240567D01*
X58235Y240565D01*
X58253Y240557D01*
X58420Y240539D01*
X88900Y240539D01*
X88920Y240542D01*
G37*
D10*
X24130Y498450D03*
X24130Y479450D03*
D11*
X25400Y590300D03*
X25400Y527300D03*
D12*
X76860Y476250D03*
X95860Y476250D03*
D13*
X417830Y442300D03*
X417830Y421300D03*
D10*
X417830Y401930D03*
X417830Y382930D03*
D14*
X84690Y381000D03*
X84690Y373000D03*
X84690Y397000D03*
X84690Y389000D03*
D15*
X29690Y426000D03*
X29690Y336000D03*
X84690Y426000D03*
X84690Y336000D03*
D14*
X84690Y365000D03*
D16*
X158430Y355999D03*
X138110Y355999D03*
X148430Y355999D03*
X128430Y355999D03*
X118430Y355999D03*
X118430Y406001D03*
X128430Y406001D03*
X138110Y406001D03*
X148430Y406001D03*
X158430Y406001D03*
D17*
X130830Y288430D03*
X130830Y265430D03*
X130830Y242430D03*
D18*
X69830Y265430D03*
D19*
X132110Y213360D03*
X104110Y213360D03*
X118080Y320040D03*
X146080Y320040D03*
D20*
X80522Y496410D03*
X87126Y496410D03*
X93730Y496350D03*
X100334Y496410D03*
X106938Y496410D03*
X113542Y496410D03*
X120146Y496410D03*
X126750Y496410D03*
X133354Y496410D03*
X139958Y496410D03*
X139958Y554830D03*
X133354Y554830D03*
X126750Y554830D03*
X120146Y554830D03*
X113542Y554830D03*
X106938Y554830D03*
X100334Y554830D03*
X93730Y554890D03*
X87126Y554830D03*
X80522Y554830D03*
M02*
