G04 EAGLE Gerber RS-274X export*
G75*
%MOMM*%
%FSLAX34Y34*%
%LPD*%
%INSolderpaste Top*%
%IPPOS*%
%AMOC8*
5,1,8,0,0,1.08239X$1,22.5*%
G01*
%ADD10R,1.250000X0.600000*%
%ADD11R,0.600000X1.250000*%
%ADD12R,1.300000X1.500000*%
%ADD13C,0.152500*%


D10*
X126070Y777850D03*
X126070Y796950D03*
X105070Y787400D03*
X126070Y739750D03*
X126070Y758850D03*
X105070Y749300D03*
X126070Y701650D03*
X126070Y720750D03*
X105070Y711200D03*
X126070Y663550D03*
X126070Y682650D03*
X105070Y673100D03*
D11*
X125120Y644230D03*
X106020Y644230D03*
X115570Y623230D03*
X174650Y644230D03*
X155550Y644230D03*
X165100Y623230D03*
D10*
X222590Y776580D03*
X222590Y795680D03*
X201590Y786130D03*
D11*
X225450Y644230D03*
X206350Y644230D03*
X215900Y623230D03*
D12*
X720700Y698500D03*
X701700Y698500D03*
X174600Y668020D03*
X155600Y668020D03*
X225400Y668020D03*
X206400Y668020D03*
X720700Y800100D03*
X701700Y800100D03*
X720700Y774700D03*
X701700Y774700D03*
X720700Y749300D03*
X701700Y749300D03*
X720700Y723900D03*
X701700Y723900D03*
X262230Y793750D03*
X243230Y793750D03*
X720700Y673100D03*
X701700Y673100D03*
X720700Y647700D03*
X701700Y647700D03*
X720700Y622300D03*
X701700Y622300D03*
X174600Y788670D03*
X155600Y788670D03*
X174600Y764540D03*
X155600Y764540D03*
X174600Y740410D03*
X155600Y740410D03*
X174600Y716280D03*
X155600Y716280D03*
X174600Y692150D03*
X155600Y692150D03*
D13*
X553562Y766062D02*
X570738Y766062D01*
X553562Y766062D02*
X553562Y770638D01*
X570738Y770638D01*
X570738Y766062D01*
X570738Y767511D02*
X553562Y767511D01*
X553562Y768960D02*
X570738Y768960D01*
X570738Y770409D02*
X553562Y770409D01*
X553562Y753362D02*
X570738Y753362D01*
X553562Y753362D02*
X553562Y757938D01*
X570738Y757938D01*
X570738Y753362D01*
X570738Y754811D02*
X553562Y754811D01*
X553562Y756260D02*
X570738Y756260D01*
X570738Y757709D02*
X553562Y757709D01*
X553562Y740662D02*
X570738Y740662D01*
X553562Y740662D02*
X553562Y745238D01*
X570738Y745238D01*
X570738Y740662D01*
X570738Y742111D02*
X553562Y742111D01*
X553562Y743560D02*
X570738Y743560D01*
X570738Y745009D02*
X553562Y745009D01*
X553562Y727962D02*
X570738Y727962D01*
X553562Y727962D02*
X553562Y732538D01*
X570738Y732538D01*
X570738Y727962D01*
X570738Y729411D02*
X553562Y729411D01*
X553562Y730860D02*
X570738Y730860D01*
X570738Y732309D02*
X553562Y732309D01*
X553562Y715262D02*
X570738Y715262D01*
X553562Y715262D02*
X553562Y719838D01*
X570738Y719838D01*
X570738Y715262D01*
X570738Y716711D02*
X553562Y716711D01*
X553562Y718160D02*
X570738Y718160D01*
X570738Y719609D02*
X553562Y719609D01*
X553562Y702562D02*
X570738Y702562D01*
X553562Y702562D02*
X553562Y707138D01*
X570738Y707138D01*
X570738Y702562D01*
X570738Y704011D02*
X553562Y704011D01*
X553562Y705460D02*
X570738Y705460D01*
X570738Y706909D02*
X553562Y706909D01*
X553562Y689862D02*
X570738Y689862D01*
X553562Y689862D02*
X553562Y694438D01*
X570738Y694438D01*
X570738Y689862D01*
X570738Y691311D02*
X553562Y691311D01*
X553562Y692760D02*
X570738Y692760D01*
X570738Y694209D02*
X553562Y694209D01*
X553562Y677162D02*
X570738Y677162D01*
X553562Y677162D02*
X553562Y681738D01*
X570738Y681738D01*
X570738Y677162D01*
X570738Y678611D02*
X553562Y678611D01*
X553562Y680060D02*
X570738Y680060D01*
X570738Y681509D02*
X553562Y681509D01*
X623062Y677162D02*
X640238Y677162D01*
X623062Y677162D02*
X623062Y681738D01*
X640238Y681738D01*
X640238Y677162D01*
X640238Y678611D02*
X623062Y678611D01*
X623062Y680060D02*
X640238Y680060D01*
X640238Y681509D02*
X623062Y681509D01*
X623062Y689862D02*
X640238Y689862D01*
X623062Y689862D02*
X623062Y694438D01*
X640238Y694438D01*
X640238Y689862D01*
X640238Y691311D02*
X623062Y691311D01*
X623062Y692760D02*
X640238Y692760D01*
X640238Y694209D02*
X623062Y694209D01*
X623062Y702562D02*
X640238Y702562D01*
X623062Y702562D02*
X623062Y707138D01*
X640238Y707138D01*
X640238Y702562D01*
X640238Y704011D02*
X623062Y704011D01*
X623062Y705460D02*
X640238Y705460D01*
X640238Y706909D02*
X623062Y706909D01*
X623062Y715262D02*
X640238Y715262D01*
X623062Y715262D02*
X623062Y719838D01*
X640238Y719838D01*
X640238Y715262D01*
X640238Y716711D02*
X623062Y716711D01*
X623062Y718160D02*
X640238Y718160D01*
X640238Y719609D02*
X623062Y719609D01*
X623062Y727962D02*
X640238Y727962D01*
X623062Y727962D02*
X623062Y732538D01*
X640238Y732538D01*
X640238Y727962D01*
X640238Y729411D02*
X623062Y729411D01*
X623062Y730860D02*
X640238Y730860D01*
X640238Y732309D02*
X623062Y732309D01*
X623062Y740662D02*
X640238Y740662D01*
X623062Y740662D02*
X623062Y745238D01*
X640238Y745238D01*
X640238Y740662D01*
X640238Y742111D02*
X623062Y742111D01*
X623062Y743560D02*
X640238Y743560D01*
X640238Y745009D02*
X623062Y745009D01*
X623062Y753362D02*
X640238Y753362D01*
X623062Y753362D02*
X623062Y757938D01*
X640238Y757938D01*
X640238Y753362D01*
X640238Y754811D02*
X623062Y754811D01*
X623062Y756260D02*
X640238Y756260D01*
X640238Y757709D02*
X623062Y757709D01*
X623062Y766062D02*
X640238Y766062D01*
X623062Y766062D02*
X623062Y770638D01*
X640238Y770638D01*
X640238Y766062D01*
X640238Y767511D02*
X623062Y767511D01*
X623062Y768960D02*
X640238Y768960D01*
X640238Y770409D02*
X623062Y770409D01*
D12*
X574700Y495300D03*
X593700Y495300D03*
X574700Y469900D03*
X593700Y469900D03*
X574700Y444500D03*
X593700Y444500D03*
X574700Y419100D03*
X593700Y419100D03*
X574700Y596900D03*
X593700Y596900D03*
X574700Y571500D03*
X593700Y571500D03*
X574700Y546100D03*
X593700Y546100D03*
X574700Y520700D03*
X593700Y520700D03*
D13*
X642462Y562862D02*
X659638Y562862D01*
X642462Y562862D02*
X642462Y567438D01*
X659638Y567438D01*
X659638Y562862D01*
X659638Y564311D02*
X642462Y564311D01*
X642462Y565760D02*
X659638Y565760D01*
X659638Y567209D02*
X642462Y567209D01*
X642462Y550162D02*
X659638Y550162D01*
X642462Y550162D02*
X642462Y554738D01*
X659638Y554738D01*
X659638Y550162D01*
X659638Y551611D02*
X642462Y551611D01*
X642462Y553060D02*
X659638Y553060D01*
X659638Y554509D02*
X642462Y554509D01*
X642462Y537462D02*
X659638Y537462D01*
X642462Y537462D02*
X642462Y542038D01*
X659638Y542038D01*
X659638Y537462D01*
X659638Y538911D02*
X642462Y538911D01*
X642462Y540360D02*
X659638Y540360D01*
X659638Y541809D02*
X642462Y541809D01*
X642462Y524762D02*
X659638Y524762D01*
X642462Y524762D02*
X642462Y529338D01*
X659638Y529338D01*
X659638Y524762D01*
X659638Y526211D02*
X642462Y526211D01*
X642462Y527660D02*
X659638Y527660D01*
X659638Y529109D02*
X642462Y529109D01*
X642462Y512062D02*
X659638Y512062D01*
X642462Y512062D02*
X642462Y516638D01*
X659638Y516638D01*
X659638Y512062D01*
X659638Y513511D02*
X642462Y513511D01*
X642462Y514960D02*
X659638Y514960D01*
X659638Y516409D02*
X642462Y516409D01*
X642462Y499362D02*
X659638Y499362D01*
X642462Y499362D02*
X642462Y503938D01*
X659638Y503938D01*
X659638Y499362D01*
X659638Y500811D02*
X642462Y500811D01*
X642462Y502260D02*
X659638Y502260D01*
X659638Y503709D02*
X642462Y503709D01*
X642462Y486662D02*
X659638Y486662D01*
X642462Y486662D02*
X642462Y491238D01*
X659638Y491238D01*
X659638Y486662D01*
X659638Y488111D02*
X642462Y488111D01*
X642462Y489560D02*
X659638Y489560D01*
X659638Y491009D02*
X642462Y491009D01*
X642462Y473962D02*
X659638Y473962D01*
X642462Y473962D02*
X642462Y478538D01*
X659638Y478538D01*
X659638Y473962D01*
X659638Y475411D02*
X642462Y475411D01*
X642462Y476860D02*
X659638Y476860D01*
X659638Y478309D02*
X642462Y478309D01*
X711962Y473962D02*
X729138Y473962D01*
X711962Y473962D02*
X711962Y478538D01*
X729138Y478538D01*
X729138Y473962D01*
X729138Y475411D02*
X711962Y475411D01*
X711962Y476860D02*
X729138Y476860D01*
X729138Y478309D02*
X711962Y478309D01*
X711962Y486662D02*
X729138Y486662D01*
X711962Y486662D02*
X711962Y491238D01*
X729138Y491238D01*
X729138Y486662D01*
X729138Y488111D02*
X711962Y488111D01*
X711962Y489560D02*
X729138Y489560D01*
X729138Y491009D02*
X711962Y491009D01*
X711962Y499362D02*
X729138Y499362D01*
X711962Y499362D02*
X711962Y503938D01*
X729138Y503938D01*
X729138Y499362D01*
X729138Y500811D02*
X711962Y500811D01*
X711962Y502260D02*
X729138Y502260D01*
X729138Y503709D02*
X711962Y503709D01*
X711962Y512062D02*
X729138Y512062D01*
X711962Y512062D02*
X711962Y516638D01*
X729138Y516638D01*
X729138Y512062D01*
X729138Y513511D02*
X711962Y513511D01*
X711962Y514960D02*
X729138Y514960D01*
X729138Y516409D02*
X711962Y516409D01*
X711962Y524762D02*
X729138Y524762D01*
X711962Y524762D02*
X711962Y529338D01*
X729138Y529338D01*
X729138Y524762D01*
X729138Y526211D02*
X711962Y526211D01*
X711962Y527660D02*
X729138Y527660D01*
X729138Y529109D02*
X711962Y529109D01*
X711962Y537462D02*
X729138Y537462D01*
X711962Y537462D02*
X711962Y542038D01*
X729138Y542038D01*
X729138Y537462D01*
X729138Y538911D02*
X711962Y538911D01*
X711962Y540360D02*
X729138Y540360D01*
X729138Y541809D02*
X711962Y541809D01*
X711962Y550162D02*
X729138Y550162D01*
X711962Y550162D02*
X711962Y554738D01*
X729138Y554738D01*
X729138Y550162D01*
X729138Y551611D02*
X711962Y551611D01*
X711962Y553060D02*
X729138Y553060D01*
X729138Y554509D02*
X711962Y554509D01*
X711962Y562862D02*
X729138Y562862D01*
X711962Y562862D02*
X711962Y567438D01*
X729138Y567438D01*
X729138Y562862D01*
X729138Y564311D02*
X711962Y564311D01*
X711962Y565760D02*
X729138Y565760D01*
X729138Y567209D02*
X711962Y567209D01*
D12*
X574700Y292100D03*
X593700Y292100D03*
X574700Y266700D03*
X593700Y266700D03*
X574700Y241300D03*
X593700Y241300D03*
X574700Y215900D03*
X593700Y215900D03*
X574700Y393700D03*
X593700Y393700D03*
X574700Y368300D03*
X593700Y368300D03*
X574700Y342900D03*
X593700Y342900D03*
X574700Y317500D03*
X593700Y317500D03*
D13*
X642462Y334262D02*
X659638Y334262D01*
X642462Y334262D02*
X642462Y338838D01*
X659638Y338838D01*
X659638Y334262D01*
X659638Y335711D02*
X642462Y335711D01*
X642462Y337160D02*
X659638Y337160D01*
X659638Y338609D02*
X642462Y338609D01*
X642462Y321562D02*
X659638Y321562D01*
X642462Y321562D02*
X642462Y326138D01*
X659638Y326138D01*
X659638Y321562D01*
X659638Y323011D02*
X642462Y323011D01*
X642462Y324460D02*
X659638Y324460D01*
X659638Y325909D02*
X642462Y325909D01*
X642462Y308862D02*
X659638Y308862D01*
X642462Y308862D02*
X642462Y313438D01*
X659638Y313438D01*
X659638Y308862D01*
X659638Y310311D02*
X642462Y310311D01*
X642462Y311760D02*
X659638Y311760D01*
X659638Y313209D02*
X642462Y313209D01*
X642462Y296162D02*
X659638Y296162D01*
X642462Y296162D02*
X642462Y300738D01*
X659638Y300738D01*
X659638Y296162D01*
X659638Y297611D02*
X642462Y297611D01*
X642462Y299060D02*
X659638Y299060D01*
X659638Y300509D02*
X642462Y300509D01*
X642462Y283462D02*
X659638Y283462D01*
X642462Y283462D02*
X642462Y288038D01*
X659638Y288038D01*
X659638Y283462D01*
X659638Y284911D02*
X642462Y284911D01*
X642462Y286360D02*
X659638Y286360D01*
X659638Y287809D02*
X642462Y287809D01*
X642462Y270762D02*
X659638Y270762D01*
X642462Y270762D02*
X642462Y275338D01*
X659638Y275338D01*
X659638Y270762D01*
X659638Y272211D02*
X642462Y272211D01*
X642462Y273660D02*
X659638Y273660D01*
X659638Y275109D02*
X642462Y275109D01*
X642462Y258062D02*
X659638Y258062D01*
X642462Y258062D02*
X642462Y262638D01*
X659638Y262638D01*
X659638Y258062D01*
X659638Y259511D02*
X642462Y259511D01*
X642462Y260960D02*
X659638Y260960D01*
X659638Y262409D02*
X642462Y262409D01*
X642462Y245362D02*
X659638Y245362D01*
X642462Y245362D02*
X642462Y249938D01*
X659638Y249938D01*
X659638Y245362D01*
X659638Y246811D02*
X642462Y246811D01*
X642462Y248260D02*
X659638Y248260D01*
X659638Y249709D02*
X642462Y249709D01*
X711962Y245362D02*
X729138Y245362D01*
X711962Y245362D02*
X711962Y249938D01*
X729138Y249938D01*
X729138Y245362D01*
X729138Y246811D02*
X711962Y246811D01*
X711962Y248260D02*
X729138Y248260D01*
X729138Y249709D02*
X711962Y249709D01*
X711962Y258062D02*
X729138Y258062D01*
X711962Y258062D02*
X711962Y262638D01*
X729138Y262638D01*
X729138Y258062D01*
X729138Y259511D02*
X711962Y259511D01*
X711962Y260960D02*
X729138Y260960D01*
X729138Y262409D02*
X711962Y262409D01*
X711962Y270762D02*
X729138Y270762D01*
X711962Y270762D02*
X711962Y275338D01*
X729138Y275338D01*
X729138Y270762D01*
X729138Y272211D02*
X711962Y272211D01*
X711962Y273660D02*
X729138Y273660D01*
X729138Y275109D02*
X711962Y275109D01*
X711962Y283462D02*
X729138Y283462D01*
X711962Y283462D02*
X711962Y288038D01*
X729138Y288038D01*
X729138Y283462D01*
X729138Y284911D02*
X711962Y284911D01*
X711962Y286360D02*
X729138Y286360D01*
X729138Y287809D02*
X711962Y287809D01*
X711962Y296162D02*
X729138Y296162D01*
X711962Y296162D02*
X711962Y300738D01*
X729138Y300738D01*
X729138Y296162D01*
X729138Y297611D02*
X711962Y297611D01*
X711962Y299060D02*
X729138Y299060D01*
X729138Y300509D02*
X711962Y300509D01*
X711962Y308862D02*
X729138Y308862D01*
X711962Y308862D02*
X711962Y313438D01*
X729138Y313438D01*
X729138Y308862D01*
X729138Y310311D02*
X711962Y310311D01*
X711962Y311760D02*
X729138Y311760D01*
X729138Y313209D02*
X711962Y313209D01*
X711962Y321562D02*
X729138Y321562D01*
X711962Y321562D02*
X711962Y326138D01*
X729138Y326138D01*
X729138Y321562D01*
X729138Y323011D02*
X711962Y323011D01*
X711962Y324460D02*
X729138Y324460D01*
X729138Y325909D02*
X711962Y325909D01*
X711962Y334262D02*
X729138Y334262D01*
X711962Y334262D02*
X711962Y338838D01*
X729138Y338838D01*
X729138Y334262D01*
X729138Y335711D02*
X711962Y335711D01*
X711962Y337160D02*
X729138Y337160D01*
X729138Y338609D02*
X711962Y338609D01*
D12*
X720700Y88900D03*
X701700Y88900D03*
X720700Y63500D03*
X701700Y63500D03*
X720700Y38100D03*
X701700Y38100D03*
X720700Y12700D03*
X701700Y12700D03*
X720700Y190500D03*
X701700Y190500D03*
X720700Y165100D03*
X701700Y165100D03*
X720700Y139700D03*
X701700Y139700D03*
X720700Y114300D03*
X701700Y114300D03*
D13*
X570738Y131062D02*
X553562Y131062D01*
X553562Y135638D01*
X570738Y135638D01*
X570738Y131062D01*
X570738Y132511D02*
X553562Y132511D01*
X553562Y133960D02*
X570738Y133960D01*
X570738Y135409D02*
X553562Y135409D01*
X553562Y118362D02*
X570738Y118362D01*
X553562Y118362D02*
X553562Y122938D01*
X570738Y122938D01*
X570738Y118362D01*
X570738Y119811D02*
X553562Y119811D01*
X553562Y121260D02*
X570738Y121260D01*
X570738Y122709D02*
X553562Y122709D01*
X553562Y105662D02*
X570738Y105662D01*
X553562Y105662D02*
X553562Y110238D01*
X570738Y110238D01*
X570738Y105662D01*
X570738Y107111D02*
X553562Y107111D01*
X553562Y108560D02*
X570738Y108560D01*
X570738Y110009D02*
X553562Y110009D01*
X553562Y92962D02*
X570738Y92962D01*
X553562Y92962D02*
X553562Y97538D01*
X570738Y97538D01*
X570738Y92962D01*
X570738Y94411D02*
X553562Y94411D01*
X553562Y95860D02*
X570738Y95860D01*
X570738Y97309D02*
X553562Y97309D01*
X553562Y80262D02*
X570738Y80262D01*
X553562Y80262D02*
X553562Y84838D01*
X570738Y84838D01*
X570738Y80262D01*
X570738Y81711D02*
X553562Y81711D01*
X553562Y83160D02*
X570738Y83160D01*
X570738Y84609D02*
X553562Y84609D01*
X553562Y67562D02*
X570738Y67562D01*
X553562Y67562D02*
X553562Y72138D01*
X570738Y72138D01*
X570738Y67562D01*
X570738Y69011D02*
X553562Y69011D01*
X553562Y70460D02*
X570738Y70460D01*
X570738Y71909D02*
X553562Y71909D01*
X553562Y54862D02*
X570738Y54862D01*
X553562Y54862D02*
X553562Y59438D01*
X570738Y59438D01*
X570738Y54862D01*
X570738Y56311D02*
X553562Y56311D01*
X553562Y57760D02*
X570738Y57760D01*
X570738Y59209D02*
X553562Y59209D01*
X553562Y42162D02*
X570738Y42162D01*
X553562Y42162D02*
X553562Y46738D01*
X570738Y46738D01*
X570738Y42162D01*
X570738Y43611D02*
X553562Y43611D01*
X553562Y45060D02*
X570738Y45060D01*
X570738Y46509D02*
X553562Y46509D01*
X623062Y42162D02*
X640238Y42162D01*
X623062Y42162D02*
X623062Y46738D01*
X640238Y46738D01*
X640238Y42162D01*
X640238Y43611D02*
X623062Y43611D01*
X623062Y45060D02*
X640238Y45060D01*
X640238Y46509D02*
X623062Y46509D01*
X623062Y54862D02*
X640238Y54862D01*
X623062Y54862D02*
X623062Y59438D01*
X640238Y59438D01*
X640238Y54862D01*
X640238Y56311D02*
X623062Y56311D01*
X623062Y57760D02*
X640238Y57760D01*
X640238Y59209D02*
X623062Y59209D01*
X623062Y67562D02*
X640238Y67562D01*
X623062Y67562D02*
X623062Y72138D01*
X640238Y72138D01*
X640238Y67562D01*
X640238Y69011D02*
X623062Y69011D01*
X623062Y70460D02*
X640238Y70460D01*
X640238Y71909D02*
X623062Y71909D01*
X623062Y80262D02*
X640238Y80262D01*
X623062Y80262D02*
X623062Y84838D01*
X640238Y84838D01*
X640238Y80262D01*
X640238Y81711D02*
X623062Y81711D01*
X623062Y83160D02*
X640238Y83160D01*
X640238Y84609D02*
X623062Y84609D01*
X623062Y92962D02*
X640238Y92962D01*
X623062Y92962D02*
X623062Y97538D01*
X640238Y97538D01*
X640238Y92962D01*
X640238Y94411D02*
X623062Y94411D01*
X623062Y95860D02*
X640238Y95860D01*
X640238Y97309D02*
X623062Y97309D01*
X623062Y105662D02*
X640238Y105662D01*
X623062Y105662D02*
X623062Y110238D01*
X640238Y110238D01*
X640238Y105662D01*
X640238Y107111D02*
X623062Y107111D01*
X623062Y108560D02*
X640238Y108560D01*
X640238Y110009D02*
X623062Y110009D01*
X623062Y118362D02*
X640238Y118362D01*
X623062Y118362D02*
X623062Y122938D01*
X640238Y122938D01*
X640238Y118362D01*
X640238Y119811D02*
X623062Y119811D01*
X623062Y121260D02*
X640238Y121260D01*
X640238Y122709D02*
X623062Y122709D01*
X623062Y131062D02*
X640238Y131062D01*
X623062Y131062D02*
X623062Y135638D01*
X640238Y135638D01*
X640238Y131062D01*
X640238Y132511D02*
X623062Y132511D01*
X623062Y133960D02*
X640238Y133960D01*
X640238Y135409D02*
X623062Y135409D01*
D10*
X442300Y688950D03*
X442300Y708050D03*
X421300Y698500D03*
D12*
X492100Y698500D03*
X473100Y698500D03*
D10*
X442300Y650850D03*
X442300Y669950D03*
X421300Y660400D03*
X442300Y612750D03*
X442300Y631850D03*
X421300Y622300D03*
X328000Y574650D03*
X328000Y593750D03*
X307000Y584200D03*
X328000Y536550D03*
X328000Y555650D03*
X307000Y546100D03*
X328000Y498450D03*
X328000Y517550D03*
X307000Y508000D03*
X328000Y460350D03*
X328000Y479450D03*
X307000Y469900D03*
X328000Y422250D03*
X328000Y441350D03*
X307000Y431800D03*
D12*
X492100Y660400D03*
X473100Y660400D03*
X492100Y622300D03*
X473100Y622300D03*
X377800Y584200D03*
X358800Y584200D03*
X377800Y546100D03*
X358800Y546100D03*
X377800Y508000D03*
X358800Y508000D03*
X377800Y469900D03*
X358800Y469900D03*
X377800Y431800D03*
X358800Y431800D03*
D10*
X328000Y384150D03*
X328000Y403250D03*
X307000Y393700D03*
D12*
X377800Y393700D03*
X358800Y393700D03*
D10*
X328000Y346050D03*
X328000Y365150D03*
X307000Y355600D03*
X328000Y307950D03*
X328000Y327050D03*
X307000Y317500D03*
X328000Y269850D03*
X328000Y288950D03*
X307000Y279400D03*
X328000Y231750D03*
X328000Y250850D03*
X307000Y241300D03*
X442300Y180950D03*
X442300Y200050D03*
X421300Y190500D03*
X442300Y142850D03*
X442300Y161950D03*
X421300Y152400D03*
X442300Y104750D03*
X442300Y123850D03*
X421300Y114300D03*
D12*
X377800Y355600D03*
X358800Y355600D03*
X377800Y317500D03*
X358800Y317500D03*
X377800Y279400D03*
X358800Y279400D03*
X377800Y241300D03*
X358800Y241300D03*
X492100Y190500D03*
X473100Y190500D03*
X492100Y152400D03*
X473100Y152400D03*
X492100Y114300D03*
X473100Y114300D03*
D11*
X206350Y169840D03*
X225450Y169840D03*
X215900Y190840D03*
D12*
X225400Y148590D03*
X206400Y148590D03*
D11*
X153010Y169840D03*
X172110Y169840D03*
X162560Y190840D03*
D10*
X124800Y168250D03*
X124800Y187350D03*
X103800Y177800D03*
X124800Y130150D03*
X124800Y149250D03*
X103800Y139700D03*
X124800Y92050D03*
X124800Y111150D03*
X103800Y101600D03*
X124800Y53950D03*
X124800Y73050D03*
X103800Y63500D03*
X124800Y15850D03*
X124800Y34950D03*
X103800Y25400D03*
X231480Y19660D03*
X231480Y38760D03*
X210480Y29210D03*
D12*
X174600Y148590D03*
X155600Y148590D03*
X174600Y124460D03*
X155600Y124460D03*
X174600Y99060D03*
X155600Y99060D03*
X174600Y73660D03*
X155600Y73660D03*
X174600Y49530D03*
X155600Y49530D03*
X174600Y25400D03*
X155600Y25400D03*
X274930Y21590D03*
X255930Y21590D03*
D13*
X248762Y766062D02*
X265938Y766062D01*
X248762Y766062D02*
X248762Y770638D01*
X265938Y770638D01*
X265938Y766062D01*
X265938Y767511D02*
X248762Y767511D01*
X248762Y768960D02*
X265938Y768960D01*
X265938Y770409D02*
X248762Y770409D01*
X248762Y753362D02*
X265938Y753362D01*
X248762Y753362D02*
X248762Y757938D01*
X265938Y757938D01*
X265938Y753362D01*
X265938Y754811D02*
X248762Y754811D01*
X248762Y756260D02*
X265938Y756260D01*
X265938Y757709D02*
X248762Y757709D01*
X248762Y740662D02*
X265938Y740662D01*
X248762Y740662D02*
X248762Y745238D01*
X265938Y745238D01*
X265938Y740662D01*
X265938Y742111D02*
X248762Y742111D01*
X248762Y743560D02*
X265938Y743560D01*
X265938Y745009D02*
X248762Y745009D01*
X248762Y727962D02*
X265938Y727962D01*
X248762Y727962D02*
X248762Y732538D01*
X265938Y732538D01*
X265938Y727962D01*
X265938Y729411D02*
X248762Y729411D01*
X248762Y730860D02*
X265938Y730860D01*
X265938Y732309D02*
X248762Y732309D01*
X248762Y715262D02*
X265938Y715262D01*
X248762Y715262D02*
X248762Y719838D01*
X265938Y719838D01*
X265938Y715262D01*
X265938Y716711D02*
X248762Y716711D01*
X248762Y718160D02*
X265938Y718160D01*
X265938Y719609D02*
X248762Y719609D01*
X248762Y702562D02*
X265938Y702562D01*
X248762Y702562D02*
X248762Y707138D01*
X265938Y707138D01*
X265938Y702562D01*
X265938Y704011D02*
X248762Y704011D01*
X248762Y705460D02*
X265938Y705460D01*
X265938Y706909D02*
X248762Y706909D01*
X248762Y689862D02*
X265938Y689862D01*
X248762Y689862D02*
X248762Y694438D01*
X265938Y694438D01*
X265938Y689862D01*
X265938Y691311D02*
X248762Y691311D01*
X248762Y692760D02*
X265938Y692760D01*
X265938Y694209D02*
X248762Y694209D01*
X248762Y677162D02*
X265938Y677162D01*
X248762Y677162D02*
X248762Y681738D01*
X265938Y681738D01*
X265938Y677162D01*
X265938Y678611D02*
X248762Y678611D01*
X248762Y680060D02*
X265938Y680060D01*
X265938Y681509D02*
X248762Y681509D01*
X318262Y677162D02*
X335438Y677162D01*
X318262Y677162D02*
X318262Y681738D01*
X335438Y681738D01*
X335438Y677162D01*
X335438Y678611D02*
X318262Y678611D01*
X318262Y680060D02*
X335438Y680060D01*
X335438Y681509D02*
X318262Y681509D01*
X318262Y689862D02*
X335438Y689862D01*
X318262Y689862D02*
X318262Y694438D01*
X335438Y694438D01*
X335438Y689862D01*
X335438Y691311D02*
X318262Y691311D01*
X318262Y692760D02*
X335438Y692760D01*
X335438Y694209D02*
X318262Y694209D01*
X318262Y702562D02*
X335438Y702562D01*
X318262Y702562D02*
X318262Y707138D01*
X335438Y707138D01*
X335438Y702562D01*
X335438Y704011D02*
X318262Y704011D01*
X318262Y705460D02*
X335438Y705460D01*
X335438Y706909D02*
X318262Y706909D01*
X318262Y715262D02*
X335438Y715262D01*
X318262Y715262D02*
X318262Y719838D01*
X335438Y719838D01*
X335438Y715262D01*
X335438Y716711D02*
X318262Y716711D01*
X318262Y718160D02*
X335438Y718160D01*
X335438Y719609D02*
X318262Y719609D01*
X318262Y727962D02*
X335438Y727962D01*
X318262Y727962D02*
X318262Y732538D01*
X335438Y732538D01*
X335438Y727962D01*
X335438Y729411D02*
X318262Y729411D01*
X318262Y730860D02*
X335438Y730860D01*
X335438Y732309D02*
X318262Y732309D01*
X318262Y740662D02*
X335438Y740662D01*
X318262Y740662D02*
X318262Y745238D01*
X335438Y745238D01*
X335438Y740662D01*
X335438Y742111D02*
X318262Y742111D01*
X318262Y743560D02*
X335438Y743560D01*
X335438Y745009D02*
X318262Y745009D01*
X318262Y753362D02*
X335438Y753362D01*
X318262Y753362D02*
X318262Y757938D01*
X335438Y757938D01*
X335438Y753362D01*
X335438Y754811D02*
X318262Y754811D01*
X318262Y756260D02*
X335438Y756260D01*
X335438Y757709D02*
X318262Y757709D01*
X318262Y766062D02*
X335438Y766062D01*
X318262Y766062D02*
X318262Y770638D01*
X335438Y770638D01*
X335438Y766062D01*
X335438Y767511D02*
X318262Y767511D01*
X318262Y768960D02*
X335438Y768960D01*
X335438Y770409D02*
X318262Y770409D01*
X413862Y562862D02*
X431038Y562862D01*
X413862Y562862D02*
X413862Y567438D01*
X431038Y567438D01*
X431038Y562862D01*
X431038Y564311D02*
X413862Y564311D01*
X413862Y565760D02*
X431038Y565760D01*
X431038Y567209D02*
X413862Y567209D01*
X413862Y550162D02*
X431038Y550162D01*
X413862Y550162D02*
X413862Y554738D01*
X431038Y554738D01*
X431038Y550162D01*
X431038Y551611D02*
X413862Y551611D01*
X413862Y553060D02*
X431038Y553060D01*
X431038Y554509D02*
X413862Y554509D01*
X413862Y537462D02*
X431038Y537462D01*
X413862Y537462D02*
X413862Y542038D01*
X431038Y542038D01*
X431038Y537462D01*
X431038Y538911D02*
X413862Y538911D01*
X413862Y540360D02*
X431038Y540360D01*
X431038Y541809D02*
X413862Y541809D01*
X413862Y524762D02*
X431038Y524762D01*
X413862Y524762D02*
X413862Y529338D01*
X431038Y529338D01*
X431038Y524762D01*
X431038Y526211D02*
X413862Y526211D01*
X413862Y527660D02*
X431038Y527660D01*
X431038Y529109D02*
X413862Y529109D01*
X413862Y512062D02*
X431038Y512062D01*
X413862Y512062D02*
X413862Y516638D01*
X431038Y516638D01*
X431038Y512062D01*
X431038Y513511D02*
X413862Y513511D01*
X413862Y514960D02*
X431038Y514960D01*
X431038Y516409D02*
X413862Y516409D01*
X413862Y499362D02*
X431038Y499362D01*
X413862Y499362D02*
X413862Y503938D01*
X431038Y503938D01*
X431038Y499362D01*
X431038Y500811D02*
X413862Y500811D01*
X413862Y502260D02*
X431038Y502260D01*
X431038Y503709D02*
X413862Y503709D01*
X413862Y486662D02*
X431038Y486662D01*
X413862Y486662D02*
X413862Y491238D01*
X431038Y491238D01*
X431038Y486662D01*
X431038Y488111D02*
X413862Y488111D01*
X413862Y489560D02*
X431038Y489560D01*
X431038Y491009D02*
X413862Y491009D01*
X413862Y473962D02*
X431038Y473962D01*
X413862Y473962D02*
X413862Y478538D01*
X431038Y478538D01*
X431038Y473962D01*
X431038Y475411D02*
X413862Y475411D01*
X413862Y476860D02*
X431038Y476860D01*
X431038Y478309D02*
X413862Y478309D01*
X483362Y473962D02*
X500538Y473962D01*
X483362Y473962D02*
X483362Y478538D01*
X500538Y478538D01*
X500538Y473962D01*
X500538Y475411D02*
X483362Y475411D01*
X483362Y476860D02*
X500538Y476860D01*
X500538Y478309D02*
X483362Y478309D01*
X483362Y486662D02*
X500538Y486662D01*
X483362Y486662D02*
X483362Y491238D01*
X500538Y491238D01*
X500538Y486662D01*
X500538Y488111D02*
X483362Y488111D01*
X483362Y489560D02*
X500538Y489560D01*
X500538Y491009D02*
X483362Y491009D01*
X483362Y499362D02*
X500538Y499362D01*
X483362Y499362D02*
X483362Y503938D01*
X500538Y503938D01*
X500538Y499362D01*
X500538Y500811D02*
X483362Y500811D01*
X483362Y502260D02*
X500538Y502260D01*
X500538Y503709D02*
X483362Y503709D01*
X483362Y512062D02*
X500538Y512062D01*
X483362Y512062D02*
X483362Y516638D01*
X500538Y516638D01*
X500538Y512062D01*
X500538Y513511D02*
X483362Y513511D01*
X483362Y514960D02*
X500538Y514960D01*
X500538Y516409D02*
X483362Y516409D01*
X483362Y524762D02*
X500538Y524762D01*
X483362Y524762D02*
X483362Y529338D01*
X500538Y529338D01*
X500538Y524762D01*
X500538Y526211D02*
X483362Y526211D01*
X483362Y527660D02*
X500538Y527660D01*
X500538Y529109D02*
X483362Y529109D01*
X483362Y537462D02*
X500538Y537462D01*
X483362Y537462D02*
X483362Y542038D01*
X500538Y542038D01*
X500538Y537462D01*
X500538Y538911D02*
X483362Y538911D01*
X483362Y540360D02*
X500538Y540360D01*
X500538Y541809D02*
X483362Y541809D01*
X483362Y550162D02*
X500538Y550162D01*
X483362Y550162D02*
X483362Y554738D01*
X500538Y554738D01*
X500538Y550162D01*
X500538Y551611D02*
X483362Y551611D01*
X483362Y553060D02*
X500538Y553060D01*
X500538Y554509D02*
X483362Y554509D01*
X483362Y562862D02*
X500538Y562862D01*
X483362Y562862D02*
X483362Y567438D01*
X500538Y567438D01*
X500538Y562862D01*
X500538Y564311D02*
X483362Y564311D01*
X483362Y565760D02*
X500538Y565760D01*
X500538Y567209D02*
X483362Y567209D01*
X431038Y334262D02*
X413862Y334262D01*
X413862Y338838D01*
X431038Y338838D01*
X431038Y334262D01*
X431038Y335711D02*
X413862Y335711D01*
X413862Y337160D02*
X431038Y337160D01*
X431038Y338609D02*
X413862Y338609D01*
X413862Y321562D02*
X431038Y321562D01*
X413862Y321562D02*
X413862Y326138D01*
X431038Y326138D01*
X431038Y321562D01*
X431038Y323011D02*
X413862Y323011D01*
X413862Y324460D02*
X431038Y324460D01*
X431038Y325909D02*
X413862Y325909D01*
X413862Y308862D02*
X431038Y308862D01*
X413862Y308862D02*
X413862Y313438D01*
X431038Y313438D01*
X431038Y308862D01*
X431038Y310311D02*
X413862Y310311D01*
X413862Y311760D02*
X431038Y311760D01*
X431038Y313209D02*
X413862Y313209D01*
X413862Y296162D02*
X431038Y296162D01*
X413862Y296162D02*
X413862Y300738D01*
X431038Y300738D01*
X431038Y296162D01*
X431038Y297611D02*
X413862Y297611D01*
X413862Y299060D02*
X431038Y299060D01*
X431038Y300509D02*
X413862Y300509D01*
X413862Y283462D02*
X431038Y283462D01*
X413862Y283462D02*
X413862Y288038D01*
X431038Y288038D01*
X431038Y283462D01*
X431038Y284911D02*
X413862Y284911D01*
X413862Y286360D02*
X431038Y286360D01*
X431038Y287809D02*
X413862Y287809D01*
X413862Y270762D02*
X431038Y270762D01*
X413862Y270762D02*
X413862Y275338D01*
X431038Y275338D01*
X431038Y270762D01*
X431038Y272211D02*
X413862Y272211D01*
X413862Y273660D02*
X431038Y273660D01*
X431038Y275109D02*
X413862Y275109D01*
X413862Y258062D02*
X431038Y258062D01*
X413862Y258062D02*
X413862Y262638D01*
X431038Y262638D01*
X431038Y258062D01*
X431038Y259511D02*
X413862Y259511D01*
X413862Y260960D02*
X431038Y260960D01*
X431038Y262409D02*
X413862Y262409D01*
X413862Y245362D02*
X431038Y245362D01*
X413862Y245362D02*
X413862Y249938D01*
X431038Y249938D01*
X431038Y245362D01*
X431038Y246811D02*
X413862Y246811D01*
X413862Y248260D02*
X431038Y248260D01*
X431038Y249709D02*
X413862Y249709D01*
X483362Y245362D02*
X500538Y245362D01*
X483362Y245362D02*
X483362Y249938D01*
X500538Y249938D01*
X500538Y245362D01*
X500538Y246811D02*
X483362Y246811D01*
X483362Y248260D02*
X500538Y248260D01*
X500538Y249709D02*
X483362Y249709D01*
X483362Y258062D02*
X500538Y258062D01*
X483362Y258062D02*
X483362Y262638D01*
X500538Y262638D01*
X500538Y258062D01*
X500538Y259511D02*
X483362Y259511D01*
X483362Y260960D02*
X500538Y260960D01*
X500538Y262409D02*
X483362Y262409D01*
X483362Y270762D02*
X500538Y270762D01*
X483362Y270762D02*
X483362Y275338D01*
X500538Y275338D01*
X500538Y270762D01*
X500538Y272211D02*
X483362Y272211D01*
X483362Y273660D02*
X500538Y273660D01*
X500538Y275109D02*
X483362Y275109D01*
X483362Y283462D02*
X500538Y283462D01*
X483362Y283462D02*
X483362Y288038D01*
X500538Y288038D01*
X500538Y283462D01*
X500538Y284911D02*
X483362Y284911D01*
X483362Y286360D02*
X500538Y286360D01*
X500538Y287809D02*
X483362Y287809D01*
X483362Y296162D02*
X500538Y296162D01*
X483362Y296162D02*
X483362Y300738D01*
X500538Y300738D01*
X500538Y296162D01*
X500538Y297611D02*
X483362Y297611D01*
X483362Y299060D02*
X500538Y299060D01*
X500538Y300509D02*
X483362Y300509D01*
X483362Y308862D02*
X500538Y308862D01*
X483362Y308862D02*
X483362Y313438D01*
X500538Y313438D01*
X500538Y308862D01*
X500538Y310311D02*
X483362Y310311D01*
X483362Y311760D02*
X500538Y311760D01*
X500538Y313209D02*
X483362Y313209D01*
X483362Y321562D02*
X500538Y321562D01*
X483362Y321562D02*
X483362Y326138D01*
X500538Y326138D01*
X500538Y321562D01*
X500538Y323011D02*
X483362Y323011D01*
X483362Y324460D02*
X500538Y324460D01*
X500538Y325909D02*
X483362Y325909D01*
X483362Y334262D02*
X500538Y334262D01*
X483362Y334262D02*
X483362Y338838D01*
X500538Y338838D01*
X500538Y334262D01*
X500538Y335711D02*
X483362Y335711D01*
X483362Y337160D02*
X500538Y337160D01*
X500538Y338609D02*
X483362Y338609D01*
X265938Y131062D02*
X248762Y131062D01*
X248762Y135638D01*
X265938Y135638D01*
X265938Y131062D01*
X265938Y132511D02*
X248762Y132511D01*
X248762Y133960D02*
X265938Y133960D01*
X265938Y135409D02*
X248762Y135409D01*
X248762Y118362D02*
X265938Y118362D01*
X248762Y118362D02*
X248762Y122938D01*
X265938Y122938D01*
X265938Y118362D01*
X265938Y119811D02*
X248762Y119811D01*
X248762Y121260D02*
X265938Y121260D01*
X265938Y122709D02*
X248762Y122709D01*
X248762Y105662D02*
X265938Y105662D01*
X248762Y105662D02*
X248762Y110238D01*
X265938Y110238D01*
X265938Y105662D01*
X265938Y107111D02*
X248762Y107111D01*
X248762Y108560D02*
X265938Y108560D01*
X265938Y110009D02*
X248762Y110009D01*
X248762Y92962D02*
X265938Y92962D01*
X248762Y92962D02*
X248762Y97538D01*
X265938Y97538D01*
X265938Y92962D01*
X265938Y94411D02*
X248762Y94411D01*
X248762Y95860D02*
X265938Y95860D01*
X265938Y97309D02*
X248762Y97309D01*
X248762Y80262D02*
X265938Y80262D01*
X248762Y80262D02*
X248762Y84838D01*
X265938Y84838D01*
X265938Y80262D01*
X265938Y81711D02*
X248762Y81711D01*
X248762Y83160D02*
X265938Y83160D01*
X265938Y84609D02*
X248762Y84609D01*
X248762Y67562D02*
X265938Y67562D01*
X248762Y67562D02*
X248762Y72138D01*
X265938Y72138D01*
X265938Y67562D01*
X265938Y69011D02*
X248762Y69011D01*
X248762Y70460D02*
X265938Y70460D01*
X265938Y71909D02*
X248762Y71909D01*
X248762Y54862D02*
X265938Y54862D01*
X248762Y54862D02*
X248762Y59438D01*
X265938Y59438D01*
X265938Y54862D01*
X265938Y56311D02*
X248762Y56311D01*
X248762Y57760D02*
X265938Y57760D01*
X265938Y59209D02*
X248762Y59209D01*
X248762Y42162D02*
X265938Y42162D01*
X248762Y42162D02*
X248762Y46738D01*
X265938Y46738D01*
X265938Y42162D01*
X265938Y43611D02*
X248762Y43611D01*
X248762Y45060D02*
X265938Y45060D01*
X265938Y46509D02*
X248762Y46509D01*
X318262Y42162D02*
X335438Y42162D01*
X318262Y42162D02*
X318262Y46738D01*
X335438Y46738D01*
X335438Y42162D01*
X335438Y43611D02*
X318262Y43611D01*
X318262Y45060D02*
X335438Y45060D01*
X335438Y46509D02*
X318262Y46509D01*
X318262Y54862D02*
X335438Y54862D01*
X318262Y54862D02*
X318262Y59438D01*
X335438Y59438D01*
X335438Y54862D01*
X335438Y56311D02*
X318262Y56311D01*
X318262Y57760D02*
X335438Y57760D01*
X335438Y59209D02*
X318262Y59209D01*
X318262Y67562D02*
X335438Y67562D01*
X318262Y67562D02*
X318262Y72138D01*
X335438Y72138D01*
X335438Y67562D01*
X335438Y69011D02*
X318262Y69011D01*
X318262Y70460D02*
X335438Y70460D01*
X335438Y71909D02*
X318262Y71909D01*
X318262Y80262D02*
X335438Y80262D01*
X318262Y80262D02*
X318262Y84838D01*
X335438Y84838D01*
X335438Y80262D01*
X335438Y81711D02*
X318262Y81711D01*
X318262Y83160D02*
X335438Y83160D01*
X335438Y84609D02*
X318262Y84609D01*
X318262Y92962D02*
X335438Y92962D01*
X318262Y92962D02*
X318262Y97538D01*
X335438Y97538D01*
X335438Y92962D01*
X335438Y94411D02*
X318262Y94411D01*
X318262Y95860D02*
X335438Y95860D01*
X335438Y97309D02*
X318262Y97309D01*
X318262Y105662D02*
X335438Y105662D01*
X318262Y105662D02*
X318262Y110238D01*
X335438Y110238D01*
X335438Y105662D01*
X335438Y107111D02*
X318262Y107111D01*
X318262Y108560D02*
X335438Y108560D01*
X335438Y110009D02*
X318262Y110009D01*
X318262Y118362D02*
X335438Y118362D01*
X318262Y118362D02*
X318262Y122938D01*
X335438Y122938D01*
X335438Y118362D01*
X335438Y119811D02*
X318262Y119811D01*
X318262Y121260D02*
X335438Y121260D01*
X335438Y122709D02*
X318262Y122709D01*
X318262Y131062D02*
X335438Y131062D01*
X318262Y131062D02*
X318262Y135638D01*
X335438Y135638D01*
X335438Y131062D01*
X335438Y132511D02*
X318262Y132511D01*
X318262Y133960D02*
X335438Y133960D01*
X335438Y135409D02*
X318262Y135409D01*
M02*
