G04 EAGLE Gerber RS-274X export*
G75*
%MOMM*%
%FSLAX34Y34*%
%LPD*%
%INSoldermask Top*%
%IPPOS*%
%AMOC8*
5,1,8,0,0,1.08239X$1,22.5*%
G01*
%ADD10R,1.453200X0.803200*%
%ADD11R,0.803200X1.453200*%
%ADD12R,1.503200X1.703200*%
%ADD13C,0.357806*%
%ADD14C,2.082800*%
%ADD15C,1.103200*%
%ADD16C,1.061200*%


D10*
X126070Y777850D03*
X126070Y796950D03*
X105070Y787400D03*
X126070Y739750D03*
X126070Y758850D03*
X105070Y749300D03*
X126070Y701650D03*
X126070Y720750D03*
X105070Y711200D03*
X126070Y663550D03*
X126070Y682650D03*
X105070Y673100D03*
D11*
X125120Y644230D03*
X106020Y644230D03*
X115570Y623230D03*
X174650Y644230D03*
X155550Y644230D03*
X165100Y623230D03*
D10*
X222590Y776580D03*
X222590Y795680D03*
X201590Y786130D03*
D11*
X225450Y644230D03*
X206350Y644230D03*
X215900Y623230D03*
D12*
X720700Y698500D03*
X701700Y698500D03*
X174600Y668020D03*
X155600Y668020D03*
X225400Y668020D03*
X206400Y668020D03*
X720700Y800100D03*
X701700Y800100D03*
X720700Y774700D03*
X701700Y774700D03*
X720700Y749300D03*
X701700Y749300D03*
X720700Y723900D03*
X701700Y723900D03*
X262230Y793750D03*
X243230Y793750D03*
X720700Y673100D03*
X701700Y673100D03*
X720700Y647700D03*
X701700Y647700D03*
X720700Y622300D03*
X701700Y622300D03*
X174600Y788670D03*
X155600Y788670D03*
X174600Y764540D03*
X155600Y764540D03*
X174600Y740410D03*
X155600Y740410D03*
X174600Y716280D03*
X155600Y716280D03*
X174600Y692150D03*
X155600Y692150D03*
D13*
X553573Y766073D02*
X570727Y766073D01*
X553573Y766073D02*
X553573Y770627D01*
X570727Y770627D01*
X570727Y766073D01*
X570727Y769472D02*
X553573Y769472D01*
X553573Y753373D02*
X570727Y753373D01*
X553573Y753373D02*
X553573Y757927D01*
X570727Y757927D01*
X570727Y753373D01*
X570727Y756772D02*
X553573Y756772D01*
X553573Y740673D02*
X570727Y740673D01*
X553573Y740673D02*
X553573Y745227D01*
X570727Y745227D01*
X570727Y740673D01*
X570727Y744072D02*
X553573Y744072D01*
X553573Y727973D02*
X570727Y727973D01*
X553573Y727973D02*
X553573Y732527D01*
X570727Y732527D01*
X570727Y727973D01*
X570727Y731372D02*
X553573Y731372D01*
X553573Y715273D02*
X570727Y715273D01*
X553573Y715273D02*
X553573Y719827D01*
X570727Y719827D01*
X570727Y715273D01*
X570727Y718672D02*
X553573Y718672D01*
X553573Y702573D02*
X570727Y702573D01*
X553573Y702573D02*
X553573Y707127D01*
X570727Y707127D01*
X570727Y702573D01*
X570727Y705972D02*
X553573Y705972D01*
X553573Y689873D02*
X570727Y689873D01*
X553573Y689873D02*
X553573Y694427D01*
X570727Y694427D01*
X570727Y689873D01*
X570727Y693272D02*
X553573Y693272D01*
X553573Y677173D02*
X570727Y677173D01*
X553573Y677173D02*
X553573Y681727D01*
X570727Y681727D01*
X570727Y677173D01*
X570727Y680572D02*
X553573Y680572D01*
X623073Y677173D02*
X640227Y677173D01*
X623073Y677173D02*
X623073Y681727D01*
X640227Y681727D01*
X640227Y677173D01*
X640227Y680572D02*
X623073Y680572D01*
X623073Y689873D02*
X640227Y689873D01*
X623073Y689873D02*
X623073Y694427D01*
X640227Y694427D01*
X640227Y689873D01*
X640227Y693272D02*
X623073Y693272D01*
X623073Y702573D02*
X640227Y702573D01*
X623073Y702573D02*
X623073Y707127D01*
X640227Y707127D01*
X640227Y702573D01*
X640227Y705972D02*
X623073Y705972D01*
X623073Y715273D02*
X640227Y715273D01*
X623073Y715273D02*
X623073Y719827D01*
X640227Y719827D01*
X640227Y715273D01*
X640227Y718672D02*
X623073Y718672D01*
X623073Y727973D02*
X640227Y727973D01*
X623073Y727973D02*
X623073Y732527D01*
X640227Y732527D01*
X640227Y727973D01*
X640227Y731372D02*
X623073Y731372D01*
X623073Y740673D02*
X640227Y740673D01*
X623073Y740673D02*
X623073Y745227D01*
X640227Y745227D01*
X640227Y740673D01*
X640227Y744072D02*
X623073Y744072D01*
X623073Y753373D02*
X640227Y753373D01*
X623073Y753373D02*
X623073Y757927D01*
X640227Y757927D01*
X640227Y753373D01*
X640227Y756772D02*
X623073Y756772D01*
X623073Y766073D02*
X640227Y766073D01*
X623073Y766073D02*
X623073Y770627D01*
X640227Y770627D01*
X640227Y766073D01*
X640227Y769472D02*
X623073Y769472D01*
D12*
X574700Y495300D03*
X593700Y495300D03*
X574700Y469900D03*
X593700Y469900D03*
X574700Y444500D03*
X593700Y444500D03*
X574700Y419100D03*
X593700Y419100D03*
X574700Y596900D03*
X593700Y596900D03*
X574700Y571500D03*
X593700Y571500D03*
X574700Y546100D03*
X593700Y546100D03*
X574700Y520700D03*
X593700Y520700D03*
D13*
X642473Y562873D02*
X659627Y562873D01*
X642473Y562873D02*
X642473Y567427D01*
X659627Y567427D01*
X659627Y562873D01*
X659627Y566272D02*
X642473Y566272D01*
X642473Y550173D02*
X659627Y550173D01*
X642473Y550173D02*
X642473Y554727D01*
X659627Y554727D01*
X659627Y550173D01*
X659627Y553572D02*
X642473Y553572D01*
X642473Y537473D02*
X659627Y537473D01*
X642473Y537473D02*
X642473Y542027D01*
X659627Y542027D01*
X659627Y537473D01*
X659627Y540872D02*
X642473Y540872D01*
X642473Y524773D02*
X659627Y524773D01*
X642473Y524773D02*
X642473Y529327D01*
X659627Y529327D01*
X659627Y524773D01*
X659627Y528172D02*
X642473Y528172D01*
X642473Y512073D02*
X659627Y512073D01*
X642473Y512073D02*
X642473Y516627D01*
X659627Y516627D01*
X659627Y512073D01*
X659627Y515472D02*
X642473Y515472D01*
X642473Y499373D02*
X659627Y499373D01*
X642473Y499373D02*
X642473Y503927D01*
X659627Y503927D01*
X659627Y499373D01*
X659627Y502772D02*
X642473Y502772D01*
X642473Y486673D02*
X659627Y486673D01*
X642473Y486673D02*
X642473Y491227D01*
X659627Y491227D01*
X659627Y486673D01*
X659627Y490072D02*
X642473Y490072D01*
X642473Y473973D02*
X659627Y473973D01*
X642473Y473973D02*
X642473Y478527D01*
X659627Y478527D01*
X659627Y473973D01*
X659627Y477372D02*
X642473Y477372D01*
X711973Y473973D02*
X729127Y473973D01*
X711973Y473973D02*
X711973Y478527D01*
X729127Y478527D01*
X729127Y473973D01*
X729127Y477372D02*
X711973Y477372D01*
X711973Y486673D02*
X729127Y486673D01*
X711973Y486673D02*
X711973Y491227D01*
X729127Y491227D01*
X729127Y486673D01*
X729127Y490072D02*
X711973Y490072D01*
X711973Y499373D02*
X729127Y499373D01*
X711973Y499373D02*
X711973Y503927D01*
X729127Y503927D01*
X729127Y499373D01*
X729127Y502772D02*
X711973Y502772D01*
X711973Y512073D02*
X729127Y512073D01*
X711973Y512073D02*
X711973Y516627D01*
X729127Y516627D01*
X729127Y512073D01*
X729127Y515472D02*
X711973Y515472D01*
X711973Y524773D02*
X729127Y524773D01*
X711973Y524773D02*
X711973Y529327D01*
X729127Y529327D01*
X729127Y524773D01*
X729127Y528172D02*
X711973Y528172D01*
X711973Y537473D02*
X729127Y537473D01*
X711973Y537473D02*
X711973Y542027D01*
X729127Y542027D01*
X729127Y537473D01*
X729127Y540872D02*
X711973Y540872D01*
X711973Y550173D02*
X729127Y550173D01*
X711973Y550173D02*
X711973Y554727D01*
X729127Y554727D01*
X729127Y550173D01*
X729127Y553572D02*
X711973Y553572D01*
X711973Y562873D02*
X729127Y562873D01*
X711973Y562873D02*
X711973Y567427D01*
X729127Y567427D01*
X729127Y562873D01*
X729127Y566272D02*
X711973Y566272D01*
D12*
X574700Y292100D03*
X593700Y292100D03*
X574700Y266700D03*
X593700Y266700D03*
X574700Y241300D03*
X593700Y241300D03*
X574700Y215900D03*
X593700Y215900D03*
X574700Y393700D03*
X593700Y393700D03*
X574700Y368300D03*
X593700Y368300D03*
X574700Y342900D03*
X593700Y342900D03*
X574700Y317500D03*
X593700Y317500D03*
D13*
X642473Y334273D02*
X659627Y334273D01*
X642473Y334273D02*
X642473Y338827D01*
X659627Y338827D01*
X659627Y334273D01*
X659627Y337672D02*
X642473Y337672D01*
X642473Y321573D02*
X659627Y321573D01*
X642473Y321573D02*
X642473Y326127D01*
X659627Y326127D01*
X659627Y321573D01*
X659627Y324972D02*
X642473Y324972D01*
X642473Y308873D02*
X659627Y308873D01*
X642473Y308873D02*
X642473Y313427D01*
X659627Y313427D01*
X659627Y308873D01*
X659627Y312272D02*
X642473Y312272D01*
X642473Y296173D02*
X659627Y296173D01*
X642473Y296173D02*
X642473Y300727D01*
X659627Y300727D01*
X659627Y296173D01*
X659627Y299572D02*
X642473Y299572D01*
X642473Y283473D02*
X659627Y283473D01*
X642473Y283473D02*
X642473Y288027D01*
X659627Y288027D01*
X659627Y283473D01*
X659627Y286872D02*
X642473Y286872D01*
X642473Y270773D02*
X659627Y270773D01*
X642473Y270773D02*
X642473Y275327D01*
X659627Y275327D01*
X659627Y270773D01*
X659627Y274172D02*
X642473Y274172D01*
X642473Y258073D02*
X659627Y258073D01*
X642473Y258073D02*
X642473Y262627D01*
X659627Y262627D01*
X659627Y258073D01*
X659627Y261472D02*
X642473Y261472D01*
X642473Y245373D02*
X659627Y245373D01*
X642473Y245373D02*
X642473Y249927D01*
X659627Y249927D01*
X659627Y245373D01*
X659627Y248772D02*
X642473Y248772D01*
X711973Y245373D02*
X729127Y245373D01*
X711973Y245373D02*
X711973Y249927D01*
X729127Y249927D01*
X729127Y245373D01*
X729127Y248772D02*
X711973Y248772D01*
X711973Y258073D02*
X729127Y258073D01*
X711973Y258073D02*
X711973Y262627D01*
X729127Y262627D01*
X729127Y258073D01*
X729127Y261472D02*
X711973Y261472D01*
X711973Y270773D02*
X729127Y270773D01*
X711973Y270773D02*
X711973Y275327D01*
X729127Y275327D01*
X729127Y270773D01*
X729127Y274172D02*
X711973Y274172D01*
X711973Y283473D02*
X729127Y283473D01*
X711973Y283473D02*
X711973Y288027D01*
X729127Y288027D01*
X729127Y283473D01*
X729127Y286872D02*
X711973Y286872D01*
X711973Y296173D02*
X729127Y296173D01*
X711973Y296173D02*
X711973Y300727D01*
X729127Y300727D01*
X729127Y296173D01*
X729127Y299572D02*
X711973Y299572D01*
X711973Y308873D02*
X729127Y308873D01*
X711973Y308873D02*
X711973Y313427D01*
X729127Y313427D01*
X729127Y308873D01*
X729127Y312272D02*
X711973Y312272D01*
X711973Y321573D02*
X729127Y321573D01*
X711973Y321573D02*
X711973Y326127D01*
X729127Y326127D01*
X729127Y321573D01*
X729127Y324972D02*
X711973Y324972D01*
X711973Y334273D02*
X729127Y334273D01*
X711973Y334273D02*
X711973Y338827D01*
X729127Y338827D01*
X729127Y334273D01*
X729127Y337672D02*
X711973Y337672D01*
D12*
X720700Y88900D03*
X701700Y88900D03*
X720700Y63500D03*
X701700Y63500D03*
X720700Y38100D03*
X701700Y38100D03*
X720700Y12700D03*
X701700Y12700D03*
X720700Y190500D03*
X701700Y190500D03*
X720700Y165100D03*
X701700Y165100D03*
X720700Y139700D03*
X701700Y139700D03*
X720700Y114300D03*
X701700Y114300D03*
D13*
X570727Y131073D02*
X553573Y131073D01*
X553573Y135627D01*
X570727Y135627D01*
X570727Y131073D01*
X570727Y134472D02*
X553573Y134472D01*
X553573Y118373D02*
X570727Y118373D01*
X553573Y118373D02*
X553573Y122927D01*
X570727Y122927D01*
X570727Y118373D01*
X570727Y121772D02*
X553573Y121772D01*
X553573Y105673D02*
X570727Y105673D01*
X553573Y105673D02*
X553573Y110227D01*
X570727Y110227D01*
X570727Y105673D01*
X570727Y109072D02*
X553573Y109072D01*
X553573Y92973D02*
X570727Y92973D01*
X553573Y92973D02*
X553573Y97527D01*
X570727Y97527D01*
X570727Y92973D01*
X570727Y96372D02*
X553573Y96372D01*
X553573Y80273D02*
X570727Y80273D01*
X553573Y80273D02*
X553573Y84827D01*
X570727Y84827D01*
X570727Y80273D01*
X570727Y83672D02*
X553573Y83672D01*
X553573Y67573D02*
X570727Y67573D01*
X553573Y67573D02*
X553573Y72127D01*
X570727Y72127D01*
X570727Y67573D01*
X570727Y70972D02*
X553573Y70972D01*
X553573Y54873D02*
X570727Y54873D01*
X553573Y54873D02*
X553573Y59427D01*
X570727Y59427D01*
X570727Y54873D01*
X570727Y58272D02*
X553573Y58272D01*
X553573Y42173D02*
X570727Y42173D01*
X553573Y42173D02*
X553573Y46727D01*
X570727Y46727D01*
X570727Y42173D01*
X570727Y45572D02*
X553573Y45572D01*
X623073Y42173D02*
X640227Y42173D01*
X623073Y42173D02*
X623073Y46727D01*
X640227Y46727D01*
X640227Y42173D01*
X640227Y45572D02*
X623073Y45572D01*
X623073Y54873D02*
X640227Y54873D01*
X623073Y54873D02*
X623073Y59427D01*
X640227Y59427D01*
X640227Y54873D01*
X640227Y58272D02*
X623073Y58272D01*
X623073Y67573D02*
X640227Y67573D01*
X623073Y67573D02*
X623073Y72127D01*
X640227Y72127D01*
X640227Y67573D01*
X640227Y70972D02*
X623073Y70972D01*
X623073Y80273D02*
X640227Y80273D01*
X623073Y80273D02*
X623073Y84827D01*
X640227Y84827D01*
X640227Y80273D01*
X640227Y83672D02*
X623073Y83672D01*
X623073Y92973D02*
X640227Y92973D01*
X623073Y92973D02*
X623073Y97527D01*
X640227Y97527D01*
X640227Y92973D01*
X640227Y96372D02*
X623073Y96372D01*
X623073Y105673D02*
X640227Y105673D01*
X623073Y105673D02*
X623073Y110227D01*
X640227Y110227D01*
X640227Y105673D01*
X640227Y109072D02*
X623073Y109072D01*
X623073Y118373D02*
X640227Y118373D01*
X623073Y118373D02*
X623073Y122927D01*
X640227Y122927D01*
X640227Y118373D01*
X640227Y121772D02*
X623073Y121772D01*
X623073Y131073D02*
X640227Y131073D01*
X623073Y131073D02*
X623073Y135627D01*
X640227Y135627D01*
X640227Y131073D01*
X640227Y134472D02*
X623073Y134472D01*
D10*
X442300Y688950D03*
X442300Y708050D03*
X421300Y698500D03*
D12*
X492100Y698500D03*
X473100Y698500D03*
D10*
X442300Y650850D03*
X442300Y669950D03*
X421300Y660400D03*
X442300Y612750D03*
X442300Y631850D03*
X421300Y622300D03*
X328000Y574650D03*
X328000Y593750D03*
X307000Y584200D03*
X328000Y536550D03*
X328000Y555650D03*
X307000Y546100D03*
X328000Y498450D03*
X328000Y517550D03*
X307000Y508000D03*
X328000Y460350D03*
X328000Y479450D03*
X307000Y469900D03*
X328000Y422250D03*
X328000Y441350D03*
X307000Y431800D03*
D12*
X492100Y660400D03*
X473100Y660400D03*
X492100Y622300D03*
X473100Y622300D03*
X377800Y584200D03*
X358800Y584200D03*
X377800Y546100D03*
X358800Y546100D03*
X377800Y508000D03*
X358800Y508000D03*
X377800Y469900D03*
X358800Y469900D03*
X377800Y431800D03*
X358800Y431800D03*
D10*
X328000Y384150D03*
X328000Y403250D03*
X307000Y393700D03*
D12*
X377800Y393700D03*
X358800Y393700D03*
D10*
X328000Y346050D03*
X328000Y365150D03*
X307000Y355600D03*
X328000Y307950D03*
X328000Y327050D03*
X307000Y317500D03*
X328000Y269850D03*
X328000Y288950D03*
X307000Y279400D03*
X328000Y231750D03*
X328000Y250850D03*
X307000Y241300D03*
X442300Y180950D03*
X442300Y200050D03*
X421300Y190500D03*
X442300Y142850D03*
X442300Y161950D03*
X421300Y152400D03*
X442300Y104750D03*
X442300Y123850D03*
X421300Y114300D03*
D12*
X377800Y355600D03*
X358800Y355600D03*
X377800Y317500D03*
X358800Y317500D03*
X377800Y279400D03*
X358800Y279400D03*
X377800Y241300D03*
X358800Y241300D03*
X492100Y190500D03*
X473100Y190500D03*
X492100Y152400D03*
X473100Y152400D03*
X492100Y114300D03*
X473100Y114300D03*
D11*
X206350Y169840D03*
X225450Y169840D03*
X215900Y190840D03*
D12*
X225400Y148590D03*
X206400Y148590D03*
D11*
X153010Y169840D03*
X172110Y169840D03*
X162560Y190840D03*
D10*
X124800Y168250D03*
X124800Y187350D03*
X103800Y177800D03*
X124800Y130150D03*
X124800Y149250D03*
X103800Y139700D03*
X124800Y92050D03*
X124800Y111150D03*
X103800Y101600D03*
X124800Y53950D03*
X124800Y73050D03*
X103800Y63500D03*
X124800Y15850D03*
X124800Y34950D03*
X103800Y25400D03*
X231480Y19660D03*
X231480Y38760D03*
X210480Y29210D03*
D12*
X174600Y148590D03*
X155600Y148590D03*
X174600Y124460D03*
X155600Y124460D03*
X174600Y99060D03*
X155600Y99060D03*
X174600Y73660D03*
X155600Y73660D03*
X174600Y49530D03*
X155600Y49530D03*
X174600Y25400D03*
X155600Y25400D03*
X274930Y21590D03*
X255930Y21590D03*
D13*
X248773Y766073D02*
X265927Y766073D01*
X248773Y766073D02*
X248773Y770627D01*
X265927Y770627D01*
X265927Y766073D01*
X265927Y769472D02*
X248773Y769472D01*
X248773Y753373D02*
X265927Y753373D01*
X248773Y753373D02*
X248773Y757927D01*
X265927Y757927D01*
X265927Y753373D01*
X265927Y756772D02*
X248773Y756772D01*
X248773Y740673D02*
X265927Y740673D01*
X248773Y740673D02*
X248773Y745227D01*
X265927Y745227D01*
X265927Y740673D01*
X265927Y744072D02*
X248773Y744072D01*
X248773Y727973D02*
X265927Y727973D01*
X248773Y727973D02*
X248773Y732527D01*
X265927Y732527D01*
X265927Y727973D01*
X265927Y731372D02*
X248773Y731372D01*
X248773Y715273D02*
X265927Y715273D01*
X248773Y715273D02*
X248773Y719827D01*
X265927Y719827D01*
X265927Y715273D01*
X265927Y718672D02*
X248773Y718672D01*
X248773Y702573D02*
X265927Y702573D01*
X248773Y702573D02*
X248773Y707127D01*
X265927Y707127D01*
X265927Y702573D01*
X265927Y705972D02*
X248773Y705972D01*
X248773Y689873D02*
X265927Y689873D01*
X248773Y689873D02*
X248773Y694427D01*
X265927Y694427D01*
X265927Y689873D01*
X265927Y693272D02*
X248773Y693272D01*
X248773Y677173D02*
X265927Y677173D01*
X248773Y677173D02*
X248773Y681727D01*
X265927Y681727D01*
X265927Y677173D01*
X265927Y680572D02*
X248773Y680572D01*
X318273Y677173D02*
X335427Y677173D01*
X318273Y677173D02*
X318273Y681727D01*
X335427Y681727D01*
X335427Y677173D01*
X335427Y680572D02*
X318273Y680572D01*
X318273Y689873D02*
X335427Y689873D01*
X318273Y689873D02*
X318273Y694427D01*
X335427Y694427D01*
X335427Y689873D01*
X335427Y693272D02*
X318273Y693272D01*
X318273Y702573D02*
X335427Y702573D01*
X318273Y702573D02*
X318273Y707127D01*
X335427Y707127D01*
X335427Y702573D01*
X335427Y705972D02*
X318273Y705972D01*
X318273Y715273D02*
X335427Y715273D01*
X318273Y715273D02*
X318273Y719827D01*
X335427Y719827D01*
X335427Y715273D01*
X335427Y718672D02*
X318273Y718672D01*
X318273Y727973D02*
X335427Y727973D01*
X318273Y727973D02*
X318273Y732527D01*
X335427Y732527D01*
X335427Y727973D01*
X335427Y731372D02*
X318273Y731372D01*
X318273Y740673D02*
X335427Y740673D01*
X318273Y740673D02*
X318273Y745227D01*
X335427Y745227D01*
X335427Y740673D01*
X335427Y744072D02*
X318273Y744072D01*
X318273Y753373D02*
X335427Y753373D01*
X318273Y753373D02*
X318273Y757927D01*
X335427Y757927D01*
X335427Y753373D01*
X335427Y756772D02*
X318273Y756772D01*
X318273Y766073D02*
X335427Y766073D01*
X318273Y766073D02*
X318273Y770627D01*
X335427Y770627D01*
X335427Y766073D01*
X335427Y769472D02*
X318273Y769472D01*
X413873Y562873D02*
X431027Y562873D01*
X413873Y562873D02*
X413873Y567427D01*
X431027Y567427D01*
X431027Y562873D01*
X431027Y566272D02*
X413873Y566272D01*
X413873Y550173D02*
X431027Y550173D01*
X413873Y550173D02*
X413873Y554727D01*
X431027Y554727D01*
X431027Y550173D01*
X431027Y553572D02*
X413873Y553572D01*
X413873Y537473D02*
X431027Y537473D01*
X413873Y537473D02*
X413873Y542027D01*
X431027Y542027D01*
X431027Y537473D01*
X431027Y540872D02*
X413873Y540872D01*
X413873Y524773D02*
X431027Y524773D01*
X413873Y524773D02*
X413873Y529327D01*
X431027Y529327D01*
X431027Y524773D01*
X431027Y528172D02*
X413873Y528172D01*
X413873Y512073D02*
X431027Y512073D01*
X413873Y512073D02*
X413873Y516627D01*
X431027Y516627D01*
X431027Y512073D01*
X431027Y515472D02*
X413873Y515472D01*
X413873Y499373D02*
X431027Y499373D01*
X413873Y499373D02*
X413873Y503927D01*
X431027Y503927D01*
X431027Y499373D01*
X431027Y502772D02*
X413873Y502772D01*
X413873Y486673D02*
X431027Y486673D01*
X413873Y486673D02*
X413873Y491227D01*
X431027Y491227D01*
X431027Y486673D01*
X431027Y490072D02*
X413873Y490072D01*
X413873Y473973D02*
X431027Y473973D01*
X413873Y473973D02*
X413873Y478527D01*
X431027Y478527D01*
X431027Y473973D01*
X431027Y477372D02*
X413873Y477372D01*
X483373Y473973D02*
X500527Y473973D01*
X483373Y473973D02*
X483373Y478527D01*
X500527Y478527D01*
X500527Y473973D01*
X500527Y477372D02*
X483373Y477372D01*
X483373Y486673D02*
X500527Y486673D01*
X483373Y486673D02*
X483373Y491227D01*
X500527Y491227D01*
X500527Y486673D01*
X500527Y490072D02*
X483373Y490072D01*
X483373Y499373D02*
X500527Y499373D01*
X483373Y499373D02*
X483373Y503927D01*
X500527Y503927D01*
X500527Y499373D01*
X500527Y502772D02*
X483373Y502772D01*
X483373Y512073D02*
X500527Y512073D01*
X483373Y512073D02*
X483373Y516627D01*
X500527Y516627D01*
X500527Y512073D01*
X500527Y515472D02*
X483373Y515472D01*
X483373Y524773D02*
X500527Y524773D01*
X483373Y524773D02*
X483373Y529327D01*
X500527Y529327D01*
X500527Y524773D01*
X500527Y528172D02*
X483373Y528172D01*
X483373Y537473D02*
X500527Y537473D01*
X483373Y537473D02*
X483373Y542027D01*
X500527Y542027D01*
X500527Y537473D01*
X500527Y540872D02*
X483373Y540872D01*
X483373Y550173D02*
X500527Y550173D01*
X483373Y550173D02*
X483373Y554727D01*
X500527Y554727D01*
X500527Y550173D01*
X500527Y553572D02*
X483373Y553572D01*
X483373Y562873D02*
X500527Y562873D01*
X483373Y562873D02*
X483373Y567427D01*
X500527Y567427D01*
X500527Y562873D01*
X500527Y566272D02*
X483373Y566272D01*
X431027Y334273D02*
X413873Y334273D01*
X413873Y338827D01*
X431027Y338827D01*
X431027Y334273D01*
X431027Y337672D02*
X413873Y337672D01*
X413873Y321573D02*
X431027Y321573D01*
X413873Y321573D02*
X413873Y326127D01*
X431027Y326127D01*
X431027Y321573D01*
X431027Y324972D02*
X413873Y324972D01*
X413873Y308873D02*
X431027Y308873D01*
X413873Y308873D02*
X413873Y313427D01*
X431027Y313427D01*
X431027Y308873D01*
X431027Y312272D02*
X413873Y312272D01*
X413873Y296173D02*
X431027Y296173D01*
X413873Y296173D02*
X413873Y300727D01*
X431027Y300727D01*
X431027Y296173D01*
X431027Y299572D02*
X413873Y299572D01*
X413873Y283473D02*
X431027Y283473D01*
X413873Y283473D02*
X413873Y288027D01*
X431027Y288027D01*
X431027Y283473D01*
X431027Y286872D02*
X413873Y286872D01*
X413873Y270773D02*
X431027Y270773D01*
X413873Y270773D02*
X413873Y275327D01*
X431027Y275327D01*
X431027Y270773D01*
X431027Y274172D02*
X413873Y274172D01*
X413873Y258073D02*
X431027Y258073D01*
X413873Y258073D02*
X413873Y262627D01*
X431027Y262627D01*
X431027Y258073D01*
X431027Y261472D02*
X413873Y261472D01*
X413873Y245373D02*
X431027Y245373D01*
X413873Y245373D02*
X413873Y249927D01*
X431027Y249927D01*
X431027Y245373D01*
X431027Y248772D02*
X413873Y248772D01*
X483373Y245373D02*
X500527Y245373D01*
X483373Y245373D02*
X483373Y249927D01*
X500527Y249927D01*
X500527Y245373D01*
X500527Y248772D02*
X483373Y248772D01*
X483373Y258073D02*
X500527Y258073D01*
X483373Y258073D02*
X483373Y262627D01*
X500527Y262627D01*
X500527Y258073D01*
X500527Y261472D02*
X483373Y261472D01*
X483373Y270773D02*
X500527Y270773D01*
X483373Y270773D02*
X483373Y275327D01*
X500527Y275327D01*
X500527Y270773D01*
X500527Y274172D02*
X483373Y274172D01*
X483373Y283473D02*
X500527Y283473D01*
X483373Y283473D02*
X483373Y288027D01*
X500527Y288027D01*
X500527Y283473D01*
X500527Y286872D02*
X483373Y286872D01*
X483373Y296173D02*
X500527Y296173D01*
X483373Y296173D02*
X483373Y300727D01*
X500527Y300727D01*
X500527Y296173D01*
X500527Y299572D02*
X483373Y299572D01*
X483373Y308873D02*
X500527Y308873D01*
X483373Y308873D02*
X483373Y313427D01*
X500527Y313427D01*
X500527Y308873D01*
X500527Y312272D02*
X483373Y312272D01*
X483373Y321573D02*
X500527Y321573D01*
X483373Y321573D02*
X483373Y326127D01*
X500527Y326127D01*
X500527Y321573D01*
X500527Y324972D02*
X483373Y324972D01*
X483373Y334273D02*
X500527Y334273D01*
X483373Y334273D02*
X483373Y338827D01*
X500527Y338827D01*
X500527Y334273D01*
X500527Y337672D02*
X483373Y337672D01*
X265927Y131073D02*
X248773Y131073D01*
X248773Y135627D01*
X265927Y135627D01*
X265927Y131073D01*
X265927Y134472D02*
X248773Y134472D01*
X248773Y118373D02*
X265927Y118373D01*
X248773Y118373D02*
X248773Y122927D01*
X265927Y122927D01*
X265927Y118373D01*
X265927Y121772D02*
X248773Y121772D01*
X248773Y105673D02*
X265927Y105673D01*
X248773Y105673D02*
X248773Y110227D01*
X265927Y110227D01*
X265927Y105673D01*
X265927Y109072D02*
X248773Y109072D01*
X248773Y92973D02*
X265927Y92973D01*
X248773Y92973D02*
X248773Y97527D01*
X265927Y97527D01*
X265927Y92973D01*
X265927Y96372D02*
X248773Y96372D01*
X248773Y80273D02*
X265927Y80273D01*
X248773Y80273D02*
X248773Y84827D01*
X265927Y84827D01*
X265927Y80273D01*
X265927Y83672D02*
X248773Y83672D01*
X248773Y67573D02*
X265927Y67573D01*
X248773Y67573D02*
X248773Y72127D01*
X265927Y72127D01*
X265927Y67573D01*
X265927Y70972D02*
X248773Y70972D01*
X248773Y54873D02*
X265927Y54873D01*
X248773Y54873D02*
X248773Y59427D01*
X265927Y59427D01*
X265927Y54873D01*
X265927Y58272D02*
X248773Y58272D01*
X248773Y42173D02*
X265927Y42173D01*
X248773Y42173D02*
X248773Y46727D01*
X265927Y46727D01*
X265927Y42173D01*
X265927Y45572D02*
X248773Y45572D01*
X318273Y42173D02*
X335427Y42173D01*
X318273Y42173D02*
X318273Y46727D01*
X335427Y46727D01*
X335427Y42173D01*
X335427Y45572D02*
X318273Y45572D01*
X318273Y54873D02*
X335427Y54873D01*
X318273Y54873D02*
X318273Y59427D01*
X335427Y59427D01*
X335427Y54873D01*
X335427Y58272D02*
X318273Y58272D01*
X318273Y67573D02*
X335427Y67573D01*
X318273Y67573D02*
X318273Y72127D01*
X335427Y72127D01*
X335427Y67573D01*
X335427Y70972D02*
X318273Y70972D01*
X318273Y80273D02*
X335427Y80273D01*
X318273Y80273D02*
X318273Y84827D01*
X335427Y84827D01*
X335427Y80273D01*
X335427Y83672D02*
X318273Y83672D01*
X318273Y92973D02*
X335427Y92973D01*
X318273Y92973D02*
X318273Y97527D01*
X335427Y97527D01*
X335427Y92973D01*
X335427Y96372D02*
X318273Y96372D01*
X318273Y105673D02*
X335427Y105673D01*
X318273Y105673D02*
X318273Y110227D01*
X335427Y110227D01*
X335427Y105673D01*
X335427Y109072D02*
X318273Y109072D01*
X318273Y118373D02*
X335427Y118373D01*
X318273Y118373D02*
X318273Y122927D01*
X335427Y122927D01*
X335427Y118373D01*
X335427Y121772D02*
X318273Y121772D01*
X318273Y131073D02*
X335427Y131073D01*
X318273Y131073D02*
X318273Y135627D01*
X335427Y135627D01*
X335427Y131073D01*
X335427Y134472D02*
X318273Y134472D01*
D14*
X774700Y482600D03*
X774700Y457200D03*
X774700Y431800D03*
X774700Y330200D03*
X774700Y355600D03*
X774700Y381000D03*
X431800Y762000D03*
X457200Y762000D03*
X482600Y762000D03*
X431800Y50800D03*
X457200Y50800D03*
X482600Y50800D03*
X469900Y431800D03*
X444500Y431800D03*
D15*
X59690Y359000D03*
X59690Y403000D03*
D14*
X222250Y279400D03*
X222250Y254000D03*
X222250Y228600D03*
X222250Y596900D03*
X222250Y571500D03*
X222250Y546100D03*
X222250Y520700D03*
X222250Y419100D03*
X222250Y444500D03*
X222250Y469900D03*
X222250Y342900D03*
X222250Y368300D03*
X222250Y393700D03*
X749300Y800100D03*
X749300Y774700D03*
X749300Y749300D03*
X749300Y723900D03*
X749300Y698500D03*
X749300Y673100D03*
X749300Y647700D03*
X749300Y622300D03*
X546100Y596900D03*
X546100Y571500D03*
X546100Y546100D03*
X546100Y520700D03*
X546100Y495300D03*
X546100Y469900D03*
X546100Y444500D03*
X546100Y419100D03*
X546100Y393700D03*
X546100Y368300D03*
X546100Y342900D03*
X546100Y317500D03*
X546100Y292100D03*
X546100Y266700D03*
X546100Y241300D03*
X546100Y215900D03*
X749300Y190500D03*
X749300Y165100D03*
X749300Y139700D03*
X749300Y114300D03*
X749300Y88900D03*
X749300Y63500D03*
X749300Y38100D03*
X749300Y12700D03*
X63500Y800100D03*
X63500Y774700D03*
X63500Y749300D03*
X63500Y723900D03*
X63500Y698500D03*
X63500Y673100D03*
X63500Y647700D03*
X63500Y622300D03*
X266700Y596900D03*
X266700Y571500D03*
X266700Y546100D03*
X266700Y520700D03*
X266700Y495300D03*
X266700Y469900D03*
X266700Y444500D03*
X266700Y419100D03*
X266700Y393700D03*
X266700Y368300D03*
X266700Y342900D03*
X266700Y317500D03*
X266700Y292100D03*
X266700Y266700D03*
X266700Y241300D03*
X266700Y215900D03*
X63500Y190500D03*
X63500Y165100D03*
X63500Y139700D03*
X63500Y114300D03*
X63500Y88900D03*
X63500Y63500D03*
X63500Y38100D03*
X63500Y12700D03*
D16*
X538480Y44450D03*
X657860Y102870D03*
X308610Y95250D03*
X276860Y44450D03*
X422910Y228600D03*
X473710Y298450D03*
X247650Y666750D03*
X306070Y726440D03*
X431800Y457200D03*
X472440Y527050D03*
X647700Y457200D03*
X673100Y527050D03*
X558800Y660400D03*
X654050Y668020D03*
X647700Y228600D03*
X699770Y298450D03*
X245110Y158750D03*
X203200Y800100D03*
X138927Y788173D03*
X62230Y227330D03*
X36830Y303530D03*
X49530Y303530D03*
X62230Y303530D03*
X74930Y303530D03*
X36830Y290830D03*
X49530Y290830D03*
X36830Y278130D03*
X49530Y278130D03*
X36830Y252730D03*
X49530Y252730D03*
X49530Y240030D03*
X36830Y240030D03*
X36830Y227330D03*
X49530Y227330D03*
X74930Y227330D03*
X73660Y458470D03*
X182880Y240030D03*
X444500Y330200D03*
X149860Y252730D03*
X580390Y706120D03*
X681990Y671830D03*
X594360Y706120D03*
X673100Y698500D03*
X590550Y736600D03*
X681990Y723900D03*
X596900Y762000D03*
X673100Y749300D03*
X584200Y774700D03*
X681990Y774700D03*
X657860Y748030D03*
X698500Y266700D03*
X660400Y76200D03*
X698500Y495300D03*
X651510Y702310D03*
X753110Y439420D03*
X673100Y101600D03*
X685800Y279400D03*
X685800Y508000D03*
X651510Y716280D03*
X698500Y342900D03*
X685800Y317500D03*
X673100Y651510D03*
X690880Y539750D03*
X664210Y125730D03*
X698500Y241300D03*
X605790Y39370D03*
X673100Y38100D03*
X603250Y64770D03*
X673100Y63500D03*
X584200Y88900D03*
X673100Y88900D03*
X596900Y114300D03*
X673100Y114300D03*
X584200Y127000D03*
X673100Y139700D03*
X585470Y153670D03*
X673100Y165100D03*
X660400Y50800D03*
X300990Y764540D03*
X299720Y38100D03*
X279400Y764540D03*
X530860Y194310D03*
X510540Y273050D03*
X500380Y381000D03*
X537210Y638810D03*
X472440Y501650D03*
X294640Y64770D03*
X278130Y777240D03*
X462280Y477520D03*
X518160Y486410D03*
X519430Y257810D03*
X513080Y232410D03*
X518160Y566420D03*
X524510Y624840D03*
X469900Y546100D03*
X279400Y635000D03*
X461010Y207010D03*
X505460Y215900D03*
X472440Y215900D03*
X490220Y215900D03*
X360680Y95250D03*
X308610Y111760D03*
X111760Y514350D03*
X88900Y535940D03*
X132080Y514350D03*
X50800Y520700D03*
X63968Y494832D03*
X156210Y549910D03*
M02*
